<?xml version="1.0" encoding="iso-8859-1"?>
<!-- Generator: Adobe Illustrator 19.0.0, SVG Export Plug-In . SVG Version: 6.00 Build 0)  -->
<svg version="1.1" id="Capa_1" xmlns="http://www.w3.org/2000/svg" xmlns:xlink="http://www.w3.org/1999/xlink" x="0px" y="0px"
	 viewBox="0 0 512 512" style="enable-background:new 0 0 512 512;" xml:space="preserve">
<path style="fill:#DFE2EA;" d="M360.235,115.435l-11.71-1.476c-2.053-7.258-4.941-14.164-8.546-20.615l7.254-9.326
	c3.634-4.672,3.22-11.319-0.965-15.504l-18.606-18.606c-4.182-4.182-10.822-4.599-15.494-0.973l-9.349,7.256
	c-6.416-3.584-13.281-6.461-20.496-8.51l-1.465-11.726c-0.734-5.873-5.726-10.28-11.645-10.28H242.9
	c-5.914,0-10.903,4.4-11.643,10.268l-1.476,11.71c-7.253,2.051-14.155,4.937-20.602,8.539l-9.349-7.256
	c-4.672-3.626-11.312-3.209-15.494,0.973L165.73,68.515c-4.185,4.185-4.599,10.832-0.965,15.504l7.255,9.326
	c-3.605,6.451-6.494,13.357-8.546,20.615l-11.71,1.476c-5.867,0.74-10.268,5.73-10.268,11.644v26.313
	c0,5.919,4.407,10.911,10.281,11.645l11.726,1.465c2.05,7.215,4.926,14.08,8.51,20.496l-7.256,9.349
	c-3.626,4.672-3.209,11.312,0.973,15.494l18.606,18.606c4.185,4.185,10.832,4.599,15.504,0.965l9.327-7.254
	c6.451,3.605,13.357,6.493,20.615,8.546l1.476,11.71c0.74,5.867,5.73,10.268,11.643,10.268h26.313
	c5.919,0,10.911-4.408,11.645-10.28l1.465-11.726c7.219-2.051,14.089-4.929,20.508-8.517l9.326,7.254
	c4.672,3.634,11.319,3.22,15.504-0.965l18.606-18.606c4.182-4.182,4.598-10.822,0.973-15.494l-7.256-9.349
	c3.584-6.416,6.461-13.281,8.51-20.496l11.727-1.465c5.873-0.734,10.28-5.726,10.28-11.645v-26.313
	C370.503,121.164,366.103,116.174,360.235,115.435z M256,197.428c-31.619,0-57.252-25.633-57.252-57.252S224.381,82.925,256,82.925
	s57.252,25.633,57.252,57.252S287.619,197.428,256,197.428z"/>
<path style="fill:#C7CAD3;" d="M257.202,63.458c-43.452,0-78.676,35.224-78.676,78.676s35.224,78.676,78.676,78.676
	s78.676-35.224,78.676-78.676S300.654,63.458,257.202,63.458z M256,197.428c-31.619,0-57.252-25.633-57.252-57.252
	S224.381,82.925,256,82.925s57.252,25.633,57.252,57.252S287.619,197.428,256,197.428z"/>
<path style="fill:#FFDC64;" d="M494.547,473.238H17.453C7.814,473.238,0,465.424,0,455.785V187.664
	c0-9.639,7.814-17.453,17.453-17.453h477.094c9.639,0,17.453,7.814,17.453,17.453v268.122
	C512,465.424,504.186,473.238,494.547,473.238z"/>
<path style="fill:#FFC850;" d="M260.645,170.212c-3.891,7.589-6.1,16.183-6.1,25.297c0-9.115-2.209-17.708-6.1-25.297H17.453
	c-0.086,0-0.169,0.012-0.255,0.013v269.095c0,6.331,5.132,11.463,11.463,11.463h225.884h225.884c6.331,0,11.463-5.132,11.463-11.463
	V170.212H260.645z"/>
<path style="fill:#E9EBF2;" d="M254.545,436.875H43.123c-5.925,0-10.729-4.803-10.729-10.729V156.684
	c0-5.925,4.803-10.729,10.729-10.729h159.431c28.714,0,51.991,23.277,51.991,51.991V436.875z"/>
<path style="fill:#DFE2EA;" d="M254.545,436.875h211.422c5.925,0,10.729-4.803,10.729-10.729V156.684
	c0-5.925-4.803-10.729-10.729-10.729H306.536c-28.714,0-51.991,23.277-51.991,51.991L254.545,436.875L254.545,436.875z"/>
<path style="fill:#C7CAD3;" d="M398.037,400.141c-63.465,0-114.913-51.448-114.913-114.913V161.212c0-3.488,0.35-6.894,1.005-10.19
	c-17.497,8.37-29.584,26.235-29.584,46.925v238.93h211.422c5.925,0,10.729-4.803,10.729-10.729v-26.006H398.037z"/>
<path style="fill:#FF6B5C;" d="M270.039,486.324h-28.903c-14.972,0-27.109-12.137-27.109-27.109v-22.34h83.12v22.34
	C297.148,474.188,285.011,486.324,270.039,486.324z"/>
<g>
	<path style="fill:#C7CAD3;" d="M217.352,196.195H68.596c-4.369,0-7.911-3.542-7.911-7.911c0-4.37,3.542-7.911,7.911-7.911h148.756
		c4.369,0,7.911,3.542,7.911,7.911C225.264,192.654,221.722,196.195,217.352,196.195z"/>
	<path style="fill:#C7CAD3;" d="M217.352,354.586H68.596c-4.369,0-7.911-3.542-7.911-7.911s3.542-7.911,7.911-7.911h148.756
		c4.369,0,7.911,3.542,7.911,7.911S221.722,354.586,217.352,354.586z"/>
	<path style="fill:#C7CAD3;" d="M217.352,392.914H68.596c-4.369,0-7.911-3.542-7.911-7.911c0-4.37,3.542-7.911,7.911-7.911h148.756
		c4.369,0,7.911,3.542,7.911,7.911C225.264,389.373,221.722,392.914,217.352,392.914z"/>
	<path style="fill:#C7CAD3;" d="M139.669,316.258H68.596c-4.369,0-7.911-3.542-7.911-7.911c0-4.37,3.542-7.911,7.911-7.911h71.073
		c4.369,0,7.911,3.542,7.911,7.911C147.58,312.717,144.038,316.258,139.669,316.258z"/>
	<path style="fill:#C7CAD3;" d="M112.907,236.216H68.596c-4.369,0-7.911-3.542-7.911-7.911s3.542-7.911,7.911-7.911h44.311
		c4.369,0,7.911,3.542,7.911,7.911S117.276,236.216,112.907,236.216z"/>
	<path style="fill:#C7CAD3;" d="M94.054,276.237H68.596c-4.369,0-7.911-3.542-7.911-7.911s3.542-7.911,7.911-7.911h25.458
		c4.369,0,7.911,3.542,7.911,7.911S98.424,276.237,94.054,276.237z"/>
	<path style="fill:#C7CAD3;" d="M157.218,276.237h-35.097c-4.369,0-7.911-3.542-7.911-7.911s3.542-7.911,7.911-7.911h35.097
		c4.369,0,7.911,3.542,7.911,7.911S161.587,276.237,157.218,276.237z"/>
	<path style="fill:#C7CAD3;" d="M218.342,276.237h-30.58c-4.369,0-7.911-3.542-7.911-7.911s3.542-7.911,7.911-7.911h30.58
		c4.369,0,7.911,3.542,7.911,7.911S222.712,276.237,218.342,276.237z"/>
	<path style="fill:#C7CAD3;" d="M218.342,316.258h-45.546c-4.369,0-7.911-3.542-7.911-7.911c0-4.37,3.542-7.911,7.911-7.911h45.546
		c4.369,0,7.911,3.542,7.911,7.911C226.254,312.717,222.712,316.258,218.342,316.258z"/>
	<path style="fill:#C7CAD3;" d="M217.352,236.216h-70.34c-4.369,0-7.911-3.542-7.911-7.911s3.542-7.911,7.911-7.911h70.34
		c4.369,0,7.911,3.542,7.911,7.911S221.722,236.216,217.352,236.216z"/>
</g>
<circle style="fill:#53515E;" cx="295.28" cy="200.139" r="8.658"/>
<path style="fill:#00AAF0;" d="M386.288,208.053h-56.664c-4.369,0-7.911-3.542-7.911-7.911c0-4.37,3.542-7.911,7.911-7.911h56.664
	c4.369,0,7.911,3.542,7.911,7.911C394.2,204.511,390.658,208.053,386.288,208.053z"/>
<circle style="fill:#53515E;" cx="295.28" cy="236.509" r="8.658"/>
<path style="fill:#FF80BD;" d="M347.679,244.419h-18.054c-4.369,0-7.911-3.542-7.911-7.911s3.542-7.911,7.911-7.911h18.054
	c4.369,0,7.911,3.542,7.911,7.911S352.048,244.419,347.679,244.419z"/>
<circle style="fill:#53515E;" cx="295.28" cy="343.869" r="8.658"/>
<path style="fill:#FF80BD;" d="M357.956,351.782h-28.332c-4.369,0-7.911-3.542-7.911-7.911s3.542-7.911,7.911-7.911h28.332
	c4.369,0,7.911,3.542,7.911,7.911S362.325,351.782,357.956,351.782z"/>
<circle style="fill:#53515E;" cx="295.28" cy="379.369" r="8.658"/>
<path style="fill:#00AAF0;" d="M374.392,387.281h-44.768c-4.369,0-7.911-3.542-7.911-7.911s3.542-7.911,7.911-7.911h44.768
	c4.369,0,7.911,3.542,7.911,7.911S378.761,387.281,374.392,387.281z"/>
<g>
	<path style="fill:#6F4BEF;" d="M404.547,351.782h-15.808c-4.369,0-7.911-3.542-7.911-7.911s3.542-7.911,7.911-7.911h15.808
		c4.369,0,7.911,3.542,7.911,7.911S408.916,351.782,404.547,351.782z"/>
	<path style="fill:#6F4BEF;" d="M406.844,244.419h-29.737c-4.369,0-7.911-3.542-7.911-7.911s3.542-7.911,7.911-7.911h29.737
		c4.369,0,7.911,3.542,7.911,7.911S411.213,244.419,406.844,244.419z"/>
</g>
<circle style="fill:#53515E;" cx="295.28" cy="272.869" r="8.658"/>
<path style="fill:#00AAF0;" d="M374.033,280.782h-26.354c-4.369,0-7.911-3.542-7.911-7.911c0-4.37,3.542-7.911,7.911-7.911h26.354
	c4.369,0,7.911,3.542,7.911,7.911C381.944,277.241,378.402,280.782,374.033,280.782z"/>
<circle style="fill:#53515E;" cx="295.28" cy="307.509" r="8.658"/>
<path style="fill:#6F4BEF;" d="M422.568,315.417h-74.889c-4.369,0-7.911-3.542-7.911-7.911s3.542-7.911,7.911-7.911h74.889
	c4.369,0,7.911,3.542,7.911,7.911S426.937,315.417,422.568,315.417z"/>
<path style="fill:#FF80BD;" d="M447.903,280.782h-41.06c-4.369,0-7.911-3.542-7.911-7.911c0-4.37,3.542-7.911,7.911-7.911h41.06
	c4.369,0,7.911,3.542,7.911,7.911C455.815,277.241,452.273,280.782,447.903,280.782z"/>
<g>
</g>
<g>
</g>
<g>
</g>
<g>
</g>
<g>
</g>
<g>
</g>
<g>
</g>
<g>
</g>
<g>
</g>
<g>
</g>
<g>
</g>
<g>
</g>
<g>
</g>
<g>
</g>
<g>
</g>
</svg>
