<?xml version="1.0" encoding="iso-8859-1"?>
<!-- Generator: Adobe Illustrator 19.0.0, SVG Export Plug-In . SVG Version: 6.00 Build 0)  -->
<svg version="1.1" id="Capa_1" xmlns="http://www.w3.org/2000/svg" xmlns:xlink="http://www.w3.org/1999/xlink" x="0px" y="0px"
	 viewBox="0 0 512.001 512.001" style="enable-background:new 0 0 512.001 512.001;" xml:space="preserve">
<g>
	<path style="fill:#605F6D;" d="M364.378,92.088V31.912c0-15.064-12.212-27.277-27.276-27.277H27.276
		C12.212,4.635,0,16.847,0,31.912v60.176c0,15.064,12.212,27.276,27.276,27.276C12.212,119.364,0,131.576,0,146.641v60.176
		c0,15.064,12.212,27.276,27.276,27.276C12.212,234.093,0,246.305,0,261.369v60.176c0,15.064,12.212,27.276,27.276,27.276
		C12.212,348.822,0,361.034,0,376.098v60.176c0,15.064,12.212,27.277,27.276,27.277h309.825c15.064,0,27.276-12.212,27.276-27.277
		v-60.176c0-15.064-12.212-27.276-27.276-27.276c15.064,0,27.276-12.212,27.276-27.276V261.37c0-15.064-12.212-27.276-27.276-27.276
		c15.064,0,27.276-12.212,27.276-27.276v-60.176c0-15.064-12.212-27.277-27.276-27.277
		C352.166,119.364,364.378,107.152,364.378,92.088z"/>
	<path style="fill:#605F6D;" d="M337.102,233.622H27.276C12.212,233.622,0,221.41,0,206.346V146.17
		c0-15.064,12.212-27.276,27.276-27.276h309.825c15.064,0,27.276,12.212,27.276,27.276v60.176
		C364.378,221.41,352.166,233.622,337.102,233.622z"/>
</g>
<g>
	<path style="fill:#53515E;" d="M337.102,348.352H27.276C12.212,348.352,0,336.139,0,321.076V260.9
		c0-15.064,12.212-27.276,27.276-27.276h309.825c15.064,0,27.276,12.212,27.276,27.276v60.176
		C364.378,336.139,352.166,348.352,337.102,348.352z"/>
	<path style="fill:#53515E;" d="M337.102,118.893H27.276C12.212,118.893,0,106.681,0,91.617V31.44
		C0,16.376,12.212,4.164,27.276,4.164h309.825c15.064,0,27.276,12.212,27.276,27.276v60.176
		C364.378,106.681,352.166,118.893,337.102,118.893z"/>
</g>
<path style="fill:#3C3B44;" d="M337.102,4.164h-64.179c15.064,0,27.277,12.212,27.277,27.277v60.176
	c0,15.064-12.212,27.276-27.277,27.276h64.179c15.064,0,27.276-12.212,27.276-27.276V31.44
	C364.378,16.376,352.166,4.164,337.102,4.164z"/>
<path style="fill:#53515E;" d="M337.102,118.893h-64.179c15.064,0,27.277,12.212,27.277,27.277v60.176
	c0,15.064-12.212,27.276-27.277,27.276h64.179c15.064,0,27.276-12.212,27.276-27.276V146.17
	C364.378,131.105,352.166,118.893,337.102,118.893z"/>
<path style="fill:#605F6D;" d="M337.102,463.08H27.276C12.212,463.08,0,450.868,0,435.804v-60.176
	c0-15.064,12.212-27.276,27.276-27.276h309.825c15.064,0,27.276,12.212,27.276,27.276v60.176
	C364.378,450.868,352.166,463.08,337.102,463.08z"/>
<path style="fill:#3C3B44;" d="M337.102,233.622h-64.179c15.064,0,27.277,12.212,27.277,27.277v60.176
	c0,15.064-12.212,27.276-27.277,27.276h64.179c15.064,0,27.276-12.212,27.276-27.276v-60.176
	C364.378,245.834,352.166,233.622,337.102,233.622z"/>
<path style="fill:#53515E;" d="M337.102,348.352h-64.179c15.064,0,27.277,12.212,27.277,27.277v60.176
	c0,15.064-12.212,27.276-27.277,27.276h64.179c15.064,0,27.276-12.212,27.276-27.276v-60.176
	C364.378,360.563,352.166,348.352,337.102,348.352z"/>
<path style="fill:#00AAF0;" d="M153.55,69.964H42.715c-4.66,0-8.436-3.776-8.436-8.436s3.776-8.436,8.436-8.436H153.55
	c4.66,0,8.436,3.776,8.436,8.436S158.21,69.964,153.55,69.964z"/>
<circle style="fill:#FFDC64;" cx="320.27" cy="61.53" r="8.436"/>
<circle style="fill:#FF6B5C;" cx="284.59" cy="61.53" r="8.436"/>
<circle style="fill:#FFDC64;" cx="248.9" cy="61.53" r="8.436"/>
<path style="fill:#00AAF0;" d="M153.55,184.693H42.715c-4.66,0-8.436-3.776-8.436-8.436s3.776-8.436,8.436-8.436H153.55
	c4.66,0,8.436,3.776,8.436,8.436S158.21,184.693,153.55,184.693z"/>
<circle style="fill:#FFDC64;" cx="320.27" cy="176.26" r="8.436"/>
<circle style="fill:#86E56E;" cx="284.59" cy="176.26" r="8.436"/>
<circle style="fill:#FFDC64;" cx="248.9" cy="176.26" r="8.436"/>
<path style="fill:#00AAF0;" d="M153.55,299.422H42.715c-4.66,0-8.436-3.776-8.436-8.436s3.776-8.436,8.436-8.436H153.55
	c4.66,0,8.436,3.776,8.436,8.436S158.21,299.422,153.55,299.422z"/>
<circle style="fill:#FFDC64;" cx="320.27" cy="290.99" r="8.436"/>
<g>
	<circle style="fill:#86E56E;" cx="284.59" cy="290.99" r="8.436"/>
	<circle style="fill:#86E56E;" cx="248.9" cy="290.99" r="8.436"/>
</g>
<path style="fill:#00AAF0;" d="M153.55,414.151H42.715c-4.66,0-8.436-3.776-8.436-8.436s3.776-8.436,8.436-8.436H153.55
	c4.66,0,8.436,3.776,8.436,8.436S158.21,414.151,153.55,414.151z"/>
<circle style="fill:#FFDC64;" cx="320.27" cy="405.71" r="8.436"/>
<g>
	<circle style="fill:#FF6B5C;" cx="284.59" cy="405.71" r="8.436"/>
	<circle style="fill:#FF6B5C;" cx="248.9" cy="405.71" r="8.436"/>
</g>
<path style="fill:#3C3B44;" d="M364.378,206.345v-17.722H240.357c-22.48,0-40.704,18.224-40.704,40.704V463.08h137.449
	c15.064,0,27.277-12.212,27.277-27.277v-60.176c0-15.064-12.212-27.277-27.277-27.277c15.064,0,27.277-12.212,27.277-27.277v-60.176
	c0-15.064-12.212-27.277-27.277-27.277C352.166,233.622,364.378,221.41,364.378,206.345z"/>
<path style="fill:#FFDC64;" d="M475.522,507.836H253.234c-20.146,0-36.478-16.332-36.478-36.478V243.471
	c0-20.146,16.332-36.478,36.478-36.478h222.288c20.146,0,36.478,16.332,36.478,36.478v227.887
	C512,491.504,495.668,507.836,475.522,507.836z"/>
<path style="fill:#FFC850;" d="M475.522,206.993h-12.811v72.431c0,99.598-80.74,180.337-180.337,180.337h-65.617v11.596
	c0,20.146,16.332,36.478,36.478,36.478h222.288c20.146,0,36.478-16.332,36.478-36.478V243.471
	C512,223.325,495.668,206.993,475.522,206.993z"/>
<path style="fill:#FF6B5C;" d="M290.721,433.883h154.673c6.474,0,10.554-6.97,7.383-12.615l-78.119-139.06
	c-3.252-5.789-11.598-5.753-14.801,0.064l-76.554,139.06C280.196,426.975,284.279,433.883,290.721,433.883z"/>
<path style="fill:#FF5450;" d="M452.776,421.268l-78.119-139.06c-3.252-5.789-11.598-5.753-14.801,0.063L352.849,295l6.445,11.474
	c27.02,48.099-7.74,107.496-62.909,107.496h-9.03l-4.053,7.362c-3.107,5.643,0.976,12.551,7.418,12.551h154.673
	C451.868,433.883,455.947,426.912,452.776,421.268z"/>
<path style="fill:#FFFFFF;" d="M359.502,400.641c0-2.44,0.894-4.518,2.682-6.233s4.026-2.574,6.709-2.574
	c2.266,0,4.22,0.878,5.867,2.631c1.643,1.754,2.467,3.813,2.467,6.175c0,2.364-0.824,4.422-2.467,6.174
	c-1.647,1.755-3.601,2.631-5.867,2.631c-2.601,0-4.817-0.875-6.647-2.631C360.417,405.063,359.502,403.004,359.502,400.641z
	 M359.846,332.141c0-2.133,0.834-3.831,2.504-5.089c1.671-1.258,3.812-1.886,6.42-1.886c2.262,0,4.142,0.628,5.639,1.886
	s2.245,2.956,2.245,5.089c0,4.574-0.114,12.39-0.343,23.443c-0.228,11.055-0.343,18.832-0.343,23.328
	c0,1.602-0.767,2.841-2.296,3.717c-1.532,0.877-3.167,1.315-4.903,1.315c-4.884,0-7.324-1.676-7.324-5.032
	c0-4.497-0.268-12.274-0.801-23.328C360.111,344.531,359.846,336.715,359.846,332.141z"/>
<g>
</g>
<g>
</g>
<g>
</g>
<g>
</g>
<g>
</g>
<g>
</g>
<g>
</g>
<g>
</g>
<g>
</g>
<g>
</g>
<g>
</g>
<g>
</g>
<g>
</g>
<g>
</g>
<g>
</g>
</svg>
