<?xml version="1.0" encoding="iso-8859-1"?>
<!-- Generator: Adobe Illustrator 19.0.0, SVG Export Plug-In . SVG Version: 6.00 Build 0)  -->
<svg version="1.1" id="Capa_1" xmlns="http://www.w3.org/2000/svg" xmlns:xlink="http://www.w3.org/1999/xlink" x="0px" y="0px"
	 viewBox="0 0 512.001 512.001" style="enable-background:new 0 0 512.001 512.001;" xml:space="preserve">
<g>
	<path style="fill:#605F6D;" d="M364.378,92.089V31.913c0-15.064-12.212-27.277-27.276-27.277H27.276
		C12.212,4.636,0,16.848,0,31.913v60.176c0,15.064,12.212,27.276,27.276,27.276C12.212,119.365,0,131.577,0,146.642v60.176
		c0,15.064,12.212,27.276,27.276,27.276C12.212,234.094,0,246.306,0,261.37v60.176c0,15.064,12.212,27.276,27.276,27.276
		C12.212,348.823,0,361.035,0,376.099v60.176c0,15.064,12.212,27.277,27.276,27.277h309.825c15.064,0,27.276-12.212,27.276-27.277
		v-60.176c0-15.064-12.212-27.276-27.276-27.276c15.064,0,27.276-12.212,27.276-27.276v-60.176
		c0-15.064-12.212-27.276-27.276-27.276c15.064,0,27.276-12.212,27.276-27.276v-60.176c0-15.064-12.212-27.277-27.276-27.277
		C352.166,119.365,364.378,107.153,364.378,92.089z"/>
	<path style="fill:#605F6D;" d="M337.102,234.094H27.276C12.212,234.094,0,221.882,0,206.818v-60.176
		c0-15.064,12.212-27.276,27.276-27.276h309.825c15.064,0,27.276,12.212,27.276,27.276v60.176
		C364.378,221.882,352.166,234.094,337.102,234.094z"/>
</g>
<g>
	<path style="fill:#53515E;" d="M337.102,348.823H27.276C12.212,348.823,0,336.611,0,321.547v-60.176
		c0-15.064,12.212-27.276,27.276-27.276h309.825c15.064,0,27.276,12.212,27.276,27.276v60.176
		C364.378,336.611,352.166,348.823,337.102,348.823z"/>
	<path style="fill:#53515E;" d="M337.102,119.365H27.276C12.212,119.365,0,107.153,0,92.089V31.913
		C0,16.848,12.212,4.636,27.276,4.636h309.825c15.064,0,27.276,12.212,27.276,27.276v60.176
		C364.378,107.153,352.166,119.365,337.102,119.365z"/>
</g>
<path style="fill:#3C3B44;" d="M337.102,4.636h-64.179c15.064,0,27.277,12.212,27.277,27.277v60.176
	c0,15.064-12.212,27.276-27.277,27.276h64.179c15.064,0,27.276-12.212,27.276-27.276V31.912
	C364.378,16.848,352.166,4.636,337.102,4.636z"/>
<path style="fill:#53515E;" d="M337.102,119.365h-64.179c15.064,0,27.277,12.212,27.277,27.277v60.176
	c0,15.064-12.212,27.276-27.277,27.276h64.179c15.064,0,27.276-12.212,27.276-27.276v-60.177
	C364.378,131.577,352.166,119.365,337.102,119.365z"/>
<path style="fill:#605F6D;" d="M337.102,463.552H27.276C12.212,463.552,0,451.34,0,436.276V376.1
	c0-15.064,12.212-27.276,27.276-27.276h309.825c15.064,0,27.276,12.212,27.276,27.276v60.176
	C364.378,451.34,352.166,463.552,337.102,463.552z"/>
<path style="fill:#3C3B44;" d="M337.102,234.094h-64.179c15.064,0,27.277,12.212,27.277,27.277v60.176
	c0,15.064-12.212,27.276-27.277,27.276h64.179c15.064,0,27.276-12.212,27.276-27.276v-60.176
	C364.378,246.306,352.166,234.094,337.102,234.094z"/>
<path style="fill:#53515E;" d="M337.102,348.823h-64.179c15.064,0,27.277,12.212,27.277,27.277v60.176
	c0,15.064-12.212,27.276-27.277,27.276h64.179c15.064,0,27.276-12.212,27.276-27.276V376.1
	C364.378,361.035,352.166,348.823,337.102,348.823z"/>
<path style="fill:#00AAF0;" d="M153.55,70.436H42.715c-4.66,0-8.436-3.776-8.436-8.436s3.776-8.436,8.436-8.436H153.55
	c4.66,0,8.436,3.776,8.436,8.436C161.986,66.66,158.21,70.436,153.55,70.436z"/>
<circle style="fill:#FFDC64;" cx="320.27" cy="62.001" r="8.436"/>
<circle style="fill:#FF6B5C;" cx="284.59" cy="62.001" r="8.436"/>
<circle style="fill:#FFDC64;" cx="248.9" cy="62.001" r="8.436"/>
<path style="fill:#00AAF0;" d="M153.55,185.165H42.715c-4.66,0-8.436-3.776-8.436-8.436s3.776-8.436,8.436-8.436H153.55
	c4.66,0,8.436,3.776,8.436,8.436S158.21,185.165,153.55,185.165z"/>
<circle style="fill:#FFDC64;" cx="320.27" cy="176.731" r="8.436"/>
<circle style="fill:#86E56E;" cx="284.59" cy="176.731" r="8.436"/>
<circle style="fill:#FFDC64;" cx="248.9" cy="176.731" r="8.436"/>
<path style="fill:#00AAF0;" d="M153.55,299.894H42.715c-4.66,0-8.436-3.776-8.436-8.436s3.776-8.436,8.436-8.436H153.55
	c4.66,0,8.436,3.776,8.436,8.436S158.21,299.894,153.55,299.894z"/>
<circle style="fill:#FFDC64;" cx="320.27" cy="291.461" r="8.436"/>
<g>
	<circle style="fill:#86E56E;" cx="284.59" cy="291.461" r="8.436"/>
	<circle style="fill:#86E56E;" cx="248.9" cy="291.461" r="8.436"/>
</g>
<path style="fill:#00AAF0;" d="M153.55,414.623H42.715c-4.66,0-8.436-3.776-8.436-8.436s3.776-8.436,8.436-8.436H153.55
	c4.66,0,8.436,3.776,8.436,8.436S158.21,414.623,153.55,414.623z"/>
<circle style="fill:#FFDC64;" cx="320.27" cy="406.191" r="8.436"/>
<g>
	<circle style="fill:#FF6B5C;" cx="284.59" cy="406.191" r="8.436"/>
	<circle style="fill:#FF6B5C;" cx="248.9" cy="406.191" r="8.436"/>
</g>
<path style="fill:#3C3B44;" d="M364.378,206.817v-17.722H240.357c-22.48,0-40.704,18.224-40.704,40.704v233.753h137.449
	c15.064,0,27.277-12.212,27.277-27.277v-60.176c0-15.064-12.212-27.277-27.277-27.277c15.064,0,27.277-12.212,27.277-27.277v-60.174
	c0-15.064-12.212-27.277-27.277-27.277C352.166,234.094,364.378,221.882,364.378,206.817z"/>
<path style="fill:#FFDC64;" d="M475.522,507.366H253.234c-20.146,0-36.478-16.332-36.478-36.478V243.001
	c0-20.146,16.332-36.478,36.478-36.478h222.288c20.146,0,36.478,16.332,36.478,36.478v227.887
	C512,491.034,495.668,507.366,475.522,507.366z"/>
<path style="fill:#FFC850;" d="M475.522,206.523h-21.368v85.463c0,87.896-71.254,159.149-159.149,159.149h-78.248v19.753
	c0,20.146,16.332,36.478,36.478,36.478h222.288c20.146,0,36.478-16.332,36.478-36.478V243.001
	C512,222.855,495.668,206.523,475.522,206.523z"/>
<path style="fill:#86E56E;" d="M290.721,433.399h154.673c6.474,0,10.553-6.97,7.383-12.615l-78.119-139.06
	c-3.252-5.789-11.598-5.753-14.801,0.064l-76.554,139.06C280.197,426.491,284.279,433.399,290.721,433.399z"/>
<path style="fill:#5FCE6A;" d="M415.941,355.212l-29.448,29.449l-16.53-16.531c-3.295-3.293-8.636-3.293-11.931,0
	c-3.294,3.295-2.777,8.282,0.517,11.577l22.496,22.496c1.583,1.582,3.728,2.47,5.966,2.47s4.383-0.889,5.966-2.47l31.548-31.712
	L415.941,355.212z"/>
<path style="fill:#FFFFFF;" d="M378.901,396.591c-2.238,0-4.383-0.889-5.966-2.47l-22.496-22.496c-3.294-3.295-3.294-8.636,0-11.931
	c3.295-3.293,8.636-3.293,11.931,0l16.53,16.531l61.425-61.428c3.295-3.293,8.636-3.293,11.931,0c3.294,3.295,3.294,8.636,0,11.931
	l-67.391,67.392C383.284,395.702,381.139,396.591,378.901,396.591z"/>
<g>
</g>
<g>
</g>
<g>
</g>
<g>
</g>
<g>
</g>
<g>
</g>
<g>
</g>
<g>
</g>
<g>
</g>
<g>
</g>
<g>
</g>
<g>
</g>
<g>
</g>
<g>
</g>
<g>
</g>
</svg>
