<?xml version="1.0" encoding="iso-8859-1"?>
<!-- Generator: Adobe Illustrator 19.0.0, SVG Export Plug-In . SVG Version: 6.00 Build 0)  -->
<svg version="1.1" id="Capa_1" xmlns="http://www.w3.org/2000/svg" xmlns:xlink="http://www.w3.org/1999/xlink" x="0px" y="0px"
	 viewBox="0 0 512.004 512.004" style="enable-background:new 0 0 512.004 512.004;" xml:space="preserve">
<path style="fill:#DFE2EA;" d="M500.769,226.06l-37.007-3.35c-2.204-13.859-5.759-27.267-10.529-40.085l30.533-21.127
	c5.252-3.633,6.865-10.673,3.719-16.231l-17.386-30.719c-3.146-5.558-10.011-7.799-15.83-5.167l-33.88,15.323
	c-8.234-10.296-17.41-19.803-27.406-28.386l16.502-33.32c2.834-5.723,0.835-12.663-4.609-16.001l-30.09-18.453
	c-5.444-3.338-12.536-1.973-16.352,3.148L336.246,61.47c-14.871-6.142-30.598-10.629-46.956-13.23l-3.35-37.007
	c-0.573-6.36-5.905-11.231-12.291-11.231h-35.298c-6.386,0-11.718,4.871-12.294,11.231l-3.35,37.007
	c-13.859,2.204-27.267,5.759-40.085,10.529l-21.127-30.533c-3.633-5.251-10.673-6.864-16.231-3.719l-30.719,17.386
	c-5.558,3.146-7.799,10.011-5.167,15.83l15.324,33.88c-10.296,8.234-19.803,17.41-28.386,27.406l-33.321-16.502
	c-5.723-2.834-12.662-0.835-16.001,4.609l-18.453,30.09c-3.338,5.444-1.973,12.536,3.147,16.351l29.778,22.188
	c-6.142,14.872-10.629,30.598-13.23,46.956l-37.007,3.35C4.871,226.635,0,231.967,0,238.353v35.298
	c0,6.386,4.871,11.718,11.231,12.294l37.007,3.349c2.204,13.86,5.759,27.267,10.529,40.085l-30.533,21.127
	c-5.252,3.634-6.864,10.673-3.719,16.231l17.386,30.719c3.146,5.558,10.011,7.799,15.83,5.167l33.88-15.324
	c8.234,10.296,17.41,19.803,27.406,28.386l-16.502,33.32c-2.834,5.723-0.835,12.662,4.609,16.001l30.09,18.453
	c5.444,3.338,12.536,1.974,16.351-3.147l22.188-29.778c14.871,6.142,30.598,10.629,46.956,13.23l3.35,37.007
	c0.576,6.36,5.907,11.231,12.294,11.231h35.298c6.386,0,11.718-4.871,12.294-11.231l3.35-37.007
	c13.859-2.204,27.267-5.759,40.085-10.529l21.127,30.534c3.633,5.252,10.673,6.865,16.231,3.719l30.719-17.386
	c5.558-3.146,7.799-10.011,5.167-15.83l-15.324-33.88c10.296-8.234,19.803-17.41,28.386-27.406l33.321,16.502
	c5.723,2.834,12.662,0.836,16.001-4.608l18.453-30.09c3.338-5.444,1.973-12.536-3.147-16.351l-29.778-22.188
	c6.142-14.871,10.629-30.598,13.23-46.956l37.007-3.349c6.36-0.576,11.231-5.907,11.231-12.294v-35.298
	C512,231.967,507.129,226.635,500.769,226.06z M257.652,405.106c-82.347,0-149.104-66.756-149.104-149.104
	s66.756-149.104,149.104-149.104s149.104,66.756,149.104,149.104C406.755,338.35,340,405.106,257.652,405.106z"/>
<path style="fill:#C7CAD3;" d="M256,77.115c-98.796,0-178.886,80.09-178.886,178.887c0,98.796,80.09,178.887,178.886,178.887
	s178.886-80.091,178.886-178.887S354.796,77.115,256,77.115z M257.652,405.106c-82.347,0-149.104-66.756-149.104-149.104
	s66.756-149.104,149.104-149.104s149.104,66.756,149.104,149.104C406.755,338.35,340,405.106,257.652,405.106z"/>
<circle style="fill:#8AEEFF;" cx="257.69" cy="255.972" r="149.1"/>
<path d="M362.501,362.012l0.014-0.014L362.501,362.012z"/>
<path style="fill:#53DCFF;" d="M175.675,255.972h-67.086c0,41.487,16.949,79.011,44.294,106.04
	c10.461-10.34,22.449-19.136,35.588-26.038C180.37,312.858,175.675,285.412,175.675,255.972z"/>
<path style="fill:#8AEEFF;" d="M188.425,176.104c-13.176-6.889-25.287-15.765-35.781-26.109c-0.157,0.153-0.294,0.3-0.449,0.455
	c-26.982,26.982-43.606,64.347-43.606,105.521h67.086C175.675,226.588,180.353,199.193,188.425,176.104z"/>
<g>
	<path style="fill:#53DCFF;" d="M362.443,149.863l0.058,0.069c-10.461,10.341-22.449,19.136-35.588,26.038
		c8.101,23.117,12.797,50.562,12.797,80.002h67.086C406.796,214.453,389.825,176.897,362.443,149.863z"/>
	<path style="fill:#53DCFF;" d="M326.913,335.975c-14.558,41.542-40.118,69.101-69.221,69.101
		c40.861,0,77.876-16.442,104.808-43.063C352.04,351.672,340.052,342.876,326.913,335.975z"/>
</g>
<path style="fill:#8AEEFF;" d="M188.491,336.032c-13.122,6.907-25.095,15.704-35.542,26.044c26.927,26.584,63.916,43,104.744,43
	C228.603,405.075,203.053,377.542,188.491,336.032z"/>
<path d="M362.565,361.947c-0.017,0.017-0.033,0.034-0.05,0.051c0.017-0.017,0.034-0.033,0.051-0.049
	C362.566,361.949,362.566,361.948,362.565,361.947z"/>
<g>
	<path style="fill:#8AEEFF;" d="M339.71,255.972c0,29.416-4.688,56.84-12.777,79.945c-0.007,0.019-0.013,0.039-0.02,0.058
		c13.138,6.902,25.126,15.697,35.587,26.037c0.005-0.005,0.01-0.009,0.014-0.014c0.017-0.017,0.033-0.034,0.05-0.051
		c27.307-27.025,44.23-64.521,44.23-105.976L339.71,255.972L339.71,255.972z"/>
	<path style="fill:#8AEEFF;" d="M326.867,175.835c13.065-6.896,24.987-15.666,35.395-25.967
		c-26.842-26.5-63.685-42.892-104.361-42.995C286.886,107.005,312.336,134.467,326.867,175.835z"/>
</g>
<path style="fill:#53DCFF;" d="M257.518,106.869c-40.893,0-77.936,16.468-104.874,43.127c0.029,0.028,0.059,0.056,0.088,0.084
	c10.494,10.343,22.517,19.136,35.693,26.024c0.016-0.045,0.031-0.09,0.046-0.135c14.548-41.513,40.083-69.06,69.16-69.099
	C257.593,106.87,257.556,106.869,257.518,106.869z"/>
<path d="M257.692,318.949v0.002c0.022,0,0.043-0.001,0.065-0.001C257.736,318.95,257.714,318.949,257.692,318.949z"/>
<path d="M257.692,192.995c24.989,0,48.535-6.159,69.221-17.025c-0.016-0.045-0.031-0.09-0.046-0.135
	c-20.664,10.906-44.195,17.106-69.175,17.156L257.692,192.995L257.692,192.995z"/>
<path d="M257.692,106.869c-0.021,0-0.041,0.001-0.061,0.001c0.021,0,0.041,0.001,0.061,0.001V106.869z"/>
<path d="M257.901,106.873c-0.07,0-0.139-0.005-0.209-0.005v0.002C257.762,106.871,257.832,106.873,257.901,106.873z"/>
<path d="M257.692,318.949L257.692,318.949c-24.989,0-48.535,6.159-69.221,17.025c0.007,0.019,0.013,0.038,0.02,0.058
	c20.677-10.884,44.216-17.06,69.201-17.081V318.949z"/>
<path d="M257.692,192.995v-0.004c-0.051,0-0.101,0.002-0.152,0.002C257.591,192.993,257.642,192.995,257.692,192.995
	L257.692,192.995z"/>
<path style="fill:#53DCFF;" d="M257.692,192.995c-0.051,0-0.101-0.002-0.152-0.002s-0.101,0.002-0.152,0.002
	c-24.885,0-48.339-6.108-68.963-16.891c-8.072,23.089-12.75,50.484-12.75,79.868h82.018L257.692,192.995L257.692,192.995z"/>
<g>
	<path style="fill:#8AEEFF;" d="M257.692,255.972h82.018c0-29.441-4.696-56.886-12.797-80.002
		c-20.686,10.867-44.232,17.025-69.221,17.025V255.972z"/>
	<path style="fill:#8AEEFF;" d="M257.692,318.949v-62.977h-82.018c0,29.441,4.696,56.886,12.797,80.002
		C209.158,325.108,232.703,318.949,257.692,318.949L257.692,318.949z"/>
</g>
<path style="fill:#53DCFF;" d="M257.692,405.075v-86.124c-24.985,0.021-48.525,6.197-69.201,17.081
	C203.053,377.542,228.603,405.075,257.692,405.075z"/>
<path style="fill:#8AEEFF;" d="M257.692,318.951v86.124c29.103,0,54.663-27.558,69.221-69.101
	c-20.668-10.857-44.191-17.014-69.156-17.025C257.736,318.95,257.714,318.951,257.692,318.951z"/>
<g>
	<path style="fill:#53DCFF;" d="M257.692,255.972v62.977c0.022,0,0.043,0.001,0.065,0.001c24.965,0.011,48.488,6.167,69.156,17.025
		c0.007-0.019,0.013-0.039,0.02-0.058c8.089-23.105,12.777-50.529,12.777-79.945L257.692,255.972L257.692,255.972z"/>
	<path style="fill:#53DCFF;" d="M257.692,192.991c24.979-0.05,48.511-6.25,69.175-17.156c-14.531-41.368-39.981-68.83-68.966-68.961
		c-0.07,0-0.139-0.003-0.209-0.003V192.991z"/>
</g>
<path style="fill:#8AEEFF;" d="M257.631,106.87c-29.077,0.039-54.612,27.586-69.16,69.099c-0.016,0.045-0.031,0.09-0.046,0.135
	c20.624,10.783,44.078,16.891,68.963,16.891c0.051,0,0.101-0.002,0.152-0.002s0.101-0.002,0.152-0.002v-86.12
	C257.672,106.871,257.652,106.87,257.631,106.87z"/>
<g>
</g>
<g>
</g>
<g>
</g>
<g>
</g>
<g>
</g>
<g>
</g>
<g>
</g>
<g>
</g>
<g>
</g>
<g>
</g>
<g>
</g>
<g>
</g>
<g>
</g>
<g>
</g>
<g>
</g>
</svg>
