<?xml version="1.0" encoding="iso-8859-1"?>
<!-- Generator: Adobe Illustrator 19.0.0, SVG Export Plug-In . SVG Version: 6.00 Build 0)  -->
<svg version="1.1" id="Capa_1" xmlns="http://www.w3.org/2000/svg" xmlns:xlink="http://www.w3.org/1999/xlink" x="0px" y="0px"
	 viewBox="0 0 512 512" style="enable-background:new 0 0 512 512;" xml:space="preserve">
<path style="fill:#53515E;" d="M256.743,0C140.279,0,45.528,94.751,45.528,211.216v45.345c0,4.411,3.575,7.985,7.985,7.985
	s7.985-3.575,7.985-7.985v-45.345c0-107.658,87.587-195.245,195.245-195.245s195.245,87.587,195.245,195.245v45.345
	c0,4.411,3.575,7.985,7.985,7.985s7.985-3.575,7.985-7.985v-45.345C467.959,94.751,373.208,0,256.743,0z"/>
<path style="fill:#86E56E;" d="M63.205,303.414h5.618v-31.538c0-8.456-6.855-15.31-15.311-15.31s-15.311,6.854-15.311,15.31v35.414
	C45.671,303.352,54.175,303.414,63.205,303.414z"/>
<path style="fill:#FFDC64;" d="M48.626,398.083h39.695V290.711H48.626c-5.757,0-10.424,4.667-10.424,10.424v86.524
	C38.202,393.416,42.869,398.083,48.626,398.083z"/>
<rect x="68.824" y="290.71" style="fill:#FFC850;" width="19.498" height="107.37"/>
<path style="fill:#53515E;" d="M110.922,426.958h17.651c3.952,0,7.156-3.204,7.156-7.156v-150.81c0-3.952-3.204-7.156-7.156-7.156
	h-17.651c-13.7,0-24.807,11.106-24.807,24.807V402.15C86.115,415.851,97.221,426.958,110.922,426.958z"/>
<path style="fill:#3C3B44;" d="M128.573,261.837h-17.651c-0.564,0-1.122,0.026-1.677,0.063c3.526,0.444,6.255,3.447,6.255,7.093
	v150.809c0,3.646-2.729,6.649-6.255,7.093c0.555,0.037,1.113,0.063,1.677,0.063h17.651c3.952,0,7.156-3.204,7.156-7.156v-150.81
	C135.729,265.041,132.525,261.837,128.573,261.837z"/>
<path style="fill:#86E56E;" d="M448.795,297.6h-5.618v-31.538c0-8.456,6.855-15.31,15.311-15.31s15.311,6.854,15.311,15.31v35.414
	C466.329,297.537,457.825,297.6,448.795,297.6z"/>
<path style="fill:#E9EBF2;" d="M357.751,501.448h-60.675c-4.41,0-7.985-3.575-7.985-7.985c0-4.411,3.575-7.985,7.985-7.985h60.675
	c20.301,0,36.816-16.515,36.816-36.816v-31.974c0-4.411,3.575-7.985,7.985-7.985s7.985,3.575,7.985,7.985v31.974
	C410.538,477.768,386.858,501.448,357.751,501.448z"/>
<path style="fill:#53515E;" d="M282.532,512h-16.548c-10.238,0-18.537-8.299-18.537-18.537l0,0c0-10.238,8.299-18.537,18.537-18.537
	h16.548c10.238,0,18.537,8.299,18.537,18.537l0,0C301.069,503.701,292.769,512,282.532,512z"/>
<path style="fill:#FFDC64;" d="M463.374,392.269h-39.01V284.897h39.01c5.757,0,10.424,4.667,10.424,10.424v86.524
	C473.798,387.602,469.131,392.269,463.374,392.269z"/>
<rect x="424.36" y="284.9" style="fill:#FFC850;" width="18.878" height="107.37"/>
<path style="fill:#53515E;" d="M401.078,421.143h-17.651c-3.952,0-7.156-3.204-7.156-7.156v-150.81c0-3.952,3.204-7.156,7.156-7.156
	h17.651c13.7,0,24.807,11.106,24.807,24.807v115.507C425.885,410.037,414.779,421.143,401.078,421.143z"/>
<path style="fill:#3C3B44;" d="M395.081,413.988v-150.81c0-3.822,2.998-6.934,6.769-7.136c-0.257-0.008-0.513-0.02-0.772-0.02
	h-17.651c-3.952,0-7.156,3.204-7.156,7.156v150.809c0,3.952,3.204,7.155,7.156,7.155h17.651c0.259,0,0.515-0.012,0.771-0.02
	C398.079,420.922,395.081,417.809,395.081,413.988z"/>
<path style="fill:#86E56E;" d="M256.743,7.985c-80.395,0-149.879,46.685-182.841,114.421c2.773,0.41,5.611,0.623,8.498,0.623
	c17.923,0,33.931-8.197,44.481-21.047l-0.03-0.024c30.874-37.411,77.599-61.257,129.892-61.257
	c51.755,0,98.054,23.357,128.932,60.104l-0.003,0.003c10.525,13.523,26.956,22.221,45.42,22.221c2.886,0,5.721-0.212,8.493-0.623
	C406.623,54.67,337.138,7.985,256.743,7.985z"/>
<path style="fill:#5FCE6A;" d="M385.673,80.974l0.003-0.003c-30.878-36.748-77.178-60.104-128.932-60.104
	c-52.294,0-99.018,23.846-129.892,61.257l0.03,0.024c-10.11,12.315-25.24,20.335-42.259,20.983
	c-3.906,6.208-7.491,12.638-10.72,19.274c2.773,0.41,5.611,0.623,8.498,0.623c17.923,0,33.931-8.197,44.481-21.047l-0.03-0.024
	C157.726,64.546,204.451,40.7,256.744,40.7c51.755,0,98.054,23.357,128.932,60.104l-0.003,0.003
	c10.525,13.523,26.956,22.221,45.42,22.221c2.886,0,5.721-0.212,8.493-0.623c-3.23-6.637-6.815-13.068-10.721-19.277
	C411.313,102.459,395.771,93.948,385.673,80.974z"/>
<path style="fill:#DFE2EA;" d="M337.755,167.802l-9.109-1.148c-1.597-5.646-3.843-11.018-6.647-16.035l5.643-7.255
	c2.827-3.634,2.505-8.804-0.75-12.06l-14.473-14.473c-3.253-3.253-8.418-3.577-12.052-0.757l-7.272,5.644
	c-4.991-2.788-10.331-5.026-15.943-6.62l-1.14-9.121c-0.571-4.568-4.454-7.997-9.058-7.997h-20.468c-4.6,0-8.481,3.423-9.057,7.987
	l-1.148,9.109c-5.642,1.596-11.011,3.841-16.026,6.642l-7.272-5.644c-3.634-2.82-8.799-2.496-12.052,0.757l-14.473,14.473
	c-3.255,3.255-3.577,8.426-0.751,12.06l5.643,7.255c-2.804,5.018-5.051,10.39-6.648,16.035l-9.109,1.148
	c-4.564,0.575-7.987,4.457-7.987,9.057v20.468c0,4.604,3.428,8.487,7.997,9.058l9.121,1.14c1.594,5.612,3.832,10.952,6.62,15.943
	l-5.644,7.272c-2.82,3.634-2.496,8.799,0.757,12.052l14.473,14.473c3.256,3.255,8.426,3.577,12.059,0.75l7.255-5.643
	c5.018,2.804,10.389,5.051,16.035,6.648l1.148,9.109c0.576,4.564,4.457,7.987,9.057,7.987h20.468c4.604,0,8.487-3.429,9.058-7.997
	l1.14-9.121c5.616-1.595,10.959-3.834,15.952-6.625l7.254,5.643c3.634,2.827,8.804,2.505,12.06-0.75l14.473-14.473
	c3.253-3.253,3.577-8.418,0.757-12.052l-5.644-7.272c2.788-4.991,5.026-10.331,6.62-15.943l9.122-1.14
	c4.568-0.571,7.997-4.454,7.997-9.058V176.86C345.742,172.258,342.319,168.377,337.755,167.802z M256.675,231.581
	c-24.595,0-44.533-19.938-44.533-44.533s19.938-44.533,44.533-44.533s44.533,19.938,44.533,44.533S281.27,231.581,256.675,231.581z"
	/>
<path style="fill:#C7CAD3;" d="M257.61,127.372c-33.799,0-61.198,27.399-61.198,61.198s27.399,61.198,61.198,61.198
	s61.198-27.399,61.198-61.198S291.409,127.372,257.61,127.372z M256.675,231.581c-24.595,0-44.533-19.938-44.533-44.533
	s19.938-44.533,44.533-44.533s44.533,19.938,44.533,44.533S281.27,231.581,256.675,231.581z"/>
<g>
</g>
<g>
</g>
<g>
</g>
<g>
</g>
<g>
</g>
<g>
</g>
<g>
</g>
<g>
</g>
<g>
</g>
<g>
</g>
<g>
</g>
<g>
</g>
<g>
</g>
<g>
</g>
<g>
</g>
</svg>
