<?xml version="1.0" encoding="iso-8859-1"?>
<!-- Generator: Adobe Illustrator 19.0.0, SVG Export Plug-In . SVG Version: 6.00 Build 0)  -->
<svg version="1.1" id="Capa_1" xmlns="http://www.w3.org/2000/svg" xmlns:xlink="http://www.w3.org/1999/xlink" x="0px" y="0px"
	 viewBox="0 0 512 512" style="enable-background:new 0 0 512 512;" xml:space="preserve">
<path style="fill:#E9EBF2;" d="M485.436,408.855h-408.1c-14.671,0-26.564-11.893-26.564-26.564V55.075
	c0-14.671,11.893-26.564,26.564-26.564h408.1C500.107,28.51,512,40.404,512,55.075v327.217
	C512,396.962,500.107,408.855,485.436,408.855z"/>
<path style="fill:#DFE2EA;" d="M485.436,28.51h-0.928c0.386,1.802,0.593,3.67,0.593,5.587v327.217
	c0,14.671-11.893,26.564-26.564,26.564H51.365c2.567,11.988,13.217,20.977,25.971,20.977h408.1
	c14.671,0,26.564-11.893,26.564-26.564V55.074C512,40.404,500.107,28.51,485.436,28.51z"/>
<path style="fill:#B0B6C1;" d="M247.217,277.781h29.242c2.818,0,5.102,2.284,5.102,5.102v22.782c0,2.818-2.284,5.102-5.102,5.102
	h-14.701L247.217,277.781z"/>
<path style="fill:#6F4BEF;" d="M485.436,28.51h-408.1c-14.671,0-26.564,11.893-26.564,26.564v59.561h6.843H512V55.074
	C512,40.404,500.107,28.51,485.436,28.51z"/>
<path style="fill:#5E45D8;" d="M485.436,28.51h-0.928c0.386,1.802,0.593,3.67,0.593,5.587v80.538H512V55.074
	C512,40.404,500.107,28.51,485.436,28.51z"/>
<path style="fill:#DFE2EA;" d="M136.612,192.151c-31.758,0-61.277,9.574-85.84,25.985v164.155c0,14.671,11.893,26.564,26.564,26.564
	h201.076c8.307-18.977,12.926-39.937,12.926-61.978C291.338,261.424,222.065,192.151,136.612,192.151z"/>
<path style="fill:#9BA0A8;" d="M281.561,305.664v-13.009c-1.905-5.091-4.072-10.054-6.483-14.875h-27.861l14.541,32.986h14.701
	C279.277,310.766,281.561,308.482,281.561,305.664z"/>
<circle style="fill:#00AAF0;" cx="136.61" cy="346.88" r="136.61"/>
<circle style="fill:#E9EBF2;" cx="136.61" cy="346.88" r="106.44"/>
<g>
	<path style="fill:#B0B6C1;" d="M136.612,340.669c-4.345,0-7.867-3.522-7.867-7.867v-66.705c0-4.345,3.522-7.867,7.867-7.867
		c4.344,0,7.867,3.522,7.867,7.867v66.705C144.479,337.147,140.957,340.669,136.612,340.669z"/>
	<path style="fill:#B0B6C1;" d="M192.6,354.743h-44.188c-4.344,0-7.867-3.521-7.867-7.867c0-4.345,3.522-7.866,7.867-7.866H192.6
		c4.344,0,7.867,3.521,7.867,7.866C200.467,351.222,196.945,354.743,192.6,354.743z"/>
	<path style="fill:#B0B6C1;" d="M340.52,186.213h-22.782c-2.818,0-5.102-2.284-5.102-5.102v-22.782c0-2.818,2.284-5.102,5.102-5.102
		h22.782c2.818,0,5.102,2.284,5.102,5.102v22.782C345.622,183.929,343.338,186.213,340.52,186.213z"/>
	<path style="fill:#B0B6C1;" d="M404.895,186.213h-22.782c-2.818,0-5.102-2.284-5.102-5.102v-22.782
		c0-2.818,2.284-5.102,5.102-5.102h22.782c2.818,0,5.102,2.284,5.102,5.102v22.782C409.996,183.929,407.712,186.213,404.895,186.213
		z"/>
	<path style="fill:#B0B6C1;" d="M469.269,186.213h-22.782c-2.818,0-5.102-2.284-5.102-5.102v-22.782
		c0-2.818,2.284-5.102,5.102-5.102h22.782c2.818,0,5.102,2.284,5.102,5.102v22.782C474.371,183.929,472.086,186.213,469.269,186.213
		z"/>
	<path style="fill:#B0B6C1;" d="M340.52,248.49h-22.782c-2.818,0-5.102-2.284-5.102-5.102v-22.782c0-2.818,2.284-5.102,5.102-5.102
		h22.782c2.818,0,5.102,2.284,5.102,5.102v22.782C345.622,246.206,343.338,248.49,340.52,248.49z"/>
	<path style="fill:#B0B6C1;" d="M404.895,248.49h-22.782c-2.818,0-5.102-2.284-5.102-5.102v-22.782c0-2.818,2.284-5.102,5.102-5.102
		h22.782c2.818,0,5.102,2.284,5.102,5.102v22.782C409.996,246.206,407.712,248.49,404.895,248.49z"/>
	<path style="fill:#B0B6C1;" d="M469.269,248.49h-22.782c-2.818,0-5.102-2.284-5.102-5.102v-22.782c0-2.818,2.284-5.102,5.102-5.102
		h22.782c2.818,0,5.102,2.284,5.102,5.102v22.782C474.371,246.206,472.086,248.49,469.269,248.49z"/>
	<path style="fill:#B0B6C1;" d="M340.52,310.766h-22.782c-2.818,0-5.102-2.284-5.102-5.102v-22.782c0-2.818,2.284-5.102,5.102-5.102
		h22.782c2.818,0,5.102,2.284,5.102,5.102v22.782C345.622,308.482,343.338,310.766,340.52,310.766z"/>
	<path style="fill:#B0B6C1;" d="M404.895,310.766h-22.782c-2.818,0-5.102-2.284-5.102-5.102v-22.782
		c0-2.818,2.284-5.102,5.102-5.102h22.782c2.818,0,5.102,2.284,5.102,5.102v22.782C409.996,308.482,407.712,310.766,404.895,310.766
		z"/>
	<path style="fill:#B0B6C1;" d="M469.269,310.766h-22.782c-2.818,0-5.102-2.284-5.102-5.102v-22.782
		c0-2.818,2.284-5.102,5.102-5.102h22.782c2.818,0,5.102,2.284,5.102,5.102v22.782C474.371,308.482,472.086,310.766,469.269,310.766
		z"/>
	<path style="fill:#B0B6C1;" d="M340.52,373.043h-22.782c-2.818,0-5.102-2.284-5.102-5.102v-22.782c0-2.818,2.284-5.102,5.102-5.102
		h22.782c2.818,0,5.102,2.284,5.102,5.102v22.782C345.622,370.759,343.338,373.043,340.52,373.043z"/>
	<path style="fill:#B0B6C1;" d="M276.459,186.213h-22.782c-2.818,0-5.102-2.284-5.102-5.102v-22.782
		c0-2.818,2.284-5.102,5.102-5.102h22.782c2.818,0,5.102,2.284,5.102,5.102v22.782C281.561,183.929,279.277,186.213,276.459,186.213
		z"/>
	<path style="fill:#B0B6C1;" d="M213.178,186.213h-22.782c-2.818,0-5.102-2.284-5.102-5.102v-22.782
		c0-2.818,2.284-5.102,5.102-5.102h22.782c2.818,0,5.102,2.284,5.102,5.102v22.782C218.279,183.929,215.995,186.213,213.178,186.213
		z"/>
	<path style="fill:#B0B6C1;" d="M276.459,248.49h-22.782c-2.818,0-5.102-2.284-5.102-5.102v-22.782c0-2.818,2.284-5.102,5.102-5.102
		h22.782c2.818,0,5.102,2.284,5.102,5.102v22.782C281.561,246.206,279.277,248.49,276.459,248.49z"/>
	<path style="fill:#B0B6C1;" d="M404.895,373.043h-22.782c-2.818,0-5.102-2.284-5.102-5.102v-22.782
		c0-2.818,2.284-5.102,5.102-5.102h22.782c2.818,0,5.102,2.284,5.102,5.102v22.782C409.996,370.759,407.712,373.043,404.895,373.043
		z"/>
	<path style="fill:#B0B6C1;" d="M469.269,373.043h-22.782c-2.818,0-5.102-2.284-5.102-5.102v-22.782
		c0-2.818,2.284-5.102,5.102-5.102h22.782c2.818,0,5.102,2.284,5.102,5.102v22.782C474.371,370.759,472.086,373.043,469.269,373.043
		z"/>
</g>
<circle style="fill:#FF7B97;" cx="136.61" cy="346.88" r="16.718"/>
<g>
	<circle style="fill:#FFDC64;" cx="170.47" cy="73.06" r="9.451"/>
	<circle style="fill:#FFDC64;" cx="399.74" cy="73.06" r="9.451"/>
</g>
<g>
</g>
<g>
</g>
<g>
</g>
<g>
</g>
<g>
</g>
<g>
</g>
<g>
</g>
<g>
</g>
<g>
</g>
<g>
</g>
<g>
</g>
<g>
</g>
<g>
</g>
<g>
</g>
<g>
</g>
</svg>
