<?xml version="1.0" encoding="iso-8859-1"?>
<!-- Generator: Adobe Illustrator 19.0.0, SVG Export Plug-In . SVG Version: 6.00 Build 0)  -->
<svg version="1.1" id="Capa_1" xmlns="http://www.w3.org/2000/svg" xmlns:xlink="http://www.w3.org/1999/xlink" x="0px" y="0px"
	 viewBox="0 0 512 512" style="enable-background:new 0 0 512 512;" xml:space="preserve">
<path style="fill:#FFE1B3;" d="M344.063,352.267l-30.518-5.975c-13.704-2.683-23.396-12.911-23.396-24.689v-28.949h-68.298v28.949
	c0,11.778-9.692,22.005-23.396,24.689l-30.517,5.975c-25.015,4.898-42.705,23.566-42.705,45.064v32.797h261.536v-32.797
	C386.768,375.833,369.077,357.165,344.063,352.267z"/>
<rect x="179.84" y="201.49" style="fill:#B48765;" width="14.162" height="26.92"/>
<path style="fill:#53515E;" d="M329.799,265.082h-13.102v-56.107h13.102c6.231,0,11.283,5.052,11.283,11.283v33.541
	C341.083,260.03,336.031,265.082,329.799,265.082z"/>
<rect x="315.5" y="208.97" style="fill:#474756;" width="10.605" height="56.11"/>
<path style="fill:#53515E;" d="M179.838,208.975h13.102v56.107h-13.102c-6.231,0-11.283-5.052-11.283-11.283v-33.541
	C168.555,214.027,173.607,208.975,179.838,208.975z"/>
<rect x="183.85" y="208.97" style="fill:#474756;" width="10.904" height="56.11"/>
<path style="fill:#F0C891;" d="M254.819,331.475L254.819,331.475c13.136,0,25.313-4.096,35.33-11.076v-27.744h-68.298v28.949
	c0,0.12-0.007,0.238-0.009,0.357C231.389,327.985,242.695,331.475,254.819,331.475z"/>
<path style="fill:#FFE1B3;" d="M254.819,316.735L254.819,316.735c-34.174,0-61.878-27.704-61.878-61.878v-50.588
	c0-34.174,27.704-61.878,61.878-61.878l0,0c34.174,0,61.878,27.704,61.878,61.878v50.588
	C316.697,289.031,288.993,316.735,254.819,316.735z"/>
<path style="fill:#FAD7A5;" d="M266.226,143.444c15.699,11.223,25.933,29.601,25.933,50.371v50.588
	c0,34.174-27.704,61.878-61.878,61.878l0,0c-3.897,0-7.709-0.364-11.407-1.053c10.132,7.243,22.54,11.507,35.945,11.507l0,0
	c34.174,0,61.878-27.704,61.878-61.878v-50.588C316.697,173.992,294.951,148.798,266.226,143.444z"/>
<path style="fill:#AAE1FF;" d="M331.028,262.092h-4.266c-1.417,0-2.566,1.149-2.566,2.566v5.111h0.002
	c-0.004,0.078-0.012,0.154-0.012,0.233c0.042,8.986-7.95,16.328-16.936,16.328h-45.828c-2.457,0-4.651,1.796-4.884,4.242
	c-0.268,2.806,1.931,5.166,4.682,5.166h46.632c14.194,0,25.742-11.548,25.742-25.742c0-0.077-0.008-0.152-0.012-0.228h0.012v-5.111
	C333.594,263.241,332.445,262.092,331.028,262.092z"/>
<path style="fill:#B48765;" d="M190.468,162.439c-3.128,5.01-7.327,13.082-9.549,23.793c-1.928,9.289-1.682,17.254-1.08,22.742
	c7.528-1.858,13.404-4.518,17.474-6.705c1.607-0.863,9.547-5.208,17.829-13.232l0,0L190.468,162.439z"/>
<path style="fill:#966D50;" d="M333.666,197.456c-5.269-19.52-14.019-38.107-28.251-51.874
	c-4.613-4.462-21.949-21.231-47.606-22.557c0,0-26.773-1.383-49.891,18.289c-6.975,5.935-12.717,13.131-17.449,21.125
	c21.518,30.787,53.799,50.365,89.894,50.365c8.889,0,27.461-2.711,36.335-8.535"/>
<path style="fill:#846047;" d="M305.414,145.582c-4.613-4.462-21.949-21.231-47.606-22.557c0,0-7.594-0.392-18.186,2.213
	c18.143,5.001,30.263,16.723,34.006,20.343c14.232,13.767,22.982,32.354,28.251,51.874l-16.969,6.813
	c-5.154,3.382-13.579,5.713-21.478,7.074c5.528,0.96,11.179,1.461,16.929,1.461c8.889,0,27.461-2.711,36.335-8.535l16.969-6.813
	C328.396,177.936,319.647,159.349,305.414,145.582z"/>
<g>
	<circle style="fill:#53515E;" cx="230.28" cy="228.41" r="6.858"/>
	<circle style="fill:#53515E;" cx="276.92" cy="228.41" r="6.858"/>
</g>
<path style="fill:#FF9EA4;" d="M344.063,352.267l-30.518-5.975c-4.743-0.929-9.005-2.763-12.552-5.251
	c-12.03,10.505-27.768,16.87-44.993,16.87s-32.963-6.366-44.993-16.87c-3.547,2.488-7.808,4.322-12.552,5.251l-30.517,5.975
	c-25.014,4.898-42.705,23.566-42.705,45.064v32.797h261.536v-32.797C386.768,375.833,369.077,357.165,344.063,352.267z"/>
<g>
	<path style="fill:#FF7B97;" d="M142.295,363.908c-10.611,8.508-17.063,20.447-17.063,33.424v32.797h49.565v-30.304
		C174.797,381.103,160.543,365.712,142.295,363.908z"/>
	<path style="fill:#FF7B97;" d="M369.705,363.908c-18.247,1.804-32.501,17.195-32.501,35.917l0.052,30.304h49.513v-32.797
		C386.768,384.355,380.315,372.416,369.705,363.908z"/>
</g>
<path style="fill:#B28362;" d="M254.819,285.104c-6.292,0-12.584-2.396-17.374-7.185c-2.929-2.929-2.93-7.678-0.001-10.606
	c2.929-2.93,7.678-2.929,10.606-0.001c3.732,3.732,9.805,3.732,13.536,0c2.929-2.928,7.677-2.929,10.607,0.001
	c2.929,2.929,2.928,7.678,0,10.606C267.403,282.708,261.111,285.104,254.819,285.104z"/>
<path style="fill:#DFE2EA;" d="M500.769,226.057l-37.007-3.35c-2.204-13.859-5.758-27.267-10.529-40.085l30.533-21.127
	c5.251-3.633,6.865-10.673,3.719-16.231l-17.386-30.719c-3.146-5.558-10.011-7.799-15.83-5.167l-33.88,15.323
	c-8.234-10.296-17.41-19.803-27.406-28.386l16.502-33.32c2.834-5.723,0.836-12.662-4.608-16.001l-30.09-18.453
	c-5.444-3.338-12.536-1.973-16.351,3.147l-22.188,29.778c-14.872-6.142-30.598-10.629-46.956-13.23l-3.35-37.007
	C285.367,4.871,280.035,0,273.649,0h-35.298c-6.386,0-11.718,4.871-12.294,11.231l-3.35,37.007
	c-13.859,2.204-27.267,5.759-40.085,10.529l-21.127-30.534c-3.633-5.251-10.673-6.864-16.231-3.719L114.545,41.9
	c-5.558,3.146-7.799,10.011-5.167,15.829l15.324,33.88c-10.296,8.234-19.803,17.41-28.386,27.406l-33.32-16.502
	c-5.723-2.834-12.662-0.835-16.001,4.609l-18.453,30.09c-3.339,5.444-1.973,12.536,3.147,16.351l29.778,22.189
	c-6.141,14.871-10.629,30.598-13.23,46.956l-37.007,3.35C4.871,226.633,0,231.965,0,238.351v35.298
	c0,6.386,4.871,11.718,11.231,12.294l37.007,3.349c2.204,13.86,5.759,27.267,10.529,40.085l-30.533,21.127
	c-5.251,3.634-6.864,10.673-3.719,16.231l17.386,30.719c3.146,5.558,10.011,7.799,15.83,5.167l33.88-15.324
	c8.234,10.296,17.41,19.803,27.406,28.386l-16.502,33.32c-2.834,5.723-0.836,12.662,4.608,16.001l30.09,18.453
	c5.444,3.339,12.536,1.974,16.351-3.147l22.188-29.778c14.871,6.142,30.598,10.629,46.956,13.23l3.35,37.007
	c0.576,6.36,5.907,11.231,12.294,11.231h35.298c6.386,0,11.718-4.871,12.294-11.231l3.35-37.007
	c13.859-2.204,27.267-5.759,40.085-10.529l21.127,30.534c3.633,5.252,10.673,6.865,16.231,3.719l30.719-17.386
	c5.558-3.146,7.799-10.011,5.167-15.83l-15.324-33.88c10.296-8.234,19.803-17.41,28.386-27.406l33.32,16.502
	c5.723,2.834,12.662,0.835,16.001-4.609l18.453-30.09c3.339-5.444,1.973-12.536-3.148-16.351l-29.778-22.188
	c6.141-14.871,10.629-30.598,13.229-46.956l37.007-3.349c6.36-0.576,11.231-5.907,11.231-12.294v-35.298
	C512,231.965,507.129,226.633,500.769,226.057z M257.652,420.135c-90.649,0-164.135-73.486-164.135-164.135
	S167.003,91.865,257.652,91.865S421.787,165.351,421.787,256S348.301,420.135,257.652,420.135z"/>
<path style="fill:#C7CAD3;" d="M256,66.011C151.072,66.011,66.012,151.072,66.012,256S151.072,445.988,256,445.988
	S445.988,360.928,445.988,256S360.928,66.011,256,66.011z M257.652,420.135c-90.649,0-164.135-73.486-164.135-164.135
	S167.003,91.865,257.652,91.865S421.787,165.351,421.787,256S348.301,420.135,257.652,420.135z"/>
<g>
</g>
<g>
</g>
<g>
</g>
<g>
</g>
<g>
</g>
<g>
</g>
<g>
</g>
<g>
</g>
<g>
</g>
<g>
</g>
<g>
</g>
<g>
</g>
<g>
</g>
<g>
</g>
<g>
</g>
</svg>
