<?xml version="1.0" encoding="iso-8859-1"?>
<!-- Generator: Adobe Illustrator 19.0.0, SVG Export Plug-In . SVG Version: 6.00 Build 0)  -->
<svg version="1.1" id="Capa_1" xmlns="http://www.w3.org/2000/svg" xmlns:xlink="http://www.w3.org/1999/xlink" x="0px" y="0px"
	 viewBox="0 0 512 512" style="enable-background:new 0 0 512 512;" xml:space="preserve">
<path style="fill:#E9EBF2;" d="M425.847,422.701H30.781C13.781,422.701,0,408.92,0,391.92V78.171c0-17,13.781-30.781,30.781-30.781
	h395.066c17,0,30.781,13.781,30.781,30.781V391.92C456.628,408.919,442.847,422.701,425.847,422.701z"/>
<path style="fill:#00AAF0;" d="M456.628,121.41V78.171c0-17-13.781-30.781-30.781-30.781H30.781C13.781,47.39,0,61.171,0,78.171
	v43.239h454.543C454.543,121.41,456.628,121.41,456.628,121.41z"/>
<path style="fill:#0076CE;" d="M288.781,93.027H153.252c-4.477,0-8.106-3.629-8.106-8.106s3.629-8.106,8.106-8.106h135.529
	c4.477,0,8.106,3.629,8.106,8.106S293.258,93.027,288.781,93.027z"/>
<circle style="fill:#53515E;" cx="40.659" cy="84.92" r="9.739"/>
<circle style="fill:#FFDC64;" cx="78.19" cy="84.92" r="9.739"/>
<circle style="fill:#86E56E;" cx="113.64" cy="84.92" r="9.739"/>
<circle style="fill:#53515E;" cx="417.01" cy="84.92" r="9.739"/>
<path style="fill:#C7CAD3;" d="M182.212,335.06l-14.176-1.787c-2.485-8.786-5.981-17.146-10.346-24.955l8.782-11.29
	c4.4-5.655,3.899-13.702-1.168-18.768l-22.524-22.524c-5.062-5.062-13.1-5.567-18.756-1.178l-11.317,8.783
	c-7.767-4.339-16.078-7.822-24.811-10.302l-1.774-14.195c-0.888-7.109-6.932-12.445-14.097-12.445H40.173
	c-7.159,0-13.2,5.327-14.095,12.43l-1.787,14.176C15.751,255.42,7.62,258.797,0,262.991v61.246
	c12.603-17.288,32.998-28.531,56.029-28.531c38.277,0,69.306,31.029,69.306,69.306c0,24.069-12.274,45.264-30.898,57.689h64.046
	l-0.784-1.01c4.339-7.767,7.821-16.078,10.302-24.811l14.195-1.774c7.109-0.888,12.445-6.932,12.445-14.097v-31.853
	C194.642,341.996,189.315,335.956,182.212,335.06z"/>
<path style="fill:#B0B6C1;" d="M94.437,422.701h30.643c13.124-15.932,21.007-36.343,21.007-58.596
	c0-50.934-41.291-92.225-92.225-92.225c-20.112,0-38.705,6.457-53.862,17.385v34.972c12.603-17.288,32.998-28.531,56.029-28.531
	c38.277,0,69.306,31.029,69.306,69.306C125.335,389.08,113.062,410.276,94.437,422.701z"/>
<path style="fill:#DFE2EA;" d="M246.839,153.18c-22.353,0-40.473,18.121-40.473,40.474v229.047h219.481
	c17,0,30.781-13.781,30.781-30.781V153.18H246.839z"/>
<path style="fill:#86E56E;" d="M476.95,464.61H263.364c-19.358,0-35.05-15.692-35.05-35.05V210.594
	c0-19.358,15.692-35.05,35.05-35.05H476.95c19.358,0,35.05,15.692,35.05,35.05V429.56C512,448.918,496.308,464.61,476.95,464.61z"/>
<path style="fill:#5FCE6A;" d="M476.95,175.544h-20.532v82.117c0,84.455-68.464,152.919-152.919,152.919h-75.185v18.979
	c0,19.358,15.692,35.05,35.05,35.05H476.95c19.358,0,35.05-15.692,35.05-35.05V210.594C512,191.237,496.308,175.544,476.95,175.544z
	"/>
<path style="fill:#53515E;" d="M410.87,368.947c-2.074,0-4.149-0.792-5.732-2.374l-24.113-24.113c-3.165-3.166-3.165-8.298,0-11.464
	c3.166-3.164,8.298-3.164,11.464,0l24.113,24.113c3.165,3.166,3.165,8.298,0,11.464C415.019,368.156,412.944,368.947,410.87,368.947
	z"/>
<circle style="fill:#FFFFFF;" cx="339.74" cy="289.71" r="66.65"/>
<circle style="fill:#00AAF0;" cx="339.74" cy="289.71" r="47.13"/>
<path style="fill:#FFDC64;" d="M474.289,410.536l-13.725,13.725c-2.361,2.361-6.189,2.361-8.551,0l-41.144-41.144
	c-6.151-6.151-6.151-16.124,0-22.276l0,0c6.151-6.151,16.124-6.151,22.276,0l41.144,41.144
	C476.651,404.347,476.651,408.175,474.289,410.536z"/>
<g>
</g>
<g>
</g>
<g>
</g>
<g>
</g>
<g>
</g>
<g>
</g>
<g>
</g>
<g>
</g>
<g>
</g>
<g>
</g>
<g>
</g>
<g>
</g>
<g>
</g>
<g>
</g>
<g>
</g>
</svg>
