<?xml version="1.0" encoding="iso-8859-1"?>
<!-- Generator: Adobe Illustrator 19.0.0, SVG Export Plug-In . SVG Version: 6.00 Build 0)  -->
<svg version="1.1" id="Capa_1" xmlns="http://www.w3.org/2000/svg" xmlns:xlink="http://www.w3.org/1999/xlink" x="0px" y="0px"
	 viewBox="0 0 512 512" style="enable-background:new 0 0 512 512;" xml:space="preserve">
<path style="fill:#E9EBF2;" d="M256,13.605c-133.436,0-241.607,108.171-241.607,241.607S122.564,496.819,256,496.819
	s241.607-108.171,241.607-241.607S389.436,13.605,256,13.605z M256,408.065c-84.418,0-152.853-68.435-152.853-152.853
	S171.582,102.359,256,102.359s152.853,68.434,152.853,152.853S340.418,408.065,256,408.065z"/>
<g>
	<path style="fill:#DFE2EA;" d="M256,73.723c-84.418,0-152.853,68.434-152.853,152.853c0,4.829,0.235,9.603,0.673,14.318
		c7.22-77.703,72.591-138.535,152.18-138.535s144.96,60.832,152.18,138.535c0.438-4.715,0.673-9.489,0.673-14.318
		C408.853,142.157,340.418,73.723,256,73.723z"/>
	<path style="fill:#DFE2EA;" d="M256,468.183c-128.628,0-233.762-100.52-241.174-227.289c-0.277,4.739-0.434,9.51-0.434,14.318
		c0,133.436,108.171,241.607,241.607,241.607s241.607-108.171,241.607-241.607c0-4.808-0.157-9.579-0.434-14.318
		C489.762,367.663,384.628,468.183,256,468.183z"/>
</g>
<g>
	<path style="fill:#FFDC64;" d="M281.782,121.364h-51.564c-10.391,0-18.814-8.423-18.814-18.814V18.814
		C211.404,8.423,219.828,0,230.218,0h51.564c10.391,0,18.814,8.423,18.814,18.814v83.736
		C300.596,112.94,292.172,121.364,281.782,121.364z"/>
	<path style="fill:#FFDC64;" d="M281.782,512h-51.564c-10.391,0-18.814-8.423-18.814-18.814V409.45
		c0-10.391,8.423-18.814,18.814-18.814h51.564c10.391,0,18.814,8.423,18.814,18.814v83.736C300.596,503.577,292.172,512,281.782,512
		z"/>
	<path style="fill:#FFDC64;" d="M390.636,281.782v-51.564c0-10.391,8.423-18.814,18.814-18.814h83.736
		c10.391,0,18.814,8.423,18.814,18.814v51.564c0,10.391-8.423,18.814-18.814,18.814H409.45
		C399.06,300.596,390.636,292.172,390.636,281.782z"/>
	<path style="fill:#FFDC64;" d="M0,281.782v-51.564c0-10.391,8.423-18.814,18.814-18.814h83.736
		c10.391,0,18.814,8.423,18.814,18.814v51.564c0,10.391-8.423,18.814-18.814,18.814H18.814C8.423,300.596,0,292.172,0,281.782z"/>
</g>
<g>
	<path style="fill:#FFC850;" d="M281.782,91.655h-51.564c-10.39,0-18.814-8.423-18.814-18.814v29.709
		c0,10.391,8.423,18.814,18.814,18.814h51.564c10.39,0,18.814-8.423,18.814-18.814V72.841
		C300.596,83.231,292.172,91.655,281.782,91.655z"/>
	<path style="fill:#FFC850;" d="M281.782,482.291h-51.564c-10.39,0-18.814-8.423-18.814-18.814v29.709
		c0,10.391,8.423,18.814,18.814,18.814h51.564c10.39,0,18.814-8.423,18.814-18.814v-29.709
		C300.596,473.868,292.172,482.291,281.782,482.291z"/>
	<path style="fill:#FFC850;" d="M493.186,270.887H409.45c-10.39,0-18.814-8.423-18.814-18.814v29.709
		c0,10.391,8.423,18.814,18.814,18.814h83.736c10.39,0,18.814-8.423,18.814-18.814v-29.709
		C512,262.463,503.577,270.887,493.186,270.887z"/>
	<path style="fill:#FFC850;" d="M102.55,270.887H18.814C8.423,270.887,0,262.463,0,252.073v29.709
		c0,10.391,8.423,18.814,18.814,18.814h83.736c10.39,0,18.814-8.423,18.814-18.814v-29.709
		C121.364,262.463,112.94,270.887,102.55,270.887z"/>
</g>
<g>
</g>
<g>
</g>
<g>
</g>
<g>
</g>
<g>
</g>
<g>
</g>
<g>
</g>
<g>
</g>
<g>
</g>
<g>
</g>
<g>
</g>
<g>
</g>
<g>
</g>
<g>
</g>
<g>
</g>
</svg>
