<?xml version="1.0" encoding="iso-8859-1"?>
<!-- Generator: Adobe Illustrator 19.0.0, SVG Export Plug-In . SVG Version: 6.00 Build 0)  -->
<svg version="1.1" id="Capa_1" xmlns="http://www.w3.org/2000/svg" xmlns:xlink="http://www.w3.org/1999/xlink" x="0px" y="0px"
	 viewBox="0 0 512.001 512.001" style="enable-background:new 0 0 512.001 512.001;" xml:space="preserve">
<path style="fill:#53515E;" d="M436.327,413.168H31.539C14.12,413.168,0,399.048,0,381.63V60.16
	c0-17.418,14.12-31.539,31.539-31.539h404.788c17.418,0,31.539,14.12,31.539,31.539v321.47
	C467.866,399.048,453.745,413.168,436.327,413.168z"/>
<path style="fill:#474756;" d="M332.99,335.224c-4.123,0-7.465-3.342-7.465-7.465V100.263c0-4.123,3.342-7.465,7.465-7.465
	s7.465,3.342,7.465,7.465v227.496C340.455,331.882,337.113,335.224,332.99,335.224z"/>
<path style="fill:#6F4BEF;" d="M436.327,28.621H31.539C14.12,28.621,0,42.741,0,60.16v44.303h465.729h2.136V60.16
	C467.866,42.741,453.745,28.621,436.327,28.621z"/>
<path style="fill:#4628B2;" d="M295.888,74.541H157.024c-4.123,0-7.465-3.342-7.465-7.465c0-4.123,3.342-7.465,7.465-7.465h138.864
	c4.123,0,7.465,3.342,7.465,7.465C303.353,71.199,300.011,74.541,295.888,74.541z"/>
<circle style="fill:#FFDC64;" cx="41.659" cy="67.08" r="9.978"/>
<circle style="fill:#86E56E;" cx="80.11" cy="67.08" r="9.978"/>
<circle style="fill:#FFDC64;" cx="116.43" cy="67.08" r="9.978"/>
<circle style="fill:#FF80BD;" cx="427.27" cy="67.08" r="9.978"/>
<path style="fill:#3C3B44;" d="M270.795,187.284c-27.174,0-49.203,22.029-49.203,49.203v176.681h214.735
	c17.418,0,31.539-14.12,31.539-31.539V187.284H270.795z"/>
<circle style="fill:#AAA8C1;" cx="45.504" cy="143.84" r="7.465"/>
<path style="fill:#00AAF0;" d="M172.862,151.304h-97.75c-4.123,0-7.465-3.342-7.465-7.465s3.342-7.465,7.465-7.465h97.75
	c4.123,0,7.465,3.342,7.465,7.465S176.986,151.304,172.862,151.304z"/>
<g>
	<path style="fill:#3C3B44;" d="M437.253,143.839H363.76c-4.123,0-7.465-3.342-7.465-7.465s3.342-7.465,7.465-7.465h73.493
		c4.123,0,7.465,3.342,7.465,7.465C444.718,140.497,441.376,143.839,437.253,143.839z"/>
	<path style="fill:#3C3B44;" d="M437.253,175.939H363.76c-4.123,0-7.465-3.342-7.465-7.465s3.342-7.465,7.465-7.465h73.493
		c4.123,0,7.465,3.342,7.465,7.465S441.376,175.939,437.253,175.939z"/>
</g>
<circle style="fill:#AAA8C1;" cx="45.504" cy="175.19" r="7.465"/>
<path style="fill:#00AAF0;" d="M126.411,182.658H75.112c-4.123,0-7.465-3.342-7.465-7.465s3.342-7.465,7.465-7.465h51.299
	c4.123,0,7.465,3.342,7.465,7.465C133.876,179.315,130.534,182.658,126.411,182.658z"/>
<circle style="fill:#AAA8C1;" cx="45.504" cy="267.76" r="7.465"/>
<path style="fill:#86E56E;" d="M152.34,275.224H75.112c-4.123,0-7.465-3.342-7.465-7.465s3.342-7.465,7.465-7.465h77.228
	c4.123,0,7.465,3.342,7.465,7.465S156.464,275.224,152.34,275.224z"/>
<circle style="fill:#AAA8C1;" cx="45.504" cy="298.37" r="7.465"/>
<g>
	<path style="fill:#00AAF0;" d="M152.34,305.831H75.112c-4.123,0-7.465-3.342-7.465-7.465s3.342-7.465,7.465-7.465h77.228
		c4.123,0,7.465,3.342,7.465,7.465S156.464,305.831,152.34,305.831z"/>
	<path style="fill:#00AAF0;" d="M204.36,275.224h-27.27c-4.123,0-7.465-3.342-7.465-7.465s3.342-7.465,7.465-7.465h27.271
		c4.123,0,7.465,3.342,7.465,7.465S208.484,275.224,204.36,275.224z"/>
</g>
<path style="fill:#FFDC64;" d="M208.321,182.658h-51.298c-4.123,0-7.465-3.342-7.465-7.465s3.342-7.465,7.465-7.465h51.298
	c4.123,0,7.465,3.342,7.465,7.465C215.786,179.315,212.445,182.658,208.321,182.658z"/>
<circle style="fill:#AAA8C1;" cx="45.504" cy="206.55" r="7.465"/>
<path style="fill:#FF80BD;" d="M177.09,214.011h-70.832c-4.123,0-7.465-3.342-7.465-7.465s3.342-7.465,7.465-7.465h70.832
	c4.123,0,7.465,3.342,7.465,7.465C184.555,210.668,181.213,214.011,177.09,214.011z"/>
<circle style="fill:#AAA8C1;" cx="45.504" cy="236.41" r="7.465"/>
<path style="fill:#FFDC64;" d="M235.447,243.871h-129.19c-4.123,0-7.465-3.342-7.465-7.465s3.342-7.465,7.465-7.465h129.19
	c4.123,0,7.465,3.342,7.465,7.465S239.57,243.871,235.447,243.871z"/>
<path style="fill:#86E56E;" d="M279.154,214.011h-70.832c-4.123,0-7.465-3.342-7.465-7.465s3.342-7.465,7.465-7.465h70.832
	c4.123,0,7.465,3.342,7.465,7.465C286.619,210.668,283.277,214.011,279.154,214.011z"/>
<path style="fill:#FFC850;" d="M235.448,243.871c4.123,0,7.465-3.342,7.465-7.465s-3.342-7.465-7.465-7.465h-13.279
	c-0.379,2.46-0.576,4.98-0.576,7.546v7.384L235.448,243.871L235.448,243.871z"/>
<path style="fill:#5FCE6A;" d="M279.154,199.081H238.85c-4.847,4.143-8.875,9.21-11.819,14.93h52.124
	c4.123,0,7.465-3.342,7.465-7.465C286.619,202.423,283.277,199.081,279.154,199.081z"/>
<path style="fill:#FFDC64;" d="M478.481,483.379H274.227c-18.512,0-33.519-15.007-33.519-33.519v-209.4
	c0-18.512,15.007-33.519,33.519-33.519h204.255c18.512,0,33.519,15.007,33.519,33.519v209.4
	C512,468.372,496.993,483.379,478.481,483.379z"/>
<path style="fill:#FFC850;" d="M478.481,206.942h-6.333v206.496c0,18.512-15.007,33.519-33.519,33.519H240.708v2.904
	c0,18.512,15.007,33.519,33.519,33.519h204.255c18.512,0,33.519-15.007,33.519-33.519v-209.4
	C512,221.949,496.993,206.942,478.481,206.942z"/>
<path style="fill:#00AAF0;" d="M274.226,483.379h204.255c18.512,0,33.519-15.007,33.519-33.519v-99.328h-49.219
	c-5.425,0-10.458,2.828-13.28,7.461l-5.627,9.241c-2.608,4.283-9.035,3.55-10.613-1.21l-26.381-79.598
	c-1.72-5.19-8.971-5.434-11.036-0.371l-38.413,94.191c-2.046,5.017-9.211,4.837-11.004-0.276l-20.737-59.159
	c-1.434-4.092-6.65-5.281-9.716-2.215l-27.38,27.38c-2.916,2.916-6.871,4.554-10.995,4.554h-36.891v99.328
	C240.708,468.372,255.715,483.379,274.226,483.379z"/>
<path style="fill:#0398E2;" d="M472.148,413.438c0,18.512-15.007,33.519-33.519,33.519H240.708v2.904
	c0,18.512,15.007,33.519,33.519,33.519h204.255c18.512,0,33.519-15.007,33.519-33.519v-99.328h-39.852L472.148,413.438
	L472.148,413.438z"/>
<g>
</g>
<g>
</g>
<g>
</g>
<g>
</g>
<g>
</g>
<g>
</g>
<g>
</g>
<g>
</g>
<g>
</g>
<g>
</g>
<g>
</g>
<g>
</g>
<g>
</g>
<g>
</g>
<g>
</g>
</svg>
