<?xml version="1.0" encoding="iso-8859-1"?>
<!-- Generator: Adobe Illustrator 19.0.0, SVG Export Plug-In . SVG Version: 6.00 Build 0)  -->
<svg version="1.1" id="Capa_1" xmlns="http://www.w3.org/2000/svg" xmlns:xlink="http://www.w3.org/1999/xlink" x="0px" y="0px"
	 viewBox="0 0 512.001 512.001" style="enable-background:new 0 0 512.001 512.001;" xml:space="preserve">
<path style="fill:#53515E;" d="M359.373,157.259V26.886c0-8.25-6.56-14.938-14.651-14.938H174.924
	c-8.092,0-14.651,6.688-14.651,14.938v130.286"/>
<path style="fill:#474756;" d="M344.722,11.948h-25.176v22.298c0,53.262-43.19,96.433-96.452,96.409l-62.821-0.028v26.544
	l199.1,0.087V26.886C359.373,18.636,352.813,11.948,344.722,11.948z"/>
<path style="fill:#DFE2EA;" d="M279.355,156.206L279.355,156.206c-16.554,0-23.333,0-39.183,0l0,0h-94.338
	c-3.898,0-7.057,3.16-7.057,7.057l0,0c0,11.654,9.447,21.101,21.101,21.101h198.689c11.654,0,21.101-9.447,21.101-21.101l0,0
	c0-3.898-3.16-7.057-7.057-7.057H279.355z"/>
<path style="fill:#C7CAD3;" d="M139.978,170.285c2.894,8.201,10.709,14.079,19.9,14.079h198.689c9.191,0,17.006-5.878,19.9-14.079
	h-99.111c-16.554,0-23.333,0-39.183,0H139.978z"/>
<path style="fill:#00AAF0;" d="M339.289,36.438v95.564c0,2.603-2.11,4.712-4.712,4.712H186.664c-2.603,0-4.712-2.11-4.712-4.712
	V36.438c0-2.603,2.11-4.712,4.712-4.712h147.912C337.179,31.726,339.289,33.836,339.289,36.438z"/>
<path style="fill:#0398E2;" d="M186.664,136.714h147.912c2.603,0,4.712-2.11,4.712-4.712V36.438c0-2.603-2.11-4.712-4.712-4.712
	h-15.03v2.521c0,53.262-43.19,96.433-96.452,96.409l-41.143-0.018v1.365C181.952,134.605,184.061,136.714,186.664,136.714z"/>
<path style="fill:#53515E;" d="M220.597,472.947V342.573c0-8.25-6.56-14.938-14.651-14.938H36.147
	c-8.092,0-14.651,6.688-14.651,14.938v130.286"/>
<path style="fill:#474756;" d="M205.945,327.635H180.77v22.298c0,53.262-43.19,96.433-96.452,96.409l-62.821-0.028v26.544
	l199.1,0.087V342.573C220.597,334.323,214.037,327.635,205.945,327.635z"/>
<path style="fill:#DFE2EA;" d="M140.579,471.893L140.579,471.893c-16.554,0-23.333,0-39.183,0l0,0H7.057
	c-3.898,0-7.057,3.16-7.057,7.057l0,0c0,11.654,9.447,21.101,21.101,21.101H219.79c11.654,0,21.101-9.447,21.101-21.101l0,0
	c0-3.898-3.16-7.057-7.057-7.057H140.579z"/>
<path style="fill:#C7CAD3;" d="M1.201,485.973c2.894,8.201,10.709,14.079,19.9,14.079H219.79c9.191,0,17.006-5.879,19.9-14.079
	h-99.111c-16.554,0-23.333,0-39.183,0H1.201z"/>
<path style="fill:#FFDC64;" d="M200.512,352.125v95.564c0,2.603-2.11,4.712-4.712,4.712H47.887c-2.603,0-4.712-2.11-4.712-4.712
	v-95.564c0-2.603,2.11-4.712,4.712-4.712H195.8C198.402,347.413,200.512,349.523,200.512,352.125z"/>
<path style="fill:#FFC850;" d="M47.887,452.401H195.8c2.602,0,4.712-2.11,4.712-4.712v-95.564c0-2.603-2.11-4.712-4.712-4.712
	h-15.03v2.521c0,53.262-43.19,96.433-96.452,96.409l-41.143-0.018v1.365C43.175,450.292,45.285,452.401,47.887,452.401z"/>
<path style="fill:#53515E;" d="M491.705,472.947V342.573c0-8.25-6.56-14.938-14.651-14.938H307.256
	c-8.092,0-14.651,6.688-14.651,14.938v130.286"/>
<path style="fill:#474756;" d="M477.054,327.635h-25.176v22.298c0,53.262-43.19,96.433-96.452,96.409l-62.821-0.028v26.544
	l199.1,0.087V342.573C491.705,334.323,485.146,327.635,477.054,327.635z"/>
<path style="fill:#DFE2EA;" d="M411.688,471.893L411.688,471.893c-16.554,0-23.333,0-39.183,0l0,0h-94.338
	c-3.898,0-7.057,3.16-7.057,7.057l0,0c0,11.654,9.447,21.101,21.101,21.101H490.9c11.654,0,21.101-9.447,21.101-21.101l0,0
	c0-3.898-3.16-7.057-7.057-7.057H411.688z"/>
<path style="fill:#C7CAD3;" d="M272.31,485.973c2.894,8.201,10.709,14.079,19.9,14.079h198.689c9.191,0,17.006-5.879,19.9-14.079
	h-99.111c-16.554,0-23.333,0-39.183,0H272.31z"/>
<path style="fill:#86E56E;" d="M471.621,352.125v95.564c0,2.603-2.11,4.712-4.712,4.712H318.996c-2.603,0-4.712-2.11-4.712-4.712
	v-95.564c0-2.603,2.11-4.712,4.712-4.712h147.912C469.511,347.413,471.621,349.523,471.621,352.125z"/>
<path style="fill:#5FCE6A;" d="M318.996,452.402h147.912c2.602,0,4.712-2.11,4.712-4.712v-95.564c0-2.603-2.11-4.712-4.712-4.712
	h-15.03v2.521c0,53.262-43.19,96.433-96.452,96.409l-41.143-0.018v1.365C314.284,450.292,316.393,452.402,318.996,452.402z"/>
<g>
	<path style="fill:#6F4BEF;" d="M397.309,304.107c-4.314,0-7.812-3.497-7.812-7.812v-22.287c0-5.803-4.721-10.524-10.524-10.524
		H138.782c-5.803,0-10.524,4.721-10.524,10.524v22.287c0,4.315-3.498,7.812-7.812,7.812c-4.314,0-7.812-3.497-7.812-7.812v-22.287
		c0-14.418,11.73-26.148,26.148-26.148h240.191c14.418,0,26.148,11.73,26.148,26.148v22.287
		C405.121,300.61,401.623,304.107,397.309,304.107z"/>
	<path style="fill:#6F4BEF;" d="M259.823,263.484c-4.314,0-7.812-3.497-7.812-7.812v-40.623c0-4.315,3.498-7.812,7.812-7.812
		s7.812,3.497,7.812,7.812v40.623C267.635,259.987,264.137,263.484,259.823,263.484z"/>
</g>
<g>
</g>
<g>
</g>
<g>
</g>
<g>
</g>
<g>
</g>
<g>
</g>
<g>
</g>
<g>
</g>
<g>
</g>
<g>
</g>
<g>
</g>
<g>
</g>
<g>
</g>
<g>
</g>
<g>
</g>
</svg>
