<?xml version="1.0" encoding="iso-8859-1"?>
<!-- Generator: Adobe Illustrator 19.0.0, SVG Export Plug-In . SVG Version: 6.00 Build 0)  -->
<svg version="1.1" id="Capa_1" xmlns="http://www.w3.org/2000/svg" xmlns:xlink="http://www.w3.org/1999/xlink" x="0px" y="0px"
	 viewBox="0 0 512 512" style="enable-background:new 0 0 512 512;" xml:space="preserve">
<g>
	<path style="fill:#53515E;" d="M86.842,499.383H59.354c-3.325,0-6.021-2.696-6.021-6.021v-23.168h39.529v23.168
		C92.863,496.687,90.167,499.383,86.842,499.383z"/>
	<path style="fill:#53515E;" d="M452.646,499.383h-27.488c-3.325,0-6.021-2.696-6.021-6.021v-23.168h39.529v23.168
		C458.667,496.687,455.971,499.383,452.646,499.383z"/>
</g>
<path style="fill:#FFDC64;" d="M498.196,188.612v270.751c0,6.931-5.618,12.549-12.549,12.549H26.353
	c-6.931,0-12.549-5.618-12.549-12.549V188.612"/>
<path style="fill:#53515E;" d="M320,12.617H193.255c-13.861,0-25.098,11.788-25.098,26.329v62.229h33.251V52.127
	c0-4.292,3.479-7.771,7.771-7.771h94.898c4.292,0,7.771,3.479,7.771,7.771v49.048h33.251V38.946
	C345.098,24.405,333.861,12.617,320,12.617z"/>
<path style="fill:#3C3B44;" d="M320,12.617H193.255c-13.861,0-25.098,11.788-25.098,26.329v13.63
	c0-14.541,11.237-26.329,25.098-26.329H320c13.861,0,25.098,11.788,25.098,26.329v-13.63C345.098,24.405,333.861,12.617,320,12.617z
	"/>
<path style="fill:#FFC850;" d="M13.804,183.976v25.926h232.635c115.772,0,209.623,93.852,209.623,209.623v39.837
	c0,6.931-5.618,12.549-12.549,12.549h42.134c6.931,0,12.549-5.618,12.549-12.549v-249.46v-25.926H13.804z"/>
<path style="fill:#FF6B5C;" d="M512,181.207v-65.026c0-10.761-8.724-19.485-19.485-19.485H19.485C8.724,96.696,0,105.419,0,116.181
	v65.026c0,4.089,3.315,7.404,7.404,7.404h497.191C508.685,188.612,512,185.297,512,181.207z"/>
<path style="fill:#D85750;" d="M492.515,96.696h-61.399c10.761,0,19.485,8.724,19.485,19.485v65.026
	c0,4.089-3.315,7.404-7.404,7.404h61.399c4.089,0,7.404-3.315,7.404-7.404v-65.026C512,105.419,503.276,96.696,492.515,96.696z"/>
<g>
	<path style="fill:#FF6B5C;" d="M92.863,471.911H24.404c-5.854,0-10.6-4.746-10.6-10.6v-68.458h39.614
		c21.785,0,39.445,17.66,39.445,39.445V471.911z"/>
	<path style="fill:#FF6B5C;" d="M419.137,471.911h68.458c5.854,0,10.6-4.746,10.6-10.6v-68.458h-39.614
		c-21.785,0-39.445,17.66-39.445,39.445v39.613H419.137z"/>
</g>
<path style="fill:#D85750;" d="M454.406,393.074c1.091,8.664,1.656,17.491,1.656,26.451v39.837c0,6.931-5.618,12.549-12.549,12.549
	h42.134c6.931,0,12.549-5.618,12.549-12.549v-66.51h-39.614C457.171,392.853,455.779,392.93,454.406,393.074z"/>
<circle style="fill:#FF80BD;" cx="256" cy="339.7" r="61.4"/>
<g>
	<path style="fill:#53515E;" d="M293.989,261.236c0-15.481-9.265-28.789-22.548-34.708v29.382c0,3.259-2.642,5.901-5.901,5.901
		h-19.081c-3.259,0-5.901-2.642-5.901-5.901v-29.382c-13.283,5.919-22.548,19.227-22.548,34.708c0,15.357,9.117,28.576,22.23,34.564
		l-5.195,116.283c-0.533,11.94,9.003,21.911,20.954,21.911l0,0c12.008,0,21.565-10.062,20.947-22.055l-5.968-115.787
		C284.51,290.341,293.989,276.897,293.989,261.236z"/>
	<path style="fill:#53515E;" d="M95.888,226.528H72.311c-5.55,0-10.049-4.499-10.049-10.049v-54.562
		c0-5.55,4.499-10.049,10.049-10.049h23.577c5.55,0,10.049,4.499,10.049,10.049v54.562
		C105.937,222.029,101.438,226.528,95.888,226.528z"/>
	<path style="fill:#53515E;" d="M430.926,226.528h-23.577c-5.55,0-10.049-4.499-10.049-10.049v-54.562
		c0-5.55,4.499-10.049,10.049-10.049h23.577c5.55,0,10.049,4.499,10.049,10.049v54.562
		C440.975,222.029,436.476,226.528,430.926,226.528z"/>
</g>
<g>
	<path style="fill:#3C3B44;" d="M95.888,226.528H72.311c-5.55,0-10.049-4.499-10.049-10.049v-10.011
		c0-5.55,4.499-10.049,10.049-10.049h23.577c5.55,0,10.049,4.499,10.049,10.049v10.011
		C105.937,222.029,101.438,226.528,95.888,226.528z"/>
	<path style="fill:#3C3B44;" d="M430.926,226.528h-23.577c-5.55,0-10.049-4.499-10.049-10.049v-10.011
		c0-5.55,4.499-10.049,10.049-10.049h23.577c5.55,0,10.049,4.499,10.049,10.049v10.011
		C440.975,222.029,436.476,226.528,430.926,226.528z"/>
</g>
<g>
</g>
<g>
</g>
<g>
</g>
<g>
</g>
<g>
</g>
<g>
</g>
<g>
</g>
<g>
</g>
<g>
</g>
<g>
</g>
<g>
</g>
<g>
</g>
<g>
</g>
<g>
</g>
<g>
</g>
</svg>
