<?xml version="1.0" encoding="iso-8859-1"?>
<!-- Generator: Adobe Illustrator 19.0.0, SVG Export Plug-In . SVG Version: 6.00 Build 0)  -->
<svg version="1.1" id="Capa_1" xmlns="http://www.w3.org/2000/svg" xmlns:xlink="http://www.w3.org/1999/xlink" x="0px" y="0px"
	 viewBox="0 0 512.001 512.001" style="enable-background:new 0 0 512.001 512.001;" xml:space="preserve">
<path style="fill:#53515E;" d="M436.431,413.215H31.546C14.124,413.215,0,399.091,0,381.668V60.122
	C0,42.7,14.124,28.576,31.546,28.576h404.885c17.422,0,31.546,14.124,31.546,31.546v321.547
	C467.978,399.091,453.854,413.215,436.431,413.215z"/>
<path style="fill:#474756;" d="M333.07,335.252c-4.124,0-7.467-3.343-7.467-7.467v-227.55c0-4.124,3.343-7.467,7.467-7.467
	c4.124,0,7.467,3.343,7.467,7.467v227.55C340.537,331.909,337.194,335.252,333.07,335.252z"/>
<path style="fill:#6F4BEF;" d="M436.431,28.575H31.546C14.124,28.575,0,42.699,0,60.122v44.313h465.841h2.137V60.122
	C467.978,42.699,453.854,28.575,436.431,28.575z"/>
<path style="fill:#4628B2;" d="M295.959,74.506H157.061c-4.124,0-7.467-3.343-7.467-7.467s3.343-7.467,7.467-7.467h138.897
	c4.124,0,7.467,3.343,7.467,7.467S300.083,74.506,295.959,74.506z"/>
<circle style="fill:#FFDC64;" cx="41.669" cy="67.04" r="9.981"/>
<circle style="fill:#86E56E;" cx="80.13" cy="67.04" r="9.981"/>
<circle style="fill:#FFDC64;" cx="116.46" cy="67.04" r="9.981"/>
<circle style="fill:#FF80BD;" cx="427.38" cy="67.04" r="9.981"/>
<path style="fill:#3C3B44;" d="M270.86,187.276c-27.181,0-49.215,22.034-49.215,49.215v176.723h214.787
	c17.422,0,31.546-14.124,31.546-31.546V187.276H270.86z"/>
<circle style="fill:#AAA8C1;" cx="45.514" cy="143.82" r="7.467"/>
<path style="fill:#00AAF0;" d="M172.904,151.288H75.13c-4.124,0-7.467-3.343-7.467-7.467s3.343-7.467,7.467-7.467h97.774
	c4.124,0,7.467,3.343,7.467,7.467S177.028,151.288,172.904,151.288z"/>
<g>
	<path style="fill:#3C3B44;" d="M437.357,143.821h-73.51c-4.124,0-7.467-3.343-7.467-7.467s3.343-7.467,7.467-7.467h73.51
		c4.124,0,7.467,3.343,7.467,7.467S441.482,143.821,437.357,143.821z"/>
	<path style="fill:#3C3B44;" d="M437.357,175.929h-73.51c-4.124,0-7.467-3.343-7.467-7.467s3.343-7.467,7.467-7.467h73.51
		c4.124,0,7.467,3.343,7.467,7.467S441.482,175.929,437.357,175.929z"/>
</g>
<circle style="fill:#AAA8C1;" cx="45.514" cy="175.18" r="7.467"/>
<path style="fill:#00AAF0;" d="M126.441,182.649H75.13c-4.124,0-7.467-3.343-7.467-7.467s3.343-7.467,7.467-7.467h51.311
	c4.124,0,7.467,3.343,7.467,7.467S130.566,182.649,126.441,182.649z"/>
<circle style="fill:#AAA8C1;" cx="45.514" cy="267.77" r="7.467"/>
<path style="fill:#86E56E;" d="M152.377,275.237H75.13c-4.124,0-7.467-3.343-7.467-7.467c0-4.124,3.343-7.467,7.467-7.467h77.247
	c4.124,0,7.467,3.343,7.467,7.467C159.844,271.895,156.501,275.237,152.377,275.237z"/>
<circle style="fill:#AAA8C1;" cx="45.514" cy="298.38" r="7.467"/>
<g>
	<path style="fill:#00AAF0;" d="M152.377,305.851H75.13c-4.124,0-7.467-3.343-7.467-7.467c0-4.124,3.343-7.467,7.467-7.467h77.247
		c4.124,0,7.467,3.343,7.467,7.467C159.844,302.509,156.501,305.851,152.377,305.851z"/>
	<path style="fill:#00AAF0;" d="M204.409,275.237h-27.277c-4.124,0-7.467-3.343-7.467-7.467c0-4.124,3.343-7.467,7.467-7.467h27.277
		c4.124,0,7.467,3.343,7.467,7.467C211.876,271.895,208.534,275.237,204.409,275.237z"/>
</g>
<path style="fill:#FFDC64;" d="M208.371,182.649h-51.31c-4.124,0-7.467-3.343-7.467-7.467s3.343-7.467,7.467-7.467h51.31
	c4.124,0,7.467,3.343,7.467,7.467S212.495,182.649,208.371,182.649z"/>
<circle style="fill:#AAA8C1;" cx="45.514" cy="206.54" r="7.467"/>
<path style="fill:#FF80BD;" d="M177.132,214.009h-70.849c-4.124,0-7.467-3.343-7.467-7.467s3.343-7.467,7.467-7.467h70.849
	c4.124,0,7.467,3.343,7.467,7.467S181.256,214.009,177.132,214.009z"/>
<circle style="fill:#AAA8C1;" cx="45.514" cy="236.41" r="7.467"/>
<path style="fill:#FFDC64;" d="M235.504,243.877H106.283c-4.124,0-7.467-3.343-7.467-7.467s3.343-7.467,7.467-7.467h129.221
	c4.124,0,7.467,3.343,7.467,7.467S239.628,243.877,235.504,243.877z"/>
<path style="fill:#86E56E;" d="M279.22,214.009h-70.849c-4.124,0-7.467-3.343-7.467-7.467s3.343-7.467,7.467-7.467h70.849
	c4.124,0,7.467,3.343,7.467,7.467S283.345,214.009,279.22,214.009z"/>
<path style="fill:#FFC850;" d="M235.504,243.877c4.124,0,7.467-3.343,7.467-7.467s-3.343-7.467-7.467-7.467h-13.282
	c-0.379,2.461-0.577,4.981-0.577,7.548v7.385L235.504,243.877L235.504,243.877z"/>
<path style="fill:#5FCE6A;" d="M279.221,199.076h-40.314c-4.848,4.144-8.878,9.212-11.822,14.934h52.136
	c4.124,0,7.467-3.343,7.467-7.467C286.688,202.419,283.345,199.076,279.221,199.076z"/>
<path style="fill:#FFDC64;" d="M478.473,483.425H274.17c-18.516,0-33.527-15.01-33.527-33.527v-209.45
	c0-18.516,15.01-33.527,33.527-33.527h204.304c18.516,0,33.527,15.01,33.527,33.527v209.45
	C512,468.414,496.99,483.425,478.473,483.425z"/>
<path style="fill:#FFC850;" d="M478.473,206.922h-0.881v206.545c0,18.516-15.01,33.527-33.527,33.527H240.643v2.905
	c0,18.516,15.01,33.527,33.527,33.527h204.304c18.516,0,33.527-15.01,33.527-33.527v-209.45
	C512,221.932,496.99,206.922,478.473,206.922z"/>
<path style="fill:#FFFFFF;" d="M464.279,327.379l-9.727-1.226c-1.705-6.029-4.104-11.765-7.099-17.123l6.026-7.747
	c3.019-3.881,2.675-9.401-0.801-12.878l-15.455-15.455c-3.473-3.473-8.989-3.82-12.869-0.808l-7.765,6.027
	c-5.329-2.977-11.032-5.367-17.024-7.069l-1.217-9.74c-0.609-4.878-4.756-8.539-9.673-8.539h-21.856
	c-4.912,0-9.057,3.655-9.671,8.529l-1.226,9.727c-6.025,1.704-11.758,4.101-17.113,7.093l-7.765-6.027
	c-3.881-3.012-9.396-2.665-12.869,0.808l-15.455,15.455c-3.476,3.476-3.82,8.997-0.802,12.878l6.026,7.747
	c-2.995,5.358-5.394,11.095-7.099,17.123l-9.727,1.226c-4.873,0.614-8.528,4.759-8.528,9.671v21.856
	c0,4.916,3.661,9.063,8.539,9.673l9.74,1.217c1.702,5.993,4.092,11.695,7.069,17.024l-6.027,7.766
	c-3.012,3.88-2.665,9.396,0.808,12.869l15.455,15.455c3.476,3.476,8.997,3.82,12.877,0.801l7.747-6.026
	c5.358,2.995,11.094,5.394,17.123,7.098l1.226,9.727c0.615,4.874,4.759,8.529,9.671,8.529h21.856c4.916,0,9.063-3.661,9.673-8.539
	l1.217-9.74c5.996-1.703,11.702-4.095,17.035-7.074l7.747,6.026c3.881,3.019,9.402,2.675,12.878-0.801l15.455-15.455
	c3.473-3.473,3.82-8.989,0.808-12.869l-6.027-7.766c2.977-5.329,5.367-11.031,7.069-17.024l9.74-1.217
	c4.878-0.61,8.539-4.757,8.539-9.673V337.05C472.808,332.138,469.153,327.993,464.279,327.379z M377.699,395.484
	c-26.264,0-47.554-21.291-47.554-47.554c0-26.264,21.291-47.554,47.554-47.554c26.264,0,47.554,21.291,47.554,47.554
	C425.254,374.193,403.963,395.484,377.699,395.484z"/>
<g>
</g>
<g>
</g>
<g>
</g>
<g>
</g>
<g>
</g>
<g>
</g>
<g>
</g>
<g>
</g>
<g>
</g>
<g>
</g>
<g>
</g>
<g>
</g>
<g>
</g>
<g>
</g>
<g>
</g>
</svg>
