<?xml version="1.0" encoding="iso-8859-1"?>
<!-- Generator: Adobe Illustrator 19.0.0, SVG Export Plug-In . SVG Version: 6.00 Build 0)  -->
<svg version="1.1" id="Capa_1" xmlns="http://www.w3.org/2000/svg" xmlns:xlink="http://www.w3.org/1999/xlink" x="0px" y="0px"
	 viewBox="0 0 512 512" style="enable-background:new 0 0 512 512;" xml:space="preserve">
<path style="fill:#DFE2EA;" d="M352.43,173.993l-16.682-2.103c-2.924-10.34-7.039-20.178-12.175-29.368l10.335-13.287
	c5.177-6.656,4.588-16.124-1.374-22.087l-26.506-26.506c-5.957-5.957-15.417-6.551-22.072-1.386l-13.318,10.336
	c-9.14-5.106-18.921-9.205-29.199-12.124l-2.087-16.705c-1.045-8.367-8.157-14.646-16.589-14.646h-37.486
	c-8.425,0-15.533,6.269-16.587,14.627l-2.103,16.682c-10.333,2.922-20.166,7.034-29.35,12.165l-13.318-10.336
	c-6.656-5.166-16.115-4.572-22.072,1.386l-26.506,26.506c-5.962,5.962-6.552,15.431-1.375,22.087l10.335,13.287
	c-5.136,9.19-9.251,19.028-12.175,29.368l-16.682,2.103c-8.358,1.054-14.627,8.162-14.627,16.587v37.486
	c0,8.432,6.279,15.544,14.646,16.589l16.705,2.087c2.92,10.278,7.018,20.058,12.124,29.199l-10.337,13.319
	c-5.165,6.655-4.571,16.115,1.386,22.072l26.506,26.506c5.962,5.962,15.431,6.551,22.087,1.374l13.287-10.335
	c9.19,5.136,19.028,9.251,29.368,12.175l2.103,16.682c1.054,8.359,8.162,14.628,16.587,14.628h37.486
	c8.432,0,15.544-6.279,16.589-14.646l2.087-16.706c10.285-2.921,20.071-7.023,29.216-12.134l13.286,10.335
	c6.656,5.177,16.124,4.588,22.087-1.374l26.506-26.506c5.957-5.957,6.551-15.417,1.386-22.072l-10.336-13.319
	c5.106-9.14,9.204-18.92,12.124-29.199l16.706-2.087c8.366-1.045,14.646-8.158,14.646-16.589v-37.486
	C367.057,182.156,360.788,175.047,352.43,173.993z M203.935,290.802c-45.045,0-81.561-36.516-81.561-81.561
	s36.516-81.561,81.561-81.561s81.561,36.516,81.561,81.561S248.98,290.802,203.935,290.802z"/>
<path style="fill:#C7CAD3;" d="M205.647,99.947c-61.902,0-112.083,50.181-112.083,112.083s50.181,112.083,112.083,112.083
	S317.73,273.931,317.73,212.03S267.549,99.947,205.647,99.947z M203.935,290.802c-45.045,0-81.561-36.516-81.561-81.561
	s36.516-81.561,81.561-81.561s81.561,36.516,81.561,81.561S248.98,290.802,203.935,290.802z"/>
<path style="fill:#00AAF0;" d="M512,336.214c0-71.512-57.972-129.485-129.484-129.485c-51.329,0-95.681,29.868-116.628,73.171
	c-16.379-12.187-36.676-19.403-58.661-19.403c-47.886,0-87.762,34.222-96.552,79.539c-11.519-8.456-25.729-13.46-41.114-13.46
	C31.143,326.577,0,357.72,0,396.138s31.143,69.561,69.561,69.561c1.529,0,3.041-0.067,4.546-0.164
	c1.158,0.102,2.327,0.164,3.511,0.164h308.44c1.484,0,2.947-0.089,4.388-0.249C458.264,461.352,512,405.063,512,336.214z"/>
<path style="fill:#C7CAD3;" d="M352.43,173.994l-16.682-2.103c-0.089-0.316-0.19-0.627-0.282-0.942
	c-18.985,4.737-36.304,13.666-50.932,25.745c0.632,4.091,0.962,8.28,0.962,12.548c0,45.045-36.516,81.561-81.561,81.561
	c-33.049,0-61.486-19.669-74.3-47.929c-17.546,14.268-30.091,34.451-34.566,57.523c-6.41-4.705-13.655-8.337-21.47-10.637
	c-4.766,6.623-4.075,15.762,1.737,21.574l26.506,26.506c5.963,5.962,15.431,6.551,22.087,1.374l13.287-10.335
	c9.19,5.136,19.028,9.251,29.368,12.175l2.103,16.682c1.054,8.359,8.162,14.628,16.587,14.628h37.486
	c8.432,0,15.544-6.279,16.589-14.646l2.087-16.706c10.285-2.921,20.071-7.023,29.216-12.133l13.286,10.335
	c6.656,5.177,16.124,4.588,22.087-1.374l26.506-26.506c5.957-5.957,6.551-15.417,1.386-22.072l-10.336-13.318
	c5.106-9.14,9.204-18.921,12.124-29.199l16.706-2.087c8.366-1.045,14.646-8.158,14.646-16.589v-37.486
	C367.057,182.156,360.788,175.047,352.43,173.994z"/>
<path style="fill:#B1B3BA;" d="M205.647,324.112c61.902,0,112.083-50.181,112.083-112.082c0-11.515-1.739-22.624-4.965-33.08
	c-10.193,4.701-19.675,10.679-28.232,17.744l0,0c0.632,4.091,0.962,8.28,0.962,12.548c0,45.045-36.516,81.561-81.561,81.561
	c-33.049,0-61.486-19.669-74.3-47.929c-8.453,6.874-15.73,15.132-21.519,24.414C127.383,301.219,163.839,324.112,205.647,324.112z"
	/>
<path style="fill:#00AAF0;" d="M512,336.397c0-71.512-57.972-129.485-129.484-129.485c-51.329,0-95.681,29.868-116.628,73.171
	c-16.379-12.187-36.676-19.403-58.661-19.403c-47.886,0-87.762,34.222-96.552,79.539c-11.519-8.456-25.729-13.46-41.114-13.46
	C31.143,326.76,0,357.904,0,396.322s31.143,69.561,69.561,69.561c1.529,0,3.041-0.067,4.546-0.164
	c1.158,0.102,2.327,0.164,3.511,0.164h308.44c1.484,0,2.947-0.089,4.388-0.249C458.264,461.534,512,405.246,512,336.397z"/>
<path style="fill:#0398E2;" d="M447.397,224.139c8.035,16.858,12.538,35.724,12.538,55.643c0,68.849-53.736,125.137-121.555,129.236
	c-1.441,0.16-2.904,0.249-4.388,0.249H25.553c-1.184,0-2.354-0.062-3.511-0.164c-1.504,0.098-3.017,0.164-4.546,0.164
	c-5.723,0-11.279-0.706-16.6-2.009c5.324,33.13,34.034,58.441,68.665,58.441c1.529,0,3.041-0.067,4.546-0.164
	c1.158,0.102,2.327,0.164,3.511,0.164h308.44c1.484,0,2.947-0.089,4.388-0.249C458.264,461.352,512,405.063,512,336.214
	C512,288.345,486.022,246.547,447.397,224.139z"/>
<g>
</g>
<g>
</g>
<g>
</g>
<g>
</g>
<g>
</g>
<g>
</g>
<g>
</g>
<g>
</g>
<g>
</g>
<g>
</g>
<g>
</g>
<g>
</g>
<g>
</g>
<g>
</g>
<g>
</g>
</svg>
