<?xml version="1.0" encoding="iso-8859-1"?>
<!-- Generator: Adobe Illustrator 19.0.0, SVG Export Plug-In . SVG Version: 6.00 Build 0)  -->
<svg version="1.1" id="Capa_1" xmlns="http://www.w3.org/2000/svg" xmlns:xlink="http://www.w3.org/1999/xlink" x="0px" y="0px"
	 viewBox="0 0 512 512" style="enable-background:new 0 0 512 512;" xml:space="preserve">
<path style="fill:#E9EBF2;" d="M425.847,422.701H30.781C13.781,422.701,0,408.92,0,391.92V78.171c0-17,13.781-30.781,30.781-30.781
	h395.066c17,0,30.781,13.781,30.781,30.781V391.92C456.628,408.919,442.847,422.701,425.847,422.701z"/>
<path style="fill:#00AAF0;" d="M456.628,121.41V78.171c0-17-13.781-30.781-30.781-30.781H30.781C13.781,47.39,0,61.171,0,78.171
	v43.239h454.543C454.543,121.41,456.628,121.41,456.628,121.41z"/>
<path style="fill:#0076CE;" d="M288.781,93.027H153.252c-4.477,0-8.106-3.629-8.106-8.106s3.629-8.106,8.106-8.106h135.529
	c4.477,0,8.106,3.629,8.106,8.106S293.258,93.027,288.781,93.027z"/>
<circle style="fill:#53515E;" cx="40.659" cy="84.92" r="9.739"/>
<circle style="fill:#FFDC64;" cx="78.19" cy="84.92" r="9.739"/>
<circle style="fill:#86E56E;" cx="113.64" cy="84.92" r="9.739"/>
<circle style="fill:#53515E;" cx="417.01" cy="84.92" r="9.739"/>
<path style="fill:#C7CAD3;" d="M182.212,335.06l-14.176-1.787c-2.485-8.786-5.981-17.146-10.346-24.955l8.782-11.29
	c4.4-5.655,3.899-13.702-1.168-18.768l-22.524-22.524c-5.062-5.062-13.1-5.567-18.756-1.178l-11.317,8.783
	c-7.767-4.339-16.078-7.822-24.811-10.302l-1.774-14.195c-0.888-7.109-6.932-12.445-14.097-12.445H40.173
	c-7.159,0-13.2,5.327-14.095,12.43l-1.787,14.176C15.751,255.42,7.62,258.797,0,262.991v61.246
	c12.603-17.288,32.998-28.531,56.029-28.531c38.277,0,69.306,31.029,69.306,69.306c0,24.069-12.274,45.264-30.898,57.689h64.046
	l-0.784-1.01c4.339-7.767,7.821-16.078,10.302-24.811l14.195-1.774c7.109-0.888,12.445-6.932,12.445-14.097v-31.853
	C194.642,341.996,189.315,335.956,182.212,335.06z"/>
<path style="fill:#B0B6C1;" d="M94.437,422.701h30.643c13.124-15.932,21.007-36.343,21.007-58.596
	c0-50.934-41.291-92.225-92.225-92.225c-20.112,0-38.705,6.457-53.862,17.385v34.972c12.603-17.288,32.998-28.531,56.029-28.531
	c38.277,0,69.306,31.029,69.306,69.306C125.335,389.08,113.062,410.276,94.437,422.701z"/>
<path style="fill:#DFE2EA;" d="M246.839,153.18c-22.353,0-40.473,18.121-40.473,40.474v229.047h219.481
	c17,0,30.781-13.781,30.781-30.781V153.18H246.839z"/>
<path style="fill:#86E56E;" d="M476.95,464.61H263.364c-19.358,0-35.05-15.692-35.05-35.05V210.594
	c0-19.358,15.692-35.05,35.05-35.05H476.95c19.358,0,35.05,15.692,35.05,35.05V429.56C512,448.918,496.308,464.61,476.95,464.61z"/>
<path style="fill:#5FCE6A;" d="M476.95,175.544h-20.532v82.117c0,84.455-68.464,152.919-152.919,152.919h-75.185v18.979
	c0,19.358,15.692,35.05,35.05,35.05H476.95c19.358,0,35.05-15.692,35.05-35.05V210.594C512,191.237,496.308,175.544,476.95,175.544z
	"/>
<path style="fill:#FFFFFF;" d="M283.243,306.185c20.549,50.504,60.617,90.572,111.121,111.121
	c22.894,9.329,49.149,4.037,66.642-13.433l5.195-5.318c6.481-6.46,6.498-16.95,0.038-23.431c-0.936-0.939-1.98-1.761-3.112-2.451
	l-32.921-19.611c-7.255-4.308-16.509-3.144-22.47,2.828l-7.47,7.562c-1.879,1.908-4.74,2.459-7.193,1.383
	c-25.602-11.257-46.034-31.732-57.236-57.359c-1.107-2.428-0.606-5.286,1.26-7.193l7.562-7.531
	c5.972-5.961,7.136-15.215,2.828-22.47l-19.611-32.86c-0.706-1.119-1.542-2.151-2.49-3.074c-6.476-6.448-16.947-6.448-23.423,0
	l-5.287,5.195C279.206,257.036,273.914,283.291,283.243,306.185z"/>
<g>
</g>
<g>
</g>
<g>
</g>
<g>
</g>
<g>
</g>
<g>
</g>
<g>
</g>
<g>
</g>
<g>
</g>
<g>
</g>
<g>
</g>
<g>
</g>
<g>
</g>
<g>
</g>
<g>
</g>
</svg>
