<?xml version="1.0" encoding="iso-8859-1"?>
<!-- Generator: Adobe Illustrator 19.0.0, SVG Export Plug-In . SVG Version: 6.00 Build 0)  -->
<svg version="1.1" id="Capa_1" xmlns="http://www.w3.org/2000/svg" xmlns:xlink="http://www.w3.org/1999/xlink" x="0px" y="0px"
	 viewBox="0 0 512 512" style="enable-background:new 0 0 512 512;" xml:space="preserve">
<path style="fill:#53515E;" d="M486.641,392.931V90.878c0-19.114-15.197-34.608-33.944-34.608H59.304
	c-18.747,0-33.944,15.495-33.944,34.608v301.85"/>
<path style="fill:#474756;" d="M452.696,56.27H417.96v73.054c0,113.151-91.753,204.864-204.904,204.814L25.36,334.055v58.673
	l461.282,0.203V90.878C486.641,71.765,471.443,56.27,452.696,56.27z"/>
<path style="fill:#DFE2EA;" d="M301.253,390.491L301.253,390.491c-38.353,0-54.059,0-90.781,0l0,0H5.002
	C2.24,390.491,0,392.73,0,395.493v11.349c0,27,21.888,48.888,48.888,48.888h414.224c27,0,48.888-21.888,48.888-48.888v-11.349
	c0-2.762-2.239-5.002-5.002-5.002H301.253z"/>
<path style="fill:#C7CAD3;" d="M2.784,423.111c6.705,19,24.81,32.619,46.104,32.619h414.224c21.295,0,39.4-13.619,46.104-32.619
	H301.253c-38.353,0-54.059,0-90.781,0H2.784z"/>
<rect x="63.922" y="94.31" style="fill:#FFFFFF;" width="387.85" height="258.81"/>
<path style="fill:#E9EBF2;" d="M451.772,94.309H417.96v35.015c0,113.151-91.753,204.864-204.904,204.814l-149.133-0.066v19.042
	h387.85V94.309H451.772z"/>
<path style="fill:#DFE2EA;" d="M346.34,201.933l-9.942-1.253c-1.743-6.162-4.195-12.025-7.255-17.501l6.159-7.918
	c3.085-3.966,2.734-9.609-0.819-13.162l-15.796-15.796c-3.55-3.55-9.187-3.904-13.154-0.826l-7.937,6.16
	c-5.447-3.043-11.276-5.485-17.401-7.225l-1.244-9.955c-0.623-4.986-4.861-8.728-9.886-8.728h-22.339
	c-5.021,0-9.257,3.736-9.885,8.717l-1.253,9.942c-6.158,1.742-12.017,4.192-17.491,7.25l-7.937-6.16
	c-3.966-3.078-9.603-2.724-13.154,0.826L181.21,162.1c-3.553,3.553-3.905,9.196-0.819,13.162l6.159,7.918
	c-3.061,5.477-5.513,11.34-7.256,17.501l-9.942,1.253c-4.981,0.628-8.717,4.864-8.717,9.885v22.339c0,5.025,3.742,9.263,8.728,9.886
	l9.955,1.244c1.74,6.125,4.182,11.953,7.225,17.4l-6.16,7.937c-3.078,3.966-2.724,9.603,0.826,13.154l15.796,15.796
	c3.553,3.553,9.196,3.904,13.162,0.819l7.918-6.159c5.477,3.061,11.339,5.513,17.501,7.255l1.253,9.942
	c0.628,4.981,4.864,8.717,9.885,8.717h22.339c5.025,0,9.263-3.742,9.886-8.728l1.244-9.955c6.129-1.741,11.961-4.185,17.411-7.231
	l7.918,6.159c3.966,3.085,9.609,2.734,13.162-0.819l15.796-15.796c3.55-3.55,3.904-9.187,0.826-13.154l-6.16-7.937
	c3.043-5.447,5.485-11.275,7.225-17.4l9.956-1.244c4.986-0.623,8.728-4.861,8.728-9.886v-22.339
	C355.057,206.798,351.321,202.561,346.34,201.933z M257.847,271.544c-26.844,0-48.605-21.761-48.605-48.605
	s21.761-48.605,48.605-48.605s48.605,21.761,48.605,48.605S284.691,271.544,257.847,271.544z"/>
<path style="fill:#C7CAD3;" d="M258.868,157.807c-36.889,0-66.794,29.905-66.794,66.794s29.905,66.794,66.794,66.794
	s66.794-29.905,66.794-66.794S295.757,157.807,258.868,157.807z M257.847,271.544c-26.844,0-48.605-21.761-48.605-48.605
	s21.761-48.605,48.605-48.605s48.605,21.761,48.605,48.605S284.691,271.544,257.847,271.544z"/>
<g>
</g>
<g>
</g>
<g>
</g>
<g>
</g>
<g>
</g>
<g>
</g>
<g>
</g>
<g>
</g>
<g>
</g>
<g>
</g>
<g>
</g>
<g>
</g>
<g>
</g>
<g>
</g>
<g>
</g>
</svg>
