<?xml version="1.0" encoding="iso-8859-1"?>
<!-- Generator: Adobe Illustrator 19.0.0, SVG Export Plug-In . SVG Version: 6.00 Build 0)  -->
<svg version="1.1" id="Capa_1" xmlns="http://www.w3.org/2000/svg" xmlns:xlink="http://www.w3.org/1999/xlink" x="0px" y="0px"
	 viewBox="0 0 512 512" style="enable-background:new 0 0 512 512;" xml:space="preserve">
<path style="fill:#53515E;" d="M486.641,433.257V131.204c0-19.114-15.197-34.608-33.944-34.608H59.304
	c-18.747,0-33.944,15.495-33.944,34.608v301.85L486.641,433.257z"/>
<path style="fill:#474756;" d="M452.696,96.596h-62.494c18.747,0,33.944,15.495,33.944,34.608v302.025l62.494,0.028V131.204
	C486.641,112.091,471.443,96.596,452.696,96.596z"/>
<path style="fill:#DFE2EA;" d="M301.253,430.817L301.253,430.817c-38.353,0-54.059,0-90.781,0l0,0H5.002
	c-2.762,0-5.002,2.239-5.002,5.002v11.349c0,27,21.888,48.888,48.888,48.888h414.224c27,0,48.888-21.888,48.888-48.888v-11.349
	c0-2.762-2.239-5.002-5.002-5.002H301.253z"/>
<path style="fill:#474756;" d="M257.847,336.876c18.512-7.692,69.882-32.398,105.824-97.727
	c27.277-49.578,34.133-101.585,33.834-142.553H118.189c-0.299,40.969,6.557,92.975,33.834,142.553
	C187.966,304.479,239.335,329.184,257.847,336.876z"/>
<path style="fill:#C7CAD3;" d="M2.784,463.437c6.705,19,24.81,32.619,46.104,32.619h414.224c21.295,0,39.4-13.619,46.104-32.619
	H301.253c-38.353,0-54.059,0-90.781,0H2.784z"/>
<rect x="63.922" y="134.63" style="fill:#FFFFFF;" width="387.85" height="258.81"/>
<g>
	<rect x="424.15" y="134.63" style="fill:#E9EBF2;" width="27.625" height="258.81"/>
	<path style="fill:#E9EBF2;" d="M120.057,134.635c3.521,32.846,12.587,69.291,31.966,104.515
		c35.943,65.329,87.312,90.035,105.824,97.727c18.512-7.692,69.882-32.398,105.824-97.727
		c19.379-35.224,28.445-71.669,31.966-104.515H120.057z"/>
</g>
<path id="SVGCleanerId_0" style="fill:#00AAF0;" d="M368.519,37.971L257.847,15.944L147.175,37.971
	c-2.645,0.526-4.786,2.893-5.476,6.049c-5.295,24.224-19.557,108.636,23.154,186.267c31.585,57.408,76.726,79.118,92.993,85.878
	c16.268-6.76,61.409-28.47,92.993-85.878c42.711-77.631,28.449-162.042,23.154-186.267
	C373.305,40.864,371.163,38.498,368.519,37.971z"/>
<g>
	<path id="SVGCleanerId_0_1_" style="fill:#00AAF0;" d="M368.519,37.971L257.847,15.944L147.175,37.971
		c-2.645,0.526-4.786,2.893-5.476,6.049c-5.295,24.224-19.557,108.636,23.154,186.267c31.585,57.408,76.726,79.118,92.993,85.878
		c16.268-6.76,61.409-28.47,92.993-85.878c42.711-77.631,28.449-162.042,23.154-186.267
		C373.305,40.864,371.163,38.498,368.519,37.971z"/>
</g>
<path style="fill:#00AAF0;" d="M377.824,147.416c6.666-47.462-0.43-87.84-3.83-103.396c-0.69-3.156-2.831-5.522-5.476-6.048
	L257.847,15.944v131.472H377.824z"/>
<g>
	<path style="fill:#86E56E;" d="M141.7,44.02c-3.4,15.556-10.496,55.934-3.83,103.396h119.977V15.944L147.175,37.971
		C144.531,38.498,142.389,40.864,141.7,44.02z"/>
	<path style="fill:#86E56E;" d="M257.847,147.416v168.749c16.268-6.76,61.409-28.47,92.993-85.878
		c15.283-27.779,23.269-56.424,26.984-82.871L257.847,147.416L257.847,147.416z"/>
</g>
<path style="fill:#0398E2;" d="M373.996,44.02c-0.69-3.156-2.831-5.522-5.476-6.049L257.849,15.944v7.291l74.04,14.736
	c2.645,0.526,4.786,2.893,5.476,6.049c3.4,15.556,10.496,55.934,3.83,103.396h36.632C384.492,99.954,377.397,59.576,373.996,44.02z"
	/>
<path style="fill:#5FCE6A;" d="M341.194,147.416c-3.715,26.447-11.701,55.092-26.984,82.871
	c-17.063,31.013-38.076,51.593-56.362,65.041v20.836c16.268-6.76,61.409-28.469,92.993-85.878
	c15.283-27.779,23.269-56.424,26.984-82.871L341.194,147.416L341.194,147.416z"/>
<g>
</g>
<g>
</g>
<g>
</g>
<g>
</g>
<g>
</g>
<g>
</g>
<g>
</g>
<g>
</g>
<g>
</g>
<g>
</g>
<g>
</g>
<g>
</g>
<g>
</g>
<g>
</g>
<g>
</g>
</svg>
