<?xml version="1.0" encoding="iso-8859-1"?>
<!-- Generator: Adobe Illustrator 19.0.0, SVG Export Plug-In . SVG Version: 6.00 Build 0)  -->
<svg version="1.1" id="Capa_1" xmlns="http://www.w3.org/2000/svg" xmlns:xlink="http://www.w3.org/1999/xlink" x="0px" y="0px"
	 viewBox="0 0 512.001 512.001" style="enable-background:new 0 0 512.001 512.001;" xml:space="preserve">
<path style="fill:#53515E;" d="M455.761,71.545c0-30.774-17.238-57.507-42.577-71.113c-2.401-1.289-5.313,0.463-5.313,3.188v56.61
	c0,6.922-5.612,12.533-12.533,12.533H354.81c-6.922,0-12.533-5.612-12.533-12.533V4.344c0-3.053-3.272-5.035-5.948-3.567
	c-24.992,13.709-41.942,40.251-41.942,70.768c0,32.617,19.365,60.694,47.215,73.412l-11.034,246.981
	c-1.133,25.359,19.121,46.539,44.506,46.539l0,0c25.505,0,45.804-21.372,44.491-46.844l-12.677-245.927
	C435.628,133.361,455.761,104.808,455.761,71.545z"/>
<g>
	<path style="fill:#474756;" d="M425.489,61.168c6.922,0,12.533-5.612,12.533-12.533V21.104
		c-6.781-8.444-15.218-15.501-24.827-20.664c-2.406-1.292-5.326,0.452-5.326,3.183v56.609c0,0.316-0.024,0.626-0.047,0.936
		C407.822,61.168,425.489,61.168,425.489,61.168z"/>
	<path style="fill:#474756;" d="M360.719,380.343l11.034-246.981c-27.85-12.72-47.215-40.796-47.215-73.412
		c0-19.096,6.647-36.628,17.738-50.44V4.344c0-3.053-3.272-5.035-5.948-3.567c-24.992,13.709-41.942,40.251-41.942,70.767
		c0,32.617,19.365,60.694,47.215,73.412l-11.034,246.981c-1.133,25.359,19.121,46.539,44.506,46.539l0,0
		c11.576,0,22.069-4.413,29.967-11.602C379.742,426.772,359.589,405.64,360.719,380.343z"/>
</g>
<path style="fill:#FFE1B3;" d="M186.556,479.654l10.398,10.024c14.855,14.321,34.686,22.323,55.32,22.323h189.495
	c14.708,0,26.633-11.923,26.633-26.633s-11.923-26.633-26.633-26.633h-23.055h23.055c14.708,0,26.633-11.923,26.633-26.633v-1.043
	c0-14.709-11.923-26.633-26.633-26.633h-23.055h23.055c14.708,0,26.633-11.923,26.633-26.633v-0.181
	c0-14.709-11.923-26.633-26.633-26.633h-23.055h23.055c14.708,0,26.633-11.923,26.633-26.633v-0.863
	c0-14.708-11.923-26.633-26.633-26.633H334.814c0-31.255,2.249-51.877,2.762-81.004c0.125-7.092-0.044-14.46-0.044-23.601
	c0-13.489-10.918-24.434-24.407-24.434l0,0c-1.444-0.029-10.355-0.061-17.259,7.148c-5.559,5.806-6.38,12.718-6.421,16.094
	c-0.018,1.493-0.284,2.967-0.753,4.385c-4.185,12.663-14.744,37.544-35.449,68.126c-10.534,15.559-27.106,28.912-33.083,33.776
	c-11.481,9.341-22.944,16.559-33.604,22.172l0,0L186.556,479.654L186.556,479.654z"/>
<path style="fill:#F0C891;" d="M460.057,466.018c-4.771,4.511-11.204,7.283-18.289,7.283H252.272
	c-20.634,0-40.464-8.002-55.32-22.323l-10.398-10.024v38.7l10.398,10.024C211.807,503.997,231.638,512,252.272,512h189.496
	c14.708,0,26.633-11.923,26.633-26.633C468.401,477.743,465.192,470.873,460.057,466.018z"/>
<path style="fill:#00AAF0;" d="M172.341,512H48.623c-2.774,0-5.023-2.249-5.023-5.023V301.876c0-2.774,2.249-5.023,5.023-5.023
	h123.718c8.405,0,15.217,6.813,15.217,15.217v184.712C187.56,505.188,180.746,512,172.341,512z"/>
<path style="fill:#0398E2;" d="M172.341,464.438H43.601v42.54c0,2.774,2.249,5.023,5.023,5.023h123.718
	c8.405,0,15.217-6.813,15.217-15.217V449.22C187.56,457.624,180.746,464.438,172.341,464.438z"/>
<circle style="fill:#6F4BEF;" cx="133.586" cy="345.742" r="11.117"/>
<g>
</g>
<g>
</g>
<g>
</g>
<g>
</g>
<g>
</g>
<g>
</g>
<g>
</g>
<g>
</g>
<g>
</g>
<g>
</g>
<g>
</g>
<g>
</g>
<g>
</g>
<g>
</g>
<g>
</g>
</svg>
