<?xml version="1.0" encoding="iso-8859-1"?>
<!-- Generator: Adobe Illustrator 19.0.0, SVG Export Plug-In . SVG Version: 6.00 Build 0)  -->
<svg version="1.1" id="Capa_1" xmlns="http://www.w3.org/2000/svg" xmlns:xlink="http://www.w3.org/1999/xlink" x="0px" y="0px"
	 viewBox="0 0 512 512" style="enable-background:new 0 0 512 512;" xml:space="preserve">
<path style="fill:#E9EBF2;" d="M425.847,422.584H30.781c-17,0-30.781-13.781-30.781-30.781V78.054c0-17,13.781-30.781,30.781-30.781
	h395.066c17,0,30.781,13.781,30.781,30.781v313.749C456.628,408.802,442.847,422.584,425.847,422.584z"/>
<path style="fill:#00AAF0;" d="M456.628,121.292V78.054c0-17-13.781-30.781-30.781-30.781H30.781C13.781,47.273,0,61.054,0,78.054
	v43.239h454.543h2.085V121.292z"/>
<path style="fill:#0076CE;" d="M288.781,92.91H153.252c-4.477,0-8.106-3.629-8.106-8.106c0-4.477,3.629-8.106,8.106-8.106h135.529
	c4.477,0,8.106,3.629,8.106,8.106C296.886,89.281,293.258,92.91,288.781,92.91z"/>
<circle style="fill:#53515E;" cx="40.659" cy="84.801" r="9.739"/>
<circle style="fill:#FFDC64;" cx="78.19" cy="84.801" r="9.739"/>
<circle style="fill:#86E56E;" cx="113.64" cy="84.801" r="9.739"/>
<circle style="fill:#53515E;" cx="417.01" cy="84.801" r="9.739"/>
<path style="fill:#C7CAD3;" d="M182.212,334.943l-14.176-1.787c-2.485-8.786-5.981-17.146-10.346-24.955l8.782-11.29
	c4.4-5.655,3.899-13.702-1.168-18.768l-22.524-22.524c-5.062-5.062-13.1-5.567-18.756-1.178l-11.317,8.783
	c-7.767-4.339-16.078-7.822-24.811-10.302l-1.774-14.195c-0.888-7.109-6.932-12.445-14.097-12.445H40.173
	c-7.159,0-13.2,5.327-14.095,12.43l-1.787,14.176C15.751,255.302,7.62,258.68,0,262.874v61.246
	c12.603-17.288,32.998-28.531,56.029-28.531c38.277,0,69.306,31.029,69.306,69.306c0,24.069-12.274,45.264-30.898,57.689h64.046
	l-0.784-1.01c4.339-7.767,7.821-16.077,10.302-24.811l14.195-1.774c7.109-0.888,12.445-6.932,12.445-14.097v-31.853
	C194.642,341.879,189.315,335.839,182.212,334.943z"/>
<path style="fill:#B0B6C1;" d="M94.437,422.583h30.643c13.124-15.932,21.007-36.343,21.007-58.596
	c0-50.934-41.291-92.225-92.225-92.225c-20.112,0-38.705,6.457-53.862,17.385v34.972c12.603-17.288,32.998-28.531,56.029-28.531
	c38.277,0,69.306,31.029,69.306,69.306C125.335,388.963,113.062,410.159,94.437,422.583z"/>
<path style="fill:#DFE2EA;" d="M246.839,153.062c-22.353,0-40.473,18.121-40.473,40.474v229.047h219.481
	c17,0,30.781-13.781,30.781-30.781v-238.74L246.839,153.062L246.839,153.062z"/>
<path style="fill:#FF80BD;" d="M476.95,464.493H263.364c-19.358,0-35.05-15.692-35.05-35.05V210.477
	c0-19.358,15.692-35.05,35.05-35.05H476.95c19.358,0,35.05,15.692,35.05,35.05v218.966C512,448.801,496.308,464.493,476.95,464.493z
	"/>
<path style="fill:#FF5CA6;" d="M476.95,175.663h-20.532v82.117c0,84.455-68.464,152.919-152.919,152.919h-75.185v18.979
	c0,19.358,15.692,35.05,35.05,35.05H476.95c19.358,0,35.05-15.692,35.05-35.05V210.713C512,191.355,496.308,175.663,476.95,175.663z
	"/>
<path style="fill:#6F4BEF;" d="M436.386,258.017H305.433c-9.612,0-17.405,7.792-17.405,17.405v89.446
	c0,9.612,7.792,17.405,17.405,17.405h4.927c3.13,0,5.667,2.537,5.667,5.667v20.957c0,3.09,3.736,4.638,5.922,2.453l27.417-27.417
	c1.063-1.063,2.504-1.66,4.007-1.66h83.014c9.612,0,17.405-7.792,17.405-17.405v-89.447
	C453.791,265.809,445.998,258.017,436.386,258.017z"/>
<g>
</g>
<g>
</g>
<g>
</g>
<g>
</g>
<g>
</g>
<g>
</g>
<g>
</g>
<g>
</g>
<g>
</g>
<g>
</g>
<g>
</g>
<g>
</g>
<g>
</g>
<g>
</g>
<g>
</g>
</svg>
