<?xml version="1.0" encoding="iso-8859-1"?>
<!-- Generator: Adobe Illustrator 19.0.0, SVG Export Plug-In . SVG Version: 6.00 Build 0)  -->
<svg version="1.1" id="Capa_1" xmlns="http://www.w3.org/2000/svg" xmlns:xlink="http://www.w3.org/1999/xlink" x="0px" y="0px"
	 viewBox="0 0 512 512" style="enable-background:new 0 0 512 512;" xml:space="preserve">
<path style="fill:#E9EBF2;" d="M425.847,422.701H30.781C13.781,422.701,0,408.92,0,391.92V78.171c0-17,13.781-30.781,30.781-30.781
	h395.066c17,0,30.781,13.781,30.781,30.781V391.92C456.628,408.919,442.847,422.701,425.847,422.701z"/>
<path style="fill:#00AAF0;" d="M456.628,121.41V78.171c0-17-13.781-30.781-30.781-30.781H30.781C13.781,47.39,0,61.171,0,78.171
	v43.239h454.543C454.543,121.41,456.628,121.41,456.628,121.41z"/>
<path style="fill:#0076CE;" d="M288.781,93.027H153.252c-4.477,0-8.106-3.629-8.106-8.106s3.629-8.106,8.106-8.106h135.529
	c4.477,0,8.106,3.629,8.106,8.106S293.258,93.027,288.781,93.027z"/>
<circle style="fill:#53515E;" cx="40.659" cy="84.92" r="9.739"/>
<circle style="fill:#FFDC64;" cx="78.19" cy="84.92" r="9.739"/>
<circle style="fill:#86E56E;" cx="113.64" cy="84.92" r="9.739"/>
<circle style="fill:#53515E;" cx="417.01" cy="84.92" r="9.739"/>
<path style="fill:#C7CAD3;" d="M182.212,335.06l-14.176-1.787c-2.485-8.786-5.981-17.146-10.346-24.955l8.782-11.29
	c4.4-5.655,3.899-13.702-1.168-18.768l-22.524-22.524c-5.062-5.062-13.1-5.567-18.756-1.178l-11.317,8.783
	c-7.767-4.339-16.078-7.822-24.811-10.302l-1.774-14.195c-0.888-7.109-6.932-12.445-14.097-12.445H40.173
	c-7.159,0-13.2,5.327-14.095,12.43l-1.787,14.176C15.751,255.42,7.62,258.797,0,262.991v61.246
	c12.603-17.288,32.998-28.531,56.029-28.531c38.277,0,69.306,31.029,69.306,69.306c0,24.069-12.274,45.264-30.898,57.689h64.046
	l-0.784-1.01c4.339-7.767,7.821-16.078,10.302-24.811l14.195-1.774c7.109-0.888,12.445-6.932,12.445-14.097v-31.853
	C194.642,341.996,189.315,335.956,182.212,335.06z"/>
<path style="fill:#B0B6C1;" d="M94.437,422.701h30.643c13.124-15.932,21.007-36.343,21.007-58.596
	c0-50.934-41.291-92.225-92.225-92.225c-20.112,0-38.705,6.457-53.862,17.385v34.972c12.603-17.288,32.998-28.531,56.029-28.531
	c38.277,0,69.306,31.029,69.306,69.306C125.335,389.08,113.062,410.276,94.437,422.701z"/>
<path style="fill:#DFE2EA;" d="M246.839,153.18c-22.353,0-40.473,18.121-40.473,40.474v229.047h219.481
	c17,0,30.781-13.781,30.781-30.781V153.18H246.839z"/>
<path style="fill:#FFDC64;" d="M476.95,464.61H263.364c-19.358,0-35.05-15.692-35.05-35.05V210.594
	c0-19.358,15.692-35.05,35.05-35.05H476.95c19.358,0,35.05,15.692,35.05,35.05V429.56C512,448.918,496.308,464.61,476.95,464.61z"/>
<path style="fill:#FFC850;" d="M476.95,175.544h-20.532v82.117c0,84.455-68.464,152.919-152.919,152.919h-75.185v18.979
	c0,19.358,15.692,35.05,35.05,35.05H476.95c19.358,0,35.05-15.692,35.05-35.05V210.594C512,191.237,496.308,175.544,476.95,175.544z
	"/>
<g>
	<path style="fill:#53515E;" d="M320.34,313.584c-24.307,0-44.082-19.775-44.082-44.082v-7.268c0-4.477,3.629-8.106,8.106-8.106
		s8.106,3.629,8.106,8.106v7.268c0,15.368,12.503,27.871,27.871,27.871c4.477,0,8.106,3.629,8.106,8.106
		S324.817,313.584,320.34,313.584z"/>
	<path style="fill:#53515E;" d="M429.868,313.584c-4.477,0-8.106-3.629-8.106-8.106s3.629-8.106,8.106-8.106
		c15.368,0,27.871-12.503,27.871-27.871v-7.268c0-4.477,3.629-8.106,8.106-8.106s8.106,3.629,8.106,8.106v7.268
		C473.951,293.809,454.175,313.584,429.868,313.584z"/>
	<path style="fill:#53515E;" d="M450.288,421.458c-4.477,0-8.106-3.629-8.106-8.106v-7.268c0-15.368-12.503-27.871-27.87-27.871
		c-4.477,0-8.106-3.629-8.106-8.106s3.629-8.106,8.106-8.106c24.307,0,44.081,19.775,44.081,44.082v7.268
		C458.394,417.829,454.765,421.458,450.288,421.458z"/>
	<path style="fill:#53515E;" d="M297.784,421.458c-4.477,0-8.106-3.629-8.106-8.106v-7.268c0-24.307,19.776-44.082,44.082-44.082
		c4.477,0,8.106,3.629,8.106,8.106s-3.629,8.106-8.106,8.106c-15.368,0-27.871,12.503-27.871,27.871v7.268
		C305.89,417.829,302.261,421.458,297.784,421.458z"/>
	<path style="fill:#53515E;" d="M321.062,344.108h-46.006c-4.477,0-8.106-3.629-8.106-8.106s3.629-8.106,8.106-8.106h46.006
		c4.477,0,8.106,3.629,8.106,8.106S325.539,344.108,321.062,344.108z"/>
</g>
<g>
	<path style="fill:#FFFFFF;" d="M352.239,277.842c-4.477,0-8.106-3.629-8.106-8.106v-9.911c0-3.496-2.843-6.339-6.339-6.339
		c-12.435,0-22.551-10.116-22.551-22.55v-10.407c0-4.477,3.629-8.106,8.106-8.106s8.106,3.629,8.106,8.106v10.407
		c0,3.495,2.844,6.339,6.34,6.339c12.434,0,22.55,10.116,22.55,22.551v9.911C360.345,274.213,356.716,277.842,352.239,277.842z"/>
	<path style="fill:#FFFFFF;" d="M397.477,277.842c-4.477,0-8.106-3.629-8.106-8.106v-9.911c0-12.435,10.116-22.551,22.55-22.551
		c3.496,0,6.339-2.844,6.339-6.339v-10.407c0-4.477,3.629-8.106,8.106-8.106s8.106,3.629,8.106,8.106v10.407
		c0,12.435-10.116,22.55-22.55,22.55c-3.496,0-6.339,2.844-6.339,6.339v9.911C405.583,274.213,401.954,277.842,397.477,277.842z"/>
</g>
<g>
	<path style="fill:#53515E;" d="M473.038,344.108h-46.006c-4.477,0-8.106-3.629-8.106-8.106s3.629-8.106,8.106-8.106h46.006
		c4.477,0,8.106,3.629,8.106,8.106C481.143,340.479,477.515,344.108,473.038,344.108z"/>
	<circle style="fill:#53515E;" cx="374.61" cy="301.9" r="45.44"/>
</g>
<path style="fill:#474756;" d="M374.605,256.46c-3.315,0-6.544,0.364-9.657,1.038c20.454,4.429,35.781,22.62,35.781,44.399
	s-15.327,39.971-35.781,44.399c3.113,0.674,6.342,1.038,9.657,1.038c25.095,0,45.438-20.343,45.438-45.438
	C420.043,276.803,399.7,256.46,374.605,256.46z"/>
<path style="fill:#FF6B5C;" d="M321.19,297.328c-1.604,7.656-2.469,15.79-2.469,24.222c0,45.272,24.882,81.972,55.574,81.972
	s55.574-36.7,55.574-81.972c0-8.433-0.865-16.566-2.469-24.222H321.19z"/>
<g>
	<path style="fill:#D85750;" d="M427.4,297.328h-19.004c1.604,7.656,2.469,15.79,2.469,24.222c0,40.491-19.909,74.101-46.072,80.754
		c3.089,0.786,6.26,1.218,9.502,1.218c30.692,0,55.574-36.7,55.574-81.972C429.869,313.118,429.004,304.984,427.4,297.328z"/>
	<path style="fill:#D85750;" d="M374.605,317.445c-4.477,0-8.106,3.629-8.106,8.106v77.152c2.548,0.528,5.148,0.819,7.795,0.819
		c2.861,0,5.671-0.321,8.416-0.936V325.55C382.711,321.074,379.082,317.445,374.605,317.445z"/>
</g>
<g>
	<circle style="fill:#FFFFFF;" cx="357.29" cy="282.4" r="6.395"/>
	<circle style="fill:#FFFFFF;" cx="390.32" cy="282.4" r="6.395"/>
</g>
<g>
</g>
<g>
</g>
<g>
</g>
<g>
</g>
<g>
</g>
<g>
</g>
<g>
</g>
<g>
</g>
<g>
</g>
<g>
</g>
<g>
</g>
<g>
</g>
<g>
</g>
<g>
</g>
<g>
</g>
</svg>
