<?xml version="1.0" encoding="iso-8859-1"?>
<!-- Generator: Adobe Illustrator 19.0.0, SVG Export Plug-In . SVG Version: 6.00 Build 0)  -->
<svg version="1.1" id="Capa_1" xmlns="http://www.w3.org/2000/svg" xmlns:xlink="http://www.w3.org/1999/xlink" x="0px" y="0px"
	 viewBox="0 0 512 512" style="enable-background:new 0 0 512 512;" xml:space="preserve">
<path style="fill:#DFE2EA;" d="M420.882,246.334l-19.54-5.128c0.066-7.629-0.632-15.138-2.036-22.44l18.274-8.578
	c3.143-1.475,4.642-5.104,3.456-8.368l-6.556-18.036c-1.186-3.263-4.665-5.083-8.022-4.196l-19.545,5.165
	c-3.488-6.262-7.552-12.186-12.139-17.688l11.849-16.379c2.035-2.813,1.588-6.714-1.03-8.994l-14.472-12.604
	c-2.618-2.28-6.544-2.187-9.05,0.215l-14.578,13.968c-7.421-4.632-15.449-8.454-23.985-11.321l1.536-20.144
	c0.264-3.462-2.156-6.554-5.58-7.129l-18.926-3.179c-3.424-0.575-6.721,1.557-7.603,4.915l-5.128,19.54
	c-7.629-0.066-15.138,0.633-22.44,2.036l-6.051-12.89l-2.527-5.384c-1.475-3.143-5.104-4.642-8.368-3.456l-18.036,6.556
	c-3.263,1.186-5.083,4.665-4.196,8.022l5.165,19.545c-6.262,3.488-12.186,7.552-17.688,12.138l-16.379-11.849
	c-2.813-2.035-6.714-1.588-8.994,1.03l-12.603,14.472c-2.28,2.618-2.187,6.543,0.215,9.05l13.968,14.578
	c-4.632,7.421-8.454,15.449-11.321,23.985l-20.144-1.536c-3.462-0.264-6.554,2.156-7.129,5.58l-3.178,18.926
	c-0.575,3.424,1.557,6.721,4.915,7.603l19.54,5.128c-0.066,7.63,0.632,15.138,2.036,22.44l-18.273,8.578
	c-3.143,1.475-4.642,5.104-3.456,8.368l6.556,18.036c1.186,3.263,4.665,5.083,8.022,4.196l19.545-5.166
	c3.488,6.262,7.552,12.186,12.139,17.688l-11.848,16.38c-2.035,2.813-1.588,6.714,1.03,8.994l14.472,12.603
	c2.618,2.28,6.544,2.187,9.051-0.215l14.578-13.968c7.421,4.632,15.449,8.454,23.985,11.321l-1.536,20.144
	c-0.264,3.462,2.156,6.554,5.58,7.129l18.926,3.178c3.424,0.575,6.721-1.557,7.603-4.915l5.128-19.54
	c7.629,0.066,15.138-0.632,22.44-2.036l8.578,18.274c1.475,3.143,5.104,4.642,8.368,3.455l18.036-6.556
	c3.263-1.186,5.083-4.665,4.196-8.022l-5.165-19.545c6.262-3.488,12.186-7.552,17.688-12.138l16.38,11.848
	c2.813,2.035,6.714,1.588,8.994-1.03l12.604-14.472c2.28-2.618,2.187-6.543-0.215-9.051l-13.968-14.578
	c4.632-7.421,8.454-15.449,11.321-23.985l20.144,1.536c3.462,0.264,6.554-2.156,7.129-5.58l3.178-18.926
	C426.372,250.513,424.241,247.215,420.882,246.334z M367.779,253.923c-7.415,44.152-49.219,73.934-93.371,66.519
	c-3.71-0.623-7.319-1.489-10.812-2.579l-19.251-8.93c-26.655-16.955-42.017-48.748-36.456-81.863
	c7.415-44.153,49.219-73.934,93.371-66.519C345.412,167.967,375.194,209.771,367.779,253.923z"/>
<path style="fill:#53515E;" d="M488.836,133.917c17.388-17.388,23.086-42.026,17.121-64.181c-0.811-3.012-4.56-4.041-6.766-1.835
	L467.58,99.512c-4.022,4.022-10.544,4.022-14.567,0L429.461,75.96c-4.022-4.022-4.022-10.544,0-14.567l31.611-31.611
	c2.206-2.206,1.177-5.954-1.835-6.766c-22.154-5.965-46.792-0.267-64.181,17.121c-18.955,18.955-24.017,46.524-15.224,70.1
	L229.893,247.353c-15.395,14.079-15.933,38.157-1.181,52.908l0,0c14.822,14.822,39.038,14.198,53.077-1.367l135.548-150.281
	C441.213,158.141,469.506,153.247,488.836,133.917z"/>
<g>
	<path style="fill:#474756;" d="M434.471,21.157l-13.636,13.636c-4.023,4.023-4.023,10.544,0,14.567l10.33,10.33l29.905-29.905
		c2.199-2.199,1.189-5.953-1.815-6.761C451.168,20.846,442.749,20.227,434.471,21.157z"/>
	<path style="fill:#474756;" d="M499.191,67.901L499.191,67.901c-1.619,14.4-7.937,28.37-18.981,39.415
		c-19.33,19.33-47.623,24.224-71.499,14.696l-88.153,97.735c-15.89,17.617-39.895,25.553-63.155,20.884
		c-3.559-0.714-5.874-1.177-5.874-1.177c-3.419-0.669-6.622-1.745-9.545-3.155l-12.087,11.054
		c-9.622,8.799-11.16,24.884-11.79,24.147c-0.805,10.283,2.704,20.86,10.606,28.762l0,0c14.822,14.822,39.038,14.198,53.077-1.367
		l35.064-38.876l0.007-0.004l-0.001-0.001l100.478-111.399c23.876,9.527,52.169,4.634,71.499-14.696
		c17.388-17.388,23.086-42.026,17.121-64.18C505.146,66.725,501.397,65.695,499.191,67.901z M241.799,284.015
		c0.047,0.048,0.091,0.093,0.139,0.14c-0.085-0.009-0.171-0.015-0.256-0.025L241.799,284.015z"/>
</g>
<path style="fill:#FFE1B3;" d="M290.327,266.142l-35.427-6.937c-15.909-3.115-27.16-14.987-27.16-28.66V196.94h-79.284v33.605
	c0,13.673-11.251,25.545-27.16,28.66l-35.426,6.937c-29.038,5.686-49.575,27.356-49.575,52.313v38.072H339.9v-38.072
	C339.902,293.498,319.365,271.827,290.327,266.142z"/>
<path style="fill:#F0C891;" d="M186.727,242.004L186.727,242.004c15.249,0,29.384-4.755,41.013-12.858V196.94h-79.284v33.605
	c0,0.139-0.008,0.276-0.01,0.415C159.529,237.954,172.654,242.004,186.727,242.004z"/>
<path style="fill:#FFE1B3;" d="M186.728,224.894L186.728,224.894c-39.672,0-71.832-32.16-71.832-71.832V94.337
	c0-39.672,32.16-71.832,71.832-71.832l0,0c39.672,0,71.832,32.16,71.832,71.832v58.726
	C258.559,192.734,226.399,224.894,186.728,224.894z"/>
<path style="fill:#B28362;" d="M186.728,191.729c-8.387,0-16.272-3.266-22.203-9.197c-2.929-2.929-2.929-7.678,0-10.606
	c2.929-2.929,7.678-2.929,10.606,0c3.098,3.098,7.216,4.803,11.596,4.803s8.499-1.706,11.596-4.803c2.929-2.929,7.678-2.93,10.606,0
	c2.929,2.929,2.929,7.677,0,10.606C203,188.462,195.115,191.729,186.728,191.729z"/>
<path style="fill:#C7CAD3;" d="M272.45,160.894c0.279-2.573,0.433-5.185,0.433-7.832v-26.25c-2.527,0.312-5.036,0.701-7.519,1.178
	l-6.051-12.89l-2.527-5.384c-1.475-3.143-5.104-4.642-8.368-3.456l-4.021,1.461v33.204c0,15.626-5.005,30.075-13.478,41.864
	C242.209,171.676,256.636,163.953,272.45,160.894z"/>
<path style="fill:#FAD7A5;" d="M199.97,23.728c18.225,13.028,30.105,34.363,30.105,58.474v58.726
	c0,39.672-32.16,71.832-71.832,71.832l0,0c-4.524,0-8.949-0.423-13.242-1.223c11.762,8.408,26.166,13.358,41.727,13.358l0,0
	c39.672,0,71.832-32.16,71.832-71.832V94.337C258.559,59.189,233.315,29.943,199.97,23.728z"/>
<path style="fill:#B48765;" d="M112.025,45.778c-3.631,5.816-8.505,15.187-11.085,27.621c-2.238,10.784-1.953,20.03-1.254,26.4
	c8.739-2.157,15.56-5.245,20.285-7.784c1.865-1.002,11.082-6.046,20.697-15.36l0,0L112.025,45.778z"/>
<path style="fill:#966D50;" d="M278.258,86.427c-6.117-22.66-16.274-44.237-32.796-60.218c-5.355-5.18-25.48-24.646-55.264-26.185
	c0,0-31.08-1.606-57.917,21.231c-8.097,6.89-14.763,15.243-20.256,24.523c24.979,35.739,62.453,58.466,104.354,58.466
	c10.319,0,31.878-3.147,42.18-9.908"/>
<path style="fill:#846047;" d="M245.462,26.209c-5.355-5.18-25.479-24.646-55.264-26.185c0,0-8.816-0.455-21.111,2.569
	c21.062,5.806,35.131,19.413,39.476,23.616c16.522,15.981,26.679,37.558,32.796,60.218l-19.698,7.909
	c-5.983,3.926-15.763,6.632-24.933,8.212c6.417,1.114,12.978,1.696,19.652,1.696c10.318,0,31.878-3.147,42.18-9.908l19.698-7.909
	C272.141,63.767,261.984,42.191,245.462,26.209z"/>
<g>
	<circle style="fill:#53515E;" cx="158.239" cy="122.36" r="7.962"/>
	<circle style="fill:#53515E;" cx="212.379" cy="122.36" r="7.962"/>
</g>
<path style="fill:#FF9EA4;" d="M339.901,318.442c-0.007-24.951-20.541-46.615-49.574-52.3l-35.427-6.937
	c-5.507-1.078-10.454-3.207-14.571-6.095c-13.966,12.194-32.234,19.584-52.231,19.584c-19.996,0-38.265-7.39-52.231-19.584
	c-4.117,2.888-9.064,5.017-14.571,6.095l-35.426,6.937c-29.038,5.686-49.574,27.356-49.574,52.313v38.072l0,0v69.354
	c0,16.849,6.549,33.037,18.263,45.147l32.212,33.3h207.774l29.098-35.663c10.515-12.888,16.258-29.011,16.258-45.644v-66.493
	v-38.072C339.902,318.45,339.901,318.446,339.901,318.442z"/>
<path style="fill:#C7CAD3;" d="M294.547,321.297l0.011,33.204c4.725-0.311,9.389-0.913,13.972-1.794l8.578,18.274
	c1.475,3.143,5.104,4.642,8.368,3.455l18.036-6.556c3.263-1.186,5.083-4.665,4.196-8.022l-5.165-19.545
	c3.279-1.826,6.458-3.819,9.54-5.953v-20.68c0-0.004,0-0.008,0-0.012c-0.002-6.593-1.444-12.954-4.091-18.854
	C334.371,309.871,315.332,319.585,294.547,321.297z"/>
<g>
	<path style="fill:#FF7B97;" d="M55.224,280.368c-11.795,9.825-18.928,23.383-18.928,38.086v38.072l0,0v69.354
		c0,16.849,6.549,33.037,18.263,45.147l32.212,33.3h7.062V321.349C93.833,301.198,74.869,284.382,55.224,280.368z"/>
	<path style="fill:#FF7B97;" d="M339.902,423.019v-66.493v-38.072c0-0.004,0-0.008,0-0.012
		c-0.004-14.838-7.269-28.514-19.263-38.358c-20.011,3.432-38.274,20.593-38.274,41.264l0.06,182.978h12.121l29.098-35.663
		C334.159,455.776,339.902,439.653,339.902,423.019z"/>
</g>
<path style="fill:#E9EBF2;" d="M284.111,504.326H92.087c-7.654,0-13.858-6.205-13.858-13.858V356.705
	c0-9.404,7.624-17.028,17.028-17.028h185.684c9.404,0,17.028,7.624,17.028,17.028v133.763
	C297.969,498.122,291.764,504.326,284.111,504.326z"/>
<path style="fill:#DFE2EA;" d="M280.941,339.677h-17.812v19.417c0,63.754-51.683,115.437-115.437,115.437H78.229v15.938
	c0,7.654,6.204,13.858,13.858,13.858H284.11c7.654,0,13.858-6.204,13.858-13.858V356.705
	C297.969,347.301,290.345,339.677,280.941,339.677z"/>
<circle style="fill:#FFFFFF;" cx="188.099" cy="422" r="18.653"/>
<path style="fill:#966D50;" d="M361.168,512H11.427c-4.238,0-7.673-3.436-7.673-7.673s3.436-7.673,7.673-7.673h349.741
	c4.238,0,7.673,3.436,7.673,7.673S365.406,512,361.168,512z"/>
<g>
</g>
<g>
</g>
<g>
</g>
<g>
</g>
<g>
</g>
<g>
</g>
<g>
</g>
<g>
</g>
<g>
</g>
<g>
</g>
<g>
</g>
<g>
</g>
<g>
</g>
<g>
</g>
<g>
</g>
</svg>
