<?xml version="1.0" encoding="iso-8859-1"?>
<!-- Generator: Adobe Illustrator 19.0.0, SVG Export Plug-In . SVG Version: 6.00 Build 0)  -->
<svg version="1.1" id="Capa_1" xmlns="http://www.w3.org/2000/svg" xmlns:xlink="http://www.w3.org/1999/xlink" x="0px" y="0px"
	 viewBox="0 0 512 512" style="enable-background:new 0 0 512 512;" xml:space="preserve">
<circle style="fill:#DEAF73;" cx="180.3" cy="72.65" r="70.65"/>
<path style="fill:#86E56E;" d="M352.564,292.146l-10.476-2.451h-166.86l-10.476,2.451c-26.674,6.241-45.539,30.029-45.539,57.424
	v154.753h278.889V349.569C398.103,322.175,379.238,298.387,352.564,292.146z"/>
<path style="fill:#FAD7A5;" d="M258.658,340.867c36.417,0,67.953-20.809,83.43-51.172l-22.066-5.163
	c-14.614-3.419-24.949-16.452-24.949-31.46v-36.889h-72.83v36.889c0,15.008-10.335,28.041-24.949,31.46l-22.066,5.163
	C190.705,320.057,222.241,340.867,258.658,340.867z"/>
<path style="fill:#53515E;" d="M352.699,181.047h-16.696v-71.496h16.696c7.941,0,14.378,6.437,14.378,14.378v42.741
	C367.077,174.61,360.64,181.047,352.699,181.047z"/>
<rect x="161.05" y="97.45" style="fill:#CD905A;" width="17.251" height="30.498"/>
<rect x="332.75" y="109.55" style="fill:#474756;" width="16.523" height="71.5"/>
<path style="fill:#53515E;" d="M161.606,109.551h16.696v71.496h-16.696c-7.941,0-14.378-6.437-14.378-14.378v-42.741
	C147.228,115.988,153.666,109.551,161.606,109.551z"/>
<rect x="165.99" y="109.55" style="fill:#474756;" width="14.315" height="71.5"/>
<path style="fill:#F0C891;" d="M295.073,253.071v-36.889h-72.83v36.889c0,1.12-0.065,2.227-0.177,3.322
	c10.569,5.262,22.478,8.237,35.087,8.237l0,0c13.77,0,26.711-3.538,37.977-9.742C295.096,254.285,295.073,253.68,295.073,253.071z"
	/>
<path style="fill:#FFE1B3;" d="M257.153,246.868L257.153,246.868c-43.548,0-78.85-35.302-78.85-78.85v-64.464
	c0-43.548,35.302-78.85,78.85-78.85l0,0c43.548,0,78.85,35.302,78.85,78.85v64.464C336.003,211.565,300.701,246.868,257.153,246.868
	z"/>
<path style="fill:#FAD7A5;" d="M270.26,25.809c20.809,14.195,34.474,38.088,34.474,65.178v64.464c0,43.548-35.302,78.85-78.85,78.85
	l0,0c-4.468,0-8.843-0.391-13.108-1.105c12.642,8.624,27.918,13.673,44.376,13.673l0,0c43.548,0,78.85-35.302,78.85-78.85v-64.464
	C336.003,64.474,307.566,32.054,270.26,25.809z"/>
<path style="fill:#CD905A;" d="M175.151,50.251c-3.986,6.384-9.336,16.671-12.169,30.32c-2.456,11.837-2.143,21.987-1.377,28.98
	c9.593-2.368,17.08-5.757,22.267-8.545c2.047-1.1,12.165-6.637,22.719-16.861l0,0L175.151,50.251z"/>
<path style="fill:#D59F63;" d="M357.626,94.872c-6.715-24.874-17.864-48.559-36-66.102c-5.878-5.686-27.969-27.054-60.664-28.743
	c0,0-34.116-1.762-63.576,23.306c-8.888,7.563-16.206,16.732-22.235,26.919c27.42,39.231,68.555,64.179,114.55,64.179
	c11.327,0,34.993-3.455,46.302-10.876L357.626,94.872z"/>
<path style="fill:#CD905A;" d="M321.626,28.77c-5.879-5.686-27.969-27.054-60.664-28.743c0,0-8.271-0.42-20.176,2.134
	c24.596,5.913,41.045,21.821,45.995,26.609c18.136,17.543,29.285,41.228,36,66.102l-21.623,8.682
	c-7.18,4.712-19.339,7.822-30.16,9.467c6.128,0.919,12.367,1.409,18.703,1.409c11.327,0,34.993-3.455,46.302-10.876l21.623-8.682
	C350.911,69.998,339.762,46.313,321.626,28.77z"/>
<path style="fill:#AAE1FF;" d="M346.815,175.533c-1.55,0-2.807,1.257-2.807,2.807v8.541c-0.001,0.053-0.008,0.105-0.008,0.159
	c-0.065,10.611-9.613,19.271-20.224,19.271h-58.15c-4.129,0-7.729,3.182-7.853,7.308c-0.128,4.27,3.295,7.773,7.537,7.773h59.422
	c18.94,0,34.349-15.409,34.349-34.348l0,0v-8.704c0-1.55-1.257-2.807-2.807-2.807H346.815z"/>
<g>
	<circle style="fill:#53515E;" cx="225.88" cy="134.32" r="8.74"/>
	<circle style="fill:#53515E;" cx="285.31" cy="134.32" r="8.74"/>
</g>
<path style="fill:#E9EBF2;" d="M353.865,504.322H161.74c-7.658,0-13.866-6.208-13.866-13.866V356.623
	c0-9.409,7.628-17.037,17.037-17.037h185.782c9.409,0,17.037,7.628,17.037,17.037v133.834
	C367.73,498.115,361.522,504.322,353.865,504.322z"/>
<path style="fill:#DFE2EA;" d="M350.693,339.586h-18.699v13.176c0,67.121-54.412,121.533-121.533,121.533h-62.586v16.162
	c0,7.658,6.208,13.865,13.865,13.865h192.125c7.658,0,13.865-6.208,13.865-13.865V356.623
	C367.73,347.214,360.102,339.586,350.693,339.586z"/>
<circle style="fill:#FFFFFF;" cx="257.8" cy="421.95" r="18.662"/>
<path style="fill:#966D50;" d="M430.963,512H81.037c-4.24,0-7.677-3.437-7.677-7.677s3.437-7.677,7.677-7.677h349.926
	c4.24,0,7.677,3.437,7.677,7.677S435.203,512,430.963,512z"/>
<path style="fill:#B28362;" d="M259.413,204.229c-9.299,0-18.042-3.621-24.617-10.197c-2.929-2.929-2.929-7.678,0-10.606
	c2.929-2.929,7.678-2.93,10.606,0c3.742,3.743,8.718,5.803,14.01,5.803s10.268-2.061,14.011-5.803c2.929-2.929,7.678-2.929,10.606,0
	c2.929,2.929,2.929,7.678,0,10.606C277.455,200.607,268.712,204.229,259.413,204.229z"/>
<g>
</g>
<g>
</g>
<g>
</g>
<g>
</g>
<g>
</g>
<g>
</g>
<g>
</g>
<g>
</g>
<g>
</g>
<g>
</g>
<g>
</g>
<g>
</g>
<g>
</g>
<g>
</g>
<g>
</g>
</svg>
