<?xml version="1.0" encoding="iso-8859-1"?>
<!-- Generator: Adobe Illustrator 19.0.0, SVG Export Plug-In . SVG Version: 6.00 Build 0)  -->
<svg version="1.1" id="Capa_1" xmlns="http://www.w3.org/2000/svg" xmlns:xlink="http://www.w3.org/1999/xlink" x="0px" y="0px"
	 viewBox="0 0 512 512" style="enable-background:new 0 0 512 512;" xml:space="preserve">
<path style="fill:#C7CAD3;" d="M412.648,193.559h-42.756c-5.814,0-10.527-4.713-10.527-10.527V32.235
	c0-17.621,14.284-31.905,31.905-31.905l0,0c17.621,0,31.905,14.284,31.905,31.905v150.797
	C423.175,188.846,418.462,193.559,412.648,193.559z"/>
<path style="fill:#53515E;" d="M486.641,448.869V146.817c0-19.114-15.197-34.608-33.944-34.608H59.304
	c-18.747,0-33.944,15.495-33.944,34.608v301.85L486.641,448.869z"/>
<path style="fill:#DFE2EA;" d="M301.253,446.43L301.253,446.43c-38.353,0-54.059,0-90.781,0l0,0H5.002
	C2.24,446.43,0,448.669,0,451.432v11.349c0,27,21.888,48.888,48.888,48.888h414.224c27,0,48.888-21.888,48.888-48.888v-11.349
	c0-2.762-2.239-5.002-5.002-5.002H301.253z"/>
<path style="fill:#C7CAD3;" d="M2.784,479.049c6.705,19,24.81,32.619,46.104,32.619h414.224c21.295,0,39.4-13.62,46.104-32.619
	H301.253c-38.353,0-54.059,0-90.781,0H2.784z"/>
<path style="fill:#B3B5BC;" d="M391.272,0.33h-0.005c-17.62,0.001-31.902,14.285-31.902,31.905v150.797
	c0,5.814,4.713,10.527,10.527,10.527h10.61v-10.527V32.235l0,0c0-13.915,8.912-25.743,21.337-30.105
	C398.531,0.968,394.977,0.33,391.272,0.33z"/>
<path style="fill:#474756;" d="M147.418,371.09h203.498c16.34,0,29.585-13.246,29.585-29.585V183.033v-70.824H117.833v229.296
	C117.833,357.844,131.079,371.09,147.418,371.09z"/>
<rect x="63.922" y="150.249" style="fill:#FFFFFF;" width="387.85" height="258.81"/>
<path style="fill:#DFE2EA;" d="M359.365,32.235c0-17.621,14.284-31.905,31.905-31.905H126.281c-16.34,0-29.586,13.246-29.586,29.585
	v311.589c0,16.34,13.246,29.585,29.586,29.585h203.498c16.34,0,29.585-13.246,29.585-29.585V183.033V32.235H359.365z"/>
<path style="fill:#86E56E;" d="M195.796,113.647H145.3c-7.883,0-14.274-6.391-14.274-14.274V48.877
	c0-7.883,6.391-14.274,14.274-14.274h50.496c7.883,0,14.274,6.391,14.274,14.274v50.496
	C210.07,107.257,203.679,113.647,195.796,113.647z"/>
<path style="fill:#FF6B5C;" d="M195.796,225.232H145.3c-7.883,0-14.274-6.391-14.274-14.274v-50.496
	c0-7.883,6.391-14.274,14.274-14.274h50.496c7.883,0,14.274,6.391,14.274,14.274v50.496
	C210.07,218.841,203.679,225.232,195.796,225.232z"/>
<path style="fill:#86E56E;" d="M195.796,336.817H145.3c-7.883,0-14.274-6.391-14.274-14.274v-50.496
	c0-7.883,6.391-14.274,14.274-14.274h50.496c7.883,0,14.274,6.391,14.274,14.274v50.496
	C210.07,330.426,203.679,336.817,195.796,336.817z"/>
<g>
	<path style="fill:#FFFFFF;" d="M162.002,87.415c1.526,1.526,3.527,2.29,5.528,2.29s4.001-0.763,5.528-2.29l15.697-15.697
		c3.053-3.053,3.053-8.003,0-11.055c-3.053-3.053-8.003-3.053-11.055,0l-10.17,10.168l-2.266-2.266
		c-3.053-3.053-8.003-3.053-11.055,0c-3.053,3.053-3.053,8.003,0,11.055L162.002,87.415z"/>
	<path style="fill:#FFFFFF;" d="M177.7,283.833l-10.169,10.169l-2.266-2.266c-3.053-3.053-8.003-3.053-11.055,0
		c-3.053,3.053-3.053,8.003,0,11.055l7.794,7.794c1.526,1.526,3.527,2.29,5.528,2.29s4.001-0.763,5.528-2.29l15.697-15.697
		c3.053-3.053,3.053-8.003,0-11.056C185.702,280.78,180.752,280.78,177.7,283.833z"/>
	<path style="fill:#FFFFFF;" d="M181.32,184.677l7.871-7.871c3.053-3.053,3.053-8.003,0-11.055c-3.053-3.053-8.003-3.053-11.055,0
		l-7.871,7.871l-7.871-7.871c-3.052-3.054-8.002-3.053-11.055,0s-3.053,8.003,0,11.055l7.871,7.871l-7.871,7.871
		c-3.053,3.053-3.053,8.003,0,11.055c1.526,1.526,3.527,2.29,5.528,2.29s4.001-0.763,5.528-2.29l7.871-7.871l7.871,7.871
		c1.526,1.527,3.527,2.29,5.528,2.29c2,0,4.001-0.763,5.528-2.29c3.053-3.053,3.053-8.003,0-11.055L181.32,184.677z"/>
</g>
<g>
	<path style="fill:#C7CAD3;" d="M320.473,64.309h-80.92c-4.317,0-7.818-3.5-7.818-7.818s3.5-7.818,7.818-7.818h80.92
		c4.317,0,7.818,3.5,7.818,7.818S324.79,64.309,320.473,64.309z"/>
	<path style="fill:#C7CAD3;" d="M290.687,96.882h-51.134c-4.317,0-7.818-3.5-7.818-7.818s3.5-7.818,7.818-7.818h51.134
		c4.317,0,7.818,3.5,7.818,7.818S295.004,96.882,290.687,96.882z"/>
	<path style="fill:#C7CAD3;" d="M320.473,176.208h-80.92c-4.317,0-7.818-3.5-7.818-7.818c0-4.317,3.5-7.818,7.818-7.818h80.92
		c4.317,0,7.818,3.5,7.818,7.818C328.29,172.708,324.79,176.208,320.473,176.208z"/>
	<path style="fill:#C7CAD3;" d="M290.687,208.781h-51.134c-4.317,0-7.818-3.5-7.818-7.818c0-4.317,3.5-7.818,7.818-7.818h51.134
		c4.317,0,7.818,3.5,7.818,7.818C298.504,205.281,295.004,208.781,290.687,208.781z"/>
	<path style="fill:#C7CAD3;" d="M320.473,287.467h-80.92c-4.317,0-7.818-3.5-7.818-7.818c0-4.317,3.5-7.818,7.818-7.818h80.92
		c4.317,0,7.818,3.5,7.818,7.818C328.29,283.967,324.79,287.467,320.473,287.467z"/>
	<path style="fill:#C7CAD3;" d="M290.687,320.041h-51.134c-4.317,0-7.818-3.5-7.818-7.818s3.5-7.818,7.818-7.818h51.134
		c4.317,0,7.818,3.5,7.818,7.818S295.004,320.041,290.687,320.041z"/>
</g>
<g>
</g>
<g>
</g>
<g>
</g>
<g>
</g>
<g>
</g>
<g>
</g>
<g>
</g>
<g>
</g>
<g>
</g>
<g>
</g>
<g>
</g>
<g>
</g>
<g>
</g>
<g>
</g>
<g>
</g>
</svg>
