<?xml version="1.0" encoding="iso-8859-1"?>
<!-- Generator: Adobe Illustrator 19.0.0, SVG Export Plug-In . SVG Version: 6.00 Build 0)  -->
<svg version="1.1" id="Capa_1" xmlns="http://www.w3.org/2000/svg" xmlns:xlink="http://www.w3.org/1999/xlink" x="0px" y="0px"
	 viewBox="0 0 512 512" style="enable-background:new 0 0 512 512;" xml:space="preserve">
<circle style="fill:#DEAF73;" cx="187.8" cy="67.34" r="65.49"/>
<path style="fill:#FF80BD;" d="M347.474,270.788l-9.71-2.272H183.103l-9.711,2.272c-24.724,5.785-42.21,27.834-42.21,53.226V366.5
	h258.501v-42.487C389.683,298.622,372.198,276.573,347.474,270.788z"/>
<path style="fill:#FAD7A5;" d="M260.432,315.947c33.755,0,62.985-19.288,77.331-47.431l-20.453-4.786
	c-13.545-3.169-23.125-15.249-23.125-29.16v-34.192H226.68v34.192c0,13.911-9.579,25.991-23.125,29.16l-20.453,4.786
	C197.447,296.659,226.678,315.947,260.432,315.947z"/>
<path style="fill:#F0C891;" d="M294.185,234.57v-34.192H226.68v34.192c0,1.038-0.06,2.064-0.164,3.079
	c9.797,4.878,20.834,7.635,32.522,7.635l0,0c12.764,0,24.758-3.279,35.201-9.03C294.207,235.695,294.185,235.135,294.185,234.57z"/>
<path style="fill:#53515E;" d="M347.599,167.811h-15.476v-66.269h15.476c7.36,0,13.327,5.967,13.327,13.327v39.616
	C360.925,161.845,354.959,167.811,347.599,167.811z"/>
<rect x="329.5" y="101.54" style="fill:#474756;" width="14.923" height="66.27"/>
<rect x="169.96" y="90.32" style="fill:#CD905A;" width="15.99" height="28.27"/>
<path style="fill:#53515E;" d="M170.476,101.542h15.476v66.269h-15.476c-7.36,0-13.327-5.967-13.327-13.327v-39.616
	C157.149,107.508,163.116,101.542,170.476,101.542z"/>
<rect x="174.54" y="101.54" style="fill:#474756;" width="14.214" height="66.27"/>
<path style="fill:#FFE1B3;" d="M259.037,228.82L259.037,228.82c-40.364,0-73.086-32.722-73.086-73.086V95.983
	c0-40.364,32.722-73.086,73.086-73.086l0,0c40.364,0,73.086,32.722,73.086,73.086v59.751
	C332.123,196.098,299.402,228.82,259.037,228.82z"/>
<path style="fill:#FAD7A5;" d="M271.187,23.922c19.288,13.157,31.954,35.303,31.954,60.413v59.751
	c0,40.364-32.722,73.086-73.086,73.086l0,0c-4.141,0-8.196-0.362-12.149-1.024c11.718,7.994,25.877,12.673,41.132,12.673l0,0
	c40.364,0,73.086-32.722,73.086-73.086V95.983C332.123,59.761,305.765,29.71,271.187,23.922z"/>
<path style="fill:#AAE1FF;" d="M340.996,165.925v7.385c0,10.703-8.676,19.379-19.379,19.379h-54.735c-2.914,0-5.537,2.128-5.79,5.03
	c-0.285,3.274,2.288,6.02,5.503,6.02h55.021c16.805,0,30.429-13.623,30.429-30.429v-7.386c0-1.452-1.177-2.629-2.629-2.629h-5.791
	C342.173,163.296,340.996,164.473,340.996,165.925z"/>
<path style="fill:#CD905A;" d="M183.031,46.577c-3.694,5.918-8.654,15.452-11.279,28.103c-2.277,10.972-1.987,20.38-1.276,26.861
	c8.892-2.195,15.832-5.336,20.639-7.92c1.898-1.02,11.276-6.152,21.059-15.628l0,0L183.031,46.577z"/>
<path style="fill:#D59F63;" d="M352.165,87.936c-6.224-23.056-16.558-45.009-33.368-61.269
	c-5.449-5.271-25.924-25.077-56.229-26.642c0,0-31.622-1.634-58.928,21.602c-4.119,3.505-7.874,7.382-11.298,11.564
	c-3.424,4.181-6.517,8.666-9.312,13.387c25.415,36.363,63.543,59.487,106.176,59.487c10.499,0,32.435-3.202,42.917-10.081
	L352.165,87.936z"/>
<path style="fill:#CD905A;" d="M318.797,26.667c-5.449-5.271-25.924-25.077-56.229-26.642c0,0-7.667-0.389-18.701,1.978
	c22.798,5.481,38.044,20.225,42.633,24.664c16.81,16.26,27.144,38.214,33.368,61.269l-20.042,8.047
	c-6.655,4.367-17.925,7.25-27.955,8.775c5.68,0.852,11.463,1.306,17.336,1.306c10.499,0,32.435-3.202,42.917-10.081l20.042-8.047
	C345.941,64.881,335.607,42.927,318.797,26.667z"/>
<g>
	<circle style="fill:#53515E;" cx="230.06" cy="124.5" r="8.101"/>
	<circle style="fill:#53515E;" cx="285.14" cy="124.5" r="8.101"/>
</g>
<g>
	<path style="fill:#FF5CA6;" d="M147.96,297.354h-9.817c-4.451,7.902-6.961,16.983-6.961,26.547v38.845h48.584V329.16
		C179.766,311.594,165.526,297.354,147.96,297.354z"/>
	<path style="fill:#FF5CA6;" d="M372.905,297.354h9.817c4.451,7.902,6.961,16.983,6.961,26.547v38.845h-48.584V329.16
		C341.099,311.594,355.339,297.354,372.905,297.354z"/>
</g>
<path style="fill:#B28362;" d="M259.037,188.229c-9.299,0-18.042-3.621-24.617-10.197c-2.929-2.929-2.929-7.678,0-10.606
	c2.929-2.929,7.678-2.93,10.606,0c3.742,3.743,8.718,5.803,14.01,5.803s10.268-2.061,14.011-5.803c2.929-2.929,7.678-2.93,10.606,0
	c2.929,2.929,2.929,7.677,0,10.606C277.079,184.607,268.336,188.229,259.037,188.229z"/>
<path style="fill:#53515E;" d="M472.941,512H39.059c-13.131,0-23.776-10.645-23.776-23.776V386.577
	c0-13.131,10.645-23.776,23.776-23.776H472.94c13.131,0,23.776,10.645,23.776,23.776v101.647
	C496.717,501.355,486.072,512,472.941,512z"/>
<path style="fill:#474756;" d="M472.941,490.516H39.059c-13.131,0-23.776-10.645-23.776-23.776v21.484
	c0,13.131,10.645,23.776,23.776,23.776H472.94c13.131,0,23.776-10.645,23.776-23.776V466.74
	C496.717,479.871,486.072,490.516,472.941,490.516z"/>
<path style="fill:#FFDF47;" d="M102.965,392.175l12.609,25.549c0.498,1.01,1.462,1.71,2.576,1.872l28.195,4.097
	c2.807,0.408,3.927,3.857,1.896,5.837l-20.402,19.887c-0.806,0.786-1.174,1.919-0.984,3.029l4.816,28.081
	c0.479,2.795-2.455,4.927-4.965,3.607l-25.218-13.258c-0.997-0.524-2.188-0.524-3.185,0l-25.218,13.258
	c-2.51,1.32-5.444-0.812-4.965-3.607l4.816-28.081c0.19-1.11-0.178-2.243-0.984-3.029L51.55,429.53
	c-2.031-1.98-0.91-5.429,1.896-5.837l28.195-4.097c1.115-0.162,2.078-0.862,2.576-1.872l12.609-25.549
	C98.083,389.632,101.71,389.632,102.965,392.175z"/>
<path style="fill:#FFD400;" d="M148.241,429.529c2.031-1.98,0.91-5.429-1.896-5.837l-28.194-4.097
	c-1.115-0.162-2.078-0.862-2.576-1.872l-12.609-25.549c-1.255-2.543-4.882-2.543-6.137,0L84.22,417.723
	c-0.257,0.521-0.64,0.957-1.101,1.282l3.1,6.282c0.499,1.01,1.462,1.71,2.576,1.872l28.195,4.097
	c2.807,0.408,3.927,3.857,1.896,5.837L98.484,456.98c-0.806,0.786-1.174,1.919-0.984,3.029l1.806,10.531
	c0.736-0.129,1.504-0.021,2.183,0.336l25.218,13.258c2.51,1.32,5.444-0.812,4.965-3.607l-4.816-28.081
	c-0.19-1.11,0.178-2.243,0.984-3.029L148.241,429.529z"/>
<path style="fill:#FFDF47;" d="M260.801,392.175l12.609,25.549c0.498,1.01,1.462,1.71,2.576,1.872l28.195,4.097
	c2.807,0.408,3.927,3.857,1.896,5.837l-20.402,19.887c-0.806,0.786-1.174,1.919-0.984,3.029l4.816,28.081
	c0.479,2.795-2.455,4.927-4.965,3.607l-25.218-13.258c-0.997-0.524-2.188-0.524-3.185,0l-25.218,13.258
	c-2.51,1.32-5.444-0.812-4.965-3.607l4.816-28.081c0.19-1.11-0.178-2.243-0.984-3.029l-20.402-19.887
	c-2.031-1.98-0.91-5.429,1.896-5.837l28.195-4.097c1.115-0.162,2.078-0.862,2.576-1.872l12.609-25.549
	C255.919,389.632,259.546,389.632,260.801,392.175z"/>
<path style="fill:#FFD400;" d="M306.077,429.529c2.031-1.98,0.91-5.429-1.896-5.837l-28.194-4.097
	c-1.115-0.162-2.078-0.862-2.576-1.872l-12.609-25.549c-1.255-2.543-4.882-2.543-6.137,0l-12.609,25.549
	c-0.257,0.521-0.64,0.957-1.101,1.282l3.1,6.282c0.499,1.01,1.462,1.71,2.576,1.872l28.195,4.097
	c2.807,0.408,3.927,3.857,1.896,5.837L256.32,456.98c-0.806,0.786-1.174,1.919-0.984,3.029l1.806,10.531
	c0.736-0.129,1.504-0.021,2.183,0.336l25.218,13.258c2.51,1.32,5.444-0.812,4.965-3.607l-4.816-28.081
	c-0.19-1.11,0.178-2.243,0.984-3.029L306.077,429.529z"/>
<path style="fill:#FFDF47;" d="M418.637,392.175l12.609,25.549c0.498,1.01,1.462,1.71,2.576,1.872l28.195,4.097
	c2.807,0.408,3.927,3.857,1.896,5.837l-20.402,19.887c-0.806,0.786-1.174,1.919-0.984,3.029l4.816,28.081
	c0.479,2.795-2.455,4.927-4.965,3.607l-25.218-13.258c-0.997-0.524-2.188-0.524-3.185,0l-25.218,13.258
	c-2.51,1.32-5.444-0.812-4.965-3.607l4.816-28.081c0.19-1.11-0.178-2.243-0.984-3.029l-20.402-19.887
	c-2.031-1.98-0.91-5.429,1.896-5.837l28.195-4.097c1.115-0.162,2.078-0.862,2.576-1.872l12.609-25.549
	C413.756,389.632,417.382,389.632,418.637,392.175z"/>
<path style="fill:#FFD400;" d="M463.914,429.529c2.031-1.98,0.91-5.429-1.896-5.837l-28.194-4.097
	c-1.115-0.162-2.078-0.862-2.576-1.872l-12.609-25.549c-1.255-2.543-4.882-2.543-6.137,0l-12.609,25.549
	c-0.257,0.521-0.64,0.957-1.101,1.282l3.1,6.282c0.499,1.01,1.462,1.71,2.577,1.872l28.195,4.097
	c2.807,0.408,3.927,3.857,1.896,5.837l-20.402,19.887c-0.806,0.786-1.174,1.919-0.984,3.029l1.806,10.531
	c0.736-0.129,1.504-0.021,2.183,0.336l25.218,13.258c2.51,1.32,5.444-0.812,4.965-3.607l-4.816-28.081
	c-0.19-1.11,0.178-2.243,0.984-3.029L463.914,429.529z"/>
<g>
</g>
<g>
</g>
<g>
</g>
<g>
</g>
<g>
</g>
<g>
</g>
<g>
</g>
<g>
</g>
<g>
</g>
<g>
</g>
<g>
</g>
<g>
</g>
<g>
</g>
<g>
</g>
<g>
</g>
</svg>
