<?xml version="1.0" encoding="iso-8859-1"?>
<!-- Generator: Adobe Illustrator 19.0.0, SVG Export Plug-In . SVG Version: 6.00 Build 0)  -->
<svg version="1.1" id="Capa_1" xmlns="http://www.w3.org/2000/svg" xmlns:xlink="http://www.w3.org/1999/xlink" x="0px" y="0px"
	 viewBox="0 0 512 512" style="enable-background:new 0 0 512 512;" xml:space="preserve">
<path id="SVGCleanerId_0" style="fill:#53515E;" d="M427.88,0.639H304.212c-2.437,0-4.449,1.827-4.77,4.244
	c-2.493,18.835-20.992,39.138-43.443,39.138s-40.95-20.304-43.443-39.138c-0.32-2.416-2.332-4.244-4.77-4.244H84.12
	C74.554,0.639,66.8,7.024,66.8,14.9v482.198c0,7.877,7.754,14.261,17.319,14.261h343.762c9.565,0,17.319-6.386,17.319-14.261V14.9
	C445.2,7.025,437.446,0.639,427.88,0.639z"/>
<g>
	<path style="fill:#FFDC64;" d="M505.909,85.777H443.58V42.77h62.329c3.364,0,6.091,2.727,6.091,6.091v30.824
		C512,83.049,509.273,85.777,505.909,85.777z"/>
	<path style="fill:#FFDC64;" d="M505.909,165.091H443.58v-43.006h62.329c3.364,0,6.091,2.727,6.091,6.091v30.824
		C512,162.365,509.273,165.091,505.909,165.091z"/>
	<path style="fill:#FFDC64;" d="M505.909,244.407H443.58V201.4h62.329c3.364,0,6.091,2.727,6.091,6.091v30.824
		C512,241.679,509.273,244.407,505.909,244.407z"/>
	<path style="fill:#FFDC64;" d="M505.909,323.721H443.58v-43.006h62.329c3.364,0,6.091,2.727,6.091,6.091v30.824
		C512,320.994,509.273,323.721,505.909,323.721z"/>
	<path style="fill:#FFDC64;" d="M505.909,403.036H443.58v-43.006h62.329c3.364,0,6.091,2.727,6.091,6.091v30.824
		C512,400.309,509.273,403.036,505.909,403.036z"/>
	<path style="fill:#FFDC64;" d="M505.909,482.35H443.58v-43.006h62.329c3.364,0,6.091,2.727,6.091,6.091v30.824
		C512,479.624,509.273,482.35,505.909,482.35z"/>
	<path style="fill:#FFDC64;" d="M6.075,439.345H68.07v43.006H6.075c-3.355,0-6.075-2.72-6.075-6.075v-30.855
		C0,442.065,2.72,439.345,6.075,439.345z"/>
	<path style="fill:#FFDC64;" d="M6.075,360.03H68.07v43.006H6.075c-3.355,0-6.075-2.72-6.075-6.075v-30.855
		C0,362.749,2.72,360.03,6.075,360.03z"/>
	<path style="fill:#FFDC64;" d="M6.075,280.715H68.07v43.006H6.075c-3.355,0-6.075-2.72-6.075-6.075V286.79
		C0,283.435,2.72,280.715,6.075,280.715z"/>
	<path style="fill:#FFDC64;" d="M6.075,201.4H68.07v43.006H6.075c-3.355,0-6.075-2.72-6.075-6.075v-30.855
		C0,204.12,2.72,201.4,6.075,201.4z"/>
	<path style="fill:#FFDC64;" d="M6.075,122.086H68.07v43.006H6.075c-3.355,0-6.075-2.72-6.075-6.075v-30.855
		C0,124.806,2.72,122.086,6.075,122.086z"/>
	<path style="fill:#FFDC64;" d="M6.075,42.77H68.07v43.006H6.075C2.72,85.777,0,83.057,0,79.702V48.846
		C0,45.49,2.72,42.77,6.075,42.77z"/>
</g>
<g>
	<rect x="443.811" y="280.714" style="fill:#FFC850;" width="19.459" height="43.006"/>
	<rect x="443.811" y="201.4" style="fill:#FFC850;" width="19.459" height="43.006"/>
	<rect x="443.811" y="360.027" style="fill:#FFC850;" width="19.459" height="43.006"/>
	<rect x="443.811" y="439.341" style="fill:#FFC850;" width="19.459" height="43.006"/>
	<rect x="443.811" y="42.77" style="fill:#FFC850;" width="19.459" height="43.006"/>
	<rect x="443.811" y="122.087" style="fill:#FFC850;" width="19.459" height="43.006"/>
	<rect x="48.608" y="280.714" style="fill:#FFC850;" width="19.459" height="43.006"/>
	<rect x="48.608" y="201.4" style="fill:#FFC850;" width="19.459" height="43.006"/>
	<rect x="48.608" y="360.027" style="fill:#FFC850;" width="19.459" height="43.006"/>
	<rect x="48.608" y="439.341" style="fill:#FFC850;" width="19.459" height="43.006"/>
	<rect x="48.608" y="42.77" style="fill:#FFC850;" width="19.459" height="43.006"/>
	<rect x="48.608" y="122.087" style="fill:#FFC850;" width="19.459" height="43.006"/>
</g>
<g>
	<path id="SVGCleanerId_0_1_" style="fill:#53515E;" d="M427.88,0.639H304.212c-2.437,0-4.449,1.827-4.77,4.244
		c-2.493,18.835-20.992,39.138-43.443,39.138s-40.95-20.304-43.443-39.138c-0.32-2.416-2.332-4.244-4.77-4.244H84.12
		C74.554,0.639,66.8,7.024,66.8,14.9v482.198c0,7.877,7.754,14.261,17.319,14.261h343.762c9.565,0,17.319-6.386,17.319-14.261V14.9
		C445.2,7.025,437.446,0.639,427.88,0.639z"/>
</g>
<path style="fill:#DFE2EA;" d="M343.888,233.477l-9.874-1.245c-1.73-6.12-4.166-11.942-7.205-17.381l6.117-7.864
	c3.064-3.939,2.716-9.543-0.813-13.072l-15.687-15.687c-3.526-3.526-9.125-3.878-13.064-0.82l-7.882,6.118
	c-5.41-3.022-11.198-5.447-17.281-7.176l-1.235-9.887c-0.618-4.952-4.828-8.668-9.818-8.668h-22.186
	c-4.987,0-9.194,3.711-9.817,8.658l-1.245,9.874c-6.116,1.729-11.935,4.163-17.371,7.2l-7.882-6.118
	c-3.939-3.057-9.538-2.705-13.064,0.82l-15.687,15.687c-3.529,3.529-3.878,9.133-0.813,13.072l6.117,7.864
	c-3.04,5.439-5.476,11.262-7.206,17.381l-9.874,1.245c-4.947,0.623-8.658,4.831-8.658,9.817v22.186c0,4.991,3.716,9.2,8.668,9.818
	l9.887,1.235c1.728,6.083,4.154,11.872,7.176,17.281l-6.118,7.883c-3.057,3.939-2.705,9.538,0.821,13.064l15.687,15.687
	c3.529,3.529,9.133,3.878,13.072,0.813l7.864-6.117c5.439,3.04,11.262,5.475,17.381,7.205l1.245,9.874
	c0.623,4.947,4.831,8.658,9.817,8.658h22.186c4.991,0,9.2-3.717,9.818-8.668l1.235-9.887c6.088-1.729,11.879-4.157,17.292-7.181
	l7.863,6.117c3.939,3.064,9.543,2.716,13.072-0.813l15.687-15.687c3.526-3.526,3.878-9.125,0.82-13.064l-6.118-7.883
	c3.022-5.41,5.447-11.198,7.176-17.281l9.887-1.235c4.952-0.619,8.668-4.828,8.668-9.818v-22.186
	C352.545,238.309,348.834,234.101,343.888,233.477z M256.001,302.611c-26.66,0-48.272-21.612-48.272-48.272
	s21.612-48.272,48.272-48.272c26.66,0,48.272,21.612,48.272,48.272S282.66,302.611,256.001,302.611z"/>
<path style="fill:#C7CAD3;" d="M257.013,189.652c-36.637,0-66.337,29.7-66.337,66.337s29.7,66.337,66.337,66.337
	s66.337-29.7,66.337-66.337S293.65,189.652,257.013,189.652z M256.001,302.611c-26.66,0-48.272-21.612-48.272-48.272
	s21.612-48.272,48.272-48.272c26.66,0,48.272,21.612,48.272,48.272S282.66,302.611,256.001,302.611z"/>
<path style="fill:#474756;" d="M427.881,0.639h-31.784v280.636c0,97.366-79.045,176.242-176.411,176.046
	c-105.872-0.213-152.885-0.56-152.885-0.56V497.1c0,7.877,7.754,14.261,17.318,14.261h343.762c9.564,0,17.318-6.386,17.318-14.261
	V14.901C445.2,7.025,437.446,0.639,427.881,0.639z"/>
<g>
</g>
<g>
</g>
<g>
</g>
<g>
</g>
<g>
</g>
<g>
</g>
<g>
</g>
<g>
</g>
<g>
</g>
<g>
</g>
<g>
</g>
<g>
</g>
<g>
</g>
<g>
</g>
<g>
</g>
</svg>
