<?xml version="1.0" encoding="iso-8859-1"?>
<!-- Generator: Adobe Illustrator 19.0.0, SVG Export Plug-In . SVG Version: 6.00 Build 0)  -->
<svg version="1.1" id="Capa_1" xmlns="http://www.w3.org/2000/svg" xmlns:xlink="http://www.w3.org/1999/xlink" x="0px" y="0px"
	 viewBox="0 0 512 512" style="enable-background:new 0 0 512 512;" xml:space="preserve">
<path style="fill:#53515E;" d="M407.118,512H104.882c-27.247,0-49.335-22.088-49.335-49.335V49.335
	C55.547,22.088,77.635,0,104.882,0h302.236c27.247,0,49.335,22.088,49.335,49.335v413.33C456.453,489.912,434.365,512,407.118,512z"
	/>
<path style="fill:#474756;" d="M407.118,0H345.83c27.247,0,49.335,22.088,49.335,49.335v413.33
	c0,27.247-22.088,49.335-49.335,49.335h61.288c27.247,0,49.335-22.088,49.335-49.335V49.335C456.453,22.088,434.365,0,407.118,0z"/>
<rect x="86.2" y="66.24" style="fill:#E9EBF2;" width="339.59" height="376.75"/>
<rect x="395.17" y="66.24" style="fill:#DFE2EA;" width="30.633" height="376.75"/>
<g>
	<circle style="fill:#474756;" cx="256" cy="477.5" r="7.871"/>
	<path style="fill:#474756;" d="M276.7,40.992h-41.401c-4.348,0-7.871-3.524-7.871-7.871s3.524-7.871,7.871-7.871H276.7
		c4.348,0,7.871,3.524,7.871,7.871S281.048,40.992,276.7,40.992z"/>
</g>
<g>
	<path style="fill:#53515E;" d="M205.116,251.36c-23.603,0-42.806-19.203-42.806-42.806v-7.058c0-4.347,3.524-7.871,7.871-7.871
		c4.348,0,7.871,3.524,7.871,7.871v7.058c0,14.923,12.141,27.064,27.064,27.064c4.348,0,7.871,3.524,7.871,7.871
		S209.463,251.36,205.116,251.36z"/>
	<path style="fill:#53515E;" d="M311.473,251.36c-4.348,0-7.871-3.524-7.871-7.871s3.524-7.871,7.871-7.871
		c14.923,0,27.064-12.141,27.064-27.064v-7.058c0-4.347,3.524-7.871,7.871-7.871s7.871,3.524,7.871,7.871v7.058
		C354.28,232.158,335.076,251.36,311.473,251.36z"/>
	<path style="fill:#53515E;" d="M331.302,356.112c-4.348,0-7.871-3.524-7.871-7.871v-7.058c0-14.923-12.141-27.064-27.063-27.064
		c-4.348,0-7.871-3.524-7.871-7.871c0-4.347,3.524-7.871,7.871-7.871c23.603,0,42.805,19.203,42.805,42.806v7.058
		C339.173,352.588,335.65,356.112,331.302,356.112z"/>
	<path style="fill:#53515E;" d="M183.213,356.112c-4.348,0-7.871-3.524-7.871-7.871v-7.058c0-23.603,19.203-42.806,42.806-42.806
		c4.348,0,7.871,3.524,7.871,7.871c0,4.347-3.524,7.871-7.871,7.871c-14.923,0-27.064,12.141-27.064,27.064v7.058
		C191.084,352.588,187.56,356.112,183.213,356.112z"/>
	<path style="fill:#53515E;" d="M205.817,281.001h-44.674c-4.348,0-7.871-3.524-7.871-7.871c0-4.347,3.524-7.871,7.871-7.871h44.674
		c4.348,0,7.871,3.524,7.871,7.871C213.688,277.477,210.164,281.001,205.817,281.001z"/>
</g>
<g>
	<path style="fill:#C7CAD3;" d="M236.092,216.653c-4.348,0-7.871-3.524-7.871-7.871v-9.624c0-3.394-2.761-6.156-6.155-6.156
		c-12.075,0-21.899-9.823-21.899-21.898v-10.105c0-4.347,3.524-7.871,7.871-7.871s7.871,3.524,7.871,7.871v10.105
		c0,3.394,2.762,6.155,6.156,6.155c12.074,0,21.898,9.823,21.898,21.898v9.624C243.963,213.129,240.439,216.653,236.092,216.653z"/>
	<path style="fill:#C7CAD3;" d="M280.02,216.653c-4.348,0-7.871-3.524-7.871-7.871v-9.624c0-12.075,9.823-21.898,21.898-21.898
		c3.394,0,6.155-2.762,6.155-6.155V161c0-4.347,3.524-7.871,7.871-7.871s7.871,3.524,7.871,7.871v10.105
		c0,12.075-9.823,21.898-21.898,21.898c-3.394,0-6.155,2.762-6.155,6.156v9.624C287.891,213.129,284.367,216.653,280.02,216.653z"/>
</g>
<g>
	<path style="fill:#53515E;" d="M353.393,281.001h-44.674c-4.348,0-7.871-3.524-7.871-7.871c0-4.347,3.524-7.871,7.871-7.871h44.674
		c4.348,0,7.871,3.524,7.871,7.871C361.264,277.477,357.741,281.001,353.393,281.001z"/>
	<circle style="fill:#53515E;" cx="257.81" cy="240.01" r="44.12"/>
</g>
<path style="fill:#474756;" d="M257.81,195.89c-3.219,0-6.354,0.354-9.377,1.008c19.862,4.3,34.745,21.965,34.745,43.114
	s-14.883,38.814-34.745,43.114c3.023,0.655,6.158,1.008,9.377,1.008c24.368,0,44.122-19.754,44.122-44.122
	C301.932,215.644,282.178,195.89,257.81,195.89z"/>
<path style="fill:#FF6B5C;" d="M205.941,235.575c-1.557,7.434-2.398,15.333-2.398,23.521c0,43.961,24.161,79.599,53.965,79.599
	c29.804,0,53.965-35.638,53.965-79.599c0-8.189-0.84-16.087-2.398-23.521L205.941,235.575L205.941,235.575z"/>
<g>
	<path style="fill:#D85750;" d="M309.076,235.575h-18.453c1.557,7.434,2.398,15.333,2.398,23.521
		c0,39.319-19.333,71.956-44.739,78.416c3,0.763,6.079,1.183,9.226,1.183c29.804,0,53.966-35.637,53.966-79.599
		C311.474,250.908,310.634,243.01,309.076,235.575z"/>
	<path style="fill:#D85750;" d="M257.81,255.11c-4.348,0-7.871,3.524-7.871,7.871V337.9c2.475,0.513,4.999,0.796,7.57,0.796
		c2.778,0,5.507-0.311,8.172-0.908v-74.806C265.681,258.634,262.157,255.11,257.81,255.11z"/>
</g>
<g>
	<circle style="fill:#FFFFFF;" cx="241.06" cy="221.08" r="6.209"/>
	<circle style="fill:#FFFFFF;" cx="273.13" cy="221.08" r="6.209"/>
</g>
<g>
</g>
<g>
</g>
<g>
</g>
<g>
</g>
<g>
</g>
<g>
</g>
<g>
</g>
<g>
</g>
<g>
</g>
<g>
</g>
<g>
</g>
<g>
</g>
<g>
</g>
<g>
</g>
<g>
</g>
</svg>
