<?xml version="1.0" encoding="iso-8859-1"?>
<!-- Generator: Adobe Illustrator 19.0.0, SVG Export Plug-In . SVG Version: 6.00 Build 0)  -->
<svg version="1.1" id="Capa_1" xmlns="http://www.w3.org/2000/svg" xmlns:xlink="http://www.w3.org/1999/xlink" x="0px" y="0px"
	 viewBox="0 0 512 512" style="enable-background:new 0 0 512 512;" xml:space="preserve">
<path style="fill:#53515E;" d="M305.709,512H109.625c-22.701,0-41.104-18.403-41.104-41.104V41.104
	C68.521,18.403,86.924,0,109.625,0h196.084c22.701,0,41.104,18.403,41.104,41.104v429.792C346.813,493.597,328.41,512,305.709,512z"
	/>
<g>
	<circle style="fill:#474756;" cx="178.06" cy="35.723" r="7.64"/>
	<circle style="fill:#474756;" cx="209.67" cy="35.723" r="7.64"/>
	<circle style="fill:#474756;" cx="237.28" cy="35.723" r="7.64"/>
	<path style="fill:#474756;" d="M346.813,90.645H186.727c-21.8,0-39.472,17.672-39.472,39.472v246.59
		c0,21.8,17.672,39.472,39.472,39.472h160.085L346.813,90.645L346.813,90.645z"/>
</g>
<path style="fill:#E9EBF2;" d="M304.058,28.236h-39.377c-2.914,0-5.277,2.363-5.277,5.277v3.786c0,7.256-5.882,13.138-13.138,13.138
	h-77.198c-7.256,0-13.138-5.882-13.138-13.138v-3.786c0-2.914-2.363-5.277-5.277-5.277h-39.377c-7.105,0-12.865,5.76-12.865,12.865
	v429.26c0,7.105,5.76,12.865,12.865,12.865h192.782c7.105,0,12.865-5.76,12.865-12.865V41.1
	C316.923,33.995,311.163,28.236,304.058,28.236z"/>
<path style="fill:#DFE2EA;" d="M316.923,90.645H186.727c-21.8,0-39.472,17.672-39.472,39.472v246.59
	c0,21.8,17.672,39.472,39.472,39.472h130.195V90.645H316.923z"/>
<path style="fill:#FFDC64;" d="M409.753,392.486h-205.52c-18.626,0-33.726-15.1-33.726-33.726V148.063
	c0-18.626,15.1-33.726,33.726-33.726h205.52c18.626,0,33.726,15.1,33.726,33.726V358.76
	C443.479,377.386,428.379,392.486,409.753,392.486z"/>
<path style="fill:#FFC850;" d="M409.753,114.337h-19.756v79.016c0,81.265-65.879,147.144-147.144,147.144h-72.345v18.263
	c0,18.626,15.1,33.726,33.726,33.726h205.519c18.627,0,33.726-15.1,33.726-33.726V148.063
	C443.479,129.437,428.379,114.337,409.753,114.337z"/>
<g>
	<path style="fill:#53515E;" d="M259.057,247.163c-23.389,0-42.417-19.028-42.417-42.417v-6.994c0-4.308,3.492-7.8,7.8-7.8
		s7.8,3.492,7.8,7.8v6.994c0,14.788,12.03,26.818,26.818,26.818c4.308,0,7.8,3.492,7.8,7.8
		C266.857,243.671,263.365,247.163,259.057,247.163z"/>
	<path style="fill:#53515E;" d="M364.449,247.163c-4.308,0-7.8-3.492-7.8-7.8s3.492-7.8,7.8-7.8
		c14.788,0,26.818-12.03,26.818-26.818v-6.994c0-4.308,3.492-7.8,7.8-7.8c4.308,0,7.8,3.492,7.8,7.8v6.994
		C406.867,228.135,387.838,247.163,364.449,247.163z"/>
	<path style="fill:#53515E;" d="M384.098,350.964c-4.308,0-7.8-3.492-7.8-7.8v-6.994c0-14.788-12.03-26.818-26.817-26.818
		c-4.308,0-7.8-3.492-7.8-7.8s3.492-7.8,7.8-7.8c23.389,0,42.416,19.028,42.416,42.417v6.994
		C391.898,347.471,388.406,350.964,384.098,350.964z"/>
	<path style="fill:#53515E;" d="M237.354,350.964c-4.308,0-7.8-3.492-7.8-7.8v-6.994c0-23.389,19.029-42.417,42.417-42.417
		c4.308,0,7.8,3.492,7.8,7.8s-3.492,7.8-7.8,7.8c-14.788,0-26.818,12.03-26.818,26.818v6.994
		C245.153,347.471,241.662,350.964,237.354,350.964z"/>
	<path style="fill:#53515E;" d="M259.752,276.535h-44.269c-4.308,0-7.8-3.492-7.8-7.8c0-4.308,3.492-7.8,7.8-7.8h44.269
		c4.308,0,7.8,3.492,7.8,7.8S264.06,276.535,259.752,276.535z"/>
</g>
<g>
	<path style="fill:#FFFFFF;" d="M289.752,212.772c-4.308,0-7.8-3.492-7.8-7.8v-9.537c0-3.364-2.736-6.1-6.1-6.1
		c-11.965,0-21.7-9.734-21.7-21.699v-10.014c0-4.308,3.492-7.8,7.8-7.8s7.8,3.492,7.8,7.8v10.014c0,3.363,2.737,6.1,6.101,6.1
		c11.964,0,21.699,9.734,21.699,21.699v9.537C297.552,209.28,294.06,212.772,289.752,212.772z"/>
	<path style="fill:#FFFFFF;" d="M333.281,212.772c-4.308,0-7.8-3.492-7.8-7.8v-9.537c0-11.965,9.734-21.699,21.699-21.699
		c3.364,0,6.1-2.736,6.1-6.1v-10.014c0-4.308,3.492-7.8,7.8-7.8c4.308,0,7.8,3.492,7.8,7.8v10.014
		c0,11.965-9.734,21.699-21.699,21.699c-3.364,0-6.1,2.736-6.1,6.1v9.537C341.081,209.28,337.59,212.772,333.281,212.772z"/>
</g>
<g>
	<path style="fill:#53515E;" d="M405.988,276.535H361.72c-4.308,0-7.8-3.492-7.8-7.8c0-4.308,3.492-7.8,7.8-7.8h44.269
		c4.308,0,7.8,3.492,7.8,7.8C413.788,273.043,410.296,276.535,405.988,276.535z"/>
	<circle style="fill:#53515E;" cx="311.27" cy="235.92" r="43.722"/>
</g>
<path style="fill:#474756;" d="M311.273,192.197c-3.19,0-6.297,0.351-9.292,0.999c19.681,4.261,34.429,21.765,34.429,42.722
	s-14.748,38.461-34.429,42.722c2.996,0.649,6.102,0.999,9.292,0.999c24.147,0,43.722-19.575,43.722-43.722
	C354.995,211.772,335.42,192.197,311.273,192.197z"/>
<path style="fill:#FF6B5C;" d="M259.875,231.522c-1.543,7.367-2.376,15.193-2.376,23.308c0,43.562,23.942,78.876,53.475,78.876
	s53.475-35.314,53.475-78.876c0-8.114-0.833-15.941-2.376-23.308L259.875,231.522L259.875,231.522z"/>
<g>
	<path style="fill:#D85750;" d="M362.074,231.522h-18.286c1.543,7.367,2.376,15.193,2.376,23.308
		c0,38.962-19.157,71.303-44.332,77.704c2.973,0.756,6.024,1.172,9.143,1.172c29.533,0,53.475-35.314,53.475-78.876
		C364.45,246.715,363.617,238.889,362.074,231.522z"/>
	<path style="fill:#D85750;" d="M311.273,250.879c-4.308,0-7.8,3.492-7.8,7.8v74.238c2.452,0.508,4.954,0.788,7.501,0.788
		c2.753,0,5.457-0.308,8.098-0.9v-74.126C319.073,254.371,315.581,250.879,311.273,250.879z"/>
</g>
<g>
	<circle style="fill:#FFFFFF;" cx="294.69" cy="217.16" r="6.153"/>
	<circle style="fill:#FFFFFF;" cx="326.47" cy="217.16" r="6.153"/>
</g>
<g>
</g>
<g>
</g>
<g>
</g>
<g>
</g>
<g>
</g>
<g>
</g>
<g>
</g>
<g>
</g>
<g>
</g>
<g>
</g>
<g>
</g>
<g>
</g>
<g>
</g>
<g>
</g>
<g>
</g>
</svg>
