<?xml version="1.0" encoding="iso-8859-1"?>
<!-- Generator: Adobe Illustrator 19.0.0, SVG Export Plug-In . SVG Version: 6.00 Build 0)  -->
<svg version="1.1" id="Capa_1" xmlns="http://www.w3.org/2000/svg" xmlns:xlink="http://www.w3.org/1999/xlink" x="0px" y="0px"
	 viewBox="0 0 512.001 512.001" style="enable-background:new 0 0 512.001 512.001;" xml:space="preserve">
<path style="fill:#DFE2EA;" d="M149.917,408.039c85.122,62.996,205.607,59.168,286.771-14.918
	c92.234-84.19,98.754-227.21,14.564-319.443c-84.19-92.234-227.21-98.755-319.443-14.565
	c-81.061,73.992-95.905,193.42-41.162,283.881L149.917,408.039z"/>
<circle style="fill:#E9EBF2;" cx="285.24" cy="225.981" r="173.62"/>
<path style="fill:#C7CAD3;" d="M371.152,434.918c-2.106-7.676-6.158-14.718-11.929-20.508c-2.63-2.639-5.576-4.96-8.757-6.899
	c-0.046-0.028-0.092-0.056-0.139-0.084l-60.796-36.216c-19.724-11.715-44.82-8.557-61.086,7.74l-11.794,11.939
	c-41.678-19.069-74.824-52.32-93.758-94.067l11.853-11.803c16.235-16.208,19.393-41.302,7.662-61.057L106.203,163.3
	c-0.068-0.115-0.138-0.229-0.209-0.342c-1.959-3.104-4.283-5.978-6.907-8.543c-6.968-6.911-15.604-11.159-24.623-12.767
	c-26.079,64.913-21.046,139.827,16.183,201.347l59.27,65.045C214.215,455.624,298.687,465.07,371.152,434.918z"/>
<g>
	<path style="fill:#DFE2EA;" d="M134.745,285.019c16.235-16.208,19.393-41.302,7.662-61.057l-25.126-42.1
		c-3.691,14.09-5.664,28.875-5.664,44.123c0,24.214,4.963,47.268,13.918,68.207L134.745,285.019z"/>
	<path style="fill:#DFE2EA;" d="M289.531,371.212c-19.724-11.715-44.82-8.557-61.086,7.74l-8.035,8.134
		c20.031,8.068,41.908,12.519,64.828,12.519c14.828,0,29.219-1.863,42.958-5.361L289.531,371.212z"/>
</g>
<path style="fill:#86E56E;" d="M10.03,298.465c37.935,93.236,111.906,167.207,205.142,205.142
	c42.265,17.222,90.735,7.452,123.029-24.799l9.59-9.817c11.964-11.926,11.996-31.292,0.07-43.256
	c-1.727-1.733-3.656-3.252-5.745-4.525l-60.777-36.205c-13.394-7.954-30.477-5.804-41.482,5.221l-13.79,13.96
	c-3.468,3.523-8.751,4.539-13.279,2.554c-47.265-20.781-84.984-58.581-105.664-105.891c-2.043-4.482-1.119-9.759,2.327-13.279
	l13.96-13.903c11.025-11.005,13.175-28.089,5.221-41.482l-36.205-60.663c-1.304-2.066-2.846-3.971-4.597-5.675
	c-11.956-11.904-31.285-11.904-43.242,0l-9.761,9.59C2.577,207.729-7.193,256.199,10.03,298.465z"/>
<path style="fill:#5FCE6A;" d="M347.791,428.351l-9.59,9.817c-32.293,32.251-80.763,42.021-123.029,24.799
	C121.936,425.031,47.965,351.06,10.029,257.824c-2.995-7.349-5.154-14.888-6.54-22.495c-3.786,20.81-1.788,42.696,6.54,63.135
	C47.964,391.7,121.935,465.671,215.171,503.606c42.266,17.222,90.736,7.452,123.029-24.799l9.59-9.817
	c11.55-11.512,11.976-29.957,1.263-41.985C348.647,427.463,348.23,427.913,347.791,428.351z"/>
<g>
	<path style="fill:#6F4BEF;" d="M200.904,279.494v-16.89c0-5.224,1.896-10.332,5.688-15.324c3.792-4.99,8.464-9.518,14.013-13.582
		l16.738-12.183c5.579-4.06,10.314-8.527,14.209-13.401c3.893-4.87,5.84-9.744,5.84-14.618c0-4.871-1.599-9.134-4.795-12.79
		c-3.198-3.653-7.875-5.481-14.035-5.481c-5.23,0-9.474,1.443-12.727,4.329c-3.255,2.885-4.882,7.153-4.882,12.806
		c0,1.848-0.901,3.465-2.702,4.85c-1.804,1.383-4.158,2.075-7.061,2.075c-5.579,0-8.369-3.427-8.369-10.286
		c0-9.066,3.514-16.476,10.549-22.229c7.031-5.754,15.429-8.63,25.192-8.63c10.344,0,19.148,3.239,26.414,9.717
		c7.263,6.479,10.896,14.849,10.896,25.119c0,6.963-1.948,13.488-5.84,19.579c-3.896,6.091-8.603,11.255-14.123,15.487
		c-5.522,4.236-11.044,8.238-16.562,12.009c-5.523,3.77-10.23,7.57-14.123,11.399c-3.896,3.829-5.84,7.543-5.84,11.139v6.612h51.258
		c1.626,0,3.051,0.783,4.272,2.353c1.22,1.57,1.831,3.46,1.831,5.666c0,2.21-0.608,4.157-1.82,5.84
		c-1.212,1.687-2.626,2.529-4.241,2.529h-61.642c-1.848,0-3.667-0.58-5.454-1.741C201.797,282.687,200.904,281.238,200.904,279.494z
		"/>
	<path style="fill:#6F4BEF;" d="M277.444,250.09c0-1.275,0.349-2.553,1.045-3.831l42.192-83.069c1.744-3.366,4.416-5.05,8.02-5.05
		c1.975,0,4.011,0.697,6.103,2.092c2.092,1.395,3.138,3.081,3.138,5.056c0,0.698-0.291,1.629-0.872,2.79l-35.915,71.657h25.629
		v-24.199c0-4.092,3.078-6.138,9.24-6.138c2.556,0,4.735,0.528,6.538,1.58c1.801,1.052,2.703,2.571,2.703,4.558v24.199h8.543
		c1.975,0,3.513,0.863,4.619,2.59c1.104,1.727,1.656,3.741,1.656,6.04c0,2.07-0.64,3.999-1.918,5.781
		c-1.28,1.784-2.732,2.675-4.358,2.675h-8.543v22.627c0,1.874-0.932,3.364-2.79,4.476c-1.861,1.111-4.011,1.664-6.451,1.664
		c-2.558,0-4.737-0.552-6.538-1.664c-1.803-1.112-2.702-2.603-2.702-4.476v-22.627h-42.89c-1.86,0-3.4-0.603-4.619-1.812
		C278.054,253.799,277.444,252.16,277.444,250.09z"/>
</g>
<g>
</g>
<g>
</g>
<g>
</g>
<g>
</g>
<g>
</g>
<g>
</g>
<g>
</g>
<g>
</g>
<g>
</g>
<g>
</g>
<g>
</g>
<g>
</g>
<g>
</g>
<g>
</g>
<g>
</g>
</svg>
