<?xml version="1.0" encoding="iso-8859-1"?>
<!-- Generator: Adobe Illustrator 19.0.0, SVG Export Plug-In . SVG Version: 6.00 Build 0)  -->
<svg version="1.1" id="Capa_1" xmlns="http://www.w3.org/2000/svg" xmlns:xlink="http://www.w3.org/1999/xlink" x="0px" y="0px"
	 viewBox="0 0 512.001 512.001" style="enable-background:new 0 0 512.001 512.001;" xml:space="preserve">
<path style="fill:#DFE2EA;" d="M411.319,218.803l-23.482-2.126c-1.398-8.794-3.654-17.302-6.681-25.436l19.375-13.406
	c3.333-2.305,4.356-6.772,2.36-10.299l-11.032-19.493c-1.996-3.527-6.352-4.948-10.045-3.279l-21.498,9.723
	c-5.225-6.533-11.048-12.566-17.391-18.013l10.472-21.144c1.799-3.631,0.53-8.035-2.924-10.153l-19.093-11.709
	c-3.455-2.119-7.954-1.252-10.375,1.998l-14.08,18.896c-9.437-3.897-19.415-6.744-29.795-8.395l-2.128-23.482
	c-0.365-4.036-3.748-7.127-7.801-7.127h-22.398c-4.052,0-7.436,3.091-7.801,7.127l-2.126,23.482
	c-8.794,1.398-17.302,3.654-25.436,6.681l-13.406-19.375c-2.305-3.333-6.772-4.356-10.299-2.36l-19.493,11.032
	c-3.527,1.996-4.948,6.352-3.279,10.045l9.724,21.498c-6.533,5.225-12.566,11.048-18.013,17.391l-21.144-10.472
	c-3.631-1.799-8.035-0.53-10.153,2.924l-11.709,19.094c-2.119,3.454-1.252,7.954,1.998,10.375l18.896,14.08
	c-3.897,9.437-6.744,19.417-8.395,29.796l-23.482,2.126c-4.036,0.365-7.127,3.748-7.127,7.801v22.398
	c0,4.052,3.091,7.436,7.127,7.801l23.482,2.126c1.399,8.794,3.654,17.302,6.681,25.436l-19.375,13.406
	c-3.333,2.305-4.356,6.773-2.36,10.299l11.032,19.493c1.996,3.527,6.352,4.948,10.045,3.279l21.498-9.724
	c5.225,6.533,11.048,12.566,17.391,18.013l-10.472,21.143c-1.799,3.631-0.53,8.035,2.924,10.154l19.093,11.709
	c3.455,2.119,7.954,1.252,10.375-1.998l14.08-18.896c9.437,3.897,19.415,6.745,29.795,8.395l2.126,23.482
	c0.365,4.036,3.748,7.127,7.801,7.127h22.398c4.052,0,7.436-3.091,7.801-7.127l2.126-23.482c8.794-1.398,17.302-3.654,25.436-6.681
	l13.406,19.375c2.305,3.333,6.772,4.356,10.299,2.36l19.493-11.032c3.527-1.996,4.948-6.352,3.279-10.045l-9.724-21.498
	c6.533-5.225,12.566-11.048,18.013-17.391l21.143,10.472c3.631,1.799,8.035,0.53,10.153-2.924l11.709-19.093
	c2.119-3.454,1.252-7.954-1.998-10.375l-18.896-14.08c3.897-9.437,6.744-19.415,8.395-29.796l23.482-2.126
	c4.036-0.365,7.127-3.748,7.127-7.801v-22.398C418.446,222.553,415.354,219.17,411.319,218.803z M257.049,332.417
	c-52.254,0-94.614-42.36-94.614-94.614s42.36-94.614,94.614-94.614s94.614,42.36,94.614,94.614
	C351.662,290.057,309.302,332.417,257.049,332.417z"/>
<path style="fill:#FFE1B3;" d="M260.566,509.228l27.717-53.345l-5.614-2.714h-55.301l-3.649,2.714l27.717,53.345
	C253.357,512.925,258.645,512.925,260.566,509.228z"/>
<polygon style="fill:#FAD7A5;" points="288.283,455.883 282.669,453.169 264.422,453.169 270.037,455.883 260.566,509.228 "/>
<g>
	<path style="fill:#C7CAD3;" d="M256.001,124.291c-62.691,0-113.513,50.821-113.513,113.513
		c0,62.691,50.821,113.513,113.513,113.513s113.513-50.821,113.513-113.513C369.512,175.113,318.692,124.291,256.001,124.291z
		 M257.049,332.417c-52.254,0-94.614-42.36-94.614-94.614s42.36-94.614,94.614-94.614s94.614,42.36,94.614,94.614
		C351.662,290.057,309.302,332.417,257.049,332.417z"/>
	<path style="fill:#C7CAD3;" d="M306.53,318.451c-14.397,8.853-31.34,13.967-49.48,13.967c-19.033,0-36.739-5.64-51.578-15.31V361.4
		c9.322,3.815,19.166,6.611,29.403,8.24l2.126,23.482c0.365,4.036,3.748,7.127,7.801,7.127h22.398c4.052,0,7.436-3.091,7.801-7.127
		l2.126-23.482c8.794-1.398,17.302-3.654,25.435-6.681l3.968,5.734v-50.243H306.53z"/>
	<path style="fill:#C7CAD3;" d="M205.472,106.916v51.585c14.839-9.671,32.544-15.31,51.578-15.31
		c18.141,0,35.083,5.115,49.48,13.967v-42.95c-9.322-3.815-19.166-6.611-29.403-8.24l-2.126-23.484
		c-0.365-4.036-3.748-7.127-7.801-7.127h-22.398c-4.052,0-7.436,3.091-7.801,7.127l-2.126,23.482
		c-8.794,1.398-17.302,3.654-25.435,6.681L205.472,106.916z"/>
</g>
<path style="fill:#B1B3BA;" d="M205.472,136.139v22.362c14.839-9.671,32.544-15.31,51.578-15.31c18.141,0,35.083,5.115,49.48,13.967
	V136.14c-15.218-7.578-32.374-11.847-50.529-11.847S220.69,128.561,205.472,136.139z"/>
<polygon style="fill:#FFDC64;" points="288.283,455.883 223.719,455.883 223.719,61.757 227.649,58.389 284.915,58.108 
	288.283,61.757 "/>
<g>
	<polygon style="fill:#FFC850;" points="284.915,58.108 267.216,58.195 270.504,61.757 270.504,455.883 288.283,455.883 
		288.283,61.757 	"/>
	<path style="fill:#FFC850;" d="M288.283,340.597c-9.833,0.96-19.915,1.466-30.196,1.466c-11.74,0-23.224-0.657-34.369-1.902v81.514
		c2.716,1.375,6.2,2.205,9.988,2.205h44.589c3.787,0,7.272-0.83,9.988-2.205V340.597z"/>
</g>
<path style="fill:#FF6B5C;" d="M256.001,430.991c-4.652,0-8.421-3.771-8.421-8.421V94.657c0-4.651,3.769-8.421,8.421-8.421
	c4.652,0,8.421,3.771,8.421,8.421V422.57C264.422,427.22,260.652,430.991,256.001,430.991z"/>
<path style="fill:#D85750;" d="M258.087,342.064c-3.529,0-7.027-0.079-10.508-0.195v80.701c0,0.447,0.045,0.883,0.112,1.312h16.618
	c0.067-0.429,0.112-0.865,0.112-1.312v-80.583C262.317,342.029,260.209,342.064,258.087,342.064z"/>
<path style="fill:#FF80BD;" d="M261.866,0h-11.731c-14.589,0-26.416,11.827-26.416,26.416v35.341h64.565V26.416
	C288.283,11.827,276.456,0,261.866,0z"/>
<path style="fill:#FF5CA6;" d="M261.866,0h-11.731c-1.027,0-2.039,0.065-3.036,0.179c13.159,1.507,23.381,12.676,23.381,26.238
	v35.341h17.802V26.416C288.283,11.827,276.456,0,261.866,0z"/>
<path style="fill:#E9EBF2;" d="M351.662,237.803c0,52.254-42.36,94.614-94.614,94.614s-94.614-42.36-94.614-94.614H93.556v11.199
	c0,4.052,3.09,7.436,7.127,7.801l23.482,2.126c1.399,8.794,3.655,17.302,6.682,25.436l-19.375,13.406
	c-3.333,2.305-4.356,6.773-2.36,10.299l11.032,19.493c1.996,3.527,6.352,4.948,10.045,3.279l21.498-9.724
	c5.225,6.533,11.048,12.566,17.391,18.013l-10.472,21.144c-1.799,3.631-0.53,8.035,2.924,10.154l19.093,11.709
	c3.455,2.119,7.954,1.252,10.376-1.998l14.08-18.896c9.437,3.897,19.417,6.745,29.795,8.395l2.126,23.482
	c0.365,4.036,3.748,7.127,7.801,7.127h22.398c4.052,0,7.436-3.091,7.801-7.127l2.126-23.482c8.794-1.398,17.302-3.654,25.435-6.681
	l13.406,19.375c2.306,3.333,6.773,4.356,10.299,2.36l19.493-11.032c3.527-1.996,4.948-6.352,3.279-10.044l-9.723-21.498
	c6.533-5.225,12.566-11.048,18.013-17.391l21.144,10.472c3.631,1.799,8.035,0.53,10.153-2.924l11.709-19.093
	c2.118-3.454,1.252-7.954-1.998-10.375l-18.896-14.08c3.897-9.437,6.744-19.415,8.395-29.796l23.484-2.126
	c4.036-0.365,7.127-3.748,7.127-7.801v-11.199h-66.782V237.803z"/>
<path style="fill:#C7CAD3;" d="M257.049,332.417c-52.254,0-94.614-42.36-94.614-94.614h-19.947
	c0,62.691,50.821,113.513,113.513,113.513s113.513-50.821,113.513-113.513h-17.85C351.662,290.057,309.302,332.417,257.049,332.417z
	"/>
<path style="fill:#53515E;" d="M242.387,491.814l9.048,17.413c1.921,3.698,7.21,3.698,9.131,0l9.047-17.413H242.387z"/>
<polygon style="fill:#474756;" points="263.658,491.814 260.566,509.228 269.613,491.814 "/>
<g>
</g>
<g>
</g>
<g>
</g>
<g>
</g>
<g>
</g>
<g>
</g>
<g>
</g>
<g>
</g>
<g>
</g>
<g>
</g>
<g>
</g>
<g>
</g>
<g>
</g>
<g>
</g>
<g>
</g>
</svg>
