<?xml version="1.0" encoding="iso-8859-1"?>
<!-- Generator: Adobe Illustrator 19.0.0, SVG Export Plug-In . SVG Version: 6.00 Build 0)  -->
<svg version="1.1" id="Capa_1" xmlns="http://www.w3.org/2000/svg" xmlns:xlink="http://www.w3.org/1999/xlink" x="0px" y="0px"
	 viewBox="0 0 512 512" style="enable-background:new 0 0 512 512;" xml:space="preserve">
<path style="fill:#FF80BD;" d="M305.494,72.258H35.839C16.046,72.258,0,88.304,0,108.097v184.185
	c0,19.793,16.046,35.839,35.839,35.839h10.145c6.445,0,11.669,5.224,11.669,11.669v43.154c0,6.364,7.694,9.55,12.194,5.051
	l56.456-56.456c2.188-2.188,5.157-3.418,8.251-3.418h170.94c19.793,0,35.839-16.046,35.839-35.839V108.097
	C341.333,88.304,325.288,72.258,305.494,72.258z"/>
<path style="fill:#FF5CA6;" d="M95.312,360.552v-43.154c0-6.445-5.224-11.669-11.669-11.669H73.497
	c-19.793,0-35.839-16.046-35.839-35.839V85.705c0-4.757,0.935-9.294,2.618-13.447h-4.437C16.046,72.258,0,88.304,0,108.097v184.185
	c0,19.793,16.046,35.839,35.839,35.839h10.146c6.445,0,11.669,5.224,11.669,11.669v43.154c0,6.364,7.694,9.55,12.194,5.051
	l25.692-25.692C95.404,361.749,95.312,361.171,95.312,360.552z"/>
<path style="fill:#6F4BEF;" d="M206.506,121.899h269.655c19.793,0,35.839,16.046,35.839,35.839v184.185
	c0,19.793-16.046,35.839-35.839,35.839h-10.145c-6.445,0-11.669,5.224-11.669,11.669v43.154c0,6.364-7.694,9.55-12.194,5.051
	l-56.456-56.456c-2.188-2.188-5.157-3.418-8.251-3.418h-170.94c-19.793,0-35.839-16.046-35.839-35.839V157.738
	C170.667,137.944,186.712,121.899,206.506,121.899z"/>
<path style="fill:#4628B2;" d="M205.674,121.899c-19.794,0-35.839,16.046-35.839,35.839v170.384h134.828
	c19.793,0,35.839-16.046,35.839-35.839V121.899H205.674z"/>
<g>
	<path style="fill:#6F4BEF;" d="M302.012,176.361h-93.687c-4.593,0-8.315-3.723-8.315-8.315s3.722-8.315,8.315-8.315h93.687
		c4.593,0,8.315,3.723,8.315,8.315S306.605,176.361,302.012,176.361z"/>
	<path style="fill:#6F4BEF;" d="M233.897,214.612h-25.572c-4.593,0-8.315-3.723-8.315-8.315s3.722-8.315,8.315-8.315h25.572
		c4.593,0,8.315,3.723,8.315,8.315C242.212,210.889,238.49,214.612,233.897,214.612z"/>
	<path style="fill:#6F4BEF;" d="M302.012,214.612h-35.421c-4.593,0-8.315-3.723-8.315-8.315s3.722-8.315,8.315-8.315h35.421
		c4.593,0,8.315,3.723,8.315,8.315C310.328,210.889,306.605,214.612,302.012,214.612z"/>
	<path style="fill:#6F4BEF;" d="M244.577,284.461h-35.421c-4.593,0-8.315-3.723-8.315-8.315s3.722-8.315,8.315-8.315h35.421
		c4.593,0,8.315,3.723,8.315,8.315S249.17,284.461,244.577,284.461z"/>
	<path style="fill:#6F4BEF;" d="M302.012,249.537h-93.687c-4.593,0-8.315-3.723-8.315-8.315s3.722-8.315,8.315-8.315h93.687
		c4.593,0,8.315,3.723,8.315,8.315S306.605,249.537,302.012,249.537z"/>
</g>
<g>
</g>
<g>
</g>
<g>
</g>
<g>
</g>
<g>
</g>
<g>
</g>
<g>
</g>
<g>
</g>
<g>
</g>
<g>
</g>
<g>
</g>
<g>
</g>
<g>
</g>
<g>
</g>
<g>
</g>
</svg>
