<?xml version="1.0" encoding="iso-8859-1"?>
<!-- Generator: Adobe Illustrator 19.0.0, SVG Export Plug-In . SVG Version: 6.00 Build 0)  -->
<svg version="1.1" id="Capa_1" xmlns="http://www.w3.org/2000/svg" xmlns:xlink="http://www.w3.org/1999/xlink" x="0px" y="0px"
	 viewBox="0 0 512.001 512.001" style="enable-background:new 0 0 512.001 512.001;" xml:space="preserve">
<path style="fill:#53515E;" d="M485.535,449.503V148.901c0-19.022-15.124-34.442-33.781-34.442H60.249
	c-18.657,0-33.781,15.42-33.781,34.442v300.401L485.535,449.503z"/>
<path style="fill:#474756;" d="M208.908,265.502l-0.006,0.105c-0.018,0.309-0.041,0.617-0.075,0.941
	c-0.784,7.633-6.334,13.936-13.811,15.686l-34.036,7.964c-35.215,8.239-59.808,39.252-59.808,75.418v81.46h323.236v-81.46
	c0-36.165-24.594-67.178-59.807-75.418l-34.037-7.964c-7.73-1.809-13.437-8.605-13.88-16.523c-0.018-0.337-0.034-0.676-0.034-1.017
	l-0.001-7.853c4.178-2.859,8.128-6.037,11.825-9.513h3.423c28.507,0,51.699-23.192,51.699-51.698v-0.187
	c5.304-5.605,8.363-13.084,8.363-21.123v-44.703c0-5.508-1.456-10.68-3.999-15.159h-60.048v15.895h32.5v43.231h-16.726v2.146
	h-15.773c0,10.136-2.21,19.861-6.569,28.906c-0.489,1.014-1.072,2.131-1.785,3.413l-4.294,7.732h-0.28l-4.686,5.092
	c-4.934,5.362-10.661,9.853-17.02,13.348l-8.176,4.494v27.918l0.052,0.207c0.009,0.205,0.02,0.413,0.032,0.627
	c1.218,21.803,16.923,40.507,38.19,45.484l34.036,7.964c20.872,4.884,35.449,23.266,35.449,44.701v28.49H132.717v-28.49
	c0-21.436,14.577-39.818,35.448-44.701l34.037-7.964c20.574-4.814,35.848-22.167,38.004-43.162c0.08-0.771,0.141-1.545,0.191-2.414
	l-0.006,0.114l0.013-0.229c0.046-0.85,0.071-1.703,0.071-2.572v-24.802l-8.778-4.343c-0.639-0.316-1.273-0.637-1.899-0.972
	c-0.303-0.162-0.601-0.332-0.9-0.5l-0.311-0.176c-0.428-0.24-0.853-0.483-1.257-0.721c-0.42-0.25-0.839-0.501-1.239-0.749
	c-0.418-0.26-0.831-0.529-1.238-0.795c-18.995-12.388-30.334-33.284-30.334-55.898h-15.773v-2.146h-16.727v-41.785l-8.378-4.447
	c-6.303-3.346-11.811-7.74-16.369-12.895H99.826c6.769,14.258,17.263,26.639,30.646,35.716v24.146
	c0,16.989,13.821,30.811,30.81,30.811h6.167c6.714,21.469,20.715,40.232,40.175,52.924c0.432,0.281,0.865,0.562,1.305,0.842v5.801
	C208.928,264.957,208.922,265.214,208.908,265.502z"/>
<path style="fill:#DFE2EA;" d="M301.037,447.076L301.037,447.076c-38.169,0-53.799,0-90.345,0l0,0H6.232
	c-2.762,0-5.002,2.239-5.002,5.002v11.27c0,26.87,21.783,48.653,48.653,48.653h412.236c26.87,0,48.653-21.783,48.653-48.653v-11.27
	c0-2.762-2.239-5.002-5.002-5.002L301.037,447.076L301.037,447.076z"/>
<path style="fill:#C7CAD3;" d="M4,479.538c6.673,18.909,24.691,32.463,45.883,32.463h412.235c21.192,0,39.21-13.554,45.883-32.463
	H301.037c-38.169,0-53.799,0-90.345,0H4z"/>
<rect x="64.845" y="152.311" style="fill:#FFFFFF;" width="385.99" height="257.56"/>
<path style="fill:#E9EBF2;" d="M331.896,247.328c28.507,0,51.699-23.192,51.699-51.698v-0.187
	c5.304-5.605,8.363-13.084,8.363-21.123v-22.005h-31.547v21.27h-16.726v2.146h-15.773c0,10.136-2.21,19.861-6.569,28.906
	c-0.489,1.014-1.072,2.131-1.785,3.413l-4.294,7.732h-0.28l-4.686,5.092c-4.934,5.362-10.661,9.853-17.02,13.348l-8.176,4.494
	v27.918l0.052,0.207c0.009,0.205,0.02,0.413,0.032,0.627c1.218,21.803,16.923,40.507,38.19,45.484l34.036,7.964
	c20.872,4.884,35.449,23.266,35.449,44.701v28.49H132.717v-28.49c0-21.436,14.577-39.818,35.448-44.701l34.037-7.964
	c20.574-4.814,35.848-22.167,38.004-43.162c0.08-0.771,0.141-1.545,0.191-2.414l-0.006,0.114l0.013-0.229
	c0.046-0.85,0.071-1.703,0.071-2.572v-24.802l-8.778-4.343c-0.639-0.316-1.273-0.637-1.899-0.972c-0.303-0.162-0.601-0.332-0.9-0.5
	l-0.311-0.176c-0.428-0.24-0.853-0.483-1.257-0.721c-0.42-0.25-0.839-0.501-1.239-0.749c-0.418-0.26-0.831-0.529-1.238-0.795
	c-18.995-12.388-30.334-33.284-30.334-55.898h-15.773v-2.146h-16.727v-21.27h-31.547v22.005c0,16.989,13.821,30.811,30.81,30.811
	h6.167c6.714,21.469,20.715,40.232,40.175,52.924c0.432,0.281,0.865,0.562,1.305,0.842v5.801c0,0.259-0.007,0.517-0.022,0.804
	l-0.006,0.105c-0.018,0.309-0.041,0.617-0.075,0.941c-0.784,7.633-6.334,13.936-13.811,15.686l-34.036,7.964
	c-35.215,8.239-59.808,39.252-59.808,75.418v44.263h323.236v-44.263c0-36.165-24.594-67.178-59.807-75.418l-34.037-7.964
	c-7.73-1.809-13.437-8.605-13.88-16.523c-0.018-0.337-0.034-0.676-0.034-1.017l-0.001-7.853c4.178-2.859,8.128-6.037,11.825-9.513
	h3.422V247.328z"/>
<circle style="fill:#DEAF73;" cx="180.84" cy="75.986" r="73.895"/>
<path style="fill:#86E56E;" d="M361.006,305.556l-10.957-2.564H175.53l-10.957,2.564c-27.899,6.528-47.629,31.408-47.629,60.06
	v44.263h291.69v-44.264C408.634,336.963,388.904,312.083,361.006,305.556z"/>
<path style="fill:#FAD7A5;" d="M262.789,356.513c38.088,0,71.072-21.764,87.259-53.521l-23.079-5.4
	c-15.284-3.576-26.094-17.207-26.094-32.904v-38.582h-76.172v38.582c0,15.697-10.809,29.328-26.094,32.904l-23.079,5.4
	C191.717,334.748,224.701,356.513,262.789,356.513z"/>
<rect x="160.701" y="101.921" style="fill:#CD905A;" width="18.04" height="31.897"/>
<path style="fill:#53515E;" d="M161.283,114.58h17.463v74.778h-17.463c-8.305,0-15.038-6.733-15.038-15.038v-44.702
	C146.245,121.312,152.978,114.58,161.283,114.58z"/>
<rect x="165.861" y="114.581" style="fill:#474756;" width="14.972" height="74.78"/>
<path style="fill:#F0C891;" d="M300.876,264.687v-38.582h-76.172v38.582c0,1.171-0.068,2.329-0.185,3.474
	c11.054,5.504,23.509,8.615,36.697,8.615l0,0c14.402,0,27.937-3.7,39.72-10.189C300.9,265.957,300.876,265.325,300.876,264.687z"/>
<path style="fill:#53515E;" d="M361.147,189.358h-17.463V114.58h17.463c8.305,0,15.038,6.733,15.038,15.038v44.702
	C376.185,182.625,369.452,189.358,361.147,189.358z"/>
<rect x="342.001" y="114.581" style="fill:#474756;" width="15.563" height="74.78"/>
<path style="fill:#FFE1B3;" d="M261.215,258.199L261.215,258.199c-45.547,0-82.469-36.923-82.469-82.469v-67.422
	c0-45.547,36.923-82.469,82.469-82.469l0,0c45.547,0,82.469,36.923,82.469,82.469v67.422
	C343.685,221.277,306.762,258.199,261.215,258.199z"/>
<path style="fill:#B28362;" d="M261.215,212.711c-9.789,0-19.578-3.726-27.031-11.179c-2.929-2.929-2.929-7.678,0-10.606
	c2.93-2.929,7.678-2.929,10.607,0c9.055,9.057,23.793,9.057,32.848,0c2.93-2.929,7.678-2.929,10.607,0s2.929,7.678,0,10.606
	C280.793,208.985,271.004,212.711,261.215,212.711z"/>
<path style="fill:#FAD7A5;" d="M274.924,26.994c21.764,14.847,36.057,39.836,36.057,68.169v67.422
	c0,45.547-36.923,82.469-82.469,82.469l0,0c-4.673,0-9.248-0.409-13.709-1.156c13.222,9.02,29.199,14.3,46.413,14.3l0,0
	c45.547,0,82.469-36.923,82.469-82.469v-67.422C343.685,67.434,313.943,33.526,274.924,26.994z"/>
<path style="fill:#CD905A;" d="M175.45,52.559c-4.169,6.678-9.765,17.436-12.727,31.711c-2.569,12.38-2.242,22.996-1.44,30.31
	c10.034-2.476,17.864-6.021,23.289-8.937c2.141-1.151,12.724-6.941,23.762-17.635l0,0L175.45,52.559z"/>
<path style="fill:#D59F63;" d="M366.3,99.227c-7.023-26.016-18.684-50.788-37.652-69.136C322.5,24.144,299.395,1.795,265.2,0.028
	c0,0-35.682-1.843-66.494,24.375c-9.296,7.91-16.949,17.5-23.256,28.154c28.678,41.031,71.702,67.124,119.808,67.124
	c11.847,0,36.599-3.613,48.427-11.375L366.3,99.227z"/>
<path style="fill:#CD905A;" d="M328.648,30.092C322.5,24.145,299.395,1.796,265.2,0.029c0,0-8.651-0.439-21.102,2.232
	c25.725,6.184,42.929,22.822,48.107,27.83c18.968,18.348,30.629,43.12,37.652,69.136l-22.615,9.08
	c-7.509,4.928-20.226,8.181-31.545,9.902c6.409,0.961,12.935,1.473,19.561,1.473c11.847,0,36.599-3.613,48.427-11.375l22.615-9.08
	C359.277,73.212,347.616,48.44,328.648,30.092z"/>
<path style="fill:#AAE1FF;" d="M355.984,183.591c-2.169,0-3.927,1.758-3.927,3.927v7.941c-0.001,0.057-0.009,0.113-0.009,0.17
	c0,11.112-9.04,20.152-20.152,20.152h-61.88c-4.2,0-7.868,3.17-8.14,7.361c-0.297,4.593,3.34,8.412,7.87,8.412h62.15
	c19.809,0,35.926-16.116,35.926-35.925l0,0v-8.112c0-2.169-1.758-3.927-3.927-3.927h-7.911V183.591z"/>
<g>
	<circle style="fill:#53515E;" cx="228.51" cy="140.491" r="9.141"/>
	<circle style="fill:#53515E;" cx="290.671" cy="140.491" r="9.141"/>
</g>
<g>
	<path style="fill:#5FCE6A;" d="M136.063,335.366h-11.186c-5.072,9.004-7.932,19.352-7.932,30.249v44.263h55.36v-38.271
		C172.305,351.592,156.079,335.366,136.063,335.366z"/>
	<path style="fill:#5FCE6A;" d="M389.516,335.366c-20.016,0-36.242,16.226-36.242,36.242v38.271h55.36v-44.264
		c0-10.897-2.86-21.245-7.932-30.249H389.516z"/>
</g>
<g>
</g>
<g>
</g>
<g>
</g>
<g>
</g>
<g>
</g>
<g>
</g>
<g>
</g>
<g>
</g>
<g>
</g>
<g>
</g>
<g>
</g>
<g>
</g>
<g>
</g>
<g>
</g>
<g>
</g>
</svg>
