<?xml version="1.0" encoding="iso-8859-1"?>
<!-- Generator: Adobe Illustrator 19.0.0, SVG Export Plug-In . SVG Version: 6.00 Build 0)  -->
<svg version="1.1" id="Capa_1" xmlns="http://www.w3.org/2000/svg" xmlns:xlink="http://www.w3.org/1999/xlink" x="0px" y="0px"
	 viewBox="0 0 512 512" style="enable-background:new 0 0 512 512;" xml:space="preserve">
<path d="M370.923,367.55H201.157c-4.142,0-7.5-3.358-7.5-7.5V163.958c0-4.142,3.358-7.5,7.5-7.5h169.766c4.142,0,7.5,3.358,7.5,7.5
	V360.05C378.423,364.192,375.065,367.55,370.923,367.55z M208.657,352.55h154.766V171.458H208.657V352.55z"/>
<path style="fill:#53515E;" d="M486.641,429.788V127.735c0-19.114-15.197-34.608-33.944-34.608H59.304
	c-18.747,0-33.944,15.495-33.944,34.608v301.85L486.641,429.788z"/>
<path style="fill:#DFE2EA;" d="M301.253,427.348L301.253,427.348c-38.353,0-54.059,0-90.781,0l0,0H5.002
	C2.24,427.348,0,429.587,0,432.35v11.349c0,27,21.888,48.888,48.888,48.888h414.224c27,0,48.888-21.888,48.888-48.888V432.35
	c0-2.762-2.239-5.002-5.002-5.002H301.253z"/>
<path style="fill:#C7CAD3;" d="M2.784,459.968c6.705,19,24.81,32.619,46.104,32.619h414.224c21.295,0,39.4-13.619,46.104-32.619
	H301.253c-38.353,0-54.059,0-90.781,0H2.784z"/>
<path style="fill:#474756;" d="M355.406,331.895l18.789,7.964c-0.132,1.223-0.203,2.464-0.203,3.723
	c0,19.038,15.434,34.472,34.472,34.472s34.472-15.434,34.472-34.472c0-16.871-12.123-30.902-28.132-33.88l-1.941-15.694
	c53.016-52.202,67.825-133.003,35.945-200.881H128.633c-24.457,52.506-22.795,115.942,9.779,168.301
	C184.927,336.197,277.398,363.795,355.406,331.895z"/>
<rect x="63.922" y="131.17" style="fill:#FFFFFF;" width="387.85" height="258.81"/>
<path style="fill:#E9EBF2;" d="M451.772,131.166H115.907c-9.277,43.31-2.512,90.051,22.504,130.262
	c46.515,74.769,138.986,102.367,216.995,70.467l18.789,7.964c-0.132,1.223-0.203,2.464-0.203,3.723
	c0,19.038,15.434,34.472,34.472,34.472s34.472-15.434,34.472-34.472c0-16.871-12.123-30.902-28.132-33.88l-1.941-15.694
	c16.988-16.727,30.046-36.394,38.909-57.628L451.772,131.166L451.772,131.166z"/>
<path style="fill:#DFE2EA;" d="M167.432,276.224h-41.183c-4.377,0-7.925-3.548-7.925-7.925c0-4.377,3.548-7.925,7.925-7.925h41.183
	c4.377,0,7.925,3.548,7.925,7.925C175.357,272.676,171.809,276.224,167.432,276.224z"/>
<path style="fill:#C7CAD3;" d="M167.434,260.374h-29.658c0.215,0.35,0.42,0.704,0.637,1.054c3.211,5.161,6.648,10.089,10.276,14.796
	h18.744c4.377,0,7.925-3.548,7.925-7.925C175.359,263.922,171.811,260.374,167.434,260.374z"/>
<circle style="fill:#FFDC64;" cx="101.48" cy="268.3" r="7.925"/>
<path style="fill:#DFE2EA;" d="M167.432,305.81h-41.183c-4.377,0-7.925-3.548-7.925-7.925c0-4.377,3.548-7.925,7.925-7.925h41.183
	c4.377,0,7.925,3.548,7.925,7.925C175.357,302.261,171.809,305.81,167.432,305.81z"/>
<path style="fill:#C7CAD3;" d="M167.434,289.96h-7.004c4.254,4.487,8.713,8.705,13.345,12.664c0.99-1.323,1.584-2.96,1.584-4.739
	C175.359,293.508,171.811,289.96,167.434,289.96z"/>
<circle style="fill:#FFDC64;" cx="101.48" cy="297.88" r="7.925"/>
<path style="fill:#DFE2EA;" d="M167.432,337.508h-41.183c-4.377,0-7.925-3.548-7.925-7.925c0-4.377,3.548-7.925,7.925-7.925h41.183
	c4.377,0,7.925,3.548,7.925,7.925C175.357,333.96,171.809,337.508,167.432,337.508z"/>
<circle style="fill:#FFDC64;" cx="101.48" cy="329.58" r="7.925"/>
<path style="fill:#DFE2EA;" d="M167.432,367.975h-41.183c-4.377,0-7.925-3.548-7.925-7.925c0-4.377,3.548-7.925,7.925-7.925h41.183
	c4.377,0,7.925,3.548,7.925,7.925C175.357,364.427,171.809,367.975,167.432,367.975z"/>
<circle style="fill:#FFDC64;" cx="101.48" cy="360.05" r="7.925"/>
<path style="fill:#FF9EA4;" d="M162.161,229.908h-55.408c-2.911,0-5.271-2.36-5.271-5.271v-55.408c0-2.911,2.36-5.271,5.271-5.271
	h55.408c2.911,0,5.271,2.36,5.271,5.271v55.408C167.432,227.548,165.072,229.908,162.161,229.908z"/>
<path style="fill:#FF839B;" d="M162.161,163.958h-50.162c-0.58,22.159,2.974,44.555,10.933,65.951h39.229
	c2.911,0,5.271-2.36,5.271-5.271V169.23C167.432,166.318,165.072,163.958,162.161,163.958z"/>
<path style="fill:#86E56E;" d="M415.169,87.484C368.804,17.302,274.114-1.783,204.146,45.155
	c-67.547,45.314-87.28,136.864-44.313,205.929c39.886,64.113,119.177,87.777,186.067,60.423l46.715,19.8
	c4.029,2.581,9.196-0.892,8.327-5.598l-5.774-46.69C445.771,229.192,455.791,148.974,415.169,87.484z"/>
<circle style="fill:#00AAF0;" cx="408.46" cy="343.58" r="15.849"/>
<path style="fill:#FFFFFF;" d="M216.02,160.335c16.298,40.057,48.078,71.837,88.135,88.135c18.158,7.399,38.983,3.202,52.857-10.654
	l4.12-4.218c5.14-5.124,5.154-13.444,0.03-18.584c-0.742-0.744-1.571-1.397-2.468-1.944l-26.111-15.555
	c-5.754-3.417-13.094-2.494-17.822,2.243l-5.924,5.998c-1.49,1.514-3.76,1.95-5.705,1.097
	c-20.306-8.928-36.512-25.168-45.396-45.494c-0.878-1.925-0.481-4.193,1-5.705l5.998-5.973c4.736-4.728,5.66-12.068,2.243-17.822
	l-15.555-26.063c-0.56-0.888-1.223-1.706-1.975-2.438c-5.137-5.114-13.441-5.114-18.578,0l-4.193,4.12
	C212.818,121.353,208.621,142.177,216.02,160.335z"/>
<path style="fill:#5FCE6A;" d="M395.172,279.02c42.896-42.237,56.623-106.311,35.069-162.305c0.026,1.174,0.045,2.35,0.045,3.53
	c0,86.144-69.834,155.978-155.978,155.978c-57.426,0-107.595-31.039-134.669-77.249c3.33,18.024,9.991,35.701,20.199,52.109
	c39.886,64.113,119.177,87.777,186.067,60.423l46.715,19.8c4.029,2.581,9.196-0.892,8.327-5.598L395.172,279.02z"/>
<g>
</g>
<g>
</g>
<g>
</g>
<g>
</g>
<g>
</g>
<g>
</g>
<g>
</g>
<g>
</g>
<g>
</g>
<g>
</g>
<g>
</g>
<g>
</g>
<g>
</g>
<g>
</g>
<g>
</g>
</svg>
