<?xml version="1.0" encoding="iso-8859-1"?>
<!-- Generator: Adobe Illustrator 19.0.0, SVG Export Plug-In . SVG Version: 6.00 Build 0)  -->
<svg version="1.1" id="Capa_1" xmlns="http://www.w3.org/2000/svg" xmlns:xlink="http://www.w3.org/1999/xlink" x="0px" y="0px"
	 viewBox="0 0 512.001 512.001" style="enable-background:new 0 0 512.001 512.001;" xml:space="preserve">
<circle style="fill:#00AAF0;" cx="346.63" cy="486.56" r="25.441"/>
<path style="fill:#E9EBF2;" d="M386.244,0H125.756c-11.494,0-20.812,9.318-20.812,20.812v379.212
	c0,11.494,9.318,20.812,20.812,20.812h204.977l14.311,14.311l14.311-14.311h26.89c11.494,0,20.812-9.318,20.812-20.812V20.812
	C407.056,9.318,397.738,0,386.244,0z"/>
<path style="fill:#DFE2EA;" d="M386.244,0h-8.869v258.342c0,65.887-53.412,119.298-119.298,119.298H104.944v22.384
	c0,11.494,9.318,20.812,20.812,20.812h204.977l14.311,14.311l14.311-14.311h26.89c11.494,0,20.812-9.318,20.812-20.812V20.812
	C407.056,9.318,397.738,0,386.244,0z"/>
<path style="fill:#00AAF0;" d="M386.244,0H125.756c-11.494,0-20.812,9.318-20.812,20.812v94.732h302.112V20.812
	C407.056,9.318,397.738,0,386.244,0z"/>
<path style="fill:#0398E2;" d="M386.244,0h-8.869v115.545h29.681V20.812C407.056,9.318,397.738,0,386.244,0z"/>
<path style="fill:#AAE1FF;" d="M290.774,197.168h-141.63c-6.262,0-11.338-5.076-11.338-11.338v-22.906
	c0-6.262,5.076-11.338,11.338-11.338h141.63c6.262,0,11.338,5.076,11.338,11.338v22.906
	C302.112,192.092,297.036,197.168,290.774,197.168z"/>
<circle style="fill:#F0C087;" cx="354.58" cy="174.38" r="22.791"/>
<path style="fill:#AAE1FF;" d="M224.406,233.209h141.63c6.262,0,11.338,5.076,11.338,11.338v22.906
	c0,6.262-5.076,11.338-11.338,11.338h-141.63c-6.262,0-11.338-5.076-11.338-11.338v-22.906
	C213.068,238.285,218.145,233.209,224.406,233.209z"/>
<circle style="fill:#FF8087;" cx="160.6" cy="256" r="22.791"/>
<circle style="fill:#FFF082;" cx="160.6" cy="56.712" r="22.791"/>
<g>
	<path style="fill:#0568C1;" d="M316.952,50.352h-96.464c-4.391,0-7.95-3.56-7.95-7.95s3.56-7.95,7.95-7.95h96.464
		c4.391,0,7.95,3.56,7.95,7.95S321.343,50.352,316.952,50.352z"/>
	<path style="fill:#0568C1;" d="M265.01,80.033h-44.522c-4.391,0-7.95-3.56-7.95-7.95s3.56-7.95,7.95-7.95h44.522
		c4.391,0,7.95,3.56,7.95,7.95S269.401,80.033,265.01,80.033z"/>
</g>
<g>
</g>
<g>
</g>
<g>
</g>
<g>
</g>
<g>
</g>
<g>
</g>
<g>
</g>
<g>
</g>
<g>
</g>
<g>
</g>
<g>
</g>
<g>
</g>
<g>
</g>
<g>
</g>
<g>
</g>
</svg>
