<?xml version="1.0" encoding="iso-8859-1"?>
<!-- Generator: Adobe Illustrator 19.0.0, SVG Export Plug-In . SVG Version: 6.00 Build 0)  -->
<svg version="1.1" id="Layer_1" xmlns="http://www.w3.org/2000/svg" xmlns:xlink="http://www.w3.org/1999/xlink" x="0px" y="0px"
	 viewBox="0 0 512 512" style="enable-background:new 0 0 512 512;" xml:space="preserve">
<g>
	<g>
		<g>
			<path d="M96.213,42.667c-5.888,0-10.667,4.779-10.667,10.667S90.325,64,96.213,64s10.667-4.779,10.667-10.667
				S102.101,42.667,96.213,42.667z"/>
			<path d="M53.547,42.667c-5.888,0-10.667,4.779-10.667,10.667S47.659,64,53.547,64s10.667-4.779,10.667-10.667
				S59.435,42.667,53.547,42.667z"/>
			<path d="M467.733,444.843l-32.021-8l-1.344-5.355c8.299-9.173,14.208-20.864,16.64-33.024c5.696-2.923,9.835-8.533,10.688-15.253
				l2.304-18.56c0.704-5.611-1.024-11.285-4.757-15.552c-1.173-1.323-2.496-2.475-3.904-3.435l0.533-11.307l1.963-1.963
				c5.504-5.845,12.949-18.325,1.152-36.331c-5.611-8.533-17.109-18.731-40.171-18.731c-6.784,0-22.123,0-37.013,9.323
				c-43.904,1.557-49.067,25.216-49.067,43.072c0,3.52,0.64,10.112,1.237,15.616c-1.579,1.003-3.008,2.219-4.267,3.648
				c-3.797,4.267-5.568,9.984-4.864,15.68l2.325,18.56c0.875,6.955,5.291,12.715,11.797,15.552
				c2.389,11.627,7.957,22.891,15.744,31.829l-1.557,6.272l-32.021,8c-25.92,6.485-44.032,29.696-44.032,56.448
				c0,2.837,1.109,5.568,3.115,7.552c2.005,1.984,4.715,3.115,7.552,3.115l213.355-0.064c5.888,0,10.667-4.779,10.667-10.667
				C511.787,474.517,493.675,451.328,467.733,444.843z M299.989,490.645c3.669-12.16,13.483-21.845,26.325-25.088L364.544,456
				c3.819-0.939,6.805-3.925,7.765-7.744l4.565-18.197c0.939-3.755-0.235-7.723-3.072-10.368
				c-8.299-7.787-13.781-19.2-14.699-30.528c-0.448-5.547-5.184-8.619-10.752-8.619l-2.752-16.981c3.072,0,5.973-1.301,8-3.605
				c2.027-2.283,2.965-5.333,2.581-8.384c-0.811-6.443-2.112-18.091-2.112-21.845c0-11.051,0-21.483,31.189-21.803
				c2.176-0.021,4.309-0.704,6.101-1.984c10.155-7.275,21.845-7.275,27.456-7.275c16.384,0,20.864,6.848,22.357,9.088
				c4.331,6.635,2.56,8.512,1.365,9.792l-4.651,4.629c-1.877,1.877-2.987,4.395-3.115,7.04l-1.131,23.211
				c-0.128,2.901,0.213,4.928,2.219,7.04c1.984,2.112,4.053,2.539,6.955,2.56l-1.387,17.344c-5.568,0-10.176,4.288-10.624,9.835
				c-0.917,11.477-6.827,23.403-15.403,31.104c-2.923,2.624-4.181,6.677-3.221,10.517l4.352,17.429
				c0.96,3.819,3.925,6.827,7.765,7.765l38.229,9.557c12.843,3.221,22.656,12.907,26.325,25.088L299.989,490.645z"/>
			<path d="M256.213,448H53.547c-17.643,0-32-14.357-32-32V106.667h426.667V256c0,5.888,4.779,10.667,10.667,10.667
				c5.888,0,10.667-4.779,10.667-10.667V53.333C469.547,23.936,445.632,0,416.213,0H53.547C24.128,0,0.213,23.936,0.213,53.333V416
				c0,29.397,23.915,53.333,53.333,53.333h202.667c5.888,0,10.667-4.779,10.667-10.667S262.101,448,256.213,448z M21.547,53.333
				c0-17.643,14.357-32,32-32h362.667c17.643,0,32,14.357,32,32v32H21.547V53.333z"/>
			<path d="M138.88,42.667c-5.888,0-10.667,4.779-10.667,10.667S132.992,64,138.88,64s10.667-4.779,10.667-10.667
				S144.768,42.667,138.88,42.667z"/>
		</g>
	</g>
</g>
<g>
</g>
<g>
</g>
<g>
</g>
<g>
</g>
<g>
</g>
<g>
</g>
<g>
</g>
<g>
</g>
<g>
</g>
<g>
</g>
<g>
</g>
<g>
</g>
<g>
</g>
<g>
</g>
<g>
</g>
</svg>
