<?xml version="1.0" encoding="iso-8859-1"?>
<!-- Generator: Adobe Illustrator 19.0.0, SVG Export Plug-In . SVG Version: 6.00 Build 0)  -->
<svg version="1.1" id="Layer_1" xmlns="http://www.w3.org/2000/svg" xmlns:xlink="http://www.w3.org/1999/xlink" x="0px" y="0px"
	 viewBox="0 0 512 512" style="enable-background:new 0 0 512 512;" xml:space="preserve">
<g>
	<g>
		<g>
			<path d="M341.333,405.333c5.888,0,10.667-4.779,10.667-10.667S347.221,384,341.333,384H256c-5.888,0-10.667,4.779-10.667,10.667
				s4.779,10.667,10.667,10.667H341.333z"/>
			<path d="M384,341.333H213.333c-5.888,0-10.667,4.779-10.667,10.667c0,5.888,4.779,10.667,10.667,10.667H384
				c5.888,0,10.667-4.779,10.667-10.667C394.667,346.112,389.888,341.333,384,341.333z"/>
			<path d="M384,426.667H213.333c-5.888,0-10.667,4.779-10.667,10.667c0,5.888,4.779,10.667,10.667,10.667H384
				c5.888,0,10.667-4.779,10.667-10.667C394.667,431.445,389.888,426.667,384,426.667z"/>
			<path d="M371.968,231.573l-28.608-7.168c19.499-4.395,29.824-10.368,30.336-10.688c2.944-1.749,4.736-4.928,5.035-8.363
				c0.299-3.435-1.216-6.912-3.819-9.152c-0.149-0.128-14.549-12.971-14.549-56.597c0-44.011-11.392-66.325-33.856-66.325h-0.384
				c-7.232-6.507-13.696-9.28-27.456-9.28c-19.349,0-61.696,19.029-61.696,75.584c0,43.499-14.315,56.405-14.272,56.405
				c-2.859,2.133-4.437,5.525-4.245,9.067c0.171,3.563,2.091,6.784,5.141,8.597c0.533,0.299,10.709,6.336,30.336,10.752
				l-28.544,7.147c-25.92,6.485-44.053,29.696-44.053,56.448c0,2.837,1.109,5.568,3.115,7.552s4.715,3.115,7.552,3.115h213.355
				c5.888,0,10.667-4.779,10.667-10.667C416.021,261.248,397.909,238.059,371.968,231.573z M204.224,277.312
				c3.669-12.16,13.504-21.845,26.325-25.109l38.229-9.557c3.819-0.939,6.805-3.925,7.765-7.744l3.968-15.829
				c0.725-2.923,0.192-6.037-1.515-8.555c-1.685-2.496-4.373-4.16-7.381-4.587c-11.093-1.536-19.712-3.84-25.835-5.909
				c6.08-10.923,12.523-29.739,12.523-60.459c0-44.821,33.707-54.251,40.363-54.251c9.472,0,10.539,1.067,15.637,6.165
				c2.005,1.984,4.715,3.115,7.552,3.115h4.651c6.229,0,12.523,13.909,12.523,44.992c0,30.677,6.443,49.493,12.501,60.416
				c-6.165,2.069-14.784,4.395-25.835,5.931c-3.008,0.405-5.675,2.091-7.36,4.587c-1.707,2.517-2.24,5.611-1.515,8.555l3.968,15.851
				c0.96,3.819,3.925,6.827,7.765,7.765l38.229,9.557c12.843,3.221,22.656,12.907,26.325,25.088L204.224,277.312z"/>
			<path d="M448,0H85.333c-17.643,0-32,14.357-32,32v53.333H42.667C36.779,85.333,32,90.112,32,96s4.779,10.667,10.667,10.667
				h10.667V192H42.667C36.779,192,32,196.779,32,202.667s4.779,10.667,10.667,10.667h10.667v85.333H42.667
				c-5.888,0-10.667,4.779-10.667,10.667S36.779,320,42.667,320h10.667v85.333H42.667C36.779,405.333,32,410.112,32,416
				c0,5.888,4.779,10.667,10.667,10.667h10.667V480c0,17.643,14.357,32,32,32H448c17.643,0,32-14.357,32-32V32
				C480,14.357,465.643,0,448,0z M458.667,480c0,5.888-4.8,10.667-10.667,10.667H85.333c-5.867,0-10.667-4.779-10.667-10.667
				v-53.333h23.296C102.379,439.061,114.112,448,128,448c17.643,0,32-14.357,32-32c0-17.643-14.357-32-32-32
				c-13.888,0-25.621,8.939-30.037,21.333H74.667V320h23.296c4.416,12.395,16.149,21.333,30.037,21.333c17.643,0,32-14.357,32-32
				c0-17.643-14.357-32-32-32c-13.888,0-25.621,8.939-30.037,21.333H74.667v-85.333h23.296
				c4.416,12.395,16.149,21.333,30.037,21.333c17.643,0,32-14.357,32-32c0-17.643-14.357-32-32-32
				c-13.888,0-25.621,8.939-30.037,21.333H74.667v-85.333h23.296C102.379,119.061,114.112,128,128,128c17.643,0,32-14.357,32-32
				c0-17.643-14.357-32-32-32c-13.888,0-25.621,8.939-30.037,21.333H74.667V32c0-5.888,4.8-10.667,10.667-10.667H448
				c5.867,0,10.667,4.779,10.667,10.667V480z M117.333,416c0-5.888,4.8-10.667,10.667-10.667c5.867,0,10.667,4.779,10.667,10.667
				c0,5.888-4.8,10.667-10.667,10.667C122.133,426.667,117.333,421.888,117.333,416z M117.333,309.333
				c0-5.888,4.8-10.667,10.667-10.667c5.867,0,10.667,4.779,10.667,10.667S133.867,320,128,320
				C122.133,320,117.333,315.221,117.333,309.333z M117.333,202.667c0-5.888,4.8-10.667,10.667-10.667
				c5.867,0,10.667,4.779,10.667,10.667s-4.8,10.667-10.667,10.667C122.133,213.333,117.333,208.555,117.333,202.667z M117.333,96
				c0-5.888,4.8-10.667,10.667-10.667c5.867,0,10.667,4.779,10.667,10.667s-4.8,10.667-10.667,10.667
				C122.133,106.667,117.333,101.888,117.333,96z"/>
		</g>
	</g>
</g>
<g>
</g>
<g>
</g>
<g>
</g>
<g>
</g>
<g>
</g>
<g>
</g>
<g>
</g>
<g>
</g>
<g>
</g>
<g>
</g>
<g>
</g>
<g>
</g>
<g>
</g>
<g>
</g>
<g>
</g>
</svg>
