<?xml version="1.0" encoding="iso-8859-1"?>
<!-- Generator: Adobe Illustrator 19.0.0, SVG Export Plug-In . SVG Version: 6.00 Build 0)  -->
<svg version="1.1" id="Layer_1" xmlns="http://www.w3.org/2000/svg" xmlns:xlink="http://www.w3.org/1999/xlink" x="0px" y="0px"
	 viewBox="0 0 512 512" style="enable-background:new 0 0 512 512;" xml:space="preserve">
<g>
	<g>
		<g>
			<path d="M341.333,405.333H170.667c-5.888,0-10.667,4.779-10.667,10.667c0,5.888,4.779,10.667,10.667,10.667h170.667
				c5.888,0,10.667-4.779,10.667-10.667C352,410.112,347.221,405.333,341.333,405.333z"/>
			<path d="M426.667,0H85.333c-17.643,0-32,14.357-32,32v448c0,17.643,14.357,32,32,32h341.333c17.643,0,32-14.357,32-32V32
				C458.667,14.357,444.309,0,426.667,0z M384,64c5.888,0,10.667,4.779,10.667,10.667S389.888,85.333,384,85.333
				c-5.888,0-10.667-4.779-10.667-10.667S378.112,64,384,64z M298.667,64c5.888,0,10.667,4.779,10.667,10.667
				s-4.779,10.667-10.667,10.667S288,80.555,288,74.667S292.779,64,298.667,64z M213.333,64C219.221,64,224,68.779,224,74.667
				s-4.779,10.667-10.667,10.667s-10.667-4.779-10.667-10.667S207.445,64,213.333,64z M128,64c5.888,0,10.667,4.779,10.667,10.667
				S133.888,85.333,128,85.333c-5.888,0-10.667-4.779-10.667-10.667S122.112,64,128,64z M437.333,480
				c0,5.888-4.779,10.667-10.667,10.667H85.333c-5.888,0-10.667-4.779-10.667-10.667V32c0-5.888,4.779-10.667,10.667-10.667h32
				v23.296C104.939,49.045,96,60.779,96,74.667c0,17.643,14.357,32,32,32c17.643,0,32-14.357,32-32
				c0-13.888-8.939-25.621-21.333-30.037V21.333h64v23.296c-12.395,4.416-21.333,16.149-21.333,30.037c0,17.643,14.357,32,32,32
				c17.643,0,32-14.357,32-32c0-13.888-8.939-25.621-21.333-30.037V21.333h64v23.296c-12.395,4.416-21.333,16.149-21.333,30.037
				c0,17.643,14.357,32,32,32c17.643,0,32-14.357,32-32c0-13.888-8.939-25.621-21.333-30.037V21.333h64v23.296
				C360.939,49.045,352,60.779,352,74.667c0,17.643,14.357,32,32,32c17.643,0,32-14.357,32-32c0-13.888-8.939-25.621-21.333-30.037
				V21.333h32c5.888,0,10.667,4.779,10.667,10.667V480z"/>
			<path d="M298.667,448h-85.333c-5.888,0-10.667,4.779-10.667,10.667s4.779,10.667,10.667,10.667h85.333
				c5.888,0,10.667-4.779,10.667-10.667S304.555,448,298.667,448z"/>
			<path d="M329.323,295.552l-28.608-7.168c19.499-4.395,29.803-10.368,30.315-10.688c2.965-1.749,4.757-4.928,5.056-8.363
				c0.299-3.413-1.195-6.891-3.819-9.131c-0.149-0.128-14.549-12.971-14.549-56.597c0-44.011-11.392-66.325-33.856-66.325h-0.384
				c-7.147-6.4-13.824-9.28-27.456-9.28c-19.328,0-61.675,19.029-61.675,75.584c0,43.499-14.315,56.405-14.293,56.405
				c-2.859,2.112-4.437,5.525-4.267,9.067c0.192,3.541,2.112,6.763,5.163,8.597c0.512,0.299,10.709,6.336,30.315,10.752
				l-28.544,7.147c-25.941,6.485-44.053,29.696-44.053,56.448c0,2.837,1.109,5.568,3.115,7.552c2.005,1.984,4.715,3.115,7.552,3.115
				l213.376-0.021c5.888,0,10.667-4.779,10.667-10.667C373.376,325.227,355.264,302.037,329.323,295.552z M161.557,341.312
				c3.691-12.16,13.504-21.845,26.304-25.088l38.229-9.557c3.819-0.939,6.827-3.925,7.765-7.744l3.968-15.829
				c0.747-2.923,0.192-6.037-1.493-8.555c-1.707-2.496-4.373-4.16-7.381-4.587c-11.072-1.536-19.691-3.84-25.813-5.909
				c6.08-10.923,12.523-29.739,12.523-60.459c0-44.821,33.707-54.251,40.341-54.251c9.493,0,10.56,1.067,15.616,6.144
				c2.005,1.984,4.715,3.115,7.552,3.115h4.629c6.229,0,12.523,13.909,12.523,44.992c0,30.677,6.443,49.493,12.501,60.416
				c-6.144,2.069-14.784,4.395-25.813,5.931c-2.987,0.427-5.675,2.091-7.36,4.608c-1.685,2.496-2.24,5.611-1.493,8.555l3.968,15.851
				c0.96,3.797,3.947,6.805,7.765,7.744l38.229,9.557c12.843,3.221,22.656,12.907,26.325,25.088L161.557,341.312z"/>
		</g>
	</g>
</g>
<g>
</g>
<g>
</g>
<g>
</g>
<g>
</g>
<g>
</g>
<g>
</g>
<g>
</g>
<g>
</g>
<g>
</g>
<g>
</g>
<g>
</g>
<g>
</g>
<g>
</g>
<g>
</g>
<g>
</g>
</svg>
