<?xml version="1.0" encoding="iso-8859-1"?>
<!-- Generator: Adobe Illustrator 19.0.0, SVG Export Plug-In . SVG Version: 6.00 Build 0)  -->
<svg version="1.1" id="Layer_1" xmlns="http://www.w3.org/2000/svg" xmlns:xlink="http://www.w3.org/1999/xlink" x="0px" y="0px"
	 viewBox="0 0 512 512" style="enable-background:new 0 0 512 512;" xml:space="preserve">
<g>
	<g>
		<g>
			<path d="M426.667,0H85.333c-17.643,0-32,14.357-32,32v448c0,17.643,14.357,32,32,32h341.333c17.643,0,32-14.357,32-32V32
				C458.667,14.357,444.309,0,426.667,0z M384,64c5.888,0,10.667,4.779,10.667,10.667S389.888,85.333,384,85.333
				c-5.888,0-10.667-4.779-10.667-10.667S378.112,64,384,64z M298.667,64c5.888,0,10.667,4.779,10.667,10.667
				s-4.779,10.667-10.667,10.667S288,80.555,288,74.667S292.779,64,298.667,64z M213.333,64C219.221,64,224,68.779,224,74.667
				s-4.779,10.667-10.667,10.667s-10.667-4.779-10.667-10.667S207.445,64,213.333,64z M128,64c5.888,0,10.667,4.779,10.667,10.667
				S133.888,85.333,128,85.333c-5.888,0-10.667-4.779-10.667-10.667S122.112,64,128,64z M437.333,480
				c0,5.888-4.779,10.667-10.667,10.667H85.333c-5.888,0-10.667-4.779-10.667-10.667V32c0-5.888,4.779-10.667,10.667-10.667h32
				v23.296C104.939,49.045,96,60.779,96,74.667c0,17.643,14.357,32,32,32c17.643,0,32-14.357,32-32
				c0-13.888-8.939-25.621-21.333-30.037V21.333h64v23.296c-12.395,4.416-21.333,16.149-21.333,30.037c0,17.643,14.357,32,32,32
				c17.643,0,32-14.357,32-32c0-13.888-8.939-25.621-21.333-30.037V21.333h64v23.296c-12.395,4.416-21.333,16.149-21.333,30.037
				c0,17.643,14.357,32,32,32c17.643,0,32-14.357,32-32c0-13.888-8.939-25.621-21.333-30.037V21.333h64v23.296
				C360.939,49.045,352,60.779,352,74.667c0,17.643,14.357,32,32,32c17.643,0,32-14.357,32-32c0-13.888-8.939-25.621-21.333-30.037
				V21.333h32c5.888,0,10.667,4.779,10.667,10.667V480z"/>
			<path d="M341.333,405.333H170.667c-5.888,0-10.667,4.779-10.667,10.667c0,5.888,4.779,10.667,10.667,10.667h170.667
				c5.888,0,10.667-4.779,10.667-10.667C352,410.112,347.221,405.333,341.333,405.333z"/>
			<path d="M298.667,448h-85.333c-5.888,0-10.667,4.779-10.667,10.667s4.779,10.667,10.667,10.667h85.333
				c5.888,0,10.667-4.779,10.667-10.667S304.555,448,298.667,448z"/>
			<path d="M329.28,295.509l-32.021-8l-1.344-5.355c8.32-9.173,14.208-20.864,16.661-33.024c5.675-2.923,9.813-8.533,10.667-15.253
				l2.325-18.56c0.704-5.611-1.045-11.285-4.757-15.552c-1.152-1.323-2.475-2.475-3.904-3.435l0.555-11.307l1.963-1.963
				c5.504-5.845,12.949-18.325,1.152-36.331C314.987,138.197,303.467,128,280.405,128c-6.784,0-22.123,0-37.035,9.323
				c-43.904,1.557-49.067,25.216-49.067,43.072c0,3.52,0.64,10.112,1.237,15.616c-1.579,1.003-3.029,2.219-4.288,3.648
				c-3.776,4.288-5.547,9.984-4.843,15.68l2.325,18.56c0.875,6.955,5.291,12.715,11.797,15.552
				c2.432,11.627,7.979,22.891,15.765,31.829l-1.557,6.272l-32.021,8c-25.941,6.485-44.053,29.696-44.053,56.448
				c0,2.837,1.109,5.568,3.115,7.552c2.005,1.984,4.715,3.115,7.552,3.115l213.333-0.064c5.888,0,10.667-4.779,10.667-10.667
				C373.333,325.184,355.221,301.995,329.28,295.509z M161.557,341.312c3.691-12.16,13.504-21.845,26.304-25.088l38.229-9.557
				c3.819-0.939,6.827-3.925,7.765-7.744l4.544-18.197c0.96-3.755-0.235-7.723-3.051-10.368c-8.299-7.787-13.803-19.2-14.699-30.528
				c-0.448-5.547-5.184-8.597-10.752-8.597l-2.731-16.981c3.072,0,5.973-1.301,8-3.605c2.027-2.283,2.965-5.333,2.581-8.384
				c-0.811-6.443-2.112-18.091-2.112-21.845c0-11.051,0-21.483,31.168-21.803c2.176-0.021,4.331-0.704,6.101-1.984
				c10.176-7.275,21.845-7.275,27.456-7.275c16.384,0,20.864,6.848,22.336,9.088c4.352,6.635,2.56,8.512,1.387,9.792l-4.651,4.629
				c-1.877,1.877-2.987,4.395-3.115,7.04l-1.131,23.211c-0.128,2.901,0.235,4.928,2.219,7.04c2.005,2.112,4.075,2.539,6.976,2.56
				l-1.387,17.344c-5.568,0-10.197,4.267-10.645,9.813c-0.896,11.499-6.805,23.424-15.381,31.104
				c-2.944,2.645-4.181,6.699-3.221,10.539l4.373,17.429c0.96,3.797,3.947,6.805,7.765,7.744l38.229,9.557
				c12.843,3.221,22.656,12.907,26.325,25.088L161.557,341.312z"/>
		</g>
	</g>
</g>
<g>
</g>
<g>
</g>
<g>
</g>
<g>
</g>
<g>
</g>
<g>
</g>
<g>
</g>
<g>
</g>
<g>
</g>
<g>
</g>
<g>
</g>
<g>
</g>
<g>
</g>
<g>
</g>
<g>
</g>
</svg>
