<?xml version="1.0" encoding="iso-8859-1"?>
<!-- Generator: Adobe Illustrator 19.0.0, SVG Export Plug-In . SVG Version: 6.00 Build 0)  -->
<svg version="1.1" id="Layer_1" xmlns="http://www.w3.org/2000/svg" xmlns:xlink="http://www.w3.org/1999/xlink" x="0px" y="0px"
	 viewBox="0 0 512 512" style="enable-background:new 0 0 512 512;" xml:space="preserve">
<g>
	<g>
		<g>
			<path d="M464.32,290.944l-35.84-8.96v-0.043c24.149-4.843,36.864-12.224,37.461-12.587c2.965-1.749,4.8-4.928,5.077-8.384
				c0.299-3.435-1.216-6.912-3.861-9.131c-0.171-0.149-16.384-14.421-16.384-63.083c0-47.701-12.181-71.872-36.181-71.872h-0.811
				c-7.872-7.168-14.827-10.219-29.781-10.219c-20.907,0-66.773,20.672-66.752,82.091c0,12.288-1.067,23.552-3.179,33.429
				c-1.216,5.76,2.453,11.413,8.213,12.651c5.739,1.152,11.413-2.432,12.651-8.213c2.389-11.328,3.627-24.085,3.627-37.867
				C338.56,138.816,374.976,128,384,128c10.88,0,12.245,1.365,17.941,7.083c2.005,1.984,4.715,3.115,7.552,3.115h5.099
				c9.152,0,14.848,19.371,14.848,50.539c0,34.688,7.467,55.424,14.229,67.072c-6.891,2.411-16.875,5.163-29.803,6.976
				c-2.987,0.405-5.675,2.091-7.36,4.587c-1.685,2.517-2.24,5.611-1.493,8.555l4.352,17.429c0.96,3.819,3.947,6.827,7.765,7.765
				l42.048,10.517c14.997,3.755,26.325,15.296,30.123,29.696H381.483v21.333l119.851-0.021c5.888,0,10.667-4.779,10.667-10.667
				C512,323.051,492.416,297.963,464.32,290.944z"/>
			<path d="M314.773,348.608L256,333.931l-2.368-9.451c40.235-7.211,61.12-19.349,62.059-19.904
				c3.008-1.771,4.885-4.971,5.141-8.448c0.256-3.477-1.301-6.933-4.011-9.131c-0.277-0.213-27.413-23.083-27.413-101.952
				c0-69.867-16.853-105.28-50.091-105.28h-3.541C224.512,69.056,215.147,64,192,64c-30.507,0-97.387,30.485-97.387,121.045
				c0,78.869-27.157,101.739-27.264,101.845c-2.859,2.112-4.437,5.525-4.267,9.067c0.192,3.541,2.112,6.763,5.163,8.597
				c0.939,0.576,21.632,12.8,62.123,19.989l-2.347,9.387l-58.773,14.699C28.459,358.805,0,395.285,0,437.333
				c0,2.837,1.109,5.568,3.115,7.552C5.12,446.869,7.851,448,10.667,448l362.667-0.043c5.888,0,10.667-4.779,10.667-10.667
				C384,395.285,355.541,358.805,314.773,348.608z M22.144,426.624c4.203-27.563,24.512-50.368,52.267-57.323l64.981-16.235
				c3.819-0.96,6.827-3.947,7.765-7.765l6.72-26.901c0.747-2.944,0.192-6.037-1.493-8.555c-1.707-2.496-4.373-4.16-7.381-4.587
				c-25.152-3.477-43.157-9.259-53.909-13.525c10.624-15.381,24.853-47.125,24.853-106.688c0-81.963,60.949-99.712,76.053-99.712
				c18.411,0,22.059,2.837,31.851,12.651c2.005,1.984,4.715,3.115,7.552,3.115h7.893c18.283,0,28.757,30.613,28.757,83.947
				c0,59.52,14.208,91.264,24.811,106.645c-10.795,4.267-28.864,10.027-53.888,13.547c-2.987,0.405-5.675,2.091-7.36,4.587
				c-1.685,2.517-2.24,5.611-1.493,8.555l6.72,26.944c0.96,3.819,3.947,6.827,7.765,7.765l64.981,16.235
				c27.733,6.933,48.043,29.76,52.267,57.344L22.144,426.624z"/>
		</g>
	</g>
</g>
<g>
</g>
<g>
</g>
<g>
</g>
<g>
</g>
<g>
</g>
<g>
</g>
<g>
</g>
<g>
</g>
<g>
</g>
<g>
</g>
<g>
</g>
<g>
</g>
<g>
</g>
<g>
</g>
<g>
</g>
</svg>
