<?xml version="1.0" encoding="iso-8859-1"?>
<!-- Generator: Adobe Illustrator 19.0.0, SVG Export Plug-In . SVG Version: 6.00 Build 0)  -->
<svg version="1.1" id="Layer_1" xmlns="http://www.w3.org/2000/svg" xmlns:xlink="http://www.w3.org/1999/xlink" x="0px" y="0px"
	 viewBox="0 0 512 512" style="enable-background:new 0 0 512 512;" xml:space="preserve">
<g>
	<g>
		<g>
			<path d="M425.301,316.885l-28.608-7.168c19.499-4.395,29.824-10.368,30.336-10.688c2.944-1.749,4.736-4.928,5.035-8.363
				c0.299-3.435-1.216-6.912-3.819-9.152c-0.149-0.128-14.549-12.971-14.549-56.597c0-44.011-11.392-66.325-33.856-66.325h-0.384
				c-7.232-6.485-13.696-9.259-27.456-9.259c-19.349,0-61.696,19.029-61.696,75.584c0,43.499-14.315,56.405-14.272,56.405
				c-2.859,2.133-4.437,5.525-4.245,9.067c0.171,3.563,2.091,6.784,5.141,8.597c0.533,0.299,10.709,6.336,30.336,10.752
				l-28.544,7.147c-25.92,6.464-44.053,29.675-44.053,56.448c0,2.837,1.109,5.568,3.115,7.552c2.005,1.963,4.715,3.115,7.552,3.115
				h213.355c5.888,0,10.667-4.779,10.667-10.667C469.355,346.56,451.243,323.392,425.301,316.885z M257.557,362.624
				c3.669-12.16,13.504-21.845,26.325-25.109l38.229-9.557c3.819-0.939,6.805-3.925,7.765-7.744l3.968-15.829
				c0.725-2.923,0.192-6.037-1.515-8.555c-1.685-2.496-4.373-4.16-7.381-4.587c-11.093-1.536-19.712-3.84-25.835-5.909
				c6.08-10.923,12.523-29.739,12.523-60.459c0-44.821,33.707-54.251,40.363-54.251c9.472,0,10.539,1.067,15.637,6.165
				c2.005,1.984,4.715,3.115,7.552,3.115h4.651c6.229,0,12.523,13.909,12.523,44.992c0,30.677,6.443,49.493,12.501,60.416
				c-6.165,2.069-14.784,4.395-25.835,5.931c-3.008,0.405-5.675,2.091-7.36,4.587c-1.707,2.517-2.24,5.611-1.515,8.555l3.968,15.851
				c0.96,3.819,3.925,6.827,7.765,7.765l38.229,9.557c12.843,3.221,22.656,12.907,26.325,25.088L257.557,362.624z"/>
			<path d="M480,106.667H362.667V96c0-29.397-23.915-53.333-53.333-53.333h-32V32c0-17.621-14.357-32-32-32
				C216,0,186.837,4.288,158.72,12.715c-0.149,0.064-0.32,0.128-0.469,0.171L38.016,55.339C15.275,62.165,0,82.667,0,106.432
				v301.333c0,22.101,13.909,42.176,33.941,49.685l102.357,46.4c14.443,5.419,29.589,8.149,45.035,8.149c17.643,0,32-14.357,32-32
				v-10.667h96c25.771,0,47.296-18.368,52.245-42.667H480c17.643,0,32-14.357,32-32v-256C512,121.003,497.643,106.667,480,106.667z
				 M277.333,64h32c17.643,0,32,14.336,32,32v10.667h-64V64z M192.021,196.672v219.2c0,0.043-0.021,0.085-0.021,0.128
				c0,0.043,0.021,0.064,0.021,0.107v42.453c0,0.021-0.021,0.064-0.021,0.107s0.021,0.064,0.021,0.107v21.205
				c0,5.888-4.8,10.667-10.688,10.667c-12.864,0-25.493-2.283-36.864-6.528l-102.357-46.4
				c-12.416-4.672-20.779-16.725-20.779-29.995V106.389c0-14.229,9.173-26.56,23.296-30.784l120.469-42.539
				c26.069-7.787,53.077-11.733,80.256-11.733c5.867,0,10.667,4.779,10.667,10.667v21.227c0,0.021-0.021,0.064-0.021,0.107
				s0.021,0.064,0.021,0.107v63.787c0,0.021-0.021,0.064-0.021,0.107s0.021,0.064,0.021,0.107v27.179
				c0,4.587-2.944,8.661-7.296,10.112l-34.837,11.605C200.811,170.709,192.021,182.891,192.021,196.672z M309.333,448h-96v-21.333
				h126.037C334.955,439.04,323.221,448,309.333,448z M490.667,394.667c0,5.888-4.8,10.667-10.667,10.667H213.333V196.715
				c0-4.587,2.944-8.661,7.296-10.112l34.837-11.605c13.077-4.395,21.867-16.597,21.867-30.379V128H480
				c5.867,0,10.667,4.779,10.667,10.667V394.667z"/>
		</g>
	</g>
</g>
<g>
</g>
<g>
</g>
<g>
</g>
<g>
</g>
<g>
</g>
<g>
</g>
<g>
</g>
<g>
</g>
<g>
</g>
<g>
</g>
<g>
</g>
<g>
</g>
<g>
</g>
<g>
</g>
<g>
</g>
</svg>
