<?xml version="1.0" encoding="iso-8859-1"?>
<!-- Generator: Adobe Illustrator 19.0.0, SVG Export Plug-In . SVG Version: 6.00 Build 0)  -->
<svg version="1.1" id="Layer_1" xmlns="http://www.w3.org/2000/svg" xmlns:xlink="http://www.w3.org/1999/xlink" x="0px" y="0px"
	 viewBox="0 0 512 512" style="enable-background:new 0 0 512 512;" xml:space="preserve">
<g>
	<g>
		<g>
			<path d="M480,106.667H362.667V96c0-29.397-23.915-53.333-53.333-53.333h-32V32c0-17.621-14.357-32-32-32
				C216,0,186.837,4.288,158.72,12.715c-0.149,0.064-0.32,0.128-0.469,0.171L38.016,55.339C15.275,62.165,0,82.667,0,106.432
				v301.333c0,22.101,13.909,42.176,33.941,49.685l102.357,46.4c14.443,5.419,29.589,8.149,45.035,8.149c17.643,0,32-14.357,32-32
				v-10.667h96c25.771,0,47.296-18.368,52.245-42.667H480c17.643,0,32-14.357,32-32v-256C512,121.003,497.643,106.667,480,106.667z
				 M277.333,64h32c17.643,0,32,14.336,32,32v10.667h-64V64z M192,196.715V480c0,5.888-4.8,10.667-10.688,10.667
				c-12.864,0-25.472-2.283-36.843-6.549l-102.357-46.4c-12.416-4.672-20.779-16.725-20.779-29.995V106.389
				c0-14.229,9.173-26.56,23.296-30.784l120.469-42.539c26.069-7.787,53.077-11.733,80.235-11.733C251.2,21.333,256,26.112,256,32
				v112.619c0,4.587-2.944,8.661-7.296,10.112l-34.837,11.605C200.789,170.731,192,182.933,192,196.715z M309.333,448h-96v-21.333
				h126.037C334.955,439.04,323.221,448,309.333,448z M490.667,394.667c0,5.888-4.8,10.667-10.667,10.667H213.333V196.715
				c0-4.587,2.944-8.661,7.296-10.112l34.837-11.605c13.077-4.395,21.867-16.597,21.867-30.379V128H480
				c5.867,0,10.667,4.779,10.667,10.667V394.667z"/>
			<path d="M425.323,316.885l-32.021-8l-1.344-5.355c8.299-9.173,14.208-20.885,16.661-33.045
				c5.696-2.944,9.813-8.533,10.667-15.253l2.304-18.56c0.704-5.632-1.024-11.307-4.757-15.573
				c-1.152-1.301-2.475-2.453-3.883-3.413l0.533-11.328l1.941-1.941c5.504-5.845,12.949-18.325,1.173-36.331
				c-5.589-8.576-17.109-18.752-40.192-18.752c-6.805,0-22.144,0-37.035,9.323c-43.904,1.557-49.067,25.216-49.067,43.072
				c0,3.52,0.64,10.112,1.237,15.616c-1.579,1.003-3.029,2.24-4.288,3.669c-3.797,4.309-5.547,10.005-4.821,15.659l2.304,18.56
				c0.875,6.955,5.291,12.715,11.797,15.552c2.389,11.627,7.979,22.891,15.765,31.829l-1.557,6.272l-32.021,8
				c-25.92,6.464-44.053,29.675-44.053,56.448c0,2.837,1.109,5.568,3.115,7.552c2.005,1.963,4.715,3.115,7.552,3.115l213.376-0.021
				c5.888,0,10.667-4.779,10.667-10.667C469.376,346.56,451.264,323.371,425.323,316.885z M257.557,362.624
				c3.669-12.16,13.504-21.845,26.389-25.088l38.229-9.557c3.819-0.96,6.805-3.947,7.765-7.765l4.544-18.197
				c0.939-3.755-0.235-7.723-3.072-10.368c-8.299-7.808-13.803-19.221-14.699-30.528c-0.448-5.525-5.184-8.597-10.752-8.597
				l-2.752-16.981c3.072,0,5.973-1.301,8-3.605c2.027-2.283,2.965-5.333,2.581-8.384c-0.811-6.443-2.112-18.091-2.112-21.845
				c0-11.051,0-21.483,31.189-21.803c2.176-0.021,4.309-0.704,6.101-1.984c10.155-7.253,21.845-7.253,27.456-7.253
				c11.029,0,18.325,2.965,22.336,9.088c4.331,6.635,2.56,8.512,1.365,9.813l-4.629,4.629c-1.877,1.877-2.987,4.373-3.115,7.019
				l-1.131,23.211c-0.128,2.901,0.213,4.928,2.197,7.04c2.005,2.112,4.053,2.539,6.955,2.56l-1.365,17.344
				c-5.568,0-10.176,4.267-10.624,9.813c-0.939,11.499-6.848,23.424-15.424,31.125c-2.923,2.624-4.181,6.677-3.221,10.517
				l4.352,17.429c0.96,3.819,3.925,6.827,7.765,7.765l38.229,9.557c12.843,3.221,22.656,12.907,26.325,25.088L257.557,362.624z"/>
		</g>
	</g>
</g>
<g>
</g>
<g>
</g>
<g>
</g>
<g>
</g>
<g>
</g>
<g>
</g>
<g>
</g>
<g>
</g>
<g>
</g>
<g>
</g>
<g>
</g>
<g>
</g>
<g>
</g>
<g>
</g>
<g>
</g>
</svg>
