<?xml version="1.0" encoding="iso-8859-1"?>
<!-- Generator: Adobe Illustrator 19.0.0, SVG Export Plug-In . SVG Version: 6.00 Build 0)  -->
<svg version="1.1" id="Layer_1" xmlns="http://www.w3.org/2000/svg" xmlns:xlink="http://www.w3.org/1999/xlink" x="0px" y="0px"
	 viewBox="0 0 512.003 512.003" style="enable-background:new 0 0 512.003 512.003;" xml:space="preserve">
<g>
	<g>
		<g>
			<path d="M96.003,106.668c29.419,0,53.333-23.936,53.333-53.333S125.422,0.002,96.003,0.002
				c-29.419,0-53.333,23.936-53.333,53.333S66.585,106.668,96.003,106.668z M96.003,21.335c17.643,0,32,14.357,32,32
				c0,17.643-14.357,32-32,32c-17.643,0-32-14.357-32-32C64.003,35.692,78.361,21.335,96.003,21.335z"/>
			<path d="M500.547,92.055c-0.043-0.107-0.064-0.213-0.128-0.32C477.828,37.911,424.601,0.002,362.67,0.002
				S247.513,37.911,224.921,91.735c-0.043,0.107-0.085,0.213-0.128,0.32c-7.36,17.664-11.456,36.992-11.456,57.28
				c0,82.347,67.008,149.333,149.333,149.333s149.333-66.987,149.333-149.333C512.003,129.047,507.908,109.719,500.547,92.055z
				 M473.369,85.335h-52.672c-4.395-22.677-11.179-43.115-20.224-58.304C431.449,36.631,457.347,57.772,473.369,85.335z
				 M405.337,149.335c0,15.573-1.173,29.589-2.859,42.667h-79.637c-1.664-13.077-2.837-27.093-2.837-42.667
				c0-15.573,1.173-29.589,2.859-42.667H402.5C404.164,119.746,405.337,133.762,405.337,149.335z M362.67,21.335
				c12.288,0,27.755,23.595,36.267,64h-72.533C334.915,44.93,350.382,21.335,362.67,21.335z M324.889,27.031
				c-9.067,15.189-15.851,35.627-20.224,58.304h-52.672C267.993,57.772,293.891,36.631,324.889,27.031z M242.35,192.599
				c-4.885-13.525-7.68-28.053-7.68-43.264c0-14.976,2.709-29.291,7.467-42.667h59.157c-1.728,13.995-2.624,28.416-2.624,42.667
				s0.896,28.672,2.624,42.667h-55.957C244.292,192.002,243.331,192.322,242.35,192.599z M251.993,213.335h52.672
				c4.395,22.677,11.179,43.115,20.224,58.304C293.891,262.039,267.993,240.898,251.993,213.335z M362.67,277.335
				c-12.288,0-27.755-23.595-36.267-64h72.533C390.425,253.74,374.958,277.335,362.67,277.335z M400.451,271.639
				c9.067-15.189,15.851-35.627,20.224-58.304h52.672C457.347,240.898,431.449,262.039,400.451,271.639z M482.99,192.599
				c-0.96-0.277-1.92-0.597-2.987-0.597h-55.957c1.728-13.995,2.624-28.416,2.624-42.667s-0.896-28.672-2.624-42.667h59.157
				c4.757,13.376,7.467,27.691,7.467,42.667C490.67,164.546,487.875,179.074,482.99,192.599z"/>
			<path d="M177.646,179.82c-3.349-29.547-26.752-51.819-54.4-51.819H68.782c-27.648,0-51.051,22.293-54.4,51.819L0.238,303.724
				c-1.173,10.368,2.027,20.672,8.768,28.224c5.803,6.507,13.525,10.304,21.909,10.773l11.776,159.403
				c0.427,5.568,5.056,9.877,10.645,9.877h85.333c5.589,0,10.219-4.309,10.667-9.877l11.776-159.403
				c8.363-0.469,16.107-4.245,21.909-10.773c6.741-7.573,9.941-17.856,8.768-28.224L177.646,179.82z M167.086,317.74
				c-1.216,1.365-3.883,3.691-7.808,3.691h-8.107c-5.589,0-10.219,4.309-10.645,9.877l-11.776,159.36H63.257l-11.797-159.36
				c-0.427-5.568-5.056-9.877-10.645-9.877h-8.107c-3.904,0-6.571-2.325-7.808-3.691c-2.709-3.051-3.968-7.275-3.477-11.605
				l14.144-123.904c2.133-18.752,16.405-32.896,33.195-32.896h54.464c16.789,0,31.061,14.144,33.195,32.896l14.144,123.904
				C171.076,310.466,169.795,314.69,167.086,317.74z"/>
		</g>
	</g>
</g>
<g>
</g>
<g>
</g>
<g>
</g>
<g>
</g>
<g>
</g>
<g>
</g>
<g>
</g>
<g>
</g>
<g>
</g>
<g>
</g>
<g>
</g>
<g>
</g>
<g>
</g>
<g>
</g>
<g>
</g>
</svg>
