<?xml version="1.0" encoding="iso-8859-1"?>
<!-- Generator: Adobe Illustrator 19.0.0, SVG Export Plug-In . SVG Version: 6.00 Build 0)  -->
<svg version="1.1" id="Layer_1" xmlns="http://www.w3.org/2000/svg" xmlns:xlink="http://www.w3.org/1999/xlink" x="0px" y="0px"
	 viewBox="0 0 512 512" style="enable-background:new 0 0 512 512;" xml:space="preserve">
<g>
	<g>
		<g>
			<path d="M254.162,106.667c29.397,0,53.333-23.936,53.333-53.333S283.581,0,254.162,0c-29.397,0-53.333,23.936-53.333,53.333
				S224.765,106.667,254.162,106.667z M254.162,21.333c17.643,0,32,14.357,32,32c0,17.643-14.357,32-32,32
				c-17.643,0-32-14.357-32-32C222.162,35.691,236.541,21.333,254.162,21.333z"/>
			<path d="M405.33,128c29.397,0,53.333-23.936,53.333-53.333s-23.915-53.333-53.333-53.333c-29.397,0-53.333,23.936-53.333,53.333
				S375.933,128,405.33,128z M405.33,42.667c17.643,0,32,14.357,32,32c0,17.643-14.336,32-32,32c-17.643,0-32-14.357-32-32
				C373.33,57.024,387.709,42.667,405.33,42.667z"/>
			<path d="M498.237,305.387l-13.675-109.312c-3.307-26.645-26.069-46.72-52.907-46.72h-52.672c-5.931,0-11.904,1.045-17.771,3.136
				c-5.547,1.963-8.448,8.064-6.485,13.611c1.984,5.547,8.064,8.469,13.611,6.485c3.563-1.259,7.147-1.899,10.645-1.899h52.672
				c16.107,0,29.739,12.053,31.744,28.032l13.675,109.312c0.384,3.072-0.533,6.059-2.581,8.384s-4.885,3.605-8,3.605h-7.829
				c-5.611,0-10.24,4.309-10.645,9.899l-9.963,139.435h-65.472l-2.347-32.768c-0.427-5.867-5.44-10.347-11.392-9.877
				c-5.867,0.405-10.304,5.525-9.877,11.392l3.051,42.667c0.427,5.568,5.077,9.899,10.645,9.899h85.333
				c5.589,0,10.24-4.331,10.624-9.877l9.963-139.499c8.405-0.555,16.277-4.395,21.888-10.752
				C496.551,323.648,499.389,314.496,498.237,305.387z"/>
			<path d="M351.869,392.619l-15.467-78.315c10.645-6.933,16.96-19.861,15.381-33.621l-14.101-100.864
				C334.333,150.272,310.93,128,283.303,128h-54.485c-27.648,0-51.051,22.272-54.379,51.541l-14.165,101.397
				c-1.557,13.525,4.757,26.432,15.403,33.344l-15.467,78.315c-0.619,3.115,0.192,6.379,2.219,8.832
				c2.005,2.475,5.077,3.904,8.235,3.904h36.267l17.237,97.856c0.917,5.099,5.333,8.811,10.496,8.811h42.667
				c5.184,0,9.6-3.712,10.56-8.789l17.237-97.856h36.267c3.179,0,6.208-1.429,8.235-3.904
				C351.655,398.997,352.487,395.733,351.869,392.619z M313.767,310.208L328.359,384h-32.256c-5.163,0-9.6,3.712-10.496,8.811
				l-17.216,97.856h-24.768l-17.28-97.877c-0.896-5.099-5.312-8.811-10.496-8.811h-32.235l14.571-73.792
				c1.088-5.525-2.304-10.944-7.744-12.373c-5.931-1.557-9.792-7.765-9.067-14.187l14.165-101.397
				c2.133-18.752,16.405-32.896,33.195-32.896h54.485c16.789,0,31.061,14.144,33.237,33.173l14.101,100.864
				c0.768,6.699-3.115,12.907-9.024,14.464C316.093,299.264,312.701,304.683,313.767,310.208z"/>
			<path d="M153.17,426.688c-5.824-0.555-10.965,4.011-11.392,9.877l-2.347,32.768H73.938l-9.941-139.435
				C63.591,324.331,58.941,320,53.33,320h-7.829c-3.115,0-5.952-1.28-8-3.605c-2.048-2.325-2.965-5.291-2.581-8.384l13.675-109.312
				c1.984-15.979,15.616-28.032,31.744-28.032h52.672c2.389,0,4.928,0.363,8.043,1.195c5.717,1.408,11.541-1.92,13.035-7.616
				c1.493-5.696-1.92-11.541-7.616-13.035c-4.928-1.28-9.195-1.877-13.483-1.877H80.338c-26.837,0-49.579,20.075-52.907,46.72
				L13.757,305.365c-1.131,9.109,1.685,18.261,7.765,25.152c5.611,6.357,13.483,10.197,21.888,10.752l9.963,139.499
				c0.405,5.568,5.056,9.899,10.624,9.899h85.333c5.589,0,10.24-4.331,10.645-9.92l3.051-42.667
				C163.453,432.213,159.015,427.115,153.17,426.688z"/>
			<path d="M106.663,128c29.397,0,53.333-23.936,53.333-53.333s-23.915-53.333-53.333-53.333c-29.397,0-53.333,23.936-53.333,53.333
				S77.266,128,106.663,128z M106.663,42.667c17.643,0,32,14.357,32,32c0,17.643-14.336,32-32,32c-17.621,0-32-14.357-32-32
				C74.663,57.024,89.042,42.667,106.663,42.667z"/>
		</g>
	</g>
</g>
<g>
</g>
<g>
</g>
<g>
</g>
<g>
</g>
<g>
</g>
<g>
</g>
<g>
</g>
<g>
</g>
<g>
</g>
<g>
</g>
<g>
</g>
<g>
</g>
<g>
</g>
<g>
</g>
<g>
</g>
</svg>
