<?xml version="1.0" encoding="iso-8859-1"?>
<!-- Generator: Adobe Illustrator 19.0.0, SVG Export Plug-In . SVG Version: 6.00 Build 0)  -->
<svg version="1.1" id="Layer_1" xmlns="http://www.w3.org/2000/svg" xmlns:xlink="http://www.w3.org/1999/xlink" x="0px" y="0px"
	 viewBox="0 0 512.003 512.003" style="enable-background:new 0 0 512.003 512.003;" xml:space="preserve">
<g>
	<g>
		<g>
			<path d="M247.172,128.002c29.419,0,53.333-23.936,53.333-53.333s-23.915-53.333-53.333-53.333
				c-29.419,0-53.333,23.936-53.333,53.333S217.753,128.002,247.172,128.002z M247.172,42.668c17.643,0,32,14.357,32,32
				c0,17.643-14.357,32-32,32c-17.643,0-32-14.357-32-32C215.172,57.026,229.529,42.668,247.172,42.668z"/>
			<path d="M96.003,106.668c29.419,0,53.333-23.936,53.333-53.333S125.422,0.002,96.003,0.002
				c-29.419,0-53.333,23.936-53.333,53.333S66.585,106.668,96.003,106.668z M96.003,21.335c17.643,0,32,14.357,32,32
				c0,17.643-14.357,32-32,32c-17.643,0-32-14.357-32-32C64.003,35.692,78.361,21.335,96.003,21.335z"/>
			<path d="M501.337,298.668H330.67c-5.888,0-10.667,4.779-10.667,10.667v128c0,32.981,70.336,64.853,91.904,73.835
				c1.301,0.555,2.709,0.832,4.096,0.832c1.387,0,2.795-0.277,4.096-0.832c21.568-8.96,91.904-40.832,91.904-73.835v-128
				C512.003,303.447,507.225,298.668,501.337,298.668z M490.67,437.335c0,12.096-38.549,36.736-74.667,52.416
				c-36.139-15.68-74.667-40.299-74.667-52.416V320.002H490.67V437.335z"/>
			<path d="M373.337,405.335h32v49.152c0,3.669,1.899,7.104,5.013,9.045c1.728,1.088,3.691,1.621,5.653,1.621
				c1.6,0,3.2-0.363,4.693-1.088c19.456-9.515,36.736-20.117,45.12-27.648c2.24-2.048,3.52-4.907,3.52-7.936v-33.813
				c0-5.888-4.779-10.667-10.667-10.667h-32v-32c0-5.888-4.779-10.667-10.667-10.667h-42.667c-5.888,0-10.667,4.779-10.667,10.667
				v42.667C362.67,400.556,367.449,405.335,373.337,405.335z M426.67,405.335h21.333v18.112c-5.099,3.861-12.672,8.619-21.333,13.44
				V405.335z M384.003,362.668h21.333v21.333h-21.333V362.668z"/>
			<path d="M325.913,277.847c5.845-0.725,9.984-6.059,9.259-11.904l-8.747-69.909c-3.328-26.645-26.069-46.72-52.907-46.72h-52.672
				c-5.931,0-11.925,1.045-17.771,3.136c-5.568,1.984-8.469,8.085-6.485,13.632c1.941,5.547,8.107,8.405,13.611,6.485
				c3.563-1.259,7.147-1.899,10.645-1.899h52.672c16.107,0,29.739,12.053,31.744,28.032l8.747,69.909
				c0.661,5.397,5.269,9.344,10.56,9.344C325.017,277.954,325.465,277.911,325.913,277.847z"/>
			<path d="M292.27,445.378c-5.355-0.533-10.965,3.989-11.392,9.877l-1.003,14.101h-65.451L206.766,361.9
				c-0.427-5.888-5.931-10.325-11.392-9.877c-5.888,0.405-10.325,5.525-9.899,11.392l8.384,117.355
				c0.405,5.568,5.035,9.899,10.645,9.899h85.333c5.611,0,10.24-4.331,10.624-9.899l1.707-24
				C302.574,450.903,298.137,445.804,292.27,445.378z"/>
			<path d="M191.79,303.724L177.646,179.82c-3.349-29.547-26.752-51.819-54.4-51.819H68.782c-27.648,0-51.051,22.293-54.4,51.819
				L0.238,303.724c-1.173,10.368,2.027,20.672,8.768,28.224c5.803,6.507,13.525,10.304,21.909,10.773l11.776,159.403
				c0.427,5.568,5.056,9.877,10.645,9.877h85.333c5.589,0,10.219-4.309,10.667-9.877l11.776-159.403
				c8.363-0.469,16.107-4.245,21.909-10.773C189.763,324.375,192.964,314.092,191.79,303.724z M167.086,317.74
				c-1.216,1.365-3.883,3.691-7.808,3.691h-8.107c-5.589,0-10.219,4.309-10.645,9.877l-11.776,159.36H63.257l-11.797-159.36
				c-0.427-5.568-5.056-9.877-10.645-9.877h-8.107c-3.904,0-6.571-2.325-7.808-3.691c-2.709-3.051-3.968-7.275-3.477-11.605
				l14.144-123.904c2.133-18.752,16.405-32.896,33.195-32.896h54.464c16.789,0,31.061,14.144,33.195,32.896l14.144,123.904
				C171.076,310.466,169.795,314.69,167.086,317.74z"/>
		</g>
	</g>
</g>
<g>
</g>
<g>
</g>
<g>
</g>
<g>
</g>
<g>
</g>
<g>
</g>
<g>
</g>
<g>
</g>
<g>
</g>
<g>
</g>
<g>
</g>
<g>
</g>
<g>
</g>
<g>
</g>
<g>
</g>
</svg>
