<?xml version="1.0" encoding="iso-8859-1"?>
<!-- Generator: Adobe Illustrator 19.0.0, SVG Export Plug-In . SVG Version: 6.00 Build 0)  -->
<svg version="1.1" id="Layer_1" xmlns="http://www.w3.org/2000/svg" xmlns:xlink="http://www.w3.org/1999/xlink" x="0px" y="0px"
	 viewBox="0 0 512.003 512.003" style="enable-background:new 0 0 512.003 512.003;" xml:space="preserve">
<g>
	<g>
		<g>
			<path d="M247.172,128.002c29.419,0,53.333-23.936,53.333-53.333s-23.915-53.333-53.333-53.333
				c-29.419,0-53.333,23.936-53.333,53.333S217.753,128.002,247.172,128.002z M247.172,42.668c17.643,0,32,14.357,32,32
				c0,17.643-14.357,32-32,32c-17.643,0-32-14.357-32-32C215.172,57.026,229.529,42.668,247.172,42.668z"/>
			<path d="M408.451,466.22c1.003,1.003,2.176,1.749,3.413,2.261c0.021,0,0.043,0.043,0.064,0.043h0.021
				c1.301,0.533,2.667,0.811,4.053,0.811c1.365,0,2.752-0.277,4.032-0.789c1.28-0.533,2.475-1.301,3.499-2.325l42.667-42.667
				c4.16-4.16,4.16-10.923,0-15.083s-10.923-4.16-15.083,0l-24.448,24.448v-80.917c0-5.888-4.779-10.667-10.667-10.667
				c-5.888,0-10.667,4.779-10.667,10.667v80.939l-24.469-24.469c-4.16-4.16-10.923-4.16-15.083,0c-4.16,4.16-4.16,10.923,0,15.083
				L408.451,466.22z"/>
			<path d="M96.003,106.668c29.419,0,53.333-23.936,53.333-53.333S125.422,0.002,96.003,0.002
				c-29.419,0-53.333,23.936-53.333,53.333S66.585,106.668,96.003,106.668z M96.003,21.335c17.643,0,32,14.357,32,32
				c0,17.643-14.357,32-32,32c-17.643,0-32-14.357-32-32C64.003,35.692,78.361,21.335,96.003,21.335z"/>
			<path d="M332.313,330.498c6.059-6.869,8.896-16.043,7.765-25.152l-13.675-109.312c-3.328-26.645-26.069-46.72-52.907-46.72
				h-52.672c-5.931,0-11.925,1.045-17.771,3.136c-5.568,1.984-8.469,8.085-6.485,13.632c1.941,5.547,8.107,8.405,13.611,6.485
				c3.563-1.259,7.147-1.899,10.645-1.899h52.672c16.107,0,29.76,12.053,31.723,28.032l13.675,109.312
				c0.384,3.093-0.533,6.08-2.603,8.405c-2.048,2.325-4.864,3.605-7.979,3.605h-7.829c-5.611,0-10.24,4.309-10.645,9.899
				l-9.963,139.435h-65.451l-7.68-107.456c-0.427-5.888-5.611-10.325-11.413-9.877c-5.867,0.405-10.304,5.525-9.877,11.392
				l8.405,117.355c0.405,5.568,5.035,9.899,10.645,9.899h85.333c5.611,0,10.24-4.331,10.645-9.941l9.963-139.499
				C318.83,340.695,326.702,336.834,332.313,330.498z"/>
			<path d="M501.337,448.002c-5.888,0-10.667,4.779-10.667,10.667v32H341.337v-32c0-5.888-4.779-10.667-10.667-10.667
				s-10.667,4.779-10.667,10.667v42.667c0,5.888,4.779,10.667,10.667,10.667h170.667c5.888,0,10.667-4.779,10.667-10.667v-42.667
				C512.003,452.78,507.225,448.002,501.337,448.002z"/>
			<path d="M191.79,303.724L177.646,179.82c-3.349-29.547-26.752-51.819-54.4-51.819H68.782c-27.648,0-51.051,22.293-54.4,51.819
				L0.238,303.724c-1.173,10.368,2.027,20.672,8.768,28.224c5.803,6.507,13.525,10.304,21.909,10.773l11.776,159.403
				c0.427,5.568,5.056,9.877,10.645,9.877h85.333c5.589,0,10.219-4.309,10.667-9.877l11.776-159.403
				c8.363-0.469,16.107-4.245,21.909-10.773C189.763,324.375,192.964,314.092,191.79,303.724z M167.086,317.74
				c-1.216,1.365-3.883,3.691-7.808,3.691h-8.107c-5.589,0-10.219,4.309-10.645,9.877l-11.776,159.36H63.257l-11.797-159.36
				c-0.427-5.568-5.056-9.877-10.645-9.877h-8.107c-3.904,0-6.571-2.325-7.808-3.691c-2.709-3.051-3.968-7.275-3.477-11.605
				l14.144-123.904c2.133-18.752,16.405-32.896,33.195-32.896h54.464c16.789,0,31.061,14.144,33.195,32.896l14.144,123.904
				C171.076,310.466,169.795,314.69,167.086,317.74z"/>
		</g>
	</g>
</g>
<g>
</g>
<g>
</g>
<g>
</g>
<g>
</g>
<g>
</g>
<g>
</g>
<g>
</g>
<g>
</g>
<g>
</g>
<g>
</g>
<g>
</g>
<g>
</g>
<g>
</g>
<g>
</g>
<g>
</g>
</svg>
