<?xml version="1.0" encoding="iso-8859-1"?>
<!-- Generator: Adobe Illustrator 19.0.0, SVG Export Plug-In . SVG Version: 6.00 Build 0)  -->
<svg version="1.1" id="Layer_1" xmlns="http://www.w3.org/2000/svg" xmlns:xlink="http://www.w3.org/1999/xlink" x="0px" y="0px"
	 viewBox="0 0 512.021 512.021" style="enable-background:new 0 0 512.021 512.021;" xml:space="preserve">
<g>
	<g>
		<g>
			<path d="M247.172,128.01c29.419,0,53.333-23.936,53.333-53.333s-23.915-53.333-53.333-53.333
				c-29.419,0-53.333,23.936-53.333,53.333S217.753,128.01,247.172,128.01z M247.172,42.677c17.643,0,32,14.357,32,32
				c0,17.643-14.357,32-32,32c-17.643,0-32-14.357-32-32C215.172,57.034,229.529,42.677,247.172,42.677z"/>
			<path d="M509.763,302.773c-2.027-2.581-5.141-4.096-8.427-4.096H280.323l-3.307-13.248c-1.173-4.757-5.461-8.085-10.347-8.085
				h-42.667c-5.888,0-10.667,4.779-10.667,10.667s4.779,10.667,10.667,10.667h34.325l40.661,162.581
				c1.195,4.864,5.547,8.085,10.347,8.085c0.853,0,1.728-0.107,2.581-0.32c5.717-1.429,9.173-7.211,7.765-12.928l-7.723-30.912
				l169.301-19.925c4.395-0.512,8.021-3.691,9.109-8l21.333-85.333C512.494,308.725,511.79,305.354,509.763,302.773z
				 M471.449,384.971l-164.715,19.371l-21.077-84.331h202.005L471.449,384.971z"/>
			<path d="M220.825,149.323c-5.931,0-11.925,1.045-17.771,3.136c-5.568,1.984-8.469,8.085-6.485,13.632
				c1.941,5.547,8.107,8.405,13.611,6.485c3.563-1.259,7.147-1.899,10.645-1.899h52.672c16.107,0,29.76,12.053,31.765,28.032
				L313.923,268c0.661,5.397,5.269,9.344,10.56,9.344c0.448,0,0.896-0.021,1.323-0.107c5.845-0.725,9.984-6.059,9.259-11.904
				l-8.661-69.291c-3.328-26.645-26.069-46.72-52.907-46.72H220.825z"/>
			<path d="M191.79,303.733l-14.144-123.904c-3.349-29.547-26.752-51.819-54.4-51.819H68.782c-27.648,0-51.051,22.293-54.4,51.819
				L0.238,303.733c-1.173,10.368,2.027,20.672,8.768,28.224c5.803,6.507,13.525,10.304,21.909,10.773l11.776,159.403
				c0.427,5.568,5.056,9.877,10.645,9.877h85.333c5.589,0,10.219-4.309,10.667-9.877l11.776-159.403
				c8.363-0.469,16.107-4.245,21.909-10.773C189.763,324.384,192.964,314.101,191.79,303.733z M167.086,317.749
				c-1.216,1.365-3.883,3.691-7.808,3.691h-8.107c-5.589,0-10.219,4.309-10.645,9.877l-11.776,159.36H63.257l-11.797-159.36
				c-0.427-5.568-5.056-9.877-10.645-9.877h-8.107c-3.904,0-6.571-2.325-7.808-3.691c-2.709-3.051-3.968-7.275-3.477-11.605
				L35.566,182.24c2.133-18.752,16.405-32.896,33.195-32.896h54.464c16.789,0,31.061,14.144,33.195,32.896l14.144,123.904
				C171.076,310.474,169.795,314.698,167.086,317.749z"/>
			<path d="M272.643,469.344h-58.197l-7.68-107.435c-0.427-5.888-5.952-10.325-11.392-9.877c-5.888,0.405-10.325,5.525-9.899,11.392
				l8.384,117.355c0.405,5.568,5.035,9.899,10.645,9.899h68.117c5.909,0,10.688-4.779,10.688-10.667
				C283.31,474.123,278.531,469.344,272.643,469.344z"/>
			<path d="M437.337,448.01c-17.643,0-32,14.357-32,32c0,17.643,14.357,32,32,32c17.643,0,32-14.357,32-32
				C469.337,462.368,454.979,448.01,437.337,448.01z M437.337,490.677c-5.867,0-10.667-4.779-10.667-10.667
				c0-5.888,4.8-10.667,10.667-10.667c5.867,0,10.667,4.779,10.667,10.667C448.003,485.898,443.203,490.677,437.337,490.677z"/>
			<path d="M352.003,448.01c-17.643,0-32,14.357-32,32c0,17.643,14.357,32,32,32c17.643,0,32-14.357,32-32
				C384.003,462.368,369.646,448.01,352.003,448.01z M352.003,490.677c-5.867,0-10.667-4.779-10.667-10.667
				c0-5.888,4.8-10.667,10.667-10.667c5.867,0,10.667,4.779,10.667,10.667C362.67,485.898,357.87,490.677,352.003,490.677z"/>
			<path d="M96.003,106.677c29.419,0,53.333-23.936,53.333-53.333S125.422,0.01,96.003,0.01c-29.419,0-53.333,23.936-53.333,53.333
				S66.585,106.677,96.003,106.677z M96.003,21.344c17.643,0,32,14.357,32,32c0,17.643-14.357,32-32,32c-17.643,0-32-14.357-32-32
				C64.003,35.701,78.361,21.344,96.003,21.344z"/>
		</g>
	</g>
</g>
<g>
</g>
<g>
</g>
<g>
</g>
<g>
</g>
<g>
</g>
<g>
</g>
<g>
</g>
<g>
</g>
<g>
</g>
<g>
</g>
<g>
</g>
<g>
</g>
<g>
</g>
<g>
</g>
<g>
</g>
</svg>
