<?xml version="1.0" encoding="iso-8859-1"?>
<!-- Generator: Adobe Illustrator 19.0.0, SVG Export Plug-In . SVG Version: 6.00 Build 0)  -->
<svg version="1.1" id="Layer_1" xmlns="http://www.w3.org/2000/svg" xmlns:xlink="http://www.w3.org/1999/xlink" x="0px" y="0px"
	 viewBox="0 0 512 512" style="enable-background:new 0 0 512 512;" xml:space="preserve">
<g>
	<g>
		<g>
			<path d="M32,192h448c5.888,0,10.667-4.779,10.667-10.667s-4.779-10.667-10.667-10.667h-79.808
				c-3.072-8.853-9.707-15.893-18.368-19.2l1.963-40.171l7.979-7.979c12.032-12.779,21.995-34.709,1.152-66.475
				C376.917,12.395,349.739,0,312.128,0c-14.827,0-49.024,0-80.875,21.376C140.352,23.275,128,65.472,128,106.667
				c0,9.6,2.325,31.189,3.84,44.181c-9.323,3.072-16.747,10.475-20.053,19.819H32c-5.888,0-10.667,4.779-10.667,10.667
				S26.112,192,32,192z M151.701,167.083c2.027-2.325,2.965-5.355,2.581-8.405c-1.365-10.923-4.949-41.579-4.949-52.011
				c0-33.28,6.549-63.211,85.44-64c2.176-0.021,4.309-0.704,6.101-1.984c23.829-17.067,49.408-19.349,71.253-19.349
				c29.952,0,51.136,9.152,62.976,27.2c14.165,21.632,8.043,32.832,1.365,39.936l-10.667,10.667
				c-1.877,1.877-2.987,4.373-3.115,7.019l-2.603,53.376c-0.149,2.901,0.917,5.739,2.88,7.829c1.92,2.048,4.608,3.221,7.445,3.307
				H143.701C146.773,170.667,149.696,169.344,151.701,167.083z"/>
			<path d="M416,21.333h21.333C443.2,21.333,448,26.133,448,32v21.333C448,59.221,452.779,64,458.667,64s10.667-4.779,10.667-10.667
				V32c0-17.643-14.357-32-32-32H416c-5.888,0-10.667,4.779-10.667,10.667S410.112,21.333,416,21.333z"/>
			<path d="M53.333,64C59.221,64,64,59.221,64,53.333V32c0-5.867,4.8-10.667,10.667-10.667H96c5.888,0,10.667-4.779,10.667-10.667
				S101.888,0,96,0H74.667c-17.643,0-32,14.357-32,32v21.333C42.667,59.221,47.445,64,53.333,64z"/>
			<path d="M421.184,384.981l-81.728-20.416l-6.955-27.819c21.888-21.653,36.864-51.392,41.301-81.92
				c12.117-3.392,21.504-13.824,23.125-26.837l0.341-2.645c0.725-5.867-3.413-11.2-9.259-11.925
				c-5.739-0.789-11.179,3.392-11.925,9.259l-0.341,2.645c-0.661,5.333-5.205,9.344-11.627,9.344
				c-5.547,0-10.176,4.267-10.624,9.856c-2.411,30.315-17.344,60.523-39.979,80.811c-2.923,2.624-4.181,6.677-3.221,10.517
				l10.027,40.085c0.96,3.819,3.925,6.805,7.765,7.765l87.936,21.973c40.469,10.112,69.696,44.267,74.091,84.992l-468.203-0.064
				c4.395-40.704,33.643-74.816,74.091-84.949l87.936-21.973c3.819-0.96,6.805-3.925,7.765-7.765l10.453-41.835
				c0.939-3.733-0.235-7.701-3.072-10.347c-21.547-20.224-35.819-49.856-38.165-79.253c-0.427-5.547-5.056-9.813-10.624-9.813
				h-3.456c-5.376,0-9.92-4.011-10.56-9.365l-0.341-2.645c-0.768-5.888-6.251-10.048-11.925-9.259
				c-5.867,0.747-9.984,6.08-9.259,11.925l0.341,2.645c1.728,13.888,12.309,24.832,25.643,27.435
				c4.437,29.312,18.624,58.112,39.232,79.403l-7.424,29.739L90.816,384.96C37.333,398.336,0,446.187,0,501.333
				c0,2.837,1.109,5.568,3.115,7.552C5.12,510.869,7.829,512,10.667,512l490.667-0.043c5.888,0,10.667-4.779,10.667-10.667
				C512,446.187,474.667,398.336,421.184,384.981z"/>
			<path d="M448,309.333v21.333c0,5.867-4.8,10.667-10.667,10.667H416c-5.888,0-10.667,4.779-10.667,10.667
				c0,5.888,4.779,10.667,10.667,10.667h21.333c17.643,0,32-14.357,32-32v-21.333c0-5.888-4.779-10.667-10.667-10.667
				S448,303.445,448,309.333z"/>
			<path d="M53.333,298.667c-5.888,0-10.667,4.779-10.667,10.667v21.333c0,17.643,14.357,32,32,32H96
				c5.888,0,10.667-4.779,10.667-10.667c0-5.888-4.779-10.667-10.667-10.667H74.667c-5.867,0-10.667-4.8-10.667-10.667v-21.333
				C64,303.445,59.221,298.667,53.333,298.667z"/>
		</g>
	</g>
</g>
<g>
</g>
<g>
</g>
<g>
</g>
<g>
</g>
<g>
</g>
<g>
</g>
<g>
</g>
<g>
</g>
<g>
</g>
<g>
</g>
<g>
</g>
<g>
</g>
<g>
</g>
<g>
</g>
<g>
</g>
</svg>
