<?xml version="1.0" encoding="iso-8859-1"?>
<!-- Generator: Adobe Illustrator 19.0.0, SVG Export Plug-In . SVG Version: 6.00 Build 0)  -->
<svg version="1.1" id="Layer_1" xmlns="http://www.w3.org/2000/svg" xmlns:xlink="http://www.w3.org/1999/xlink" x="0px" y="0px"
	 viewBox="0 0 512.019 512.019" style="enable-background:new 0 0 512.019 512.019;" xml:space="preserve">
<g>
	<g>
		<g>
			<path d="M245.343,490.676h-160V245.343c0-5.888-4.779-10.667-10.667-10.667H36.426L245.343,25.759
				c5.632-5.632,15.659-5.653,21.312,0l77.803,77.803c3.072,3.051,7.637,4.011,11.627,2.304c3.989-1.643,6.592-5.547,6.592-9.856
				V21.343h64v160c0,2.837,1.131,5.547,3.136,7.552l45.781,45.781h-38.251c-5.888,0-10.667,4.779-10.667,10.667
				s4.779,10.667,10.667,10.667h64c4.309,0,8.213-2.603,9.856-6.571c1.664-3.989,0.747-8.576-2.304-11.627l-60.885-60.885V10.676
				c0-5.888-4.779-10.667-10.667-10.667h-85.333c-5.888,0-10.667,4.779-10.667,10.667V70.26l-59.605-59.584
				c-13.717-13.739-37.696-13.76-51.477,0L3.124,237.791c-3.051,3.051-3.968,7.637-2.304,11.627
				c1.643,3.989,5.547,6.592,9.856,6.592h53.333v245.333c0,5.888,4.779,10.667,10.667,10.667h170.667
				c5.888,0,10.667-4.779,10.667-10.667C256.009,495.455,251.231,490.676,245.343,490.676z"/>
			<path d="M330.676,277.343c5.888,0,10.667-4.779,10.667-10.667s-4.779-10.667-10.667-10.667H181.343
				c-5.888,0-10.667,4.779-10.667,10.667v149.333c0,5.888,4.779,10.667,10.667,10.667h128c5.888,0,10.667-4.779,10.667-10.667
				c0-5.888-4.779-10.667-10.667-10.667H192.009v-128H330.676z"/>
			<path d="M467.956,444.852l-32.021-8l-1.344-5.355c8.32-9.173,14.208-20.864,16.661-33.024c5.675-2.923,9.813-8.533,10.667-15.253
				l2.325-18.56c0.704-5.611-1.045-11.285-4.757-15.552c-1.152-1.323-2.475-2.475-3.904-3.435l0.555-11.307l1.963-1.963
				c5.504-5.845,12.949-18.325,1.152-36.331c-5.589-8.533-17.109-18.731-40.171-18.731c-6.784,0-22.123,0-37.035,9.323
				c-43.904,1.557-49.067,25.216-49.067,43.072c0,3.52,0.64,10.112,1.237,15.616c-1.579,1.003-3.029,2.219-4.288,3.648
				c-3.776,4.288-5.547,9.984-4.843,15.68l2.325,18.56c0.875,6.955,5.291,12.715,11.797,15.552
				c2.432,11.627,7.979,22.891,15.765,31.829l-1.557,6.272l-32.021,8c-25.941,6.485-44.053,29.696-44.053,56.448
				c0,2.837,1.109,5.568,3.115,7.552s4.715,3.115,7.552,3.115l213.333-0.021c5.888,0,10.667-4.779,10.667-10.667
				C512.01,474.591,493.897,451.38,467.956,444.852z M300.233,490.655c3.691-12.16,13.504-21.845,26.347-25.109l38.229-9.557
				c3.819-0.939,6.827-3.925,7.765-7.744l4.544-18.197c0.96-3.755-0.235-7.723-3.051-10.368c-8.299-7.787-13.803-19.2-14.699-30.528
				c-0.448-5.547-5.184-8.597-10.752-8.597l-2.731-16.981c3.072,0,5.973-1.301,8-3.605c2.027-2.283,2.965-5.333,2.581-8.384
				c-0.811-6.443-2.112-18.091-2.112-21.845c0-11.051,0-21.483,31.168-21.803c2.176-0.021,4.331-0.704,6.101-1.984
				c10.176-7.275,21.845-7.275,27.456-7.275c16.363,0,20.864,6.848,22.293,9.109c4.352,6.635,2.56,8.512,1.387,9.792l-4.651,4.629
				c-1.877,1.877-2.987,4.395-3.115,7.04l-1.131,23.211c-0.128,2.901,0.235,4.928,2.219,7.04c2.005,2.112,4.075,2.539,6.976,2.56
				l-1.387,17.344c-5.568,0-10.197,4.267-10.645,9.813c-0.896,11.499-6.805,23.424-15.381,31.104
				c-2.944,2.645-4.181,6.699-3.221,10.539l4.373,17.429c0.96,3.797,3.947,6.805,7.765,7.744l38.229,9.557
				c12.843,3.221,22.656,12.907,26.325,25.088L300.233,490.655z"/>
		</g>
	</g>
</g>
<g>
</g>
<g>
</g>
<g>
</g>
<g>
</g>
<g>
</g>
<g>
</g>
<g>
</g>
<g>
</g>
<g>
</g>
<g>
</g>
<g>
</g>
<g>
</g>
<g>
</g>
<g>
</g>
<g>
</g>
</svg>
