<?xml version="1.0" encoding="iso-8859-1"?>
<!-- Generator: Adobe Illustrator 19.0.0, SVG Export Plug-In . SVG Version: 6.00 Build 0)  -->
<svg version="1.1" id="Layer_1" xmlns="http://www.w3.org/2000/svg" xmlns:xlink="http://www.w3.org/1999/xlink" x="0px" y="0px"
	 viewBox="0 0 512.003 512.003" style="enable-background:new 0 0 512.003 512.003;" xml:space="preserve">
<g>
	<g>
		<g>
			<path d="M247.172,128.002c29.397,0,53.333-23.936,53.333-53.333s-23.936-53.333-53.333-53.333
				c-29.397,0-53.333,23.936-53.333,53.333S217.774,128.002,247.172,128.002z M247.172,42.668c17.643,0,32,14.357,32,32
				c0,17.643-14.357,32-32,32c-17.643,0-32-14.357-32-32C215.172,57.026,229.529,42.668,247.172,42.668z"/>
			<path d="M501.337,362.668H490.67v-10.667c0-41.173-33.493-74.667-74.667-74.667s-74.667,33.493-74.667,74.667v10.667H330.67
				c-5.888,0-10.667,4.779-10.667,10.667v128c0,5.888,4.779,10.667,10.667,10.667h170.667c5.888,0,10.667-4.779,10.667-10.667v-128
				C512.003,367.447,507.225,362.668,501.337,362.668z M362.67,352.002c0-29.397,23.936-53.333,53.333-53.333
				s53.333,23.936,53.333,53.333v10.667H362.67V352.002z M490.67,490.668H341.337V384.002H490.67V490.668z"/>
			<path d="M332.313,330.54c6.08-6.891,8.896-16.064,7.765-25.152l-13.675-109.312c-3.307-26.645-26.069-46.72-52.907-46.72h-52.672
				c-5.909,0-11.904,1.045-17.771,3.136c-5.547,1.963-8.448,8.064-6.485,13.611c1.963,5.547,8.043,8.469,13.611,6.485
				c3.584-1.259,7.168-1.899,10.667-1.899h52.672c16.107,0,29.739,12.053,31.744,28.032l13.675,109.312
				c0.384,3.072-0.533,6.059-2.603,8.384s-4.885,3.605-8,3.605h-7.829c-5.611,0-10.24,4.309-10.645,9.899l-9.963,139.435h-65.472
				l-7.68-107.456c-0.427-5.867-5.44-10.56-11.392-9.877c-5.867,0.405-10.304,5.525-9.877,11.392l8.384,117.355
				c0.405,5.568,5.056,9.899,10.645,9.899h85.333c5.589,0,10.24-4.331,10.624-9.877l9.963-139.499
				C318.83,340.738,326.702,336.876,332.313,330.54z"/>
			<path d="M405.337,444.738v13.931c0,5.888,4.779,10.667,10.667,10.667c5.888,0,10.667-4.779,10.667-10.667v-13.931
				c6.272-3.712,10.667-10.261,10.667-18.069c0-11.776-9.557-21.333-21.333-21.333s-21.333,9.557-21.333,21.333
				C394.67,434.476,399.086,441.004,405.337,444.738z"/>
			<path d="M191.726,303.724L177.603,179.82c-3.349-29.547-26.752-51.819-54.379-51.819H68.74
				c-27.627,0-51.008,22.272-54.379,51.819L0.238,303.724c-1.173,10.368,2.027,20.672,8.768,28.224
				c5.824,6.507,13.547,10.304,21.909,10.773l11.776,159.403c0.427,5.568,5.056,9.877,10.645,9.877h85.333
				c5.589,0,10.219-4.309,10.603-9.877l11.776-159.403c8.363-0.469,16.107-4.245,21.909-10.773
				C189.721,324.375,192.921,314.092,191.726,303.724z M167.065,317.74c-1.216,1.365-3.883,3.691-7.808,3.691h-8.085
				c-5.589,0-10.24,4.309-10.645,9.877l-11.776,159.36H63.235l-11.755-159.36c-0.427-5.568-5.056-9.877-10.645-9.877H32.75
				c-3.925,0-6.571-2.325-7.808-3.691c-2.709-3.051-3.989-7.275-3.499-11.605l14.123-123.904
				c2.133-18.752,16.405-32.896,33.195-32.896h54.485c16.768,0,31.04,14.144,33.195,32.896l14.123,123.904
				C171.054,310.466,169.774,314.69,167.065,317.74z"/>
			<path d="M96.003,106.668c29.397,0,53.333-23.936,53.333-53.333S125.401,0.002,96.003,0.002S42.67,23.938,42.67,53.335
				S66.606,106.668,96.003,106.668z M96.003,21.335c17.643,0,32,14.357,32,32c0,17.643-14.357,32-32,32c-17.643,0-32-14.357-32-32
				C64.003,35.692,78.361,21.335,96.003,21.335z"/>
		</g>
	</g>
</g>
<g>
</g>
<g>
</g>
<g>
</g>
<g>
</g>
<g>
</g>
<g>
</g>
<g>
</g>
<g>
</g>
<g>
</g>
<g>
</g>
<g>
</g>
<g>
</g>
<g>
</g>
<g>
</g>
<g>
</g>
</svg>
