<?xml version="1.0" encoding="iso-8859-1"?>
<!-- Generator: Adobe Illustrator 19.0.0, SVG Export Plug-In . SVG Version: 6.00 Build 0)  -->
<svg version="1.1" id="Layer_1" xmlns="http://www.w3.org/2000/svg" xmlns:xlink="http://www.w3.org/1999/xlink" x="0px" y="0px"
	 viewBox="0 0 511.979 511.979" style="enable-background:new 0 0 511.979 511.979;" xml:space="preserve">
<g>
	<g>
		<g>
			<path d="M442.773,348.597l-58.795-14.677l-4.331-17.429c15.552-15.915,26.304-37.248,29.888-59.264
				c9.173-3.285,16.107-11.499,17.365-21.632l3.947-31.531c0.939-7.445-1.387-14.976-6.315-20.629
				c-2.411-2.773-5.376-4.992-8.64-6.528l1.301-26.667l5.184-5.205c9.6-10.197,17.557-27.584,1.173-52.565
				c-12.395-18.901-33.237-28.48-62.059-28.48c-11.499,0-38.4,0-63.168,17.579c-4.8,3.413-5.931,10.069-2.517,14.869
				c3.392,4.8,10.091,5.909,14.848,2.517c16.96-12.032,35.221-13.653,50.859-13.653c21.163,0,36.011,6.336,44.203,18.837
				c9.344,14.272,5.824,21.291,1.365,26.027l-7.872,7.893c-1.877,1.877-2.987,4.373-3.115,7.019l-1.92,39.467
				c-0.149,2.901,0.896,5.717,2.88,7.829s4.736,3.328,7.637,3.349c2.005,0.021,3.243,1.109,3.797,1.749
				c0.576,0.64,1.472,2.005,1.216,3.968l-3.947,31.552c-0.299,2.539-2.496,4.459-5.824,4.459c-5.568,0-10.176,4.288-10.624,9.835
				c-1.728,21.717-12.416,43.349-28.629,57.877c-2.923,2.624-4.181,6.677-3.221,10.517l7.403,29.632
				c0.96,3.819,3.925,6.827,7.765,7.765l65.003,16.235c27.733,6.933,48.043,29.76,52.245,57.344L416,426.613v21.376l85.312-0.064
				c5.888,0,10.667-4.779,10.667-10.667C512,395.253,483.541,358.795,442.773,348.597z"/>
			<path d="M314.773,348.597l-58.795-14.677l-2.347-9.451c40.256-7.189,61.12-19.349,62.08-19.904
				c2.987-1.771,4.864-4.971,5.12-8.448c0.256-3.477-1.28-6.933-4.011-9.131c-0.277-0.213-27.413-23.083-27.413-101.952
				c0-69.867-16.853-105.28-50.091-105.28h-3.541C224.491,69.067,215.125,63.989,192,63.989c-30.507,0-97.387,30.485-97.387,121.045
				c0,78.869-27.136,101.739-27.264,101.845c-2.837,2.112-4.437,5.525-4.245,9.067c0.171,3.541,2.091,6.763,5.141,8.597
				c0.939,0.576,21.632,12.8,62.144,19.989l-2.347,9.387l-58.795,14.699C28.459,358.795,0,395.275,0,437.323
				c0,2.837,1.109,5.568,3.115,7.552c2.005,1.984,4.715,3.115,7.552,3.115l362.667-0.064c5.888,0,10.667-4.779,10.667-10.667
				C384,395.253,355.541,358.795,314.773,348.597z M22.165,426.613c4.203-27.563,24.533-50.368,52.267-57.323l65.003-16.235
				c3.819-0.96,6.805-3.947,7.765-7.765l6.72-26.901c0.725-2.944,0.192-6.037-1.515-8.555c-1.685-2.496-4.373-4.16-7.381-4.587
				c-25.131-3.499-43.157-9.28-53.909-13.547c10.603-15.36,24.853-47.104,24.853-106.667c-0.021-81.963,60.971-99.712,76.032-99.712
				c18.411,0,22.059,2.837,31.872,12.651c2.005,1.984,4.715,3.115,7.552,3.115h7.893c18.283,0,28.757,30.613,28.757,83.947
				c0,59.52,14.229,91.264,24.832,106.645c-10.816,4.267-28.864,10.027-53.909,13.547c-3.008,0.405-5.675,2.091-7.36,4.587
				c-1.707,2.517-2.24,5.611-1.515,8.555l6.72,26.944c0.96,3.819,3.925,6.827,7.765,7.765l65.003,16.235
				c27.733,6.933,48.043,29.76,52.245,57.344L22.165,426.613z"/>
		</g>
	</g>
</g>
<g>
</g>
<g>
</g>
<g>
</g>
<g>
</g>
<g>
</g>
<g>
</g>
<g>
</g>
<g>
</g>
<g>
</g>
<g>
</g>
<g>
</g>
<g>
</g>
<g>
</g>
<g>
</g>
<g>
</g>
</svg>
