<?xml version="1.0" encoding="iso-8859-1"?>
<!-- Generator: Adobe Illustrator 19.0.0, SVG Export Plug-In . SVG Version: 6.00 Build 0)  -->
<svg version="1.1" id="Layer_1" xmlns="http://www.w3.org/2000/svg" xmlns:xlink="http://www.w3.org/1999/xlink" x="0px" y="0px"
	 viewBox="0 0 512 512" style="enable-background:new 0 0 512 512;" xml:space="preserve">
<g>
	<g>
		<g>
			<path d="M464.341,290.901l-35.84-8.96l-1.771-7.083c9.344-10.155,15.936-23.211,18.56-36.779
				c6.187-2.987,10.731-8.981,11.627-16.192l2.56-20.395c0.747-5.888-1.067-11.819-4.949-16.277
				c-1.344-1.536-2.88-2.859-4.587-3.925l0.661-13.461l2.411-2.411c5.824-6.208,13.717-19.477,1.152-38.677
				c-5.995-9.173-18.411-20.117-43.307-20.117c-7.403,0-24.192,0-40.405,10.283c-22.848,0.725-37.952,6.955-46.123,18.944
				c-0.512,0.747-0.939,1.579-1.237,2.432c-0.917,2.56-2.091,5.013-3.371,7.445c-0.427,0.789-0.725,1.643-0.939,2.517
				c-1.045,4.395-1.557,9.301-1.557,14.976c0,3.947,0.725,11.584,1.408,17.728c-1.856,1.088-3.563,2.496-5.035,4.16
				c-3.947,4.48-5.803,10.475-5.056,16.405l2.56,20.395c0.939,7.445,5.76,13.589,12.864,16.491
				c2.581,12.992,8.811,25.579,17.579,35.499l-2.005,8.064l-35.861,8.96c-2.923,0.725-5.696,1.749-8.405,2.837
				c-5.461,2.219-8.107,8.427-5.909,13.888c2.219,5.483,8.448,8.085,13.888,5.909c1.835-0.725,3.669-1.451,5.611-1.941
				l42.048-10.517c3.819-0.96,6.827-3.947,7.765-7.765l4.992-20.011c0.939-3.755-0.235-7.723-3.051-10.368
				c-9.344-8.747-15.509-21.547-16.512-34.261c-0.448-5.547-6.272-9.408-11.84-9.408l-1.963-19.883c3.072,0,5.973-1.301,8-3.605
				c2.027-2.283,2.965-5.333,2.581-8.384c-0.896-7.125-2.325-19.989-2.325-24.171c0-3.435,0.235-6.336,0.725-8.853
				c1.237-2.432,2.389-4.885,3.349-7.381c4.651-5.696,15.168-8.661,31.275-8.811c2.176-0.021,4.331-0.704,6.101-1.984
				C391.488,128,404.565,128,410.837,128c12.523,0,20.843,3.413,25.451,10.475c5.248,8,2.88,10.517,1.387,12.117l-5.099,5.099
				c-1.877,1.877-2.987,4.373-3.115,7.019l-1.237,25.536c-0.128,2.901,0.683,5.44,2.667,7.552c2.005,2.133,4.523,3.072,7.424,3.093
				l-2.603,20.011c-5.568,0-10.197,4.288-10.645,9.835c-1.003,12.907-7.637,26.304-17.28,34.944
				c-2.944,2.624-4.181,6.677-3.221,10.517l4.8,19.157c0.96,3.819,3.947,6.827,7.765,7.765l42.048,10.517
				c14.997,3.755,26.325,15.296,30.123,29.696H381.312v21.333l120.021-0.064c5.888,0,10.667-4.779,10.667-10.667
				C512,323.008,492.395,297.92,464.341,290.901z"/>
			<path d="M314.752,348.629l-58.773-14.677l-4.352-17.429c15.573-15.915,26.325-37.248,29.909-59.264
				c9.152-3.285,16.085-11.499,17.365-21.632l3.947-31.531c0.939-7.467-1.365-14.976-6.293-20.629
				c-2.432-2.795-5.397-5.013-8.683-6.549l1.323-26.667l5.184-5.205c9.579-10.176,17.536-27.563,1.152-52.565
				C283.157,73.579,262.293,64,233.472,64c-11.115,0-36.608,0-60.629,15.829c-69.248,1.728-78.229,35.968-78.229,65.792
				c0,6.784,1.493,20.992,2.624,30.784c-3.669,1.536-6.976,3.861-9.664,6.912c-5.035,5.675-7.36,13.248-6.421,20.779l3.947,31.531
				c1.344,10.837,9.173,19.477,19.264,22.229c3.563,21.099,13.76,41.685,28.373,57.237l-4.715,18.859l-58.773,14.677
				C28.459,358.805,0,395.285,0,437.333c0,2.837,1.109,5.568,3.115,7.552C5.12,446.869,7.851,448,10.667,448l362.667-0.043
				c5.888,0,10.667-4.779,10.667-10.667C384,395.285,355.52,358.827,314.752,348.629z M22.144,426.624
				c4.203-27.563,24.512-50.368,52.288-57.301l64.981-16.235c3.819-0.96,6.827-3.947,7.765-7.765l7.723-30.933
				c0.96-3.755-0.235-7.723-3.051-10.368c-15.424-14.464-25.643-35.691-27.328-56.747c-0.448-5.547-5.077-9.813-10.645-9.813h-2.56
				c-2.56,0-4.736-1.92-5.056-4.459l-3.947-31.531c-0.256-1.984,0.661-3.371,1.237-4.011c0.576-0.64,1.835-1.728,5.461-1.728
				c3.072,0,5.973-1.301,8-3.605c2.027-2.283,2.965-5.355,2.581-8.384c-1.003-8.021-3.648-30.528-3.648-38.08
				c0-19.584,0-43.925,60.395-44.523c2.176-0.021,4.331-0.704,6.101-1.984c16.981-12.139,35.328-13.781,51.051-13.781
				c21.163,0,36.032,6.336,44.203,18.837c9.344,14.272,5.824,21.291,1.365,26.027l-7.872,7.893
				c-1.877,1.877-2.987,4.373-3.115,7.019l-1.92,39.467c-0.128,2.901,0.917,5.717,2.901,7.829c1.963,2.112,4.736,3.328,7.637,3.349
				c2.005,0.021,3.243,1.109,3.797,1.749s1.451,1.984,1.216,3.947l-3.947,31.531c-0.32,2.539-2.496,4.459-5.824,4.459
				c-5.568,0-10.197,4.267-10.645,9.813c-1.728,21.717-12.416,43.349-28.629,57.877c-2.944,2.624-4.181,6.677-3.221,10.517
				l7.403,29.632c0.96,3.819,3.947,6.827,7.765,7.765l64.981,16.235c27.733,6.933,48.043,29.76,52.267,57.344L22.144,426.624z"/>
		</g>
	</g>
</g>
<g>
</g>
<g>
</g>
<g>
</g>
<g>
</g>
<g>
</g>
<g>
</g>
<g>
</g>
<g>
</g>
<g>
</g>
<g>
</g>
<g>
</g>
<g>
</g>
<g>
</g>
<g>
</g>
<g>
</g>
</svg>
