<?xml version="1.0" encoding="iso-8859-1"?>
<!-- Generator: Adobe Illustrator 19.0.0, SVG Export Plug-In . SVG Version: 6.00 Build 0)  -->
<svg version="1.1" id="Layer_1" xmlns="http://www.w3.org/2000/svg" xmlns:xlink="http://www.w3.org/1999/xlink" x="0px" y="0px"
	 viewBox="0 0 512 512" style="enable-background:new 0 0 512 512;" xml:space="preserve">
<g>
	<g>
		<g>
			<path d="M249.265,128c29.397,0,53.333-23.936,53.333-53.333s-23.936-53.333-53.333-53.333s-53.333,23.936-53.333,53.333
				S219.868,128,249.265,128z M249.265,42.667c17.643,0,32,14.357,32,32c0,17.643-14.357,32-32,32s-32-14.357-32-32
				C217.265,57.024,231.622,42.667,249.265,42.667z"/>
			<path d="M222.918,149.333c-5.909,0-11.904,1.045-17.771,3.136c-5.547,1.963-8.448,8.064-6.485,13.611
				c1.963,5.547,8.021,8.469,13.611,6.485c3.584-1.259,7.168-1.899,10.667-1.899h52.672c16.107,0,29.739,12.053,31.744,28.032
				l9.472,75.691l-11.797,36.288c-1.835,5.589,1.237,11.627,6.848,13.44c1.088,0.341,2.197,0.512,3.285,0.512
				c4.501,0,8.683-2.859,10.133-7.36l12.523-38.549c0.491-1.493,0.64-3.051,0.448-4.608l-9.771-78.059
				c-3.307-26.645-26.069-46.72-52.907-46.72H222.918z"/>
			<path d="M193.82,303.723l-14.123-123.904C176.347,150.272,152.945,128,125.318,128H70.833c-27.627,0-51.008,22.272-54.379,51.819
				L2.332,303.723c-1.173,10.368,2.027,20.672,8.768,28.224c5.824,6.507,13.547,10.304,21.909,10.773l11.776,159.403
				C45.212,507.691,49.841,512,55.43,512h85.333c5.589,0,10.219-4.309,10.603-9.877l11.776-159.403
				c8.363-0.469,16.107-4.245,21.909-10.773C191.814,324.373,195.014,314.091,193.82,303.723z M169.158,317.739
				c-1.216,1.365-3.883,3.691-7.808,3.691h-8.085c-5.589,0-10.24,4.309-10.645,9.877l-11.776,159.36H65.329l-11.755-159.36
				c-0.427-5.568-5.056-9.877-10.645-9.877h-8.085c-3.925,0-6.571-2.325-7.808-3.691c-2.709-3.051-3.989-7.275-3.499-11.605
				L37.66,182.229c2.133-18.752,16.405-32.896,33.195-32.896h54.485c16.768,0,31.04,14.144,33.195,32.896l14.123,123.904
				C173.148,310.464,171.868,314.688,169.158,317.739z"/>
			<path d="M98.097,106.667c29.397,0,53.333-23.936,53.333-53.333S127.494,0,98.097,0C68.7,0,44.764,23.936,44.764,53.333
				S68.7,106.667,98.097,106.667z M98.097,21.333c17.643,0,32,14.357,32,32c0,17.643-14.357,32-32,32c-17.643,0-32-14.357-32-32
				C66.097,35.691,80.454,21.333,98.097,21.333z"/>
			<path d="M509.382,353.344c-1.429-4.395-5.525-7.381-10.155-7.381H412.38l-26.837-82.603c-2.859-8.789-17.429-8.789-20.288,0
				l-26.837,82.603h-86.848c-4.629,0-8.725,2.987-10.155,7.381c-1.429,4.395,0.149,9.216,3.883,11.925l70.379,51.136l-25.131,81.792
				c-1.344,4.395,0.256,9.152,4.011,11.819c3.733,2.688,8.768,2.624,12.48-0.085l68.373-50.112l68.373,50.112
				c1.856,1.387,4.075,2.069,6.293,2.069c2.155,0,4.331-0.661,6.187-1.963c3.733-2.667,5.355-7.445,4.011-11.84l-25.131-81.792
				l70.357-51.136C509.254,362.56,510.812,357.739,509.382,353.344z M416.433,403.648c-3.691,2.667-5.269,7.381-3.925,11.755
				l17.92,58.325l-48.725-35.712c-1.856-1.387-4.075-2.069-6.293-2.069c-2.219,0-4.437,0.683-6.336,2.069l-48.725,35.712
				l17.92-58.325c1.344-4.352-0.235-9.088-3.925-11.755l-49.984-36.309h61.781c4.629,0,8.725-2.987,10.155-7.381l19.093-58.731
				l19.093,58.752c1.429,4.373,5.525,7.36,10.155,7.36h61.76L416.433,403.648z"/>
			<path d="M281.5,418.667c-5.675-1.728-11.584,1.451-13.333,7.061l-13.397,43.627h-38.251l-7.68-107.456
				c-0.405-5.867-5.525-10.56-11.392-9.877c-5.867,0.405-10.304,5.525-9.877,11.392l8.384,117.355
				c0.405,5.568,5.056,9.899,10.645,9.899h56.064c4.693,0,8.811-3.051,10.197-7.509L288.561,432
				C290.289,426.368,287.132,420.395,281.5,418.667z"/>
		</g>
	</g>
</g>
<g>
</g>
<g>
</g>
<g>
</g>
<g>
</g>
<g>
</g>
<g>
</g>
<g>
</g>
<g>
</g>
<g>
</g>
<g>
</g>
<g>
</g>
<g>
</g>
<g>
</g>
<g>
</g>
<g>
</g>
</svg>
