<?xml version="1.0" encoding="iso-8859-1"?>
<!-- Generator: Adobe Illustrator 19.0.0, SVG Export Plug-In . SVG Version: 6.00 Build 0)  -->
<svg version="1.1" id="Layer_1" xmlns="http://www.w3.org/2000/svg" xmlns:xlink="http://www.w3.org/1999/xlink" x="0px" y="0px"
	 viewBox="0 0 512 512" style="enable-background:new 0 0 512 512;" xml:space="preserve">
<g>
	<g>
		<g>
			<path d="M266.667,96C260.779,96,256,100.779,256,106.667s4.779,10.667,10.667,10.667s10.667-4.779,10.667-10.667
				S272.555,96,266.667,96z"/>
			<path d="M233.323,348.885l-28.608-7.168c19.499-4.395,29.803-10.368,30.315-10.688c2.965-1.749,4.757-4.928,5.056-8.363
				c0.299-3.413-1.195-6.891-3.819-9.131c-0.149-0.128-14.549-12.971-14.549-56.597c0-44.011-11.392-66.325-33.856-66.325h-0.384
				c-7.147-6.4-13.824-9.28-27.456-9.28c-19.328,0-61.675,19.029-61.675,75.584c0,43.499-14.315,56.405-14.293,56.405
				c-2.859,2.112-4.437,5.525-4.267,9.067c0.192,3.541,2.112,6.763,5.163,8.597c0.512,0.299,10.709,6.336,30.315,10.752
				l-28.544,7.147c-25.941,6.485-44.053,29.696-44.053,56.448c0,2.837,1.109,5.568,3.115,7.552c2.005,1.984,4.715,3.115,7.552,3.115
				l213.376-0.021c5.888,0,10.667-4.779,10.667-10.667C277.376,378.56,259.264,355.371,233.323,348.885z M65.557,394.645
				c3.691-12.16,13.504-21.845,26.283-25.088L130.069,360c3.819-0.939,6.827-3.925,7.765-7.744l3.968-15.829
				c0.747-2.923,0.192-6.037-1.493-8.555c-1.707-2.496-4.373-4.16-7.381-4.587c-11.072-1.536-19.691-3.84-25.813-5.909
				c6.08-10.923,12.523-29.739,12.523-60.459c0-44.821,33.707-54.251,40.341-54.251c9.493,0,10.539,1.067,15.637,6.144
				c2.005,1.984,4.715,3.115,7.552,3.115h4.629c6.229,0,12.523,13.909,12.523,44.992c0,30.677,6.443,49.493,12.501,60.416
				c-6.144,2.069-14.784,4.395-25.813,5.931c-2.987,0.427-5.675,2.091-7.36,4.608c-1.685,2.496-2.24,5.611-1.493,8.555l3.968,15.851
				c0.96,3.797,3.947,6.805,7.765,7.744l38.229,9.557c12.843,3.221,22.656,12.907,26.325,25.088L65.557,394.645z"/>
			<path d="M458.667,138.667H320v-32c0-29.397-23.936-53.333-53.333-53.333s-53.333,23.936-53.333,53.333v32h-160
				C23.936,138.667,0,162.603,0,192v213.333c0,29.397,23.936,53.333,53.333,53.333h405.333c29.397,0,53.333-23.936,53.333-53.333
				V192C512,162.603,488.064,138.667,458.667,138.667z M234.667,106.667c0-17.643,14.357-32,32-32c17.643,0,32,14.357,32,32V160h-64
				V106.667z M490.667,405.333c0,17.643-14.357,32-32,32H53.333c-17.643,0-32-14.357-32-32V192c0-17.643,14.357-32,32-32h160v10.667
				c0,5.888,4.779,10.667,10.667,10.667h85.333c5.888,0,10.667-4.779,10.667-10.667V160h138.667c17.643,0,32,14.357,32,32V405.333z"
				/>
			<path d="M458.667,224H309.333c-5.888,0-10.667,4.779-10.667,10.667s4.779,10.667,10.667,10.667h149.333
				c5.888,0,10.667-4.779,10.667-10.667S464.555,224,458.667,224z"/>
			<path d="M458.667,352H309.333c-5.888,0-10.667,4.779-10.667,10.667s4.779,10.667,10.667,10.667h149.333
				c5.888,0,10.667-4.779,10.667-10.667S464.555,352,458.667,352z"/>
			<path d="M458.667,288H309.333c-5.888,0-10.667,4.779-10.667,10.667s4.779,10.667,10.667,10.667h149.333
				c5.888,0,10.667-4.779,10.667-10.667S464.555,288,458.667,288z"/>
		</g>
	</g>
</g>
<g>
</g>
<g>
</g>
<g>
</g>
<g>
</g>
<g>
</g>
<g>
</g>
<g>
</g>
<g>
</g>
<g>
</g>
<g>
</g>
<g>
</g>
<g>
</g>
<g>
</g>
<g>
</g>
<g>
</g>
</svg>
