<?xml version="1.0" encoding="iso-8859-1"?>
<!-- Generator: Adobe Illustrator 19.0.0, SVG Export Plug-In . SVG Version: 6.00 Build 0)  -->
<svg version="1.1" id="Layer_1" xmlns="http://www.w3.org/2000/svg" xmlns:xlink="http://www.w3.org/1999/xlink" x="0px" y="0px"
	 viewBox="0 0 512 512" style="enable-background:new 0 0 512 512;" xml:space="preserve">
<g>
	<g>
		<g>
			<path d="M298.667,448h-85.333c-5.888,0-10.667,4.779-10.667,10.667s4.779,10.667,10.667,10.667h85.333
				c5.888,0,10.667-4.779,10.667-10.667S304.555,448,298.667,448z"/>
			<path d="M256,42.667c-5.888,0-10.667,4.779-10.667,10.667S250.112,64,256,64c5.888,0,10.667-4.779,10.667-10.667
				S261.888,42.667,256,42.667z"/>
			<path d="M405.333,64h-96V53.333C309.333,23.936,285.397,0,256,0s-53.333,23.936-53.333,53.333V64h-96c-17.643,0-32,14.357-32,32
				v384c0,17.643,14.357,32,32,32h298.667c17.643,0,32-14.357,32-32V96C437.333,78.357,422.976,64,405.333,64z M224,53.333
				c0-17.643,14.357-32,32-32s32,14.357,32,32v53.333h-64V53.333z M416,480c0,5.888-4.779,10.667-10.667,10.667H106.667
				C100.779,490.667,96,485.888,96,480V96c0-5.888,4.779-10.667,10.667-10.667h96v21.333H192c-5.888,0-10.667,4.779-10.667,10.667
				S186.112,128,192,128h128c5.888,0,10.667-4.779,10.667-10.667s-4.779-10.667-10.667-10.667h-10.667V85.333h96
				C411.221,85.333,416,90.112,416,96V480z"/>
			<path d="M341.333,405.333H170.667c-5.888,0-10.667,4.779-10.667,10.667c0,5.888,4.779,10.667,10.667,10.667h170.667
				c5.888,0,10.667-4.779,10.667-10.667C352,410.112,347.221,405.333,341.333,405.333z"/>
			<path d="M329.323,316.885l-28.608-7.168c19.499-4.395,29.803-10.368,30.315-10.688c2.965-1.749,4.757-4.928,5.056-8.363
				c0.299-3.413-1.195-6.891-3.819-9.131c-0.149-0.128-14.549-12.971-14.549-56.597c0-44.011-11.392-66.325-33.856-66.325h-0.384
				c-7.147-6.4-13.824-9.28-27.456-9.28c-19.328,0-61.675,19.029-61.675,75.584c0,43.499-14.315,56.405-14.293,56.405
				c-2.859,2.112-4.437,5.525-4.267,9.067c0.192,3.541,2.112,6.763,5.163,8.597c0.512,0.299,10.709,6.336,30.315,10.752
				l-28.544,7.147c-25.941,6.485-44.053,29.696-44.053,56.448c0,2.837,1.109,5.568,3.115,7.552c2.005,1.984,4.715,3.115,7.552,3.115
				l213.376-0.021c5.888,0,10.667-4.779,10.667-10.667C373.376,346.56,355.264,323.371,329.323,316.885z M161.557,362.645
				c3.691-12.16,13.504-21.845,26.283-25.088L226.069,328c3.819-0.939,6.827-3.925,7.765-7.744l3.968-15.829
				c0.747-2.923,0.192-6.037-1.493-8.555c-1.707-2.496-4.373-4.16-7.381-4.587c-11.072-1.536-19.691-3.84-25.813-5.909
				c6.08-10.923,12.523-29.739,12.523-60.459c0-44.821,33.707-54.251,40.341-54.251c9.493,0,10.539,1.067,15.637,6.144
				c2.005,1.984,4.715,3.115,7.552,3.115h4.629c6.229,0,12.523,13.909,12.523,44.992c0,30.677,6.443,49.493,12.501,60.416
				c-6.144,2.069-14.784,4.395-25.813,5.931c-2.987,0.427-5.675,2.091-7.36,4.608c-1.685,2.496-2.24,5.611-1.493,8.555l3.968,15.851
				c0.96,3.797,3.947,6.805,7.765,7.744l38.229,9.557c12.843,3.221,22.656,12.907,26.325,25.088L161.557,362.645z"/>
		</g>
	</g>
</g>
<g>
</g>
<g>
</g>
<g>
</g>
<g>
</g>
<g>
</g>
<g>
</g>
<g>
</g>
<g>
</g>
<g>
</g>
<g>
</g>
<g>
</g>
<g>
</g>
<g>
</g>
<g>
</g>
<g>
</g>
</svg>
