<?xml version="1.0" encoding="iso-8859-1"?>
<!-- Generator: Adobe Illustrator 19.0.0, SVG Export Plug-In . SVG Version: 6.00 Build 0)  -->
<svg version="1.1" id="Layer_1" xmlns="http://www.w3.org/2000/svg" xmlns:xlink="http://www.w3.org/1999/xlink" x="0px" y="0px"
	 viewBox="0 0 512 512" style="enable-background:new 0 0 512 512;" xml:space="preserve">
<g>
	<g>
		<g>
			<path d="M309.333,181.333h149.333c5.888,0,10.667-4.779,10.667-10.667S464.555,160,458.667,160H309.333
				c-5.888,0-10.667,4.779-10.667,10.667S303.445,181.333,309.333,181.333z"/>
			<path d="M501.333,74.667H10.667C4.779,74.667,0,79.445,0,85.333v341.333c0,5.888,4.779,10.667,10.667,10.667h64
				c5.888,0,10.667-4.779,10.667-10.667c0-1.515,0.555-3.179,1.771-5.205c2.005-3.349,2.005-7.552,0-10.901
				c-1.216-2.048-1.771-3.712-1.771-5.227c0-5.888,4.8-10.667,10.667-10.667c5.867,0,10.667,4.779,10.667,10.667
				c0,1.515-0.555,3.179-1.771,5.205c-2.005,3.349-2.005,7.552,0,10.901c1.216,2.048,1.771,3.712,1.771,5.227
				c0,5.888,4.779,10.667,10.667,10.667h64c5.888,0,10.667-4.779,10.667-10.667c0-1.515,0.555-3.179,1.771-5.205
				c2.005-3.349,2.005-7.552,0-10.901c-1.216-2.048-1.771-3.712-1.771-5.227c0-5.888,4.8-10.667,10.667-10.667
				c5.867,0,10.667,4.779,10.667,10.667c0,1.515-0.555,3.179-1.771,5.205c-2.005,3.349-2.005,7.552,0,10.901
				c1.216,2.048,1.771,3.712,1.771,5.227c0,5.888,4.779,10.667,10.667,10.667h64c5.888,0,10.667-4.779,10.667-10.667
				c0-1.515,0.555-3.179,1.771-5.205c2.005-3.349,2.005-7.552,0-10.901c-1.216-2.048-1.771-3.712-1.771-5.227
				c0-5.888,4.8-10.667,10.667-10.667c5.867,0,10.667,4.779,10.667,10.667c0,1.515-0.555,3.179-1.771,5.205
				c-2.005,3.349-2.005,7.552,0,10.901c1.216,2.048,1.771,3.712,1.771,5.227c0,5.888,4.779,10.667,10.667,10.667h64
				c5.888,0,10.667-4.779,10.667-10.667c0-1.515,0.555-3.179,1.771-5.205c2.005-3.349,2.005-7.552,0-10.901
				c-1.216-2.048-1.771-3.712-1.771-5.227c0-5.888,4.8-10.667,10.667-10.667c5.867,0,10.667,4.779,10.667,10.667
				c0,1.515-0.555,3.179-1.771,5.205c-2.005,3.349-2.005,7.552,0,10.901c1.216,2.048,1.771,3.712,1.771,5.227
				c0,5.888,4.779,10.667,10.667,10.667h64c5.888,0,10.667-4.779,10.667-10.667V85.333C512,79.445,507.221,74.667,501.333,74.667z
				 M490.667,416h-44.736c1.387-3.541,2.069-7.061,2.005-10.667c0-17.643-14.357-32-32-32c-17.643,0-32,14.357-32,32
				c0,3.605,0.704,7.125,2.069,10.667h-46.784c1.387-3.541,2.069-7.061,2.069-10.667c0-17.643-14.357-32-32-32
				c-17.643,0-32,14.357-32,32c0,3.605,0.704,7.125,2.069,10.667h-46.784c1.387-3.541,2.069-7.061,2.069-10.667
				c0-17.643-14.357-32-32-32c-17.643,0-32,14.357-32,32c0,3.605,0.704,7.125,2.069,10.667h-46.784
				c1.387-3.541,2.069-7.061,2.069-10.667c0-17.643-14.357-32-32-32c-17.643,0-32,14.357-32,32c0,3.605,0.704,7.125,2.069,10.667
				H21.333V96h469.333V416z"/>
			<path d="M309.333,245.333h85.333c5.888,0,10.667-4.779,10.667-10.667S400.555,224,394.667,224h-85.333
				c-5.888,0-10.667,4.779-10.667,10.667S303.445,245.333,309.333,245.333z"/>
			<path d="M53.333,352h213.355c5.888,0,10.667-4.779,10.667-10.667c0-26.752-18.112-49.941-44.053-56.427l-28.608-7.168
				c19.499-4.395,29.824-10.368,30.336-10.688c2.944-1.749,4.736-4.928,5.035-8.363c0.299-3.435-1.216-6.912-3.819-9.152
				c-0.149-0.128-14.549-12.971-14.549-56.597c0-44.011-11.392-66.325-33.856-66.325h-0.384c-7.232-6.507-13.696-9.28-27.456-9.28
				c-19.349,0-61.696,19.029-61.696,75.584c0,43.499-14.315,56.405-14.272,56.405c-2.859,2.133-4.437,5.525-4.245,9.067
				c0.171,3.563,2.091,6.784,5.141,8.597c0.533,0.299,10.709,6.336,30.336,10.752l-28.544,7.147
				c-25.92,6.485-44.053,29.696-44.053,56.448c0,2.837,1.109,5.568,3.115,7.552C47.787,350.869,50.496,352,53.333,352z
				 M91.883,305.557L130.112,296c3.819-0.939,6.805-3.925,7.765-7.744l3.968-15.829c0.725-2.923,0.192-6.037-1.515-8.555
				c-1.685-2.496-4.373-4.16-7.381-4.587c-11.093-1.536-19.712-3.84-25.835-5.909c6.08-10.923,12.523-29.739,12.523-60.459
				c0-44.821,33.707-54.251,40.363-54.251c9.472,0,10.539,1.067,15.637,6.144c2.005,1.984,4.715,3.115,7.552,3.115h4.651
				c6.229,0,12.523,13.909,12.523,44.992c0,30.677,6.443,49.493,12.501,60.416c-6.165,2.069-14.784,4.395-25.835,5.931
				c-3.008,0.405-5.675,2.091-7.36,4.587c-1.707,2.517-2.24,5.611-1.515,8.555l3.968,15.851c0.96,3.819,3.925,6.827,7.765,7.765
				l38.229,9.557c12.843,3.221,22.656,12.907,26.325,25.088l-188.885-0.021C69.227,318.485,79.061,308.8,91.883,305.557z"/>
			<path d="M309.333,309.333h149.333c5.888,0,10.667-4.779,10.667-10.667S464.555,288,458.667,288H309.333
				c-5.888,0-10.667,4.779-10.667,10.667S303.445,309.333,309.333,309.333z"/>
		</g>
	</g>
</g>
<g>
</g>
<g>
</g>
<g>
</g>
<g>
</g>
<g>
</g>
<g>
</g>
<g>
</g>
<g>
</g>
<g>
</g>
<g>
</g>
<g>
</g>
<g>
</g>
<g>
</g>
<g>
</g>
<g>
</g>
</svg>
