<?xml version="1.0" encoding="iso-8859-1"?>
<!-- Generator: Adobe Illustrator 19.0.0, SVG Export Plug-In . SVG Version: 6.00 Build 0)  -->
<svg version="1.1" id="Layer_1" xmlns="http://www.w3.org/2000/svg" xmlns:xlink="http://www.w3.org/1999/xlink" x="0px" y="0px"
	 viewBox="0 0 512 512" style="enable-background:new 0 0 512 512;" xml:space="preserve">
<g>
	<g>
		<g>
			<path d="M288.427,42.667h-0.213c-5.888,0-10.56,4.779-10.56,10.667S282.56,64,288.427,64c5.888,0,10.667-4.779,10.667-10.667
				S294.315,42.667,288.427,42.667z"/>
			<path d="M352,384H64V106.667h288c5.888,0,10.667-4.779,10.667-10.667V74.667C362.667,33.493,329.173,0,288,0H117.333
				C76.16,0,42.667,33.493,42.667,74.667v362.667c0,41.173,33.493,74.667,74.667,74.667H288c41.173,0,74.667-33.493,74.667-74.667
				v-42.667C362.667,388.779,357.888,384,352,384z M64,74.667c0-29.397,23.915-53.333,53.333-53.333H288
				c29.419,0,53.333,23.936,53.333,53.333v10.667H64V74.667z M341.333,437.333c0,29.397-23.915,53.333-53.333,53.333H117.333
				C87.915,490.667,64,466.731,64,437.333v-32h277.333V437.333z"/>
			<path d="M224,42.667h-42.667c-5.888,0-10.667,4.779-10.667,10.667S175.445,64,181.333,64H224c5.888,0,10.667-4.779,10.667-10.667
				S229.888,42.667,224,42.667z"/>
			<path d="M425.323,295.552l-32.021-8l-1.344-5.355c8.299-9.173,14.208-20.885,16.661-33.045
				c5.696-2.944,9.813-8.533,10.667-15.253l2.304-18.56c0.704-5.632-1.024-11.307-4.757-15.573
				c-1.152-1.301-2.475-2.453-3.883-3.413l0.533-11.328l1.941-1.941c5.504-5.845,12.949-18.325,1.173-36.331
				C411.008,138.197,399.488,128,376.405,128c-6.805,0-22.144,0-37.035,9.323c-43.904,1.557-49.067,25.216-49.067,43.072
				c0,3.52,0.64,10.112,1.237,15.616c-1.579,1.003-3.029,2.24-4.288,3.669c-3.797,4.309-5.547,10.005-4.821,15.659l2.304,18.56
				c0.875,6.955,5.291,12.715,11.797,15.552c2.389,11.627,7.979,22.891,15.765,31.829l-1.557,6.272l-32.021,8
				c-25.92,6.485-44.053,29.696-44.053,56.448c0,2.837,1.109,5.568,3.115,7.552c2.005,1.984,4.715,3.115,7.552,3.115l213.333-0.021
				c5.888,0,10.667-4.779,10.667-10.667C469.333,325.248,451.2,302.037,425.323,295.552z M257.557,341.312
				c3.669-12.16,13.504-21.845,26.368-25.088l38.229-9.557c3.819-0.96,6.805-3.947,7.765-7.765l4.544-18.197
				c0.939-3.755-0.235-7.723-3.072-10.368c-8.299-7.808-13.803-19.221-14.699-30.528c-0.448-5.525-5.184-8.597-10.752-8.597
				l-2.752-16.981c3.072,0,5.973-1.301,8-3.605c2.027-2.283,2.965-5.333,2.581-8.384c-0.811-6.443-2.112-18.091-2.112-21.845
				c0-11.051,0-21.483,31.189-21.803c2.176-0.021,4.309-0.704,6.101-1.984c10.155-7.275,21.845-7.275,27.456-7.275
				c11.029,0,18.325,2.965,22.336,9.088c4.331,6.635,2.56,8.512,1.365,9.813l-4.629,4.629c-1.877,1.877-2.987,4.373-3.115,7.019
				l-1.131,23.211c-0.128,2.901,0.213,4.928,2.197,7.04c2.005,2.112,4.053,2.539,6.955,2.56l-1.365,17.344
				c-5.568,0-10.176,4.267-10.624,9.813c-0.939,11.499-6.848,23.424-15.424,31.125c-2.923,2.624-4.181,6.677-3.221,10.517
				l4.352,17.429c0.96,3.819,3.925,6.827,7.765,7.765l38.251,9.557c12.843,3.221,22.656,12.907,26.325,25.088L257.557,341.312z"/>
			<path d="M202.667,469.333c11.776,0,21.333-9.557,21.333-21.333s-9.557-21.333-21.333-21.333s-21.333,9.557-21.333,21.333
				S190.891,469.333,202.667,469.333z"/>
		</g>
	</g>
</g>
<g>
</g>
<g>
</g>
<g>
</g>
<g>
</g>
<g>
</g>
<g>
</g>
<g>
</g>
<g>
</g>
<g>
</g>
<g>
</g>
<g>
</g>
<g>
</g>
<g>
</g>
<g>
</g>
<g>
</g>
</svg>
