<?xml version="1.0" encoding="iso-8859-1"?>
<!-- Generator: Adobe Illustrator 19.0.0, SVG Export Plug-In . SVG Version: 6.00 Build 0)  -->
<svg version="1.1" id="Layer_1" xmlns="http://www.w3.org/2000/svg" xmlns:xlink="http://www.w3.org/1999/xlink" x="0px" y="0px"
	 viewBox="0 0 512.003 512.003" style="enable-background:new 0 0 512.003 512.003;" xml:space="preserve">
<g>
	<g>
		<g>
			<path d="M96.003,106.668c29.397,0,53.333-23.936,53.333-53.333S125.401,0.002,96.003,0.002S42.67,23.938,42.67,53.335
				S66.606,106.668,96.003,106.668z M96.003,21.335c17.643,0,32,14.357,32,32c0,17.643-14.357,32-32,32c-17.643,0-32-14.357-32-32
				C64.003,35.692,78.361,21.335,96.003,21.335z"/>
			<path d="M177.603,179.82c-3.349-29.547-26.752-51.819-54.379-51.819H68.74c-27.627,0-51.008,22.272-54.379,51.819L0.238,303.724
				c-1.173,10.368,2.027,20.672,8.768,28.224c5.824,6.507,13.547,10.304,21.909,10.773l11.776,159.403
				c0.427,5.568,5.056,9.877,10.645,9.877h85.333c5.589,0,10.219-4.309,10.603-9.877l11.776-159.403
				c8.363-0.469,16.107-4.245,21.909-10.773c6.763-7.573,9.963-17.856,8.768-28.224L177.603,179.82z M167.065,317.74
				c-1.216,1.365-3.883,3.691-7.808,3.691h-8.085c-5.589,0-10.24,4.309-10.645,9.877l-11.776,159.36H63.235l-11.755-159.36
				c-0.427-5.568-5.056-9.877-10.645-9.877H32.75c-3.925,0-6.571-2.325-7.808-3.691c-2.709-3.051-3.989-7.275-3.499-11.605
				l14.123-123.904c2.133-18.752,16.405-32.896,33.195-32.896h54.485c16.768,0,31.04,14.144,33.195,32.896l14.123,123.904
				C171.054,310.466,169.774,314.69,167.065,317.74z"/>
			<path d="M501.337,0.002H170.67c-5.888,0-10.667,4.779-10.667,10.667s4.779,10.667,10.667,10.667h320v277.333H224.003
				c-5.888,0-10.667,4.779-10.667,10.667s4.779,10.667,10.667,10.667h277.333c5.888,0,10.667-4.779,10.667-10.667V10.668
				C512.003,4.78,507.225,0.002,501.337,0.002z"/>
			<path d="M222.361,250.988l46.229-73.963l33.195,33.195c2.261,2.261,5.44,3.392,8.597,3.072c3.179-0.299,6.059-2.027,7.829-4.693
				l35.456-53.184l12.139,12.139c2.176,2.197,5.141,3.371,8.299,3.093c3.072-0.235,5.909-1.771,7.765-4.245l64-85.333
				c3.541-4.715,2.581-11.392-2.133-14.933c-4.715-3.52-11.392-2.581-14.933,2.133l-56.619,75.499l-12.629-12.629
				c-2.261-2.24-5.269-3.328-8.597-3.072c-3.179,0.299-6.059,2.027-7.829,4.693l-35.456,53.184l-33.472-33.472
				c-2.283-2.304-5.504-3.456-8.747-3.051c-3.221,0.363-6.101,2.176-7.829,4.928l-53.333,85.333
				c-3.115,4.992-1.6,11.584,3.392,14.699c1.771,1.109,3.733,1.621,5.653,1.621C216.878,256.002,220.355,254.231,222.361,250.988z"
				/>
		</g>
	</g>
</g>
<g>
</g>
<g>
</g>
<g>
</g>
<g>
</g>
<g>
</g>
<g>
</g>
<g>
</g>
<g>
</g>
<g>
</g>
<g>
</g>
<g>
</g>
<g>
</g>
<g>
</g>
<g>
</g>
<g>
</g>
</svg>
