<?xml version="1.0" encoding="iso-8859-1"?>
<!-- Generator: Adobe Illustrator 19.0.0, SVG Export Plug-In . SVG Version: 6.00 Build 0)  -->
<svg version="1.1" id="Layer_1" xmlns="http://www.w3.org/2000/svg" xmlns:xlink="http://www.w3.org/1999/xlink" x="0px" y="0px"
	 viewBox="0 0 512.003 512.003" style="enable-background:new 0 0 512.003 512.003;" xml:space="preserve">
<g>
	<g>
		<g>
			<path d="M177.603,179.82c-3.349-29.547-26.752-51.819-54.379-51.819H68.74c-27.627,0-51.008,22.272-54.379,51.819L0.238,303.724
				c-1.173,10.368,2.027,20.672,8.768,28.224c5.824,6.507,13.547,10.304,21.909,10.773l11.776,159.403
				c0.427,5.568,5.056,9.877,10.645,9.877h85.333c5.589,0,10.219-4.309,10.603-9.877l11.776-159.403
				c8.363-0.469,16.107-4.245,21.909-10.773c6.763-7.573,9.963-17.856,8.768-28.224L177.603,179.82z M167.065,317.74
				c-1.216,1.365-3.883,3.691-7.808,3.691h-8.085c-5.589,0-10.24,4.309-10.645,9.877l-11.776,159.36H63.235l-11.755-159.36
				c-0.427-5.568-5.056-9.877-10.645-9.877H32.75c-3.925,0-6.571-2.325-7.808-3.691c-2.709-3.051-3.989-7.275-3.499-11.605
				l14.123-123.904c2.133-18.752,16.405-32.896,33.195-32.896h54.485c16.768,0,31.04,14.144,33.195,32.896l14.123,123.904
				C171.054,310.466,169.774,314.69,167.065,317.74z"/>
			<path d="M96.003,106.668c29.397,0,53.333-23.936,53.333-53.333S125.401,0.002,96.003,0.002S42.67,23.938,42.67,53.335
				S66.606,106.668,96.003,106.668z M96.003,21.335c17.643,0,32,14.357,32,32c0,17.643-14.357,32-32,32c-17.643,0-32-14.357-32-32
				C64.003,35.692,78.361,21.335,96.003,21.335z"/>
			<path d="M458.67,149.335c5.888,0,10.667-4.779,10.667-10.667c0-52.928-43.072-96-96-96c-5.888,0-10.667,4.779-10.667,10.667
				v85.333c0,5.888,4.779,10.667,10.667,10.667H458.67z M384.003,64.77c32.64,4.672,58.539,30.571,63.232,63.232h-63.232V64.77z"/>
			<path d="M501.337,0.002H170.67c-5.888,0-10.667,4.779-10.667,10.667s4.779,10.667,10.667,10.667h320v277.333H224.003
				c-5.888,0-10.667,4.779-10.667,10.667s4.779,10.667,10.667,10.667h277.333c5.888,0,10.667-4.779,10.667-10.667V10.668
				C512.003,4.78,507.225,0.002,501.337,0.002z"/>
			<path d="M330.67,85.335c-52.928,0-96,43.072-96,96c0,52.928,43.072,96,96,96c52.928,0,96-43.072,96-96
				c0-5.888-4.779-10.667-10.667-10.667h-74.667V96.002C341.337,90.114,336.558,85.335,330.67,85.335z M404.569,192.002
				c-5.184,36.139-36.352,64-73.899,64c-41.173,0-74.667-33.493-74.667-74.667c0-37.547,27.861-68.715,64-73.899v73.899
				c0,5.888,4.779,10.667,10.667,10.667H404.569z"/>
		</g>
	</g>
</g>
<g>
</g>
<g>
</g>
<g>
</g>
<g>
</g>
<g>
</g>
<g>
</g>
<g>
</g>
<g>
</g>
<g>
</g>
<g>
</g>
<g>
</g>
<g>
</g>
<g>
</g>
<g>
</g>
<g>
</g>
</svg>
