<?xml version="1.0" encoding="iso-8859-1"?>
<!-- Generator: Adobe Illustrator 19.0.0, SVG Export Plug-In . SVG Version: 6.00 Build 0)  -->
<svg version="1.1" id="Layer_1" xmlns="http://www.w3.org/2000/svg" xmlns:xlink="http://www.w3.org/1999/xlink" x="0px" y="0px"
	 viewBox="0 0 512.811 512.811" style="enable-background:new 0 0 512.811 512.811;" xml:space="preserve">
<g>
	<g>
		<g>
			<path d="M308.139,234.56c4.587,0.725,9.067-1.664,11.115-5.781L337.643,192h25.408c5.888,0,10.667-4.779,10.667-10.667
				s-4.779-10.667-10.667-10.667h-32c-4.032,0-7.723,2.283-9.536,5.888l-6.677,13.333l-15.936-95.637
				c-0.832-4.971-5.035-8.704-10.091-8.917c-5.483-0.021-9.557,3.2-10.773,8.085l-32.32,129.28l-21.653-86.613
				c-1.131-4.544-5.077-7.787-9.749-8.064c-4.523-0.597-8.96,2.517-10.603,6.891l-23.403,62.443l-10.389-20.821
				c-1.813-3.605-5.504-5.888-9.536-5.888h-53.333c-5.888,0-10.667,4.779-10.667,10.667c0,5.888,4.779,10.667,10.667,10.667h46.741
				l18.389,36.779c1.92,3.776,6.059,6.379,10.112,5.867c4.224-0.213,7.936-2.923,9.429-6.891l19.968-53.269l23.701,94.763
				c1.195,4.757,5.461,8.085,10.347,8.085c4.885,0,9.152-3.328,10.325-8.064l30.229-120.917l12.907,77.419
				C299.968,230.336,303.573,233.856,308.139,234.56z"/>
			<path d="M480.405,309.333c0-15.125-31.168-70.912-46.72-97.813c1.429-7.68,4.053-25.237,4.053-51.52
				c0-45.547-60.288-160-202.667-160C95.275,0,32.405,106.048,32.405,181.333c0,53.248,31.445,107.797,56.725,151.616
				c14.72,25.536,28.608,49.643,28.608,61.717c0,27.157-44.16,80.981-61.184,99.435c-3.989,4.331-3.712,11.072,0.619,15.061
				c2.048,1.877,4.651,2.816,7.232,2.816c2.88,0,5.739-1.152,7.829-3.413c6.848-7.381,66.837-73.557,66.837-113.877
				c0-17.792-13.888-41.877-31.467-72.363c-24-41.643-53.867-93.419-53.867-140.971c0-52.203,44.331-160,181.333-160
				c136,0,181.333,109.312,181.333,138.667c0,32.64-4.309,50.581-4.352,50.773c-0.661,2.688-0.256,5.547,1.131,7.936
				c21.461,36.864,45.12,82.069,45.909,90.453c-0.981,2.944-12.032,8.64-23.552,11.072c-2.987,0.619-5.547,2.496-7.061,5.12
				c-1.515,2.645-1.835,5.803-0.875,8.683l8.576,25.749l-5.995,5.995c-2.624,2.624-3.392,6.251-2.709,9.643
				c-1.472,0.704-2.944,1.536-4.352,2.773c-3.072,2.709-6.72,7.787-6.72,16.448c0,8.533,3.584,13.867,6.208,17.771
				c2.581,3.861,4.459,6.656,4.459,14.208c0,8.32-3.2,14.741-44.395,21.483c-28.181,4.608-94.272,28.267-94.272,53.184
				c0,5.888,4.629,11.499,10.517,11.499c5.909,0,10.517-3.947,10.539-9.835c3.776-7.616,41.643-28.075,76.672-33.813
				c26.261-4.267,62.272-10.155,62.272-42.496c0-14.08-4.864-21.312-8.085-26.112c-2.155-3.221-2.581-4.011-3.904-5.973
				c5.931,0.811,11.157-3.413,11.904-9.259c0.277-2.24-0.32-4.331-1.301-6.187l8.917-8.917c2.859-2.859,3.861-7.083,2.581-10.923
				l-7.125-21.397C463.659,333.675,480.405,324.971,480.405,309.333z"/>
		</g>
	</g>
</g>
<g>
</g>
<g>
</g>
<g>
</g>
<g>
</g>
<g>
</g>
<g>
</g>
<g>
</g>
<g>
</g>
<g>
</g>
<g>
</g>
<g>
</g>
<g>
</g>
<g>
</g>
<g>
</g>
<g>
</g>
</svg>
