<?xml version="1.0" encoding="iso-8859-1"?>
<!-- Generator: Adobe Illustrator 19.0.0, SVG Export Plug-In . SVG Version: 6.00 Build 0)  -->
<svg version="1.1" id="Layer_1" xmlns="http://www.w3.org/2000/svg" xmlns:xlink="http://www.w3.org/1999/xlink" x="0px" y="0px"
	 viewBox="0 0 512 512" style="enable-background:new 0 0 512 512;" xml:space="preserve">
<g>
	<g>
		<g>
			<path d="M327.048,316.843c-1.664-0.619-3.307-1.216-5.099-1.664L270.813,302.4l-1.557-6.293
				c34.859-6.4,53.035-16.96,53.845-17.451c2.987-1.771,4.864-4.971,5.12-8.448s-1.28-6.933-3.989-9.131
				c-0.213-0.192-23.723-20.203-23.723-88.981c0-62.464-15.296-94.144-45.44-94.144h-2.624
				c-10.027-9.451-18.475-13.909-39.125-13.909c-27.307,0-87.189,27.2-87.189,108.053c0,68.779-23.488,88.789-23.552,88.853
				c-2.837,2.112-4.437,5.525-4.245,9.067c0.171,3.541,2.091,6.763,5.141,8.597c0.832,0.491,18.816,11.115,53.909,17.536
				l-1.536,6.251l-51.2,12.8c-1.728,0.448-3.371,1.024-6.72,2.261c-5.568,1.92-8.555,7.979-6.635,13.547
				c1.515,4.437,5.653,7.211,10.091,7.211c1.152,0,2.304-0.192,3.456-0.576c0.085-0.043,2.133-0.789,2.219-0.811
				c0.96-0.341,1.899-0.704,2.837-0.96l57.344-14.336c3.819-0.96,6.805-3.947,7.765-7.765l5.909-23.744
				c0.725-2.944,0.192-6.059-1.515-8.555c-1.685-2.496-4.373-4.16-7.381-4.587c-20.992-2.923-36.309-7.637-45.824-11.307
				c9.365-14.229,21.291-42.368,21.291-93.525c0-71.275,52.8-86.72,65.856-86.72c15.808,0,18.688,2.24,27.2,10.816
				c2.005,1.984,4.715,3.115,7.552,3.115h6.955c15.317,0,24.107,26.539,24.107,72.811c0,51.093,11.883,79.232,21.248,93.483
				c-9.579,3.669-24.939,8.384-45.824,11.307c-3.008,0.405-5.675,2.091-7.36,4.587c-1.707,2.517-2.24,5.611-1.515,8.555
				l5.931,23.765c0.96,3.819,3.925,6.827,7.765,7.765l57.301,14.315c1.003,0.256,1.941,0.619,2.901,0.981
				c0.085,0.043,2.133,0.789,2.219,0.811c5.568,1.835,10.581-1.387,12.523-6.869C336.328,325.291,332.509,318.891,327.048,316.843z"
				/>
			<path d="M508.872,493.803L371.293,356.224c34.304-37.867,55.381-87.893,55.381-142.891C426.675,95.701,330.973,0,213.341,0
				S0.008,95.701,0.008,213.333s95.701,213.333,213.333,213.333c54.976,0,105.003-21.077,142.869-55.36l137.579,137.579
				c2.091,2.069,4.821,3.115,7.552,3.115c2.731,0,5.461-1.045,7.531-3.115C513.032,504.725,513.032,497.963,508.872,493.803z
				 M213.341,405.333c-105.877,0-192-86.144-192-192s86.123-192,192-192s192,86.144,192,192S319.219,405.333,213.341,405.333z"/>
		</g>
	</g>
</g>
<g>
</g>
<g>
</g>
<g>
</g>
<g>
</g>
<g>
</g>
<g>
</g>
<g>
</g>
<g>
</g>
<g>
</g>
<g>
</g>
<g>
</g>
<g>
</g>
<g>
</g>
<g>
</g>
<g>
</g>
</svg>
