<?xml version="1.0" encoding="iso-8859-1"?>
<!-- Generator: Adobe Illustrator 19.0.0, SVG Export Plug-In . SVG Version: 6.00 Build 0)  -->
<svg version="1.1" id="Layer_1" xmlns="http://www.w3.org/2000/svg" xmlns:xlink="http://www.w3.org/1999/xlink" x="0px" y="0px"
	 viewBox="0 0 512 512" style="enable-background:new 0 0 512 512;" xml:space="preserve">
<g>
	<g>
		<g>
			<path d="M315.912,313.664L270.813,302.4l-3.477-13.973c13.483-13.973,22.869-32.533,26.133-51.733
				c8.192-3.2,14.315-10.688,15.467-19.84l3.477-27.84c0.853-6.933-1.259-13.931-5.867-19.179c-2.069-2.368-4.544-4.288-7.296-5.696
				l1.088-22.229l4.267-4.288c7.168-7.637,16.832-24,1.152-47.936c-11.157-17.067-29.931-25.707-55.787-25.707
				c-9.877,0-32.469,0-53.888,13.973c-61.845,1.643-69.888,32.448-69.888,59.285c0,5.824,1.237,17.771,2.219,26.389
				c-3.072,1.408-5.867,3.456-8.128,6.059c-4.651,5.291-6.827,12.331-5.952,19.307l3.477,27.84
				c1.237,9.771,8.128,17.643,17.152,20.437c3.264,18.325,12.117,36.203,24.747,49.856l-3.797,15.253l-45.099,11.264
				c-5.696,1.429-9.173,7.211-7.765,12.928c1.408,5.717,7.125,9.152,12.928,7.765l51.307-12.821c3.819-0.96,6.805-3.947,7.765-7.765
				l6.805-27.285c0.939-3.755-0.235-7.723-3.072-10.368c-13.397-12.565-22.272-30.997-23.723-49.28
				c-0.427-5.547-5.056-9.813-10.624-9.813h-2.24c-1.643,0-3.008-1.216-3.221-2.837l-3.477-27.819
				c-0.171-1.259,0.405-2.133,0.789-2.539c0.363-0.427,1.152-1.109,3.883-1.109c3.072,0,5.973-1.301,8-3.605
				c2.027-2.283,2.965-5.355,2.581-8.384c-0.896-7.061-3.2-26.837-3.2-33.451c0-16.704,0-37.504,52.032-38.016
				c2.176-0.021,4.309-0.704,6.101-1.984c14.677-10.517,30.635-11.925,44.309-11.925c18.453,0,30.869,5.248,37.952,16.043
				c8.811,13.461,3.797,18.773,1.365,21.376l-6.955,6.955c-1.877,1.877-2.987,4.395-3.115,7.04l-1.685,34.816
				c-0.149,2.901,0.896,5.717,2.88,7.829s4.736,3.328,7.637,3.349c1.259,0.021,2.048,0.704,2.411,1.109
				c0.427,0.512,0.917,1.344,0.768,2.517l-3.477,27.819c-0.213,1.621-1.6,2.859-3.904,2.859c-5.568,0-10.176,4.267-10.624,9.813
				c-1.493,18.837-10.795,37.632-24.853,50.219c-2.923,2.645-4.181,6.699-3.221,10.539l6.528,26.155
				c0.96,3.819,3.925,6.827,7.765,7.765l51.307,12.821c0.875,0.213,1.728,0.32,2.581,0.32c4.779,0,9.131-3.221,10.325-8.085
				C325.107,320.875,321.629,315.093,315.912,313.664z"/>
			<path d="M508.872,493.803L371.293,356.224c34.304-37.867,55.381-87.893,55.381-142.891C426.675,95.701,330.973,0,213.341,0
				S0.008,95.701,0.008,213.333s95.701,213.333,213.333,213.333c54.976,0,105.003-21.077,142.869-55.36l137.579,137.579
				c2.091,2.069,4.821,3.115,7.552,3.115c2.731,0,5.461-1.045,7.531-3.115C513.032,504.725,513.032,497.963,508.872,493.803z
				 M213.341,405.333c-105.877,0-192-86.144-192-192s86.123-192,192-192s192,86.144,192,192S319.219,405.333,213.341,405.333z"/>
		</g>
	</g>
</g>
<g>
</g>
<g>
</g>
<g>
</g>
<g>
</g>
<g>
</g>
<g>
</g>
<g>
</g>
<g>
</g>
<g>
</g>
<g>
</g>
<g>
</g>
<g>
</g>
<g>
</g>
<g>
</g>
<g>
</g>
</svg>
