<?xml version="1.0" encoding="iso-8859-1"?>
<!-- Generator: Adobe Illustrator 19.0.0, SVG Export Plug-In . SVG Version: 6.00 Build 0)  -->
<svg version="1.1" id="Layer_1" xmlns="http://www.w3.org/2000/svg" xmlns:xlink="http://www.w3.org/1999/xlink" x="0px" y="0px"
	 viewBox="0 0 512 512" style="enable-background:new 0 0 512 512;" xml:space="preserve">
<g>
	<g>
		<g>
			<path d="M302.882,446.507c-5.995-0.491-10.987,4.011-11.392,9.877l-0.917,12.971H225.1l-7.68-107.456
				c-0.405-5.867-5.355-10.56-11.392-9.877c-5.867,0.405-10.304,5.525-9.877,11.392l8.384,117.355
				c0.405,5.568,5.056,9.899,10.645,9.899h85.333c5.589,0,10.24-4.331,10.624-9.899l1.621-22.869
				C313.186,452.011,308.748,446.933,302.882,446.507z"/>
			<path d="M257.847,128c29.397,0,53.333-23.936,53.333-53.333s-23.936-53.333-53.333-53.333s-53.333,23.936-53.333,53.333
				S228.45,128,257.847,128z M257.847,42.667c17.643,0,32,14.357,32,32c0,17.643-14.357,32-32,32c-17.643,0-32-14.357-32-32
				C225.847,57.024,240.204,42.667,257.847,42.667z"/>
			<path d="M231.479,149.333c-5.909,0-11.904,1.045-17.771,3.136c-5.547,1.963-8.448,8.064-6.485,13.611
				c1.984,5.547,8.064,8.469,13.611,6.485c3.584-1.259,7.168-1.899,10.667-1.899h52.672c16.107,0,29.76,12.053,31.765,28.032
				l13.44,107.584c0.683,5.397,5.269,9.344,10.581,9.344c0.427,0,0.875-0.021,1.28-0.085c5.845-0.725,9.984-6.059,9.259-11.904
				l-13.44-107.584c-3.307-26.645-26.069-46.72-52.907-46.72H231.479z"/>
			<path d="M458.658,426.667c-14.549,0-27.413,7.339-35.115,18.517l-95.296-47.637c1.451-4.267,2.411-8.768,2.411-13.525
				c0-4.757-0.96-9.259-2.411-13.525l95.296-47.637c7.701,11.115,20.544,18.475,35.115,18.475c23.531,0,42.667-19.136,42.667-42.667
				c0-23.531-19.136-42.667-42.667-42.667s-42.667,19.136-42.667,42.667c0,1.323,0.277,2.581,0.384,3.883l-99.883,49.941
				c-7.573-6.869-17.515-11.157-28.501-11.157c-23.531,0-42.667,19.136-42.667,42.667c0,23.531,19.136,42.667,42.667,42.667
				c11.008,0,20.949-4.288,28.523-11.157l99.883,49.941c-0.149,1.301-0.405,2.56-0.405,3.883c0,23.531,19.136,42.667,42.667,42.667
				s42.667-19.136,42.667-42.667C501.324,445.803,482.188,426.667,458.658,426.667z M458.658,277.333
				c11.755,0,21.333,9.579,21.333,21.333c0,11.755-9.579,21.333-21.333,21.333s-21.333-9.579-21.333-21.333
				C437.324,286.912,446.903,277.333,458.658,277.333z M287.991,405.333c-11.755,0-21.333-9.579-21.333-21.333
				c0-11.755,9.579-21.333,21.333-21.333s21.333,9.579,21.333,21.333C309.324,395.755,299.746,405.333,287.991,405.333z
				 M458.658,490.667c-11.755,0-21.333-9.579-21.333-21.333c0-11.755,9.579-21.333,21.333-21.333s21.333,9.579,21.333,21.333
				C479.991,481.088,470.412,490.667,458.658,490.667z"/>
			<path d="M106.679,106.667c29.397,0,53.333-23.936,53.333-53.333S136.076,0,106.679,0S53.346,23.936,53.346,53.333
				S77.282,106.667,106.679,106.667z M106.679,21.333c17.643,0,32,14.357,32,32c0,17.643-14.357,32-32,32c-17.643,0-32-14.357-32-32
				C74.679,35.691,89.036,21.333,106.679,21.333z"/>
			<path d="M202.402,303.723l-14.123-123.904C184.93,150.272,161.527,128,133.9,128H79.415c-27.627,0-51.008,22.272-54.379,51.819
				L10.914,303.723c-1.173,10.368,2.027,20.672,8.768,28.224c5.824,6.507,13.547,10.304,21.909,10.773l11.776,159.403
				c0.427,5.568,5.056,9.877,10.645,9.877h85.333c5.589,0,10.219-4.309,10.603-9.877l11.776-159.403
				c8.363-0.469,16.107-4.245,21.909-10.773C200.396,324.373,203.596,314.091,202.402,303.723z M177.74,317.739
				c-1.216,1.365-3.883,3.691-7.808,3.691h-8.085c-5.589,0-10.24,4.309-10.645,9.877l-11.776,159.36H73.911l-11.755-159.36
				c-0.427-5.568-5.056-9.877-10.645-9.877h-8.085c-3.925,0-6.571-2.325-7.808-3.691c-2.709-3.051-3.989-7.275-3.499-11.605
				l14.123-123.904c2.133-18.752,16.405-32.896,33.195-32.896h54.485c16.768,0,31.04,14.144,33.195,32.896l14.123,123.904
				C181.73,310.464,180.45,314.688,177.74,317.739z"/>
		</g>
	</g>
</g>
<g>
</g>
<g>
</g>
<g>
</g>
<g>
</g>
<g>
</g>
<g>
</g>
<g>
</g>
<g>
</g>
<g>
</g>
<g>
</g>
<g>
</g>
<g>
</g>
<g>
</g>
<g>
</g>
<g>
</g>
</svg>
