<?xml version="1.0" encoding="iso-8859-1"?>
<!-- Generator: Adobe Illustrator 19.0.0, SVG Export Plug-In . SVG Version: 6.00 Build 0)  -->
<svg version="1.1" id="Layer_1" xmlns="http://www.w3.org/2000/svg" xmlns:xlink="http://www.w3.org/1999/xlink" x="0px" y="0px"
	 viewBox="0 0 512 512" style="enable-background:new 0 0 512 512;" xml:space="preserve">
<g>
	<g>
		<g>
			<path d="M255.999,106.667c29.419,0,53.333-23.936,53.333-53.333S285.439,0,255.999,0c-29.419,0-53.333,23.936-53.333,53.333
				S226.602,106.667,255.999,106.667z M255.999,21.333c17.643,0,32,14.357,32,32c0,17.643-14.336,32-32,32
				c-17.643,0-32-14.357-32-32C223.999,35.691,238.378,21.333,255.999,21.333z"/>
			<path d="M351.807,392.597l-15.467-78.315c10.645-6.933,16.96-19.861,15.403-33.621l-14.101-100.864
				c-3.349-29.547-26.752-51.819-54.4-51.819h-54.464c-27.648,0-51.051,22.272-54.357,51.541l-14.208,101.419
				c-1.515,13.547,4.8,26.432,15.445,33.344l-15.445,78.315c-0.619,3.115,0.192,6.379,2.219,8.832
				c2.027,2.475,5.077,3.904,8.235,3.904h36.267l17.259,97.856c0.875,5.099,5.312,8.811,10.475,8.811h42.667
				c5.184,0,9.6-3.712,10.475-8.811l17.259-97.856h36.267c3.2,0,6.208-1.429,8.256-3.904
				C351.615,398.976,352.426,395.712,351.807,392.597z M313.813,310.208L328.383,384h-32.235c-5.184,0-9.6,3.712-10.496,8.811
				l-17.259,97.856h-24.747l-17.259-97.856c-0.896-5.099-5.333-8.811-10.496-8.811h-32.235l14.549-73.813
				c1.109-5.525-2.283-10.944-7.744-12.373c-5.909-1.557-9.792-7.765-9.067-14.187l14.187-101.397
				c2.133-18.752,16.405-32.896,33.195-32.896h54.464c16.789,0,31.061,14.144,33.237,33.173l14.101,100.864
				c0.768,6.699-3.136,12.907-9.024,14.464C316.095,299.264,312.703,304.683,313.813,310.208z"/>
		</g>
	</g>
</g>
<g>
</g>
<g>
</g>
<g>
</g>
<g>
</g>
<g>
</g>
<g>
</g>
<g>
</g>
<g>
</g>
<g>
</g>
<g>
</g>
<g>
</g>
<g>
</g>
<g>
</g>
<g>
</g>
<g>
</g>
</svg>
