<?xml version="1.0" encoding="iso-8859-1"?>
<!-- Generator: Adobe Illustrator 19.0.0, SVG Export Plug-In . SVG Version: 6.00 Build 0)  -->
<svg version="1.1" id="Layer_1" xmlns="http://www.w3.org/2000/svg" xmlns:xlink="http://www.w3.org/1999/xlink" x="0px" y="0px"
	 viewBox="0 0 512 512" style="enable-background:new 0 0 512 512;" xml:space="preserve">
<g>
	<g>
		<g>
			<path d="M256.004,106.667c29.419,0,53.333-23.936,53.333-53.333S285.401,0,256.004,0c-29.44,0-53.333,23.936-53.333,53.333
				S226.564,106.667,256.004,106.667z M256.004,21.333c17.643,0,32,14.357,32,32c0,17.643-14.379,32-32,32
				c-17.643,0-32-14.357-32-32C224.004,35.691,238.34,21.333,256.004,21.333z"/>
			<path d="M351.79,303.723l-14.144-123.904C334.276,150.272,310.894,128,283.225,128h-54.464c-27.648,0-51.051,22.293-54.4,51.819
				l-14.144,123.904c-1.173,10.368,2.027,20.672,8.768,28.224c5.803,6.507,13.525,10.304,21.909,10.773l11.776,159.403
				c0.448,5.568,5.056,9.877,10.667,9.877h85.333c5.589,0,10.219-4.309,10.667-9.877l11.776-159.403
				c8.363-0.469,16.107-4.245,21.909-10.773C349.742,324.373,352.942,314.091,351.79,303.723z M327.065,317.739
				c-1.216,1.365-3.883,3.691-7.808,3.691h-8.107c-5.589,0-10.219,4.309-10.645,9.877l-11.776,159.36h-65.493l-11.797-159.36
				c-0.427-5.568-5.056-9.877-10.645-9.877h-8.107c-3.904,0-6.571-2.325-7.808-3.691c-2.709-3.051-3.968-7.275-3.477-11.605
				l14.144-123.904c2.133-18.752,16.405-32.896,33.195-32.896h54.464c16.789,0,31.061,14.144,33.195,32.896l14.144,123.904
				C331.054,310.464,329.774,314.688,327.065,317.739z"/>
		</g>
	</g>
</g>
<g>
</g>
<g>
</g>
<g>
</g>
<g>
</g>
<g>
</g>
<g>
</g>
<g>
</g>
<g>
</g>
<g>
</g>
<g>
</g>
<g>
</g>
<g>
</g>
<g>
</g>
<g>
</g>
<g>
</g>
</svg>
