<?xml version="1.0" encoding="iso-8859-1"?>
<!-- Generator: Adobe Illustrator 19.0.0, SVG Export Plug-In . SVG Version: 6.00 Build 0)  -->
<svg version="1.1" id="Layer_1" xmlns="http://www.w3.org/2000/svg" xmlns:xlink="http://www.w3.org/1999/xlink" x="0px" y="0px"
	 viewBox="0 0 512.032 512.032" style="enable-background:new 0 0 512.032 512.032;" xml:space="preserve">
<g>
	<g>
		<g>
			<path d="M317.728,419.968c2.624-5.269,0.491-11.669-4.779-14.315l-62.827-31.424c-2.987-1.493-6.528-1.493-9.536,0
				l-129.813,64.917l27.712-138.624c0.683-3.477-0.405-7.104-2.923-9.621L33.504,188.843l138.688-18.347
				c3.52-0.469,6.571-2.645,8.149-5.803l65.003-130.325l65.003,130.325c1.579,3.157,4.629,5.333,8.149,5.803l138.688,18.347
				l-48.789,48.789c-4.16,4.16-4.16,10.923,0,15.083c4.16,4.16,10.923,4.16,15.083,0l64.064-64.064
				c2.88-2.88,3.861-7.125,2.56-10.965c-1.301-3.861-4.672-6.635-8.704-7.168l-154.496-20.459L254.88,5.653
				c-3.605-7.211-15.488-7.211-19.093,0l-72.021,144.405L9.27,170.517c-4.032,0.533-7.403,3.307-8.704,7.168
				c-1.301,3.84-0.32,8.085,2.56,10.965l113.301,113.301L85.558,456.363c-0.789,3.968,0.768,8.085,3.989,10.56
				c1.899,1.451,4.203,2.197,6.485,2.197c1.621,0,3.264-0.384,4.757-1.109l144.555-72.299l58.069,29.035
				C308.683,427.413,315.083,425.216,317.728,419.968z"/>
			<path d="M468,444.651l-32.021-7.979l-1.344-5.376c8.32-9.173,14.208-20.885,16.661-33.045c5.675-2.944,9.813-8.555,10.667-15.253
				l2.325-18.539c0.704-5.611-1.045-11.285-4.757-15.552c-1.152-1.323-2.475-2.475-3.904-3.435l0.555-11.307l1.963-1.984
				c5.483-5.824,12.928-18.325,1.152-36.309c-5.611-8.555-17.109-18.752-40.192-18.752c-6.784,0-22.123,0-37.056,9.365
				c-43.904,1.536-49.067,25.195-49.067,43.051c0,3.52,0.64,10.112,1.237,15.616c-1.6,1.003-3.029,2.24-4.288,3.648
				c-3.776,4.288-5.547,9.984-4.843,15.68l2.325,18.539c0.875,6.976,5.291,12.715,11.797,15.552
				c2.411,11.648,7.979,22.912,15.765,31.851l-1.557,6.272l-32.021,7.979c-25.92,6.485-44.032,29.696-44.032,56.448
				c0,2.837,1.109,5.568,3.115,7.552c2.005,1.984,4.715,3.115,7.552,3.115l213.333-0.021c5.888,0,10.667-4.779,10.667-10.667
				C512.032,474.368,493.92,451.157,468,444.651z M300.256,490.432c3.691-12.16,13.504-21.845,26.304-25.067l38.229-9.536
				c3.819-0.96,6.827-3.925,7.765-7.765l4.544-18.197c0.96-3.733-0.235-7.701-3.051-10.368c-8.299-7.787-13.803-19.2-14.699-30.549
				c-0.448-5.525-5.184-8.597-10.752-8.597l-2.731-16.96c3.072,0,5.973-1.323,8-3.605c2.027-2.325,2.965-5.355,2.581-8.405
				c-0.811-6.443-2.112-18.112-2.112-21.867c0-11.029,0-21.461,31.168-21.781c2.176-0.021,4.331-0.704,6.101-1.984
				c10.176-7.296,21.845-7.296,27.456-7.296c16.384,0,20.864,6.848,22.336,9.088c4.352,6.656,2.581,8.533,1.408,9.792l-4.651,4.629
				c-1.877,1.877-3.008,4.395-3.136,7.04l-1.131,23.232c-0.128,2.901,0.235,4.928,2.219,7.04c2.005,2.091,4.075,2.517,6.976,2.539
				l-1.387,17.344c-5.568,0-10.197,4.267-10.645,9.835c-0.917,11.499-6.805,23.445-15.381,31.125
				c-2.944,2.624-4.181,6.677-3.221,10.517l4.373,17.429c0.96,3.819,3.947,6.805,7.765,7.765l38.229,9.536
				c12.843,3.221,22.656,12.928,26.325,25.088L300.256,490.432z"/>
		</g>
	</g>
</g>
<g>
</g>
<g>
</g>
<g>
</g>
<g>
</g>
<g>
</g>
<g>
</g>
<g>
</g>
<g>
</g>
<g>
</g>
<g>
</g>
<g>
</g>
<g>
</g>
<g>
</g>
<g>
</g>
<g>
</g>
</svg>
