<?xml version="1.0" encoding="iso-8859-1"?>
<!-- Generator: Adobe Illustrator 19.0.0, SVG Export Plug-In . SVG Version: 6.00 Build 0)  -->
<svg version="1.1" id="Layer_1" xmlns="http://www.w3.org/2000/svg" xmlns:xlink="http://www.w3.org/1999/xlink" x="0px" y="0px"
	 viewBox="0 0 512 512" style="enable-background:new 0 0 512 512;" xml:space="preserve">
<g>
	<g>
		<g>
			<path d="M309.333,21.333h64c29.397,0,53.333,23.936,53.333,53.333v38.272l-24.469-24.469c-4.16-4.16-10.923-4.16-15.083,0
				c-4.16,4.16-4.16,10.923,0,15.083l42.667,42.667c1.003,1.003,2.176,1.749,3.413,2.261c0.021,0,0.043,0.043,0.064,0.043h0.021
				c1.301,0.533,2.667,0.811,4.053,0.811c1.365,0,2.752-0.277,4.032-0.789c1.28-0.533,2.475-1.301,3.499-2.325l42.667-42.667
				c4.16-4.16,4.16-10.923,0-15.083c-4.16-4.16-10.923-4.16-15.083,0L448,112.917V74.667C448,33.493,414.507,0,373.333,0h-64
				c-5.888,0-10.667,4.779-10.667,10.667S303.445,21.333,309.333,21.333z"/>
			<path d="M225.387,330.667c0-5.888-4.779-10.667-10.667-10.667l-192.448,0.021c4.096-23.189,21.44-42.24,44.928-48.107
				l57.344-14.336c3.819-0.96,6.827-3.947,7.765-7.765l6.827-27.285c0.939-3.755-0.235-7.723-3.051-10.368
				c-13.397-12.587-22.272-30.997-23.723-49.28c-0.448-5.547-5.077-9.813-10.645-9.813h-2.261c-1.643,0-3.029-1.216-3.221-2.837
				l-3.477-27.819c-0.149-1.259,0.427-2.133,0.789-2.56c0.363-0.405,1.173-1.088,3.883-1.088c3.072,0,5.973-1.301,8-3.605
				c2.027-2.283,2.965-5.333,2.581-8.384c-0.896-7.061-3.2-26.837-3.2-33.451c0-16.704,0-37.504,52.032-38.016
				c2.176-0.021,4.331-0.704,6.101-1.984c14.677-10.517,30.635-11.925,44.309-11.925c18.475,0,30.891,5.248,37.952,16.043
				c8.832,13.461,3.84,18.773,1.387,21.376l-6.955,6.955c-1.877,1.877-2.987,4.395-3.115,7.04l-1.685,34.816
				c-0.128,2.901,0.917,5.717,2.901,7.829c1.984,2.112,4.736,3.328,7.637,3.349c1.28,0,2.069,0.704,2.432,1.109
				c0.427,0.491,0.917,1.323,0.768,2.496l-3.477,27.84c-0.213,1.621-1.6,2.837-3.904,2.837c-5.568,0-10.197,4.267-10.645,9.813
				c-1.493,18.56-11.008,37.803-24.853,50.219c-2.944,2.645-4.181,6.699-3.221,10.539l6.549,26.155
				c0.939,3.797,3.925,6.784,7.744,7.744l2.901,0.725c5.611,1.387,11.499-2.027,12.928-7.744c1.109-4.437-0.704-8.917-4.267-11.371
				l-3.669-14.72c13.483-13.973,22.848-32.555,26.133-51.733c8.171-3.2,14.315-10.688,15.445-19.84l3.477-27.819
				c0.875-6.933-1.259-13.909-5.845-19.179c-2.069-2.389-4.565-4.309-7.317-5.717l1.088-22.229l4.267-4.288
				c7.168-7.637,16.832-24,1.152-47.936C251.904,8.64,233.131,0,207.253,0c-9.877,0-32.469,0-53.909,14.016
				c-61.867,1.643-69.888,32.448-69.888,59.285c0,5.824,1.237,17.771,2.219,26.389c-3.072,1.408-5.845,3.456-8.128,6.037
				c-4.651,5.291-6.827,12.309-5.952,19.307l3.477,27.819c1.216,9.771,8.128,17.643,17.152,20.437
				c3.285,18.325,12.139,36.181,24.768,49.856l-3.819,15.253l-51.136,12.779C25.515,260.309,0,292.992,0,330.667
				c0,5.888,4.779,10.667,10.667,10.667H214.72C220.608,341.333,225.387,336.555,225.387,330.667z"/>
			<path d="M138.667,490.667c-29.397,0-53.333-23.936-53.333-53.333v-38.229l24.448,24.448c2.091,2.069,4.821,3.115,7.552,3.115
				c2.731,0,5.461-1.045,7.531-3.115c4.16-4.16,4.16-10.923,0-15.083l-42.667-42.667c-0.939-0.939-2.027-1.579-3.157-2.091
				c-0.107-0.043-0.149-0.192-0.277-0.235c-0.021-0.021-0.064,0-0.085,0c-1.685-0.683-3.499-0.747-5.291-0.533
				c-0.512,0.064-0.981,0.149-1.472,0.277c-1.728,0.469-3.371,1.195-4.736,2.539c-0.021,0.021-0.043,0.021-0.043,0.021l-0.021,0.021
				l-42.645,42.645c-4.16,4.16-4.16,10.923,0,15.083c4.16,4.16,10.923,4.16,15.083,0L64,399.083v38.251
				C64,478.507,97.493,512,138.667,512c5.888,0,10.667-4.779,10.667-10.667C149.333,495.445,144.555,490.667,138.667,490.667z"/>
			<path d="M449.963,421.845l-51.136-12.779l-3.499-13.973c13.483-13.973,22.848-32.555,26.133-51.733
				c8.171-3.2,14.315-10.688,15.445-19.84l3.477-27.819c0.875-6.933-1.259-13.909-5.845-19.179
				c-2.069-2.389-4.565-4.309-7.317-5.717l1.088-22.229l4.267-4.288c7.168-7.616,16.832-23.979,1.152-47.936
				c-11.157-17.045-29.931-25.685-55.808-25.685c-9.877,0-32.469,0-53.909,14.016c-61.867,1.643-69.888,32.448-69.888,59.285
				c0,5.824,1.237,17.771,2.219,26.389c-3.072,1.408-5.845,3.456-8.128,6.037c-4.651,5.291-6.827,12.309-5.952,19.307l3.477,27.819
				c1.216,9.771,8.128,17.643,17.152,20.437c3.285,18.325,12.139,36.203,24.768,49.856l-3.819,15.253l-51.136,12.779
				c-36.523,9.131-62.037,41.813-62.037,79.488c0,2.837,1.109,5.568,3.115,7.552c2.005,1.984,4.715,3.115,7.552,3.115l320-0.021
				c5.888,0,10.667-4.779,10.667-10.667C512,463.637,486.485,430.976,449.963,421.845z M192.939,490.645
				c4.117-23.189,21.44-42.24,44.928-48.107l57.344-14.336c3.819-0.96,6.827-3.947,7.765-7.765l6.827-27.285
				c0.96-3.755-0.235-7.723-3.051-10.368c-13.397-12.565-22.272-30.997-23.723-49.28c-0.448-5.547-5.077-9.813-10.645-9.813h-2.261
				c-1.643,0-3.029-1.216-3.221-2.837l-3.477-27.819c-0.149-1.259,0.427-2.133,0.789-2.56c0.363-0.405,1.173-1.088,3.883-1.088
				c3.072,0,5.973-1.301,8-3.605c2.027-2.283,2.965-5.333,2.581-8.384c-0.896-7.061-3.2-26.837-3.2-33.451
				c0-16.704,0-37.504,52.032-38.016c2.176-0.021,4.331-0.704,6.101-1.984c16.661-11.925,35.349-11.925,44.309-11.925
				c18.475,0,30.891,5.248,37.952,16.043c8.832,13.483,3.84,18.795,1.387,21.397l-6.955,6.955c-1.877,1.877-2.987,4.395-3.115,7.04
				l-1.685,34.816c-0.128,2.901,0.917,5.717,2.901,7.829s4.736,3.328,7.637,3.349c1.28,0,2.069,0.704,2.432,1.109
				c0.427,0.491,0.917,1.323,0.768,2.496l-3.477,27.84c-0.213,1.621-1.6,2.837-3.904,2.837c-5.568,0-10.197,4.267-10.645,9.813
				c-1.493,18.56-11.008,37.803-24.853,50.219c-2.944,2.645-4.181,6.699-3.221,10.539l6.549,26.155
				c0.96,3.797,3.947,6.805,7.765,7.744l57.344,14.336c23.488,5.867,40.811,24.939,44.928,48.128L192.939,490.645z"/>
		</g>
	</g>
</g>
<g>
</g>
<g>
</g>
<g>
</g>
<g>
</g>
<g>
</g>
<g>
</g>
<g>
</g>
<g>
</g>
<g>
</g>
<g>
</g>
<g>
</g>
<g>
</g>
<g>
</g>
<g>
</g>
<g>
</g>
</svg>
