<?xml version="1.0" encoding="iso-8859-1"?>
<!-- Generator: Adobe Illustrator 19.0.0, SVG Export Plug-In . SVG Version: 6.00 Build 0)  -->
<svg version="1.1" id="Layer_1" xmlns="http://www.w3.org/2000/svg" xmlns:xlink="http://www.w3.org/1999/xlink" x="0px" y="0px"
	 viewBox="0 0 490.667 490.667" style="enable-background:new 0 0 490.667 490.667;" xml:space="preserve">
<g>
	<g>
		<g>
			<path d="M480,234.667h-32.533C442.048,131.435,359.232,48.619,256,43.2V10.667C256,4.779,251.221,0,245.333,0
				s-10.667,4.779-10.667,10.667V43.2C131.456,48.619,48.619,131.435,43.2,234.667H10.667C4.779,234.667,0,239.445,0,245.333
				S4.779,256,10.667,256H43.2c5.419,103.211,88.235,186.048,191.467,191.467V480c0,5.888,4.779,10.667,10.667,10.667
				S256,485.888,256,480v-32.533C359.232,442.048,442.048,359.232,447.467,256H480c5.888,0,10.667-4.779,10.667-10.667
				S485.888,234.667,480,234.667z M394.667,256h31.467C420.779,347.456,347.477,420.757,256,426.133v-31.467
				c0-5.888-4.779-10.667-10.667-10.667s-10.667,4.779-10.667,10.667v31.467C143.211,420.779,69.909,347.477,64.533,256H96
				c5.888,0,10.667-4.779,10.667-10.667S101.888,234.667,96,234.667H64.533c5.376-91.456,78.677-164.757,170.133-170.133V96
				c0,5.888,4.779,10.667,10.667,10.667S256,101.888,256,96V64.533c91.456,5.355,164.757,78.656,170.133,170.133h-31.467
				c-5.888,0-10.667,4.779-10.667,10.667S388.779,256,394.667,256z"/>
			<path d="M245.333,128C180.651,128,128,180.629,128,245.333c0,32.299,13.12,61.589,34.325,82.837
				c0.043,0.064,0.064,0.149,0.107,0.192c0.277,0.277,0.619,0.469,0.896,0.747c5.035,4.928,10.475,9.429,16.32,13.397
				c0.768,0.533,1.6,0.96,2.389,1.472c5.632,3.627,11.52,6.848,17.749,9.493c0.789,0.341,1.6,0.555,2.389,0.875
				c6.336,2.517,12.928,4.587,19.755,5.973c0.448,0.085,0.896,0.128,1.323,0.192c7.147,1.365,14.528,2.155,22.08,2.155
				s14.933-0.789,22.08-2.155c0.448-0.085,0.896-0.107,1.323-0.192c6.827-1.387,13.397-3.456,19.755-5.973
				c0.789-0.32,1.6-0.555,2.389-0.875c6.229-2.624,12.117-5.867,17.749-9.493c0.789-0.512,1.6-0.939,2.389-1.472
				c5.845-3.968,11.285-8.491,16.32-13.419c0.277-0.277,0.619-0.448,0.896-0.725c0.064-0.064,0.064-0.128,0.107-0.192
				c21.205-21.227,34.325-50.539,34.325-82.837C362.667,180.629,310.016,128,245.333,128z M302.955,321.621
				c-2.219,1.664-4.416,3.371-6.784,4.821c-1.941,1.216-4.032,2.219-6.059,3.285c-27.733,14.208-61.995,14.187-89.685-0.064
				c-1.963-1.045-3.968-2.005-5.845-3.179c-2.432-1.493-4.715-3.243-7.019-4.971c-1.643-1.237-3.2-2.581-4.757-3.925
				c11.243-24.32,35.563-40.235,62.549-40.235c26.987,0,51.264,15.915,62.528,40.235
				C306.261,318.955,304.661,320.32,302.955,321.621z M213.333,224c0-17.643,14.357-32,32-32s32,14.357,32,32
				c0,17.643-14.357,32-32,32S213.333,241.643,213.333,224z M323.157,301.099c-9.899-16.832-24.811-29.909-42.432-37.504
				c10.923-9.771,17.941-23.829,17.941-39.595c0-29.397-23.915-53.333-53.333-53.333S192,194.603,192,224
				c0,15.765,7.019,29.803,17.941,39.595c-17.621,7.595-32.533,20.672-42.411,37.504c-11.349-15.765-18.197-34.923-18.197-55.765
				c0-52.928,43.072-96,96-96s96,43.072,96,96C341.333,266.176,334.485,285.333,323.157,301.099z"/>
		</g>
	</g>
</g>
<g>
</g>
<g>
</g>
<g>
</g>
<g>
</g>
<g>
</g>
<g>
</g>
<g>
</g>
<g>
</g>
<g>
</g>
<g>
</g>
<g>
</g>
<g>
</g>
<g>
</g>
<g>
</g>
<g>
</g>
</svg>
