<?xml version="1.0" encoding="iso-8859-1"?>
<!-- Generator: Adobe Illustrator 19.0.0, SVG Export Plug-In . SVG Version: 6.00 Build 0)  -->
<svg version="1.1" id="Layer_1" xmlns="http://www.w3.org/2000/svg" xmlns:xlink="http://www.w3.org/1999/xlink" x="0px" y="0px"
	 viewBox="0 0 512.021 512.021" style="enable-background:new 0 0 512.021 512.021;" xml:space="preserve">
<g>
	<g>
		<g>
			<path d="M442.773,348.619L384,333.941l-2.347-9.451c40.256-7.211,61.099-19.349,62.059-19.904
				c2.987-1.771,4.864-4.971,5.12-8.448c0.235-3.477-1.301-6.933-4.011-9.131c-0.299-0.213-27.413-23.083-27.413-101.952
				c0-69.867-16.853-105.28-50.091-105.28h-3.541C352.491,69.088,343.147,64.011,320,64.011c-7.168,0-16.213,1.899-25.451,5.376
				c-5.525,2.069-8.32,8.235-6.229,13.739c2.069,5.504,8.235,8.299,13.739,6.229c9.899-3.712,16.213-4.011,17.941-4.011
				c18.411,0,22.059,2.837,31.872,12.651c2.005,1.984,4.715,3.115,7.552,3.115h7.893c18.283,0,28.757,30.613,28.757,83.947
				c0,59.541,14.208,91.264,24.811,106.645c-10.795,4.267-28.843,10.027-53.888,13.547c-3.008,0.405-5.675,2.091-7.36,4.587
				c-1.707,2.517-2.24,5.611-1.515,8.555l6.72,26.944c0.96,3.819,3.925,6.827,7.765,7.765l65.003,16.235
				c27.733,6.933,48.043,29.76,52.245,57.344H416v21.333l85.355-0.064c5.888,0,10.667-4.779,10.667-10.667
				C512,395.275,483.563,358.816,442.773,348.619z"/>
			<path d="M314.731,348.619l-58.795-14.677l-2.347-9.451c40.256-7.189,61.12-19.349,62.08-19.904
				c2.987-1.771,4.864-4.971,5.12-8.448c0.256-3.477-1.28-6.933-4.011-9.131c-0.277-0.213-27.413-23.083-27.413-101.952
				c0-69.867-16.853-105.28-50.091-105.28h-3.541c-11.285-10.688-20.629-15.765-43.776-15.765
				c-30.507,0-97.387,30.485-97.387,121.045c0,78.869-27.136,101.739-27.264,101.845c-2.837,2.112-4.437,5.525-4.245,9.067
				c0.171,3.541,2.091,6.763,5.141,8.597c0.939,0.576,21.632,12.8,62.144,19.989L128,333.941L69.205,348.64
				C28.437,358.816,0,395.296,0,437.344c0,2.837,1.109,5.568,3.115,7.552c2.005,1.984,4.715,3.115,7.552,3.115l362.645-0.064
				c5.888,0,10.667-4.779,10.667-10.667C383.957,395.275,355.499,358.816,314.731,348.619z M22.123,426.635
				c4.203-27.563,24.533-50.368,52.267-57.323l65.003-16.235c3.819-0.96,6.805-3.947,7.765-7.765l6.72-26.901
				c0.725-2.944,0.192-6.037-1.515-8.555c-1.685-2.496-4.373-4.16-7.381-4.587c-25.131-3.499-43.157-9.28-53.909-13.547
				c10.603-15.36,24.853-47.104,24.853-106.667c0.021-81.963,60.971-99.712,76.075-99.712c18.411,0,22.059,2.837,31.872,12.651
				c2.005,1.984,4.715,3.115,7.552,3.115h7.893c18.283,0,28.757,30.613,28.757,83.947c0,59.52,14.229,91.264,24.832,106.645
				c-10.816,4.267-28.864,10.027-53.909,13.547c-3.008,0.405-5.675,2.091-7.36,4.587c-1.707,2.517-2.24,5.611-1.515,8.555
				l6.72,26.944c0.96,3.819,3.925,6.827,7.765,7.765l65.003,16.235c27.733,6.933,48.043,29.76,52.245,57.344L22.123,426.635z"/>
		</g>
	</g>
</g>
<g>
</g>
<g>
</g>
<g>
</g>
<g>
</g>
<g>
</g>
<g>
</g>
<g>
</g>
<g>
</g>
<g>
</g>
<g>
</g>
<g>
</g>
<g>
</g>
<g>
</g>
<g>
</g>
<g>
</g>
</svg>
