<?xml version="1.0" encoding="iso-8859-1"?>
<!-- Generator: Adobe Illustrator 19.0.0, SVG Export Plug-In . SVG Version: 6.00 Build 0)  -->
<svg version="1.1" id="Layer_1" xmlns="http://www.w3.org/2000/svg" xmlns:xlink="http://www.w3.org/1999/xlink" x="0px" y="0px"
	 viewBox="0 0 512 512" style="enable-background:new 0 0 512 512;" xml:space="preserve">
<g>
	<g>
		<g>
			<path d="M402.048,160.469C387.221,86.635,321.365,32,245.333,32c-88.235,0-160,71.765-160,160c0,3.605,0.149,7.296,0.469,11.2
				C37.653,208.32,0,249.173,0,298.667c0,52.928,43.072,96,96,96h74.667c5.888,0,10.667-4.779,10.667-10.667
				c0-5.888-4.779-10.667-10.667-10.667H96c-41.173,0-74.667-33.493-74.667-74.667S54.827,224,95.317,223.979
				c3.563,0.448,8.107-0.747,10.475-3.499c2.027-2.325,2.944-5.419,2.496-8.491c-1.109-7.659-1.621-14.016-1.621-19.989
				c0-76.459,62.208-138.667,138.667-138.667c68.501,0,127.445,51.157,137.109,118.997c0.747,5.269,6.912,9.003,12.224,9.003
				c52.928,0,96,43.072,96,96c0,52.928-43.072,96-96,96h-32c-5.888,0-10.667,4.779-10.667,10.667
				c0,5.888,4.779,10.667,10.667,10.667h32c64.704,0,117.333-52.651,117.333-117.333C512,215.595,464.085,164.864,402.048,160.469z"
				/>
			<path d="M339.968,412.864l-32.021-7.979l-1.344-5.376c8.32-9.173,14.208-20.885,16.661-33.045
				c5.675-2.944,9.813-8.555,10.667-15.253l2.325-18.539c0.704-5.611-1.045-11.285-4.757-15.552
				c-1.152-1.323-2.475-2.475-3.904-3.435l0.555-11.307l1.963-1.984c5.483-5.824,12.928-18.325,1.152-36.309
				c-5.611-8.555-17.109-18.752-40.192-18.752c-6.784,0-22.123,0-37.056,9.365c-43.904,1.536-49.067,25.195-49.067,43.051
				c0,3.52,0.64,10.112,1.237,15.616c-1.6,1.003-3.029,2.24-4.288,3.648c-3.776,4.288-5.547,9.984-4.843,15.68l2.325,18.539
				c0.875,6.976,5.291,12.715,11.797,15.552c2.411,11.648,7.979,22.912,15.765,31.851l-1.557,6.272l-32.021,7.979
				c-25.92,6.485-44.032,29.696-44.032,56.448c0,2.837,1.109,5.568,3.115,7.552S157.163,480,160,480l213.333-0.021
				c5.888,0,10.667-4.779,10.667-10.667C384,442.581,365.888,419.371,339.968,412.864z M172.224,458.645
				c3.691-12.16,13.504-21.845,26.347-25.067l38.229-9.536c3.819-0.96,6.827-3.925,7.765-7.765l4.544-18.197
				c0.96-3.733-0.235-7.701-3.051-10.368c-8.299-7.787-13.803-19.2-14.699-30.549c-0.448-5.525-5.184-8.597-10.752-8.597
				l-2.731-16.96c3.072,0,5.973-1.323,8-3.605c2.027-2.325,2.965-5.355,2.581-8.405c-0.811-6.443-2.112-18.112-2.112-21.867
				c0-11.029,0-21.461,31.168-21.781c2.176-0.021,4.331-0.704,6.101-1.984c10.176-7.296,21.845-7.296,27.456-7.296
				c16.384,0,20.864,6.827,22.293,9.088c4.352,6.656,2.581,8.533,1.408,9.792l-4.651,4.629c-1.877,1.877-3.008,4.395-3.136,7.04
				l-1.131,23.232c-0.128,2.901,0.235,4.928,2.219,7.04c2.005,2.091,4.075,2.517,6.976,2.539l-1.387,17.344
				c-5.568,0-10.197,4.267-10.645,9.835c-0.917,11.499-6.805,23.445-15.381,31.125c-2.944,2.624-4.181,6.677-3.221,10.517
				l4.373,17.429c0.96,3.819,3.947,6.805,7.765,7.765l38.229,9.536c12.843,3.221,22.656,12.928,26.325,25.088L172.224,458.645z"/>
		</g>
	</g>
</g>
<g>
</g>
<g>
</g>
<g>
</g>
<g>
</g>
<g>
</g>
<g>
</g>
<g>
</g>
<g>
</g>
<g>
</g>
<g>
</g>
<g>
</g>
<g>
</g>
<g>
</g>
<g>
</g>
<g>
</g>
</svg>
