<?xml version="1.0" encoding="iso-8859-1"?>
<!-- Generator: Adobe Illustrator 19.0.0, SVG Export Plug-In . SVG Version: 6.00 Build 0)  -->
<svg version="1.1" id="Layer_1" xmlns="http://www.w3.org/2000/svg" xmlns:xlink="http://www.w3.org/1999/xlink" x="0px" y="0px"
	 viewBox="0 0 512.003 512.003" style="enable-background:new 0 0 512.003 512.003;" xml:space="preserve">
<g>
	<g>
		<g>
			<path d="M96.003,106.668c29.419,0,53.333-23.936,53.333-53.333S125.422,0.002,96.003,0.002
				c-29.419,0-53.333,23.936-53.333,53.333S66.585,106.668,96.003,106.668z M96.003,21.335c17.643,0,32,14.357,32,32
				c0,17.643-14.357,32-32,32c-17.643,0-32-14.357-32-32C64.003,35.692,78.361,21.335,96.003,21.335z"/>
			<path d="M177.646,179.82c-3.349-29.547-26.752-51.819-54.4-51.819H68.782c-27.648,0-51.051,22.293-54.4,51.819L0.238,303.724
				c-1.173,10.368,2.027,20.672,8.768,28.224c5.803,6.507,13.525,10.304,21.909,10.773l11.776,159.403
				c0.427,5.568,5.056,9.877,10.645,9.877h85.333c5.589,0,10.219-4.309,10.667-9.877l11.776-159.403
				c8.363-0.469,16.107-4.245,21.909-10.773c6.741-7.573,9.941-17.856,8.768-28.224L177.646,179.82z M167.086,317.74
				c-1.216,1.365-3.883,3.691-7.808,3.691h-8.107c-5.589,0-10.219,4.309-10.645,9.877l-11.776,159.36H63.257l-11.797-159.36
				c-0.427-5.568-5.056-9.877-10.645-9.877h-8.107c-3.904,0-6.571-2.325-7.808-3.691c-2.709-3.051-3.968-7.275-3.477-11.605
				l14.144-123.904c2.133-18.752,16.405-32.896,33.195-32.896h54.464c16.789,0,31.061,14.144,33.195,32.896l14.144,123.904
				C171.076,310.466,169.795,314.69,167.086,317.74z"/>
			<path d="M266.03,71.084c-3.029-8.491-17.024-8.491-20.075,0l-53.333,149.333c-1.984,5.547,0.917,11.648,6.464,13.632
				c5.589,1.984,11.648-0.917,13.632-6.464l12.715-35.584h61.163l12.715,35.584c1.557,4.373,5.653,7.083,10.027,7.083
				c1.195,0,2.389-0.192,3.563-0.619c5.547-1.984,8.448-8.085,6.464-13.632L266.03,71.084z M233.049,170.668l22.955-64.277
				l22.955,64.277H233.049z"/>
			<path d="M501.337,149.335H426.67v-10.667c0-5.888-4.779-10.667-10.667-10.667c-5.888,0-10.667,4.779-10.667,10.667v10.667
				h-61.269L298.158,7.404c-1.813-5.611-7.744-8.704-13.44-6.869c-5.589,1.813-8.661,7.808-6.848,13.419L395.203,376.62
				c1.451,4.523,5.632,7.381,10.133,7.381c1.088,0,2.197-0.171,3.285-0.512c5.589-1.813,8.661-7.808,6.848-13.419l-24.064-74.368
				c8.896-6.464,17.387-14.357,25.536-22.891c20.48,21.589,41.131,40.683,45.184,44.395c2.048,1.877,4.629,2.795,7.211,2.795
				c2.88,0,5.781-1.173,7.851-3.435c3.989-4.373,3.669-11.093-0.661-15.083c-9.984-9.152-28.373-26.731-45.397-44.715
				c24.299-29.952,42.347-64.277,47.296-86.101h22.912c5.888,0,10.667-4.779,10.667-10.667S507.225,149.335,501.337,149.335z
				 M416.75,240.94c-10.901-12.459-19.797-24-22.891-31.616c-2.197-5.461-8.448-8.085-13.888-5.867
				c-5.44,2.219-8.064,8.448-5.845,13.909c4.245,10.453,15.445,25.024,28.48,39.808c-5.781,6.08-11.861,11.669-18.24,16.768
				l-33.408-103.275h105.6C451.502,187.5,436.995,215.383,416.75,240.94z"/>
		</g>
	</g>
</g>
<g>
</g>
<g>
</g>
<g>
</g>
<g>
</g>
<g>
</g>
<g>
</g>
<g>
</g>
<g>
</g>
<g>
</g>
<g>
</g>
<g>
</g>
<g>
</g>
<g>
</g>
<g>
</g>
<g>
</g>
</svg>
