<?xml version="1.0" encoding="iso-8859-1"?>
<!-- Generator: Adobe Illustrator 19.0.0, SVG Export Plug-In . SVG Version: 6.00 Build 0)  -->
<svg version="1.1" id="Layer_1" xmlns="http://www.w3.org/2000/svg" xmlns:xlink="http://www.w3.org/1999/xlink" x="0px" y="0px"
	 viewBox="0 0 490.667 490.667" style="enable-background:new 0 0 490.667 490.667;" xml:space="preserve">
<g>
	<g>
		<g>
			<path d="M318.656,412.885l-32.021-8l-1.344-5.355c8.299-9.173,14.208-20.885,16.661-33.045
				c5.696-2.944,9.813-8.533,10.667-15.253l2.304-18.56c0.704-5.632-1.024-11.307-4.757-15.573
				c-1.152-1.301-2.475-2.453-3.883-3.413l0.533-11.328l1.941-1.941c5.504-5.845,12.949-18.325,1.173-36.331
				c-5.589-8.555-17.109-18.752-40.192-18.752c-6.805,0-22.144,0-37.035,9.323c-43.904,1.557-49.067,25.216-49.067,43.072
				c0,3.52,0.64,10.112,1.237,15.616c-1.579,1.003-3.029,2.24-4.288,3.669c-3.797,4.309-5.547,10.005-4.821,15.659l2.304,18.56
				c0.875,6.955,5.291,12.715,11.797,15.552c2.389,11.627,7.979,22.891,15.765,31.829l-1.557,6.272l-32.021,8
				C146.133,419.371,128,442.581,128,469.333c0,2.837,1.109,5.568,3.115,7.552c2.005,1.984,4.715,3.115,7.552,3.115l213.376-0.021
				c5.888,0,10.667-4.779,10.667-10.667C362.709,442.56,344.597,419.371,318.656,412.885z M150.891,458.645
				c3.669-12.16,13.504-21.845,26.389-25.088L215.509,424c3.819-0.96,6.805-3.947,7.765-7.765l4.544-18.197
				c0.939-3.755-0.235-7.723-3.072-10.368c-8.299-7.808-13.803-19.221-14.699-30.528c-0.448-5.525-5.184-8.597-10.752-8.597
				l-2.752-16.981c3.072,0,5.973-1.301,8-3.605c2.027-2.283,2.965-5.333,2.581-8.384c-0.811-6.443-2.112-18.091-2.112-21.845
				c0-11.051,0-21.483,31.189-21.803c2.176-0.021,4.309-0.704,6.101-1.984c10.155-7.275,21.845-7.275,27.456-7.275
				c11.029,0,18.325,2.965,22.336,9.088c4.331,6.635,2.56,8.512,1.365,9.813l-4.629,4.629c-1.877,1.877-2.987,4.373-3.115,7.019
				l-1.131,23.211c-0.128,2.901,0.213,4.928,2.197,7.04c2.005,2.112,4.053,2.539,6.955,2.56l-1.365,17.344
				c-5.568,0-10.176,4.267-10.624,9.813c-0.939,11.499-6.848,23.424-15.424,31.125c-2.923,2.624-4.181,6.677-3.221,10.517
				l4.352,17.429c0.96,3.819,3.925,6.827,7.765,7.765l38.229,9.557c12.843,3.221,22.656,12.907,26.325,25.088L150.891,458.645z"/>
			<path d="M445.995,57.771c-3.456-4.779-10.112-5.845-14.891-2.389l-165.76,119.701c-12.117,8.768-27.883,8.768-40,0L59.584,55.381
				c-4.757-3.456-11.435-2.411-14.891,2.389c-3.456,4.779-2.389,11.435,2.389,14.891l165.76,119.701
				c9.728,7.019,21.099,10.517,32.491,10.517c11.392,0,22.763-3.52,32.512-10.517l165.76-119.701
				C448.363,69.227,449.451,62.549,445.995,57.771z"/>
			<path d="M338.197,184.469c-4.16-4.16-10.923-4.16-15.083,0c-4.16,4.16-4.16,10.923,0,15.083l106.667,106.667
				c2.091,2.069,4.821,3.115,7.552,3.115c2.731,0,5.461-1.045,7.531-3.115c4.16-4.16,4.16-10.923,0-15.083L338.197,184.469z"/>
			<path d="M437.333,10.667h-384C23.915,10.667,0,34.603,0,64v234.667C0,328.064,23.915,352,53.333,352h85.333
				c5.888,0,10.667-4.779,10.667-10.667c0-5.888-4.779-10.667-10.667-10.667H53.333c-17.643,0-32-14.357-32-32V64
				c0-17.643,14.357-32,32-32h384c17.643,0,32,14.357,32,32v234.667c0,17.643-14.357,32-32,32H352
				c-5.888,0-10.667,4.779-10.667,10.667c0,5.888,4.779,10.667,10.667,10.667h85.333c29.419,0,53.333-23.936,53.333-53.333V64
				C490.667,34.603,466.752,10.667,437.333,10.667z"/>
			<path d="M45.781,306.219c2.091,2.069,4.821,3.115,7.552,3.115s5.461-1.045,7.531-3.115l106.667-106.667
				c4.16-4.16,4.16-10.923,0-15.083c-4.16-4.16-10.923-4.16-15.083,0L45.781,291.136C41.621,295.296,41.621,302.059,45.781,306.219z
				"/>
		</g>
	</g>
</g>
<g>
</g>
<g>
</g>
<g>
</g>
<g>
</g>
<g>
</g>
<g>
</g>
<g>
</g>
<g>
</g>
<g>
</g>
<g>
</g>
<g>
</g>
<g>
</g>
<g>
</g>
<g>
</g>
<g>
</g>
</svg>
