<?xml version="1.0" encoding="iso-8859-1"?>
<!-- Generator: Adobe Illustrator 19.0.0, SVG Export Plug-In . SVG Version: 6.00 Build 0)  -->
<svg version="1.1" id="Layer_1" xmlns="http://www.w3.org/2000/svg" xmlns:xlink="http://www.w3.org/1999/xlink" x="0px" y="0px"
	 viewBox="0 0 512.043 512.043" style="enable-background:new 0 0 512.043 512.043;" xml:space="preserve">
<g>
	<g>
		<g>
			<path d="M467.989,402.219l-32.021-7.979l-1.344-5.376c8.299-9.173,14.208-20.885,16.661-33.045
				c5.696-2.944,9.835-8.555,10.667-15.275l2.304-18.517c0.704-5.611-1.024-11.307-4.757-15.573
				c-1.152-1.301-2.475-2.453-3.904-3.413l0.555-11.328l1.941-1.963c5.504-5.824,12.949-18.325,1.173-36.309
				c-5.589-8.533-17.088-18.752-40.192-18.752c-6.805,0-22.144,0-37.035,9.365c-43.904,1.536-49.067,25.195-49.067,43.051
				c0,3.52,0.64,10.112,1.237,15.637c-1.579,1.003-3.029,2.24-4.288,3.669c-3.797,4.288-5.547,9.984-4.821,15.616l2.304,18.56
				c0.875,6.955,5.291,12.715,11.797,15.552c2.389,11.648,7.957,22.891,15.765,31.851l-1.557,6.272l-32.021,7.979
				c-25.92,6.485-44.053,29.696-44.053,56.448c0,2.837,1.109,5.568,3.115,7.552c2.005,1.984,4.715,3.115,7.552,3.115l213.376-0.021
				c5.888,0,10.667-4.779,10.667-10.667C512.043,431.936,493.931,408.725,467.989,402.219z M300.224,448
				c3.669-12.16,13.504-21.845,26.368-25.067l38.229-9.536c3.819-0.96,6.805-3.925,7.765-7.765l4.544-18.197
				c0.939-3.733-0.235-7.701-3.072-10.347c-8.299-7.829-13.781-19.243-14.699-30.549c-0.448-5.547-5.184-8.597-10.752-8.597
				l-2.752-16.981c3.072,0,5.973-1.323,8-3.605c2.027-2.325,2.965-5.355,2.581-8.405c-0.811-6.443-2.112-18.112-2.112-21.867
				c0-11.029,0-21.461,31.189-21.781c2.176-0.021,4.309-0.704,6.101-2.005c10.155-7.275,21.845-7.275,27.456-7.275
				c16.384,0,20.843,6.827,22.357,9.088c4.331,6.656,2.56,8.533,1.365,9.813l-4.629,4.629c-1.877,1.877-2.987,4.373-3.115,7.019
				l-1.131,23.232c-0.128,2.901,0.213,4.928,2.197,7.04c2.005,2.112,4.053,2.517,6.955,2.56l-1.365,17.323
				c-5.568,0-10.176,4.267-10.624,9.813c-0.939,11.52-6.848,23.467-15.424,31.147c-2.923,2.624-4.181,6.677-3.221,10.517
				l4.352,17.429c0.96,3.819,3.925,6.805,7.765,7.765l38.229,9.536c12.843,3.221,22.656,12.907,26.325,25.088L300.224,448z"/>
			<path d="M74.667,320.021H224c5.888,0,10.667-4.779,10.667-10.667s-4.779-10.667-10.667-10.667H74.667
				c-5.888,0-10.667,4.779-10.667,10.667S68.779,320.021,74.667,320.021z"/>
			<path d="M74.667,277.355H160c5.888,0,10.667-4.779,10.667-10.667s-4.779-10.667-10.667-10.667H74.667
				C68.779,256.021,64,260.8,64,266.688S68.779,277.355,74.667,277.355z"/>
			<path d="M298.667,373.355c0-5.888-4.779-10.667-10.667-10.667H53.333c-17.643,0-32-14.357-32-32V192.021H448v21.333
				c0,5.888,4.779,10.667,10.667,10.667c5.888,0,10.667-4.779,10.667-10.667V96.021c0-29.419-23.915-53.333-53.333-53.333H53.333
				C23.915,42.688,0,66.603,0,96.021v234.667c0,29.419,23.915,53.333,53.333,53.333H288
				C293.888,384.021,298.667,379.243,298.667,373.355z M21.333,96.021c0-17.643,14.357-32,32-32H416c17.643,0,32,14.357,32,32
				v10.667H21.333V96.021z M21.333,128.021H448v42.667H21.333V128.021z"/>
		</g>
	</g>
</g>
<g>
</g>
<g>
</g>
<g>
</g>
<g>
</g>
<g>
</g>
<g>
</g>
<g>
</g>
<g>
</g>
<g>
</g>
<g>
</g>
<g>
</g>
<g>
</g>
<g>
</g>
<g>
</g>
<g>
</g>
</svg>
