<?xml version="1.0" encoding="iso-8859-1"?>
<!-- Generator: Adobe Illustrator 19.0.0, SVG Export Plug-In . SVG Version: 6.00 Build 0)  -->
<svg version="1.1" id="Layer_1" xmlns="http://www.w3.org/2000/svg" xmlns:xlink="http://www.w3.org/1999/xlink" x="0px" y="0px"
	 viewBox="0 0 512.016 512.016" style="enable-background:new 0 0 512.016 512.016;" xml:space="preserve">
<g>
	<g>
		<path d="M472.392,64.464l-213.333-64c-2.005-0.619-4.117-0.619-6.123,0l-213.333,64c-4.501,1.365-7.595,5.504-7.595,10.219
			v234.667c0,39.979,25.963,78.037,61.632,110.507c0.256,0.213,0.384,0.512,0.661,0.725c0.043,0.021,0.085,0.021,0.128,0.043
			c48.363,43.755,114.304,77.184,158.421,90.923c1.003,0.299,2.091,0.469,3.157,0.469s2.155-0.171,3.157-0.469
			c48.128-14.997,122.389-53.397,171.285-103.104c0.149-0.149,0.363-0.192,0.512-0.363c0.192-0.213,0.256-0.469,0.448-0.704
			c28.8-29.568,48.597-63.083,48.597-98.027V74.683C480.008,69.968,476.915,65.829,472.392,64.464z M256.008,490.171
			c-44.821-14.507-99.392-43.776-140.672-79.232c9.195-9.856,20.821-17.003,33.749-20.245l65.003-16.256
			c3.819-0.96,6.805-3.925,7.765-7.765l6.72-26.901c0.725-2.923,0.192-6.037-1.515-8.533c-1.685-2.517-4.373-4.181-7.381-4.608
			c-25.131-3.499-43.157-9.28-53.888-13.547c10.581-15.381,24.832-47.104,24.832-106.688c0-81.963,60.971-99.712,76.053-99.712
			c18.411,0,22.059,2.837,31.893,12.651c2.005,1.984,4.715,3.115,7.552,3.115h7.893c18.283,0,28.757,30.613,28.757,83.947
			c0,59.52,14.208,91.243,24.811,106.645c-10.795,4.267-28.843,10.048-53.888,13.547c-3.008,0.427-5.675,2.091-7.36,4.608
			c-1.707,2.496-2.24,5.589-1.515,8.533l6.72,26.944c0.96,3.819,3.925,6.805,7.765,7.765l65.003,16.256
			c8.192,2.048,15.68,6.123,22.677,11.029C364.851,441.339,304.669,474.448,256.008,490.171z M458.675,309.349
			c0,25.835-14.336,52.096-36.288,76.587c-9.856-7.488-21.035-12.971-32.939-15.957l-58.795-14.677l-2.347-9.429
			c40.256-7.189,61.12-19.371,62.059-19.904c2.987-1.792,4.885-4.992,5.12-8.469c0.235-3.477-1.301-6.912-4.011-9.131
			c-0.299-0.213-27.413-23.104-27.413-101.952c0-69.867-16.853-105.28-50.091-105.28h-3.541
			c-11.285-10.709-20.629-15.765-43.776-15.765c-30.507,0-97.387,30.485-97.387,121.045c0,78.848-27.115,101.717-27.243,101.824
			c-2.859,2.155-4.437,5.547-4.245,9.088c0.171,3.541,2.091,6.763,5.141,8.597c0.939,0.576,21.611,12.779,62.123,19.989
			l-2.347,9.387l-58.795,14.677c-16.981,4.267-32.213,13.653-44.224,26.539c-27.627-27.392-46.336-57.557-46.336-87.168V82.619
			l202.667-60.8l202.667,60.8V309.349z"/>
	</g>
</g>
<g>
</g>
<g>
</g>
<g>
</g>
<g>
</g>
<g>
</g>
<g>
</g>
<g>
</g>
<g>
</g>
<g>
</g>
<g>
</g>
<g>
</g>
<g>
</g>
<g>
</g>
<g>
</g>
<g>
</g>
</svg>
