<?xml version="1.0" encoding="iso-8859-1"?>
<!-- Generator: Adobe Illustrator 19.0.0, SVG Export Plug-In . SVG Version: 6.00 Build 0)  -->
<svg version="1.1" id="Layer_1" xmlns="http://www.w3.org/2000/svg" xmlns:xlink="http://www.w3.org/1999/xlink" x="0px" y="0px"
	 viewBox="0 0 512.016 512.016" style="enable-background:new 0 0 512.016 512.016;" xml:space="preserve">
<g>
	<g>
		<path d="M472.392,64.464l-213.333-64c-2.005-0.619-4.117-0.619-6.123,0l-213.333,64c-4.501,1.365-7.595,5.504-7.595,10.219
			v234.667c0,35.029,19.883,68.608,48.768,98.219c0.149,0.171,0.192,0.384,0.341,0.533c0.107,0.128,0.277,0.149,0.384,0.277
			c48.896,49.749,123.179,88.192,171.349,103.168c1.024,0.299,2.091,0.469,3.157,0.469s2.133-0.171,3.157-0.469
			c44.117-13.739,110.101-47.211,158.464-90.965c0,0,0.021,0,0.043-0.021c0.085-0.064,0.107-0.149,0.192-0.192
			c35.925-32.576,62.144-70.827,62.144-111.019V74.683C480.008,69.968,476.915,65.829,472.392,64.464z M256.008,490.171
			c-48.661-15.744-108.821-48.832-150.933-88.427c6.997-4.928,14.485-9.003,22.699-11.029l64.981-16.256
			c3.819-0.96,6.827-3.925,7.765-7.765l7.723-30.912c0.939-3.733-0.235-7.701-3.051-10.347
			c-15.424-14.485-25.643-35.712-27.328-56.768c-0.448-5.547-5.077-9.813-10.645-9.813h-2.56c-2.56,0-4.736-1.92-5.056-4.48
			l-3.947-31.552c-0.256-1.984,0.661-3.371,1.237-4.011c0.576-0.64,1.835-1.728,5.461-1.728c3.072,0,5.973-1.323,8-3.605
			c2.027-2.325,2.965-5.355,2.581-8.405c-1.003-8.021-3.648-30.528-3.648-38.08c0-19.563,0-43.947,60.395-44.523
			c2.176-0.021,4.331-0.704,6.101-2.005c16.981-12.139,35.349-13.781,51.051-13.781c21.163,0,36.032,6.336,44.203,18.837
			c9.365,14.272,5.824,21.291,1.365,26.027l-7.872,7.893c-1.877,1.877-2.987,4.373-3.115,7.019l-1.92,39.467
			c-0.128,2.901,0.917,5.717,2.901,7.829c1.963,2.091,4.736,3.307,7.637,3.349c2.005,0.021,3.243,1.109,3.797,1.749
			c0.555,0.661,1.451,2.005,1.216,3.947l-3.947,31.552c-0.32,2.539-2.475,4.459-5.824,4.459c-5.568,0-10.197,4.267-10.645,9.835
			c-1.728,21.696-12.416,43.328-28.629,57.877c-2.944,2.645-4.181,6.677-3.221,10.517l7.403,29.632
			c0.96,3.819,3.947,6.805,7.765,7.765l64.981,16.256c12.949,3.221,24.576,10.389,33.771,20.224
			C355.443,446.395,300.851,475.685,256.008,490.171z M458.675,309.349c0,29.611-18.709,59.776-46.336,87.189
			c-12.011-12.907-27.243-22.315-44.267-26.581l-58.773-14.677l-4.352-17.408c15.573-15.915,26.325-37.269,29.909-59.243
			c9.173-3.307,16.107-11.499,17.365-21.632l3.947-31.552c0.939-7.445-1.365-14.955-6.293-20.629
			c-2.432-2.773-5.397-4.992-8.683-6.528l1.323-26.688l5.184-5.205c9.6-10.176,17.579-27.541,1.173-52.565
			c-12.373-18.901-33.237-28.48-62.059-28.48c-11.115,0-36.587,0-60.587,15.851c-69.248,1.728-78.229,35.989-78.229,65.792
			c0,6.763,1.493,20.992,2.624,30.763c-3.669,1.536-6.997,3.861-9.664,6.912c-5.035,5.696-7.36,13.248-6.421,20.8l3.947,31.531
			c1.344,10.837,9.152,19.477,19.264,22.229c3.563,21.099,13.76,41.685,28.373,57.237l-4.715,18.859L122.632,370
			c-11.925,2.965-23.104,8.469-32.96,15.979c-21.995-24.491-36.331-50.773-36.331-76.629V82.619l202.667-60.8l202.667,60.8V309.349z
			"/>
	</g>
</g>
<g>
</g>
<g>
</g>
<g>
</g>
<g>
</g>
<g>
</g>
<g>
</g>
<g>
</g>
<g>
</g>
<g>
</g>
<g>
</g>
<g>
</g>
<g>
</g>
<g>
</g>
<g>
</g>
<g>
</g>
</svg>
