<svg xmlns="http://www.w3.org/2000/svg" width="1919.965" height="1899.896" viewBox="0 0 1919.965 1899.896"><g transform="translate(0 -100.052)"><path d="M17942.23,126.079s34.293,229.7-141.492,490.54c-71.557,106.182-330.768,207.287-425.418,324.333-134.248,166.012-32.367,475.393-263.568,599.795s-321.965,364.082-342.93,484.864c221.23,0,1919.965.273,1919.965.273l-.006-1899.9" transform="translate(-16768.822 -25.934)" fill="#f7f7ff"/><g transform="translate(87.25 1404.491) rotate(-52)"><path d="M240.468,92.483V242.334h-92.53V151.5H96.61v90.835H0V92.483L120.234,0Z" transform="translate(54.546 49.905)" fill="#f7f7ff"/><path d="M300.052,96.372V32.995H249.416V57.417L174.78,0,0,134.459l36.617,47.595L174.78,75.77,312.943,182.053l36.617-47.594Z" transform="translate(0 0)" fill="#f7f7ff"/><path d="M120.234,92.483V242.334H27.7V151.5H0V0Z" transform="translate(174.78 49.905)" fill="#f7f7ff"/><path d="M174.78,134.459l-36.617,47.595L0,75.77V0L74.635,57.417V32.995h50.636V96.372Z" transform="translate(174.78 0)" fill="#f7f7ff"/></g></g></svg>