<svg xmlns="http://www.w3.org/2000/svg" width="30" height="30" viewBox="0 0 30 30"><defs><style>.a{fill:#7d85ff;stroke:#f1f1f1;stroke-width:3px;}.b{fill:#f1f1f1;}.c{stroke:none;}.d{fill:none;}</style></defs><g transform="translate(-271.528 -687.528)"><g class="a" transform="translate(271.528 687.528)"><circle class="c" cx="15" cy="15" r="15"/><circle class="d" cx="15" cy="15" r="13.5"/></g><path class="b" d="M5.3,76.508.229,71.436a.78.78,0,0,1,0-1.1l1.1-1.1a.78.78,0,0,1,1.1,0l3.417,3.417,7.319-7.319a.78.78,0,0,1,1.1,0l1.1,1.1a.78.78,0,0,1,0,1.1L6.4,76.508a.78.78,0,0,1-1.1,0Z" transform="translate(278.961 631.848)"/></g></svg>