<svg xmlns="http://www.w3.org/2000/svg" width="83.555" height="58.45" viewBox="0 0 83.555 58.45"><g transform="translate(-897.08 -237.164)"><g transform="translate(897.08 237.164)"><g transform="translate(0 0)"><path d="M83.538,107.813c-.1-2.314-2.364-4.162-6.742-5.494a48.033,48.033,0,0,0-12.369-1.731V82.825a1.8,1.8,0,0,0-.25-.832c-.466-2.014-2.714-3.646-6.692-4.844A49.564,49.564,0,0,0,43.7,75.4a48.32,48.32,0,0,0-13.651,1.748c-3.013.932-6.626,2.664-6.626,5.644a3.066,3.066,0,0,0,.05.549l.183,7.591a19.921,19.921,0,1,0,8.823,35.027,49.23,49.23,0,0,0,10.655,1.165c.849,4.611,10.838,6.726,20.144,6.726a47.644,47.644,0,0,0,13.651-1.781c3.013-.932,6.626-2.68,6.626-5.66V108.129A2.016,2.016,0,0,0,83.538,107.813ZM60.947,92.031c0,.216-.8,1.365-4.412,2.464A47.12,47.12,0,0,1,43.717,96.11,47.627,47.627,0,0,1,32.38,94.861c-.05-.017-.083-.017-.133-.033a19.206,19.206,0,0,0-5.211-2.947l-.117-4.695a18.446,18.446,0,0,0,3.6,1.382,49.206,49.206,0,0,0,13.2,1.615A49.65,49.65,0,0,0,57.5,88.435a19.968,19.968,0,0,0,3.613-1.448v4.362A.956.956,0,0,0,60.947,92.031Zm-29.9-11.67A44.969,44.969,0,0,1,43.7,78.746a46.479,46.479,0,0,1,12.819,1.615c3.613,1.1,4.412,2.231,4.412,2.447,0,.233-.816,1.382-4.428,2.464a47.043,47.043,0,0,1-12.8,1.6,45.708,45.708,0,0,1-12.269-1.5c-3.579-1.032-4.578-2.164-4.661-2.53,0-.033-.017-.033-.017-.033C26.77,82.492,27.535,81.426,31.048,80.361Zm.05,42.419A16.593,16.593,0,1,1,19.927,93.929a16.957,16.957,0,0,1,4.911.732,16.661,16.661,0,0,1,11.354,12.5,17.411,17.411,0,0,1,.333,3.346A16.5,16.5,0,0,1,31.1,122.78Zm4.229.366a20.1,20.1,0,0,0,3.2-5.477c1.415.117,2.88.2,4.412.216v.3l.1,5.644A52,52,0,0,1,35.327,123.146Zm4.445-14.617c.966.067,1.981.1,3.013.116l.1,5.893c-1.165-.017-2.314-.067-3.413-.15a20.463,20.463,0,0,0,.383-3.9C39.855,109.844,39.821,109.195,39.772,108.529Zm4.1-3.2H43.7c-1.6,0-3.146-.067-4.578-.166a19.736,19.736,0,0,0-2.98-6.193,59.952,59.952,0,0,0,7.541.483,49.687,49.687,0,0,0,13.8-1.748,21.023,21.023,0,0,0,3.6-1.432v4.362C53.939,100.838,46.6,102.336,43.867,105.333Zm2.2,2.647a.126.126,0,0,1,.017-.067c.15-.449,1.332-1.548,4.778-2.514a45.308,45.308,0,0,1,11.87-1.415h.283a46.657,46.657,0,0,1,12.819,1.582c3.546,1.065,4.378,2.164,4.4,2.414V108c-.017.25-.849,1.4-4.545,2.5a46.246,46.246,0,0,1-12.652,1.565,46.44,46.44,0,0,1-12.269-1.482c-3.579-1.032-4.561-2.181-4.661-2.53Zm29.9,20.926a44.448,44.448,0,0,1-12.669,1.631,45.3,45.3,0,0,1-12.636-1.582c-3.513-1.082-4.245-2.2-4.245-2.447v-.033l-.083-4.828a21.693,21.693,0,0,0,4.145,1.515,51.234,51.234,0,0,0,12.5,1.432,49.229,49.229,0,0,0,13.751-1.748,21.334,21.334,0,0,0,3.5-1.415v4.994h.017C80.242,126.658,79.476,127.807,75.964,128.906Zm4.3-12.253h-.017c0,.167-.1.366-.1.549,0,.233-.782,1.365-4.378,2.464A46.061,46.061,0,0,1,63,121.265c-9.223,0-15.432-2.081-16.731-3.7l-.017-1.4-.067-3.829a20.422,20.422,0,0,0,3.629,1.4,49.206,49.206,0,0,0,13.2,1.615,49.83,49.83,0,0,0,13.6-1.7,19.063,19.063,0,0,0,3.646-1.432Z" transform="translate(0 -75.4)" fill="#0b8489"/></g></g><text transform="matrix(-1, 0, 0, 1, 929.399, 283)" fill="#0b8489" font-size="40" font-family="Montserrat-Medium, Montserrat" font-weight="500"><tspan x="0" y="0">e</tspan></text></g></svg>