<svg xmlns="http://www.w3.org/2000/svg" width="75" height="75" viewBox="0 0 75 75"><g transform="translate(0 0)"><g transform="translate(0)"><circle cx="37.5" cy="37.5" r="37.5" fill="#eb626e"/></g></g><path d="M140.7,153.733a37.233,37.233,0,0,0-1.014-8.655l-8.805-8.694L77.712,172.535,94.9,189.846a37.163,37.163,0,0,0,45.8-36.113Z" transform="translate(-66.364 -116.542)" fill="#d63946"/><path d="M113.288,161.327H67.035a5.153,5.153,0,0,1-5.049-5.223V125.881a5.153,5.153,0,0,1,5.049-5.223h46.254a5.153,5.153,0,0,1,5.049,5.223V156.1A5.153,5.153,0,0,1,113.288,161.327Z" transform="translate(-52.99 -103.167)" fill="#4398d1"/><path d="M284.14,125.883v30.223a5.149,5.149,0,0,1-5.042,5.223H256V120.66h23.1A5.149,5.149,0,0,1,284.14,125.883Z" transform="translate(-218.793 -103.169)" fill="#3e8cc7"/><path d="M61.986,176.15h56.351v7.933H61.986Z" transform="translate(-52.99 -150.063)" fill="#4f4f4f"/><path d="M256,176.15h28.14v7.934H256Z" transform="translate(-218.793 -150.063)" fill="#3a3a3a"/><g transform="translate(14.528 45.166)"><ellipse cx="4.174" cy="4.174" rx="4.174" ry="4.174" transform="translate(36.937)" fill="#00cb75"/><path d="M99.889,315.684h18.956V320.9H99.889Z" transform="translate(-99.889 -314.118)" fill="#fff"/></g></svg>