<svg xmlns="http://www.w3.org/2000/svg" xmlns:xlink="http://www.w3.org/1999/xlink" width="26" height="26" viewBox="0 0 26 26">
  <defs>
    <clipPath id="clip-path">
      <rect id="Rectangle_2638" data-name="Rectangle 2638" width="26" height="26" transform="translate(313 529)" fill="#fff" stroke="#707070" stroke-width="1"/>
    </clipPath>
  </defs>
  <g id="garaze" transform="translate(-313 -529)" clip-path="url(#clip-path)">
    <g id="Group_6060" data-name="Group 6060" transform="translate(394.259 16.929)">
      <g id="Group_6056" data-name="Group 6056" transform="translate(-79.259 513.071)">
        <g id="Group_6054" data-name="Group 6054">
          <path id="Path_3585" data-name="Path 3585" d="M-74.629,537.071h-2.981a1.65,1.65,0,0,1-1.648-1.649V515.616a.429.429,0,0,1,.384-.426l20.476-2.116a.422.422,0,0,1,.471.381.428.428,0,0,1-.381.471L-78.4,516v19.42a.792.792,0,0,0,.792.792h2.981a.428.428,0,0,1,.428.429A.428.428,0,0,1-74.629,537.071Z" transform="translate(79.259 -513.071)" fill="#4a4365"/>
        </g>
        <g id="Group_6055" data-name="Group 6055" transform="translate(0 4.665)">
          <path id="Path_3586" data-name="Path 3586" d="M-58.354,524.423H-78.831a.428.428,0,0,1-.428-.428.428.428,0,0,1,.428-.428h20.476a.428.428,0,0,1,.428.428A.428.428,0,0,1-58.354,524.423Z" transform="translate(79.259 -523.566)" fill="#ff296b"/>
        </g>
      </g>
      <g id="Group_6057" data-name="Group 6057" transform="translate(-75.408 536.213)">
        <path id="Path_3587" data-name="Path 3587" d="M-57.392,566H-70.165a.428.428,0,0,1-.429-.428.429.429,0,0,1,.429-.429h12.773a.429.429,0,0,1,.429.429A.428.428,0,0,1-57.392,566Z" transform="translate(70.594 -565.142)" fill="#4a4365"/>
      </g>
      <g id="Group_6058" data-name="Group 6058" transform="translate(-75.408 521.42)">
        <path id="Path_3588" data-name="Path 3588" d="M-57.392,531.857H-70.165a.428.428,0,0,0-.429.428v14.794a.428.428,0,0,0,.429.428h12.773a.428.428,0,0,0,.429-.428V532.285A.428.428,0,0,0-57.392,531.857Zm-.428.9v1.6h-.656a.428.428,0,0,0-.428.428.428.428,0,0,0,.428.429h.656v1.6H-69.737v-1.6h7.309a.428.428,0,0,0,.428-.429.428.428,0,0,0-.428-.428h-7.309v-1.6Zm-11.916,6.517v-1.6H-57.82v1.6Zm11.916.857v1.6H-69.737v-1.6Zm-11.916,2.458H-57.82v1.6H-69.737Zm0,4.059v-1.6H-57.82v1.6Z" transform="translate(70.594 -531.857)" fill="#4a4365"/>
        <path id="Path_3589" data-name="Path 3589" d="M-48.879,538.346h.728a.428.428,0,0,0,.428-.429.428.428,0,0,0-.428-.428h-.728a.428.428,0,0,0-.428.428A.428.428,0,0,0-48.879,538.346Z" transform="translate(58.768 -534.986)" fill="#4a4365"/>
      </g>
      <g id="Group_6059" data-name="Group 6059" transform="translate(-67.465 513.071)">
        <path id="Path_3590" data-name="Path 3590" d="M-44.832,537.071h-7.462a.428.428,0,0,1-.429-.428.429.429,0,0,1,.429-.429h7.462a.792.792,0,0,0,.791-.792V513.5a.428.428,0,0,1,.429-.428.428.428,0,0,1,.428.428v21.922A1.65,1.65,0,0,1-44.832,537.071Z" transform="translate(52.723 -513.072)" fill="#ff296b"/>
      </g>
    </g>
  </g>
</svg>
