<svg xmlns="http://www.w3.org/2000/svg" width="75" height="75" viewBox="0 0 75 75"><g transform="translate(0 0)"><path d="M61.076,19.045,74.625,32.195a37.5,37.5,0,1,0-37.8,42.8L13.984,52.622Z" fill="#77b3b5"/><path d="M156.1,143.165l-13.549-13.149L95.464,163.593l22.844,22.37c.224,0,.447.008.672.008A37.512,37.512,0,0,0,156.1,143.165Z" transform="translate(-81.48 -110.971)" fill="#0b8489"/><path d="M216,148h37.665a7,7,0,0,1,7,7v22.033a7,7,0,0,1-7,7h-1.743v8.478l-14.7-8.478H216a7,7,0,0,1-7-7V155A7,7,0,0,1,216,148Zm0,0" transform="translate(-196.957 -130.483)" fill="#e23c50"/><path d="M333.644,148h18.91v36.034h-18.91a7,7,0,0,1-7-7V155a7,7,0,0,1,7-7Zm0,0" transform="translate(-315.936 -130.483)" fill="#e3001b"/></g><text transform="translate(13.5 38.393)" fill="#fff" font-size="10" font-family="Montserrat-SemiBold, Montserrat" font-weight="600"><tspan x="0" y="0">HTeronet</tspan></text></svg>