<svg xmlns="http://www.w3.org/2000/svg" width="75" height="75" viewBox="0 0 75 75"><g transform="translate(0 0)"><g transform="translate(0 0)"><g transform="translate(0)"><ellipse cx="37.5" cy="37.5" rx="37.5" ry="37.5" fill="#4b4f85"/></g></g><path d="M177.987,98.813a36.767,36.767,0,0,0-1.832-10.948L159.9,71.412,120.47,128.305l5.658,5.723a37.122,37.122,0,0,0,14.252,2.827A37.827,37.827,0,0,0,177.987,98.813Z" transform="translate(-102.987 -61.855)" fill="#000444"/><g transform="translate(17.098 6.096)"><path d="M156.431,48.054l-4.105,3.469-3.859-3.469-4.105,3.469L140.5,48.054,136.4,51.523l-3.859-3.469-4.105,3.469-3.859-3.469-4.105,3.469v56.982h39.82V51.523Z" transform="translate(-120.47 -48.054)" fill="#fff"/><path d="M263.027,48.051l3.857,3.47,4.105-3.47,3.859,3.47V108.5H254.756V48.31l.307-.259,3.857,3.47Z" transform="translate(-235.029 -48.051)" fill="#dbdbdb"/></g><g transform="translate(24.175 44.834)"><path d="M168.621,308.513h25.673v4.407H168.621Z" transform="translate(-168.621 -308.513)" fill="#eb626e"/></g><g transform="translate(24.175 54.031)"><path d="M168.621,370.456h25.673v4.407H168.621Z" transform="translate(-168.621 -370.456)" fill="#eb626e"/></g><g transform="translate(36.907 44.905)"><path d="M254.756,308.513h13.019v4.407H254.756Z" transform="translate(-254.756 -308.513)" fill="#d63946"/><path d="M254.756,370.456h13.019v4.407H254.756Z" transform="translate(-254.756 -361.356)" fill="#d63946"/></g></g><text transform="translate(24.08 33.814)" fill="#444" font-size="15" font-family="Montserrat-SemiBold, Montserrat" font-weight="600"><tspan x="0" y="0">KM</tspan></text></svg>