<svg xmlns="http://www.w3.org/2000/svg" width="90.33" height="90.33" viewBox="0 0 90.33 90.33"><g transform="translate(0 0)"><g transform="translate(1.392 1.392)"><path d="M78.256,2H4.933A2.87,2.87,0,0,0,2,4.785V18.709H81.189V4.785A2.87,2.87,0,0,0,78.256,2Z" transform="translate(-2 -2)" fill="#f1f1f1"/><g transform="translate(0 18.555)"><path d="M81.189,61.341H4.933A2.861,2.861,0,0,1,2,58.556V14H81.189Z" transform="translate(-2 -14)" fill="#e6e9ed"/></g><g transform="translate(14.833 41.421)"><path d="M34.278,30V49.493H12V32.785H25.924V30Z" transform="translate(-12 -30)" fill="#d1d1d1"/></g><g transform="translate(5.57 23.669)"><path d="M28.278,34.709v2.785H6V18H28.278Z" transform="translate(-6 -18)" fill="#d63946"/></g><g transform="translate(29.276 5.57)"><path d="M22,6h5.57v5.57H22Z" transform="translate(-22 -6)" fill="#e6e9ed"/></g><g transform="translate(17.566 5.57)"><path d="M14,6h5.57v5.57H14Z" transform="translate(-14 -6)" fill="#e6e9ed"/></g><g transform="translate(5.57 5.57)"><path d="M6,6h5.57v5.57H6Z" transform="translate(-6 -6)" fill="#e6e9ed"/></g><g transform="translate(42.988 8.354)"><path d="M73.01,19.431a2.784,2.784,0,0,1-1.239,5.277,2.706,2.706,0,0,1-1.239-.292L52.278,13.57,34.024,24.416a2.706,2.706,0,0,1-1.239.292,2.784,2.784,0,0,1-1.239-5.277l5.208-3.077L49.688,8.71a5.078,5.078,0,0,1,5.18,0l11.334,6.7Z" transform="translate(-30.001 -8)" fill="#f1f1f1"/></g><g transform="translate(45.772 14.976)"><path d="M69.748,22.847,51.493,12,33.239,22.847A2.706,2.706,0,0,1,32,23.139V42.632H70.987V23.139A2.706,2.706,0,0,1,69.748,22.847Z" transform="translate(-32 -12)" fill="#f1f1f1"/></g><g transform="translate(56.077 29.514)"><path d="M40,22H56.709V38.709H40Z" transform="translate(-40 -22)" fill="#f1f1f1"/></g><g transform="translate(51.341 37.417)"><path d="M63.848,48.278a2.793,2.793,0,0,1,2.785-2.785,2.805,2.805,0,0,1,2.785,2.785V63.594a8.343,8.343,0,0,1-1.671,5.013L65.24,71.949v4.177L42.962,76.07V71.949l-3.3-6.656a8.2,8.2,0,0,1-.877-3.718V55.853a8.874,8.874,0,0,0-.919-3.913L36.237,48.7a2.253,2.253,0,0,1,2.019-3.258h.125a8.744,8.744,0,0,1,8.758,8.744v-25.4A2.793,2.793,0,0,1,49.924,26a2.805,2.805,0,0,1,2.785,2.785V45.493a2.793,2.793,0,0,1,2.785-2.785,2.805,2.805,0,0,1,2.785,2.785,2.793,2.793,0,0,1,2.785-2.785,2.805,2.805,0,0,1,2.785,2.785Z" transform="translate(-36 -26)" fill="#f1f1f1"/></g></g><g transform="translate(0 0)"><path d="M89,21.906l-6.415-3.791V5.371A4.376,4.376,0,0,0,78.216,1H5.371A4.376,4.376,0,0,0,1,5.371V66.56a4.376,4.376,0,0,0,4.371,4.371H53.448v3.715a10.247,10.247,0,0,0,1.064,4.535l3.307,6.659v5.421l26.224.068V85.985l2.331-3.108a10.26,10.26,0,0,0,2.04-6.119V60.732a4.376,4.376,0,0,0-4.371-4.371,4.322,4.322,0,0,0-1.457.268v-6.1h5.828V29.88A4.36,4.36,0,0,0,89,21.906Zm-.663,3.4a1.455,1.455,0,0,1-1.383,1.917,1.518,1.518,0,0,1-.558-.1L66.561,15.331,46.815,27.071a1.491,1.491,0,0,1-1.955-.651,1.444,1.444,0,0,1-.077-1.112,1.531,1.531,0,0,1,.819-.892L64.591,13.194a3.94,3.94,0,0,1,3.939,0l19.078,11.27a1.443,1.443,0,0,1,.73.842ZM5.371,3.914H78.216a1.459,1.459,0,0,1,1.457,1.457V16.393l-9.659-5.708a6.894,6.894,0,0,0-6.9,0l-13.191,7.8h-46V5.371A1.459,1.459,0,0,1,5.371,3.914ZM3.914,66.56V21.4H44.988l-.779.46a4.393,4.393,0,0,0,.5,8.054V50.534H62.19V59.65A10.761,10.761,0,0,0,54.35,56.3a3.821,3.821,0,0,0-3.816,3.814,3.864,3.864,0,0,0,.4,1.707l1.7,3.4a7.715,7.715,0,0,1,.775,2.8H5.371A1.461,1.461,0,0,1,3.914,66.56ZM73.845,47.62H70.931V40.336a4.371,4.371,0,0,0-8.741,0V47.62H59.276V33.052H73.845Zm10.2,11.655A1.459,1.459,0,0,1,85.5,60.732V76.758a7.325,7.325,0,0,1-1.457,4.371L81.13,85.014v3.4l-20.4-.055v-3.2l-3.612-7.273a7.319,7.319,0,0,1-.759-3.239V68.661a10.671,10.671,0,0,0-1.12-4.748l-1.7-3.395a.9.9,0,0,1-.1-.4.942.942,0,0,1,1.04-.9,7.711,7.711,0,0,1,7.7,7.7v5.409H65.1V40.336a1.457,1.457,0,0,1,2.914,0v23.31h2.914V57.819a1.457,1.457,0,0,1,2.914,0v5.828h2.914V57.819a1.457,1.457,0,0,1,2.914,0v5.828h2.914V60.732A1.459,1.459,0,0,1,84.043,59.276Zm-4.371-5.559a4.236,4.236,0,0,0-4.371.868,4.236,4.236,0,0,0-4.371-.868V50.534h8.741Zm-2.914-6.1V30.138h-20.4V47.62H47.621V29.858a4.708,4.708,0,0,0,.59-.232L66.561,18.72,85,29.677a4.509,4.509,0,0,0,.5.181V47.62Z" transform="translate(-1 -1)"/><path d="M13.354,5H5v8.354h8.354ZM10.57,10.57H7.785V7.785H10.57Z" transform="translate(0.57 0.57)"/><path d="M21.354,5H13v8.354h8.354ZM18.57,10.57H15.785V7.785H18.57Z" transform="translate(4.566 0.57)"/><path d="M29.354,5H21v8.354h8.354ZM26.57,10.57H23.785V7.785H26.57Z" transform="translate(8.276 0.57)"/><path d="M30.063,17H5V39.278h8.354V55.987H38.417V33.709H30.063ZM7.785,19.785H27.278V36.493H7.785ZM35.632,36.493V53.2H16.139V39.278H30.063V36.493Z" transform="translate(0.57 7.16)"/><path d="M5,35h5.57v2.785H5Z" transform="translate(0.57 14.607)"/><path d="M5,39h5.57v2.785H5Z" transform="translate(0.57 16.443)"/><path d="M5,43h5.57v2.785H5Z" transform="translate(0.57 18.28)"/></g></g></svg>