<svg xmlns="http://www.w3.org/2000/svg" width="90.33" height="90.33" viewBox="0 0 90.33 90.33"><g transform="translate(0 0)"><g transform="translate(1.457 1.457)"><path d="M77.759,2H4.914A2.922,2.922,0,0,0,2,4.914V19.483H80.672V4.914A2.922,2.922,0,0,0,77.759,2Z" transform="translate(-2 -2)" fill="#4b4f85"/><g transform="translate(0 17.483)"><path d="M80.672,63.534H4.914A2.913,2.913,0,0,1,2,60.621V14H80.672Z" transform="translate(-2 -14)" fill="#e6e9ed"/></g><g transform="translate(14.569 40.793)"><path d="M35.31,30V50.4H12V32.914H26.569V30Z" transform="translate(-12 -30)" fill="#d63946"/></g><g transform="translate(5.828 23.31)"><path d="M29.31,35.483V38.4H6V18H29.31Z" transform="translate(-6 -18)" fill="#4b4f85"/></g><g transform="translate(29.138 5.828)"><path d="M22,6h5.828v5.828H22Z" transform="translate(-22 -6)" fill="#e6e9ed"/></g><g transform="translate(17.483 5.828)"><path d="M14,6h5.828v5.828H14Z" transform="translate(-14 -6)" fill="#e6e9ed"/></g><g transform="translate(5.828 5.828)"><path d="M6,6h5.828v5.828H6Z" transform="translate(-6 -6)" fill="#e6e9ed"/></g><g transform="translate(40.794 8.741)"><path d="M75,19.961a2.913,2.913,0,0,1-1.3,5.522,2.832,2.832,0,0,1-1.3-.306L53.31,13.828,34.21,25.177a2.832,2.832,0,0,1-1.3.306,2.913,2.913,0,0,1-1.3-5.522l5.449-3.22,13.535-8a5.313,5.313,0,0,1,5.42,0l11.859,7.008Z" transform="translate(-30.001 -8)" fill="#f1f1f1"/></g><g transform="translate(43.707 14.569)"><path d="M71.5,23.349,52.4,12,33.3,23.349a2.832,2.832,0,0,1-1.3.306v20.4H72.793v-20.4A2.832,2.832,0,0,1,71.5,23.349Z" transform="translate(-32 -12)" fill="#f1f1f1"/></g><g transform="translate(55.362 29.138)"><path d="M40,22H57.483V39.483H40Z" transform="translate(-40 -22)" fill="#f1f1f1"/></g><g transform="translate(49.534 34.965)"><path d="M65.138,49.31A2.922,2.922,0,0,1,68.052,46.4a2.935,2.935,0,0,1,2.914,2.914V65.336a8.73,8.73,0,0,1-1.748,5.245l-2.622,3.5v4.371l-23.31-.058V74.078l-3.453-6.964a8.583,8.583,0,0,1-.918-3.89V57.236a9.286,9.286,0,0,0-.962-4.094l-1.7-3.395a2.357,2.357,0,0,1,2.112-3.409h.131a9.149,9.149,0,0,1,9.164,9.149V28.914A2.922,2.922,0,0,1,50.569,26a2.935,2.935,0,0,1,2.914,2.914V46.4A2.922,2.922,0,0,1,56.4,43.483,2.935,2.935,0,0,1,59.31,46.4a2.922,2.922,0,0,1,2.914-2.914A2.935,2.935,0,0,1,65.138,46.4Z" transform="translate(-36 -26)" fill="#f1f1f1"/></g></g><g transform="translate(0 0)"><path d="M89,21.906l-6.415-3.791V5.371A4.376,4.376,0,0,0,78.215,1H5.371A4.376,4.376,0,0,0,1,5.371V66.56a4.376,4.376,0,0,0,4.371,4.371H53.448v3.715a10.247,10.247,0,0,0,1.064,4.535l3.307,6.659v5.421l26.224.068V85.985l2.331-3.108a10.26,10.26,0,0,0,2.04-6.119V60.733a4.376,4.376,0,0,0-4.371-4.371,4.321,4.321,0,0,0-1.457.268v-6.1h5.828V29.88A4.36,4.36,0,0,0,89,21.906Zm-.663,3.4a1.455,1.455,0,0,1-1.383,1.917,1.518,1.518,0,0,1-.558-.1L66.56,15.331,46.815,27.071a1.491,1.491,0,0,1-1.955-.651,1.444,1.444,0,0,1-.077-1.112,1.531,1.531,0,0,1,.819-.892L64.591,13.194a3.94,3.94,0,0,1,3.939,0L87.608,24.465a1.443,1.443,0,0,1,.73.842ZM5.371,3.914H78.215a1.459,1.459,0,0,1,1.457,1.457V16.394l-9.659-5.708a6.894,6.894,0,0,0-6.9,0l-13.191,7.8h-46V5.371A1.459,1.459,0,0,1,5.371,3.914ZM3.914,66.56V21.4H44.988l-.779.46a4.393,4.393,0,0,0,.5,8.054V50.534H62.19V59.65A10.761,10.761,0,0,0,54.35,56.3a3.821,3.821,0,0,0-3.816,3.814,3.864,3.864,0,0,0,.4,1.707l1.7,3.4a7.715,7.715,0,0,1,.775,2.8H5.371A1.461,1.461,0,0,1,3.914,66.56Zm69.931-18.94H70.931V40.336a4.371,4.371,0,0,0-8.741,0v7.284H59.276V33.052H73.845Zm10.2,11.655A1.459,1.459,0,0,1,85.5,60.733V76.759a7.325,7.325,0,0,1-1.457,4.371l-2.914,3.886v3.4l-20.4-.055v-3.2l-3.612-7.273a7.319,7.319,0,0,1-.759-3.239V68.661a10.671,10.671,0,0,0-1.12-4.748l-1.7-3.395a.9.9,0,0,1-.1-.4.942.942,0,0,1,1.04-.9,7.711,7.711,0,0,1,7.7,7.7v5.409H65.1V40.336a1.457,1.457,0,1,1,2.914,0v23.31h2.914V57.819a1.457,1.457,0,0,1,2.914,0v5.828h2.914V57.819a1.457,1.457,0,0,1,2.914,0v5.828h2.914V60.733A1.459,1.459,0,0,1,84.043,59.276Zm-4.371-5.56a4.236,4.236,0,0,0-4.371.868,4.236,4.236,0,0,0-4.371-.868V50.534h8.741Zm-2.914-6.1V30.138h-20.4V47.621H47.621V29.858a4.708,4.708,0,0,0,.59-.232L66.56,18.72,85,29.678a4.509,4.509,0,0,0,.5.181V47.621Z" transform="translate(-1 -1)"/><path d="M13.741,5H5v8.741h8.741Zm-2.914,5.828H7.914V7.914h2.914Z" transform="translate(0.828 0.828)"/><path d="M21.741,5H13v8.741h8.741Zm-2.914,5.828H15.914V7.914h2.914Z" transform="translate(4.483 0.828)"/><path d="M29.741,5H21v8.741h8.741Zm-2.914,5.828H23.914V7.914h2.914Z" transform="translate(8.138 0.828)"/><path d="M31.224,17H5V40.31h8.741V57.793H39.966V34.483H31.224ZM7.914,19.914h20.4V37.4H7.914ZM37.052,37.4V54.879h-20.4V40.31H31.224V37.4Z" transform="translate(0.828 6.31)"/><path d="M5,35h5.828v2.914H5Z" transform="translate(0.828 14.534)"/><path d="M5,39h5.828v2.914H5Z" transform="translate(0.828 16.362)"/><path d="M5,43h5.828v2.914H5Z" transform="translate(0.828 18.19)"/></g></g></svg>