<svg xmlns="http://www.w3.org/2000/svg" xmlns:xlink="http://www.w3.org/1999/xlink" width="26" height="26" viewBox="0 0 26 26">
  <defs>
    <clipPath id="clip-path">
      <rect id="Rectangle_2643" data-name="Rectangle 2643" width="26" height="26" transform="translate(312 488)" fill="none" stroke="#707070" stroke-width="1"/>
    </clipPath>
  </defs>
  <g id="kuce" transform="translate(-312 -488)" clip-path="url(#clip-path)">
    <g id="Rectangle_2642" data-name="Rectangle 2642" transform="translate(290 357)" fill="none" stroke="#e4e3e8" stroke-width="1">
      <rect width="960" height="441" rx="6" stroke="none"/>
      <rect x="0.5" y="0.5" width="959" height="440" rx="5.5" fill="none"/>
    </g>
    <g id="Group_6084" data-name="Group 6084" transform="translate(322.393 15.917)">
      <g id="Group_5467" data-name="Group 5467">
        <g id="Group_5465" data-name="Group 5465">
          <path id="Path_3309" data-name="Path 3309" d="M14.135,486l-3.619-3.619a.429.429,0,0,0-.606.606l3.619,3.619a.679.679,0,0,1,.073.906.652.652,0,0,1-.922.048l-.014-.012-9.177-9.176a1.278,1.278,0,0,0-1.767,0l-9.148,9.148a.665.665,0,0,1-.829.111.641.641,0,0,1-.181-.886.7.7,0,0,1,.081-.1L2.156,476.126a.639.639,0,0,1,.9,0L7.328,480.4a.429.429,0,0,0,.606-.606L3.662,475.52a1.5,1.5,0,0,0-2.115,0L-8.958,486.035a1.5,1.5,0,0,0,.009,2.121,1.5,1.5,0,0,0,.217.179,1.515,1.515,0,0,0,1.917-.214l1.237-1.237.034,6.841a1.366,1.366,0,0,0,1.364,1.363H9.457a1.365,1.365,0,0,0,1.364-1.363l-.034-6.853,1.278,1.278a1.494,1.494,0,0,0,2.113,0q.04-.041.078-.084A1.529,1.529,0,0,0,14.135,486Zm-4.175,7.73a.507.507,0,0,1-.507.506H-4.184a.508.508,0,0,1-.507-.506l-.034-7.7,7.055-7.054a.4.4,0,0,1,.554,0l7.042,7.042Z" fill="#4a4365"/>
          <path id="Path_3310" data-name="Path 3310" d="M8.817,481.889a.429.429,0,0,0,.636-.577.41.41,0,0,0-.03-.029L9,480.86a.429.429,0,0,0-.635.577l.029.029Z" fill="#4a4365"/>
        </g>
      </g>
      <g id="Group_6083" data-name="Group 6083">
        <path id="Path_3603" data-name="Path 3603" d="M2.542,492.337a.4.4,0,0,1-.283-.117l-3.114-3.115a2.6,2.6,0,0,1,0-3.68,2.66,2.66,0,0,1,3.381-.257,2.6,2.6,0,0,1,3.539,3.811q-.045.043-.09.084a.493.493,0,0,1-.036.042L2.825,492.22A.4.4,0,0,1,2.542,492.337ZM.985,485.463a1.8,1.8,0,0,0-1.274,3.076l2.831,2.832,2.777-2.777a.341.341,0,0,1,.073-.083c.037-.032.073-.064.107-.1a1.8,1.8,0,1,0-2.548-2.548c-.033.032-.06.064-.088.1a.415.415,0,0,1-.293.145.357.357,0,0,1-.3-.108A1.792,1.792,0,0,0,.985,485.463Z" fill="#ff296b"/>
      </g>
    </g>
  </g>
</svg>
