<?xml version="1.0" standalone="no"?>
<!DOCTYPE svg PUBLIC "-//W3C//DTD SVG 20010904//EN"
 "http://www.w3.org/TR/2001/REC-SVG-20010904/DTD/svg10.dtd">
<svg version="1.0" xmlns="http://www.w3.org/2000/svg"
 width="976.000000pt" height="179.000000pt" viewBox="0 0 976.000000 179.000000"
 preserveAspectRatio="xMidYMid meet">
<metadata>
Created by potrace 1.16, written by Peter Selinger 2001-2019
</metadata>
<g transform="translate(0.000000,179.000000) scale(0.100000,-0.100000)"
fill="#000000" stroke="none">
<path d="M360 1195 l0 -315 320 0 320 0 0 315 0 315 -320 0 -320 0 0 -315z"/>
<path d="M4265 1498 c-3 -7 -4 -269 -3 -583 l3 -570 55 0 55 0 5 157 5 157
168 -160 167 -160 73 3 c58 2 72 6 75 20 2 11 -60 73 -183 184 -102 92 -182
170 -178 174 4 4 77 62 161 129 178 143 184 155 77 159 l-70 3 -145 -120 -145
-120 -5 367 -5 367 -53 3 c-36 2 -54 -1 -57 -10z"/>
<path d="M7720 1460 c-45 -45 -33 -111 24 -138 82 -40 156 68 91 133 -31 31
-86 34 -115 5z"/>
<path d="M6372 1218 c-8 -8 -12 -47 -12 -110 l0 -98 -54 0 c-50 0 -54 -2 -60
-26 -8 -29 1 -65 18 -76 6 -4 30 -8 53 -8 l41 0 4 -242 c2 -206 6 -248 20
-274 42 -76 170 -85 306 -22 49 23 53 44 22 96 -15 25 -25 32 -38 27 -50 -21
-123 -45 -136 -45 -8 0 -22 7 -30 16 -14 13 -16 48 -16 230 l0 214 93 0 c113
0 130 9 125 65 l-3 40 -107 3 -108 3 0 94 c0 51 -3 100 -6 109 -7 19 -94 22
-112 4z"/>
<path d="M2073 1011 c-141 -48 -218 -170 -217 -341 2 -242 180 -387 416 -340
67 13 146 48 168 75 12 14 11 22 -5 52 -11 19 -25 37 -31 40 -7 2 -35 -7 -63
-22 -101 -51 -188 -50 -264 2 -40 28 -81 88 -92 136 l-7 27 244 0 c176 0 247
3 256 12 17 17 15 115 -4 178 -22 75 -109 162 -184 184 -70 21 -152 20 -217
-3z m183 -110 c45 -21 85 -67 103 -120 6 -19 11 -36 11 -37 0 -2 -88 -4 -195
-4 -128 0 -195 4 -195 10 0 6 9 27 19 48 53 102 162 146 257 103z"/>
<path d="M2893 1011 c-29 -11 -66 -29 -83 -41 l-30 -22 -11 31 c-10 27 -15 31
-50 31 -28 0 -41 -5 -49 -19 -16 -31 -14 -612 3 -635 10 -13 24 -17 62 -14
l50 3 3 237 2 237 43 30 c91 62 189 75 247 33 56 -41 64 -77 70 -317 l5 -220
55 0 55 0 0 250 0 250 -30 60 c-43 86 -97 117 -208 122 -63 3 -94 -1 -134 -16z"/>
<path d="M3663 1011 c-141 -48 -218 -170 -217 -341 2 -242 180 -387 416 -340
67 13 146 48 168 75 12 14 11 22 -5 52 -11 19 -25 37 -31 40 -7 2 -35 -7 -63
-22 -99 -50 -187 -50 -263 0 -38 25 -81 89 -93 138 l-7 27 244 0 c176 0 247 3
256 12 17 17 15 115 -4 178 -22 75 -109 162 -184 184 -70 21 -152 20 -217 -3z
m184 -112 c50 -24 87 -68 101 -121 l10 -38 -194 0 c-128 0 -194 4 -194 10 0
21 39 86 68 113 33 32 92 56 136 57 16 0 49 -9 73 -21z"/>
<path d="M5229 1021 c-36 -12 -71 -30 -95 -53 -21 -19 -21 -19 -27 12 -6 28
-9 30 -51 30 -31 0 -46 -5 -50 -16 -8 -20 -8 -618 0 -638 9 -23 109 -23 118 0
3 9 6 115 6 235 0 131 4 228 10 239 6 11 31 31 56 46 44 26 87 31 179 22 31
-3 45 14 60 75 6 24 3 29 -29 42 -37 16 -133 19 -177 6z"/>
<path d="M5730 1013 c-149 -52 -227 -182 -218 -362 5 -104 35 -178 98 -241 67
-67 117 -85 235 -84 109 0 182 21 240 68 l29 24 -27 41 c-15 22 -32 41 -37 41
-6 0 -32 -11 -58 -25 -155 -81 -307 -22 -353 137 l-8 28 242 0 c133 0 249 4
257 10 10 6 14 28 14 80 -2 134 -85 249 -206 285 -65 19 -150 19 -208 -2z
m168 -108 c20 -9 48 -26 61 -38 24 -22 60 -91 61 -114 0 -10 -45 -13 -194 -13
l-194 0 11 38 c7 20 30 55 52 77 61 61 133 79 203 50z"/>
<path d="M7133 1015 c-23 -7 -62 -24 -87 -39 l-44 -26 -11 31 c-10 28 -13 30
-53 27 l-43 -3 0 -330 0 -330 55 0 55 0 3 232 2 232 38 31 c80 65 195 86 257
46 54 -36 60 -62 65 -311 l5 -230 54 -3 c37 -2 57 1 62 10 13 19 11 395 -2
463 -27 147 -111 216 -261 214 -29 0 -72 -6 -95 -14z"/>
<path d="M8313 1016 c-23 -7 -62 -25 -87 -39 l-45 -25 -10 30 c-10 27 -14 29
-53 26 l-43 -3 0 -330 0 -330 55 0 55 0 3 234 c3 265 -4 245 95 297 101 53
193 39 239 -35 22 -34 23 -49 28 -266 l5 -230 48 -3 c77 -5 77 -6 77 212 0
313 -24 391 -135 449 -50 26 -172 33 -232 13z"/>
<path d="M9070 1013 c-149 -52 -227 -182 -218 -362 5 -104 35 -178 98 -241 67
-67 117 -85 235 -84 109 0 182 21 240 68 l29 24 -27 41 c-15 22 -32 41 -37 41
-6 0 -32 -11 -58 -25 -155 -81 -307 -22 -353 137 l-8 28 242 0 c133 0 249 4
257 10 10 6 14 28 14 80 -2 134 -85 249 -206 285 -65 19 -150 19 -208 -2z
m168 -108 c20 -9 48 -26 61 -38 24 -22 60 -91 61 -114 0 -10 -45 -13 -194 -13
l-194 0 11 38 c7 20 30 55 52 77 61 61 133 79 203 50z"/>
<path d="M7725 998 c-3 -7 -4 -157 -3 -333 l3 -320 55 0 55 0 0 330 0 330 -53
3 c-36 2 -54 -1 -57 -10z"/>
<path d="M1300 575 c124 -124 226 -225 227 -225 2 0 3 101 3 225 l0 225 -227
0 -228 0 225 -225z"/>
</g>
</svg>
