<svg xmlns="http://www.w3.org/2000/svg" viewBox="0 0 1199.06 282.75"><defs><style>.cls-1,.cls-2,.cls-3,.cls-4,.cls-5{fill:none;}.cls-1,.cls-5{stroke:#3bb4c2;}.cls-1,.cls-2,.cls-3,.cls-4,.cls-5,.cls-7{stroke-miterlimit:10;}.cls-1,.cls-2,.cls-3,.cls-4{stroke-width:9px;}.cls-2{stroke:#1b1e31;}.cls-3{stroke:#000444;}.cls-4,.cls-7{stroke:#e1002d;}.cls-5{stroke-width:7.85px;}.cls-6{font-size:120px;fill:#e1002d;font-family:Montserrat-Medium, Montserrat;font-weight:500;}.cls-10,.cls-11,.cls-12,.cls-8,.cls-9{fill:#000444;}.cls-9{letter-spacing:-0.01em;}.cls-10{letter-spacing:-0.01em;}.cls-11{letter-spacing:0em;}.cls-12{letter-spacing:0em;}</style></defs><title>Asset 1</title><g id="Layer_2" data-name="Layer 2"><g id="Layer_1-2" data-name="Layer 1"><path class="cls-1" d="M4.5,279V95.5a10,10,0,0,1,10-10H63"/><path class="cls-2" d="M76.5,279V14.5a10,10,0,0,1,10-10h124a10,10,0,0,1,10,10V126"/><path class="cls-3" d="M234,58.5h92.5a10,10,0,0,1,10,10V279"/><path class="cls-4" d="M184.5,279V149.5a10,10,0,0,1,10-10h80a10,10,0,0,1,10,10L284.38,279"/><path class="cls-5" d="M90,85.5h21.06a10,10,0,0,1,10,10V279.11"/><line class="cls-2" x1="220.5" y1="279" x2="220.5" y2="153"/><text class="cls-6" transform="translate(396.25 209.14)"><tspan class="cls-7">e</tspan><tspan class="cls-8" x="73.44" y="0">Ne</tspan><tspan class="cls-9" x="244.32" y="0">k</tspan><tspan class="cls-10" x="317.4" y="0">r</tspan><tspan class="cls-11" x="365.16" y="0">etni</tspan><tspan class="cls-12" x="603.48" y="0">n</tspan><tspan class="cls-8" x="685.56" y="0">e</tspan></text></g></g></svg>