<svg xmlns="http://www.w3.org/2000/svg" width="185.741" height="160" viewBox="0 0 185.741 160">
  <g id="Group_34" data-name="Group 34" transform="translate(-670 -850)">
    <rect id="Rectangle_20" data-name="Rectangle 20" width="160" height="160" rx="35" transform="translate(683 850)" fill="#2b3f5f"/>
    <path id="Path_21" data-name="Path 21" d="M8830.9,802.116v82.627h23.729v-69.13s.2-13.585,11.475-13.5,10.559,13.5,10.559,13.5v69.13h24.153V812s2.867-10.025,17.736-9.885,14.547,17.27,14.547,17.27c-1.491,15.89-23.983,45.387-23.983,45.387v19.969h59.176V864.773h-29.587s19.03-39.056,21.222-49.161c.685-3.153-.487-40.251-34.1-42.8-14.614.137-27.329,13.038-27.329,13.038s-4.667-15.494-21.831-15.37-22.033,9.152-22.033,9.152v-9.152h-15.177L8809,791.853v10.263Z" transform="translate(-7979.352 2737.26) rotate(-17)" fill="#fff"/>
  </g>
</svg>
