<svg xmlns="http://www.w3.org/2000/svg" xmlns:xlink="http://www.w3.org/1999/xlink" width="26" height="26" viewBox="0 0 26 26">
  <defs>
    <clipPath id="clip-path">
      <rect id="Rectangle_2635" data-name="Rectangle 2635" width="26" height="26" transform="translate(313 529)" fill="#fff" stroke="#707070" stroke-width="1"/>
    </clipPath>
  </defs>
  <g id="luksuzne-nekretnine" transform="translate(-313 -529)" clip-path="url(#clip-path)">
    <g id="Group_6044" data-name="Group 6044" transform="translate(107.549 15.331)">
      <path id="Path_3579" data-name="Path 3579" d="M230.022,526.222h-.607v-5.211h.593a.422.422,0,0,0,.429-.416v-2.087a.422.422,0,0,0-.429-.416h-1.66v-1.006a.422.422,0,0,0-.429-.416h-4.644a.422.422,0,0,0-.429.416v1.006h-8.794v-1.006a.422.422,0,0,0-.429-.416h-4.644a.422.422,0,0,0-.429.416v1.006H206.88a.422.422,0,0,0-.429.416v10.223a.422.422,0,0,0,.429.416h5.727v4.584H206.88a.422.422,0,0,0-.429.416v2.106a.422.422,0,0,0,.429.416h23.143a.423.423,0,0,0,.429-.416v-9.614A.422.422,0,0,0,230.022,526.222Zm-1.464,0H225.5v-5.211h3.056Zm-19.1,0v-5.211h3.144v5.211Zm4-5.211h3.156v5.211h-3.156Zm4.013,0h3.156v5.211h-3.156Zm4.013,0h3.156v5.211H221.49Zm2.215-3.51h3.786v.59H223.7Zm-14.295,0H213.2v.59H209.41Zm4.054,11.646h13.961v4.584h-.753v-3.31a.422.422,0,0,0-.429-.416h-6.529a.422.422,0,0,0-.429.416v3.31h-5.823Zm12.351,2.617h-5.672v-.927h5.672Zm-18.507,2.8h11.979v1.273H207.308Zm12.836,1.273v-1.273h3.132a.416.416,0,1,0,0-.832h-3.132V532.6h5.672v1.134h-.468a.416.416,0,1,0,0,.832h.468v1.273Zm9.45,0h-2.921v-1.273h1.181a.422.422,0,0,0,.429-.416v-5.416a.422.422,0,0,0-.429-.416H207.308v-9.391H229.58v1.255H209.034a.422.422,0,0,0-.429.416v6.044a.422.422,0,0,0,.429.416h20.559Z" fill="#4a4365"/>
      <g id="Group_6041" data-name="Group 6041" transform="translate(214.277 530.005)">
        <path id="Path_3580" data-name="Path 3580" d="M228.479,551.667h-3.34a.422.422,0,0,1-.429-.416v-2.124a.422.422,0,0,1,.429-.416h3.34a.422.422,0,0,1,.429.416v2.124A.422.422,0,0,1,228.479,551.667Zm-2.911-.832h2.483v-1.291h-2.483Z" transform="translate(-224.711 -548.711)" fill="#4a4365"/>
      </g>
      <g id="Group_6042" data-name="Group 6042" transform="translate(210.513 526.222)">
        <path id="Path_3581" data-name="Path 3581" d="M235.439,547.99a.422.422,0,0,1-.429-.416v-7.119H216.359a.416.416,0,1,1,0-.832h19.08a.422.422,0,0,1,.429.416v7.535A.423.423,0,0,1,235.439,547.99Z" transform="translate(-215.93 -539.623)" fill="#ff296b"/>
      </g>
      <g id="Group_6043" data-name="Group 6043" transform="translate(212.607 529.823)">
        <path id="Path_3582" data-name="Path 3582" d="M221.244,551.413a.422.422,0,0,1-.429-.416v-2.305a.429.429,0,0,1,.857,0V551A.422.422,0,0,1,221.244,551.413Z" transform="translate(-220.815 -548.275)" fill="#ff296b"/>
      </g>
    </g>
  </g>
</svg>
