<svg xmlns="http://www.w3.org/2000/svg" xmlns:xlink="http://www.w3.org/1999/xlink" width="160" height="160" viewBox="0 0 160 160">
  <defs>
    <style>
      .cls-1 {
        fill: url(#linear-gradient);
      }
    </style>
    <linearGradient id="linear-gradient" x1="0.964" y1="0.045" x2="0.04" y2="0.969" gradientUnits="objectBoundingBox">
      <stop offset="0" stop-color="#1f3354"/>
      <stop offset="1" stop-color="#374a6a"/>
    </linearGradient>
  </defs>
  <path id="Subtraction_2" data-name="Subtraction 2" class="cls-1" d="M-7960.132,277h-144a8.008,8.008,0,0,1-8-8V194.718l17.325-5.3,24.159,79.016,22.69-6.936-20.21-66.11a20.016,20.016,0,0,1-.54-6.927,11.647,11.647,0,0,1,1.908-5.439,10.181,10.181,0,0,1,5.657-3.9,11.593,11.593,0,0,1,3.291-.51,8.834,8.834,0,0,1,5.135,1.614,12.533,12.533,0,0,1,3.313,3.55,19.278,19.278,0,0,1,2.306,5.164l20.21,66.11,23.1-7.062-21.266-69.564a18.626,18.626,0,0,1,1.354-7.312,16.916,16.916,0,0,1,3.94-5.915,19.354,19.354,0,0,1,8.11-4.555,22.657,22.657,0,0,1,6.392-.987,16.591,16.591,0,0,1,6.2,1.158,15.751,15.751,0,0,1,4.25,2.547,14.6,14.6,0,0,1,3.226,3.7c.6,2.9.107,9.342-1.414,18.644-1.7,10.41-4.628,24.122-8.694,40.756l5.84,19.1,43.719-13.366V269A8.009,8.009,0,0,1-7960.132,277Zm-15.705-58.428v0c.021-.122,2.14-12.378,4.117-25.706,1.8-12.1,3.844-27.639,3.4-32.9-.121-1.46-3.262-7.948-8.8-13.893-5.018-5.385-13.366-11.8-24.633-11.8a33.3,33.3,0,0,0-10.567,1.8c-7.2,2.274-12.961,7.059-16.528,10.671a50.547,50.547,0,0,0-6.076,7.368,23.291,23.291,0,0,0-4.637-4.741,21.877,21.877,0,0,0-13.433-4.742,24.431,24.431,0,0,0-7.3,1.169c-8.46,2.654-13.011,6.644-15.339,9.524a15.026,15.026,0,0,0-3.056,5.67l-2.677-8.751-14.513,4.438-16.253,20.847V125a8.009,8.009,0,0,1,8-8h144a8.01,8.01,0,0,1,8,8v86.321l-23.7,7.249Z" transform="translate(8112.13 -117)"/>
</svg>
