<svg xmlns="http://www.w3.org/2000/svg" width="104.744" height="123" viewBox="0 0 104.744 123">
  <g id="surface1" transform="translate(-0.5 0)">
    <path id="Path_17" data-name="Path 17" d="M99.711,82.139a62.055,62.055,0,0,1-14.863,23.154C77.385,112.58,67.613,118.371,55.8,122.5a8.887,8.887,0,0,1-2.823.5h-.106a9.012,9.012,0,0,1-1.732-.171,9.384,9.384,0,0,1-1.191-.325c-11.825-4.124-21.61-9.913-29.081-17.2A61.938,61.938,0,0,1,6.01,82.156C.007,65.865.348,47.919.623,33.5l0-.222c.055-1.191.091-2.442.111-3.823A13.036,13.036,0,0,1,13.014,16.681c14.142-.789,25.082-5.4,34.429-14.513l.082-.075a7.879,7.879,0,0,1,10.7,0l.08.075c9.349,9.111,20.29,13.723,34.432,14.513a13.036,13.036,0,0,1,12.275,12.771c.02,1.391.055,2.64.111,3.823l0,.094C105.4,47.818,105.736,65.8,99.711,82.139Zm0,0" transform="translate(0 0)" fill="#d63946" opacity="0.5"/>
    <path id="Path_18" data-name="Path 18" d="M265.681,82.142A62.056,62.056,0,0,1,250.819,105.3c-7.463,7.288-17.236,13.079-29.047,17.21a8.887,8.887,0,0,1-2.823.5V0A7.891,7.891,0,0,1,224.192,2.1l.08.075c9.349,9.111,20.29,13.723,34.432,14.513a13.036,13.036,0,0,1,12.275,12.771c.02,1.391.055,2.64.111,3.823l0,.094C271.366,47.821,271.706,65.8,265.681,82.142Zm0,0" transform="translate(-165.97 -0.003)" fill="#d63946"/>
    <path id="Path_19" data-name="Path 19" d="M152.2,159.052a30.693,30.693,0,0,1-30.547,30.655h-.108a30.655,30.655,0,1,1,0-61.31h.108A30.693,30.693,0,0,1,152.2,159.052Zm0,0" transform="translate(-68.679 -97.552)" fill="#fff"/>
    <path id="Path_20" data-name="Path 20" d="M249.5,159.052a30.693,30.693,0,0,1-30.547,30.655V128.4A30.693,30.693,0,0,1,249.5,159.052Zm0,0" transform="translate(-165.97 -97.552)" fill="#e1ebf0"/>
    <path id="Path_21" data-name="Path 21" d="M191.936,226.883a3.609,3.609,0,0,1-5.106,5.1l-5.842-5.843-5.843,5.843a3.608,3.608,0,1,1-5.1-5.1l5.842-5.843-5.842-5.844a3.608,3.608,0,0,1,5.1-5.1l5.843,5.844,5.842-5.844a3.609,3.609,0,0,1,5.106,5.1l-5.844,5.844Zm0,0" transform="translate(-128.008 -158.817)" fill="rgba(11,132,137,0.5)"/>
    <path id="Path_22" data-name="Path 22" d="M229.9,226.883a3.609,3.609,0,0,1-5.106,5.1l-5.842-5.843V215.936l5.842-5.844a3.609,3.609,0,0,1,5.106,5.1l-5.844,5.844Zm0,0" transform="translate(-165.973 -158.817)" fill="#0b8489"/>
  </g>
</svg>
