<svg id="percent" xmlns="http://www.w3.org/2000/svg" width="123" height="123" viewBox="0 0 123 123">
  <circle id="Ellipse_6" data-name="Ellipse 6" cx="61.5" cy="61.5" r="61.5" fill="#cddf63"/>
  <path id="Path_11" data-name="Path 11" d="M138.564,72.617a47.39,47.39,0,1,0-67.021,67.018l27.692,27.692q3,.294,6.075.3a61.5,61.5,0,0,0,61.5-61.5c0-1.857-.087-3.695-.248-5.51Z" transform="translate(-43.811 -44.626)" fill="#a3ce4c"/>
  <path id="Path_113" data-name="Path 113" d="M47.391,0A47.391,47.391,0,1,1,0,47.391,47.391,47.391,0,0,1,47.391,0Z" transform="translate(13.853 14.109)" fill="#74c4c7"/>
  <path id="Path_12" data-name="Path 12" d="M254.93,58.735v94.78a47.39,47.39,0,0,0,0-94.78Z" transform="translate(-193.687 -44.625)" fill="#0b8489"/>
  <circle id="Ellipse_8" data-name="Ellipse 8" cx="38.308" cy="38.308" r="38.308" transform="translate(22.936 23.192)" fill="#aceaf9"/>
  <path id="Path_13" data-name="Path 13" d="M293.236,134.849a38.307,38.307,0,0,0-38.307-38.307v76.615A38.308,38.308,0,0,0,293.236,134.849Z" transform="translate(-193.686 -73.349)" fill="#69c4d2"/>
  <g id="Group_1" data-name="Group 1" transform="translate(31.052 49.794)">
    <path id="Path_14" data-name="Path 14" d="M136.955,221.609a7.6,7.6,0,0,1,2.743.487,6.394,6.394,0,0,1,2.183,1.372,6.285,6.285,0,0,1,1.431,2.124,7.551,7.551,0,0,1-.059,5.635,6.5,6.5,0,0,1-1.608,2.227A7.415,7.415,0,0,1,139.2,234.9a8.9,8.9,0,0,1-3.068.516,8.566,8.566,0,0,1-4.115-.974,6.719,6.719,0,0,1-2.758-2.655l2.271-2.36a6.143,6.143,0,0,0,2.065,1.829,5.277,5.277,0,0,0,2.567.679,3.656,3.656,0,0,0,2.611-.959A3.432,3.432,0,0,0,136.394,225a3.839,3.839,0,0,0-1.814.443,3.545,3.545,0,0,0-1.342,1.21h-3.452a6.3,6.3,0,0,1,.118-.664q.117-.575.3-1.475t.383-2.006q.206-1.106.442-2.257.531-2.714,1.18-6.077H142.53v3.6h-7.464l-.855,4.691a2.5,2.5,0,0,1,1.047-.62A5.343,5.343,0,0,1,136.955,221.609Z" transform="translate(-129.255 -212.516)" fill="#0b8489"/>
    <path id="Path_15" data-name="Path 15" d="M220.612,223.008c0,5.926-3.674,10.719-9.056,10.719-5.612,0-9.056-5.01-9.056-10.719,0-6.009,3.727-10.754,9.056-10.754C216.774,212.254,220.612,216.92,220.612,223.008Zm-3.962,0c0-3.585-1.689-7.146-5.094-7.146-3.475,0-5.165,3.492-5.165,7.146s1.685,7.11,5.165,7.11C214.9,230.118,216.65,226.727,216.65,223.008Z" transform="translate(-184.904 -211.058)" fill="#0b8489"/>
    <path id="Path_16" data-name="Path 16" d="M299.567,216.621a4.691,4.691,0,1,1,5.09-4.689A4.879,4.879,0,0,1,299.567,216.621ZM296.2,228.036l16.72-20.7L314.807,209l-16.72,20.7Zm3.363-13.481a2.468,2.468,0,0,0,2.19-2.622,2.419,2.419,0,0,0-2.19-2.591,2.646,2.646,0,0,0,0,5.214Zm11.908,15.239a4.691,4.691,0,1,1,5.09-4.658A4.862,4.862,0,0,1,311.475,229.794Zm0-2.067a2.646,2.646,0,1,0-2.19-2.591A2.418,2.418,0,0,0,311.475,227.727Z" transform="translate(-254.785 -207.274)" fill="#0b8489"/>
  </g>
</svg>
