<svg xmlns="http://www.w3.org/2000/svg" xmlns:xlink="http://www.w3.org/1999/xlink" width="26" height="26" viewBox="0 0 26 26">
  <defs>
    <clipPath id="clip-path">
      <rect id="Rectangle_2644" data-name="Rectangle 2644" width="26" height="26" transform="translate(313 529)" fill="#fff" stroke="#707070" stroke-width="1"/>
    </clipPath>
  </defs>
  <g id="poslovni-prostori" transform="translate(-313 -529)" clip-path="url(#clip-path)">
    <g id="Group_6091" data-name="Group 6091" transform="translate(202.808 117.809)">
      <g id="Group_6085" data-name="Group 6085" transform="translate(113.064 422.054)">
        <path id="Path_3604" data-name="Path 3604" d="M119.9,447.294h-2.742a1.592,1.592,0,0,1-1.6-1.582V433.94c0-.234.192.2.429.2a.426.426,0,0,1,.429.424v11.146a.738.738,0,0,0,.741.734H119.9a.424.424,0,1,1,0,.848Z" transform="translate(-115.559 -433.871)" fill="#4a4365"/>
      </g>
      <g id="Group_6086" data-name="Group 6086" transform="translate(119.518 425.524)">
        <path id="Path_3605" data-name="Path 3605" d="M137.538,451.458a.426.426,0,0,1-.429-.424v-7.715a.506.506,0,0,0-.508-.5h-4.617a.506.506,0,0,0-.507.5v7.715a.429.429,0,0,1-.857,0v-7.715a1.359,1.359,0,0,1,1.365-1.35H136.6a1.359,1.359,0,0,1,1.365,1.35v7.715A.426.426,0,0,1,137.538,451.458Z" transform="translate(-130.62 -441.968)" fill="#4a4365"/>
      </g>
      <g id="Group_6087" data-name="Group 6087" transform="translate(116.975 421.992)">
        <path id="Path_3606" data-name="Path 3606" d="M139.432,447.211H125.115a.424.424,0,1,1,0-.848h14.318a.738.738,0,0,0,.741-.734V434.483a.426.426,0,0,1,.429-.424c.237,0,.429-.505.429-.271v11.841A1.591,1.591,0,0,1,139.432,447.211Z" transform="translate(-124.686 -433.726)" fill="#ff296b"/>
      </g>
      <path id="Path_3607" data-name="Path 3607" d="M135.189,417.815a.427.427,0,0,0-.029-.141l0-.009v0l-1.872-4.217a.429.429,0,0,0-.393-.254h-19.4a.429.429,0,0,0-.393.254l-1.872,4.217v0l0,.009a.411.411,0,0,0-.029.141c0,.006,0,.011,0,.018V420.9a.429.429,0,0,0,.857,0v-2.64h22.286v2.263a2.451,2.451,0,0,0-1.358,1.044c-.38.486-.619.762-1.109.762s-.729-.275-1.109-.762a2.008,2.008,0,0,0-3.573,0c-.38.486-.618.761-1.108.761s-.726-.275-1.106-.761a2.006,2.006,0,0,0-3.57,0c-.38.486-.618.761-1.107.761s-.727-.275-1.107-.761a2.005,2.005,0,0,0-3.57,0c-.38.486-.618.761-1.107.761s-.727-.275-1.106-.761a.432.432,0,0,0-.6-.077.422.422,0,0,0-.077.6,2.006,2.006,0,0,0,3.57,0c.379-.486.618-.762,1.107-.762s.727.275,1.107.762a2.006,2.006,0,0,0,3.57,0c.38-.486.618-.762,1.107-.762s.727.275,1.107.762a2.006,2.006,0,0,0,3.57,0c.38-.486.618-.762,1.108-.762s.729.275,1.109.762a2.009,2.009,0,0,0,3.573,0c.38-.486.619-.762,1.109-.762a.426.426,0,0,0,.429-.424v-3.064C135.192,417.826,135.189,417.821,135.189,417.815Zm-22.912-.407,1.5-3.369h18.839l1.5,3.369Z" fill="#4a4365"/>
      <g id="Group_6088" data-name="Group 6088" transform="translate(116.975 413.191)">
        <path id="Path_3608" data-name="Path 3608" d="M125.115,418.256a.426.426,0,0,1-.429-.424v-4.217a.429.429,0,0,1,.857,0v4.217A.426.426,0,0,1,125.115,418.256Z" transform="translate(-124.686 -413.191)" fill="#4a4365"/>
      </g>
      <g id="Group_6089" data-name="Group 6089" transform="translate(122.763 413.191)">
        <path id="Path_3609" data-name="Path 3609" d="M138.621,418.256a.426.426,0,0,1-.429-.424v-4.217a.429.429,0,0,1,.857,0v4.217A.426.426,0,0,1,138.621,418.256Z" transform="translate(-138.192 -413.191)" fill="#4a4365"/>
      </g>
      <g id="Group_6090" data-name="Group 6090" transform="translate(128.403 414.535)">
        <path id="Path_3610" data-name="Path 3610" d="M151.781,418.7a.426.426,0,0,1-.429-.424v-1.528a.429.429,0,0,1,.857,0v1.528A.426.426,0,0,1,151.781,418.7Z" transform="translate(-151.352 -416.328)" fill="#ff296b"/>
      </g>
    </g>
  </g>
</svg>
