<svg xmlns="http://www.w3.org/2000/svg" width="75" height="75" viewBox="0 0 75 75"><g transform="translate(0 0)"><path d="M75,37.5A37.5,37.5,0,1,1,37.5,0,37.5,37.5,0,0,1,75,37.5Zm0,0" fill="#77b3b5"/><path d="M200.792,106.322a37.583,37.583,0,0,0-.233-4.157L179.328,80.934,148,131.71l11.5,11.5a37.579,37.579,0,0,0,4.157.233,37.125,37.125,0,0,0,37.126-37.126Zm0,0" transform="translate(-125.792 -68.448)" fill="#0b8489"/><path d="M148,80.938h31.323v51.525H148Zm0,0" transform="translate(-126.166 -69.2)" fill="#414952"/><path d="M255.215,80.934H270.99v51.525H255.215Zm0,0" transform="translate(-217.729 -69.196)" fill="#333940"/><path d="M163.332,104h26.877v44.835H163.332Zm0,0" transform="translate(-139.271 -88.918)" fill="#4a7aff"/><path d="M255.215,104h13.552v44.835H255.215Zm0,0" transform="translate(-217.747 -88.918)" fill="#2864f0"/><path d="M238.587,148H213.637A4.637,4.637,0,0,0,209,152.637v14.6a4.637,4.637,0,0,0,4.637,4.637h1.155v5.616l9.741-5.616h14.055a4.637,4.637,0,0,0,4.637-4.637v-14.6A4.637,4.637,0,0,0,238.587,148Zm0,0" transform="translate(-177.941 -126.178)" fill="#eb626e"/><path d="M339.171,148H326.644v23.87h12.527a4.637,4.637,0,0,0,4.637-4.637v-14.6A4.637,4.637,0,0,0,339.171,148Zm0,0" transform="translate(-278.525 -126.218)" fill="#d63946"/></g><text transform="translate(34.219 37.102)" fill="#fff" font-size="11" font-family="Montserrat-SemiBold, Montserrat" font-weight="600"><tspan x="0" y="0">SMS</tspan></text></svg>