<svg xmlns="http://www.w3.org/2000/svg" xmlns:xlink="http://www.w3.org/1999/xlink" width="26" height="26" viewBox="0 0 26 26">
  <defs>
    <clipPath id="clip-path">
      <rect id="Rectangle_2631" data-name="Rectangle 2631" width="26" height="26" transform="translate(311 529)" fill="#fff" stroke="#707070" stroke-width="1"/>
    </clipPath>
  </defs>
  <g id="sobe" transform="translate(-311 -529)" clip-path="url(#clip-path)">
    <g id="Group_6009" data-name="Group 6009" transform="translate(-1244.448 -166.73)">
      <g id="Group_6008" data-name="Group 6008" transform="translate(1638.505 188.555)">
        <g id="Group_6006" data-name="Group 6006" transform="translate(-75.412 528.84)">
          <g id="Group_6003" data-name="Group 6003" transform="translate(3.772 0)">
            <path id="Path_3552" data-name="Path 3552" d="M-60.176,557.251h-2.477a.428.428,0,0,1-.429-.429.428.428,0,0,1,.429-.429h2.477a.428.428,0,0,1,.429.429A.428.428,0,0,1-60.176,557.251Z" transform="translate(63.082 -556.394)" fill="#4a4365"/>
          </g>
          <g id="Group_6004" data-name="Group 6004" transform="translate(0 0)">
            <path id="Path_3553" data-name="Path 3553" d="M-70.217,559.729a1.669,1.669,0,0,1-1.667-1.667,1.669,1.669,0,0,1,1.667-1.668h7.655a.428.428,0,0,1,.429.429.428.428,0,0,1-.429.429h-7.655a.811.811,0,0,0-.81.81.811.811,0,0,0,.81.81.428.428,0,0,1,.429.429A.428.428,0,0,1-70.217,559.729Z" transform="translate(71.884 -556.394)" fill="#4a4365"/>
          </g>
          <g id="Group_6005" data-name="Group 6005" transform="translate(1.239 0)">
            <path id="Path_3554" data-name="Path 3554" d="M-60.91,559.729h-7.655a.428.428,0,0,1-.429-.429.428.428,0,0,1,.429-.429h7.655a.811.811,0,0,0,.81-.81.811.811,0,0,0-.81-.81.428.428,0,0,1-.429-.429.428.428,0,0,1,.429-.429,1.669,1.669,0,0,1,1.667,1.668A1.669,1.669,0,0,1-60.91,559.729Z" transform="translate(68.994 -556.394)" fill="#ff296b"/>
          </g>
        </g>
        <g id="Group_6007" data-name="Group 6007" transform="translate(-78.058 508.175)">
          <path id="Path_3555" data-name="Path 3555" d="M-61.79,522.9l-4.3-14.421a.429.429,0,0,0-.411-.307h-6.836a.429.429,0,0,0-.411.307l-4.293,14.4a.426.426,0,0,0,.068.378.428.428,0,0,0,.343.172l2.58.021v1.415a1.315,1.315,0,0,0-.889,1.239,1.318,1.318,0,0,0,1.317,1.317,1.318,1.318,0,0,0,1.317-1.317,1.315,1.315,0,0,0-.888-1.239v-1.415h2.607v5.815a.428.428,0,0,0,.429.429.428.428,0,0,0,.429-.429v-5.815h1.621v5.815a.428.428,0,0,0,.429.429.428.428,0,0,0,.429-.429v-5.815h1.392a.429.429,0,0,0,.429-.429.429.429,0,0,0-.429-.429l-10.2-.021,4.04-13.543h6.2l4.045,13.564h-1.467a.428.428,0,0,0-.429.429.429.429,0,0,0,.429.429h2.04a.429.429,0,0,0,.343-.172A.427.427,0,0,0-61.79,522.9Zm-12.831,3.664a.46.46,0,0,1-.46-.459.461.461,0,0,1,.46-.46.46.46,0,0,1,.459.46A.46.46,0,0,1-74.621,526.567Z" transform="translate(78.058 -508.175)" fill="#4a4365"/>
          <path id="Path_3556" data-name="Path 3556" d="M-49.031,542.1a.244.244,0,0,0-.039-.073c-.017-.026-.034-.047-.051-.068a.449.449,0,0,0-.609,0,.406.406,0,0,0-.051.068.254.254,0,0,0-.039.073.262.262,0,0,0-.025.081.253.253,0,0,0-.009.082.365.365,0,0,0,.034.163.5.5,0,0,0,.09.141.427.427,0,0,0,.3.124.426.426,0,0,0,.163-.034.5.5,0,0,0,.142-.09.5.5,0,0,0,.09-.141.427.427,0,0,0,.034-.163.526.526,0,0,0-.009-.082A.263.263,0,0,0-49.031,542.1Z" transform="translate(61.941 -527.411)" fill="#4a4365"/>
        </g>
      </g>
    </g>
  </g>
</svg>
