<svg xmlns="http://www.w3.org/2000/svg" xmlns:xlink="http://www.w3.org/1999/xlink" width="26" height="26" viewBox="0 0 26 26">
  <defs>
    <clipPath id="clip-path">
      <rect id="Rectangle_2637" data-name="Rectangle 2637" width="26" height="26" transform="translate(312 488)" fill="none" stroke="#707070" stroke-width="1"/>
    </clipPath>
  </defs>
  <g id="sportski-objekti" transform="translate(-312 -488)" clip-path="url(#clip-path)">
    <g id="Rectangle_2636" data-name="Rectangle 2636" transform="translate(290 357)" fill="none" stroke="#e4e3e8" stroke-width="1">
      <rect width="960" height="441" rx="6" stroke="none"/>
      <rect x="0.5" y="0.5" width="959" height="440" rx="5.5" fill="none"/>
    </g>
    <g id="Group_6047" data-name="Group 6047" transform="translate(319.069 15.678)">
      <path id="Path_3583" data-name="Path 3583" d="M16.321,482.314H15.276v-1.1a2.9,2.9,0,1,0-5.79,0v2.06H2.347v-2.06a2.9,2.9,0,0,0-2.895-2.9,2.9,2.9,0,0,0-2.9,2.9v1.1H-4.459a1.615,1.615,0,0,0-1.61,1.616v3.357a1.614,1.614,0,0,0,1.61,1.615h1.016V490a2.9,2.9,0,0,0,2.9,2.9A2.9,2.9,0,0,0,2.347,490v-2.122H9.486V490a2.9,2.9,0,1,0,5.79,0v-1.1h1.046a1.614,1.614,0,0,0,1.61-1.615v-3.357A1.615,1.615,0,0,0,16.321,482.314Zm-19.764,5.73H-4.459a.756.756,0,0,1-.753-.758v-3.357a.757.757,0,0,1,.753-.759h1.016ZM1.49,490a2.04,2.04,0,0,1-2.038,2.038A2.041,2.041,0,0,1-2.586,490v-8.781a2.041,2.041,0,0,1,2.038-2.038,2.04,2.04,0,0,1,2.038,2.038Zm.857-2.979v-2.884H9.486v2.884ZM14.418,490a2.038,2.038,0,1,1-4.076,0v-8.781a2.038,2.038,0,1,1,4.076,0Zm2.655-2.712a.756.756,0,0,1-.753.758H15.276v-4.873h1.046a.757.757,0,0,1,.753.759Z" fill="#4a4365"/>
      <g id="Group_6046" data-name="Group 6046" transform="translate(12.753 485.305)">
        <path id="Path_3584" data-name="Path 3584" d="M38.278,499a.428.428,0,0,1-.429-.429v-3.532a.429.429,0,1,1,.857,0v3.532A.428.428,0,0,1,38.278,499Z" transform="translate(-37.849 -494.615)" fill="#ff296b"/>
      </g>
    </g>
  </g>
</svg>
