<svg xmlns="http://www.w3.org/2000/svg" xmlns:xlink="http://www.w3.org/1999/xlink" width="26" height="26" viewBox="0 0 26 26">
  <defs>
    <clipPath id="clip-path">
      <rect id="Rectangle_2641" data-name="Rectangle 2641" width="26" height="26" transform="translate(309 426)" fill="none" stroke="#707070" stroke-width="1"/>
    </clipPath>
  </defs>
  <g id="stanovi" transform="translate(-309 -426)" clip-path="url(#clip-path)">
    <g id="Group_6082" data-name="Group 6082" transform="translate(297.9 114.929)">
      <g id="Group_6076" data-name="Group 6076" transform="translate(12.1 324.071)">
        <path id="Path_3600" data-name="Path 3600" d="M34.165,341.271v-1.125a1.908,1.908,0,0,0-1.935-1.875H25.648a1.955,1.955,0,0,0-1.548.751,1.955,1.955,0,0,0-1.548-.751H15.971a1.908,1.908,0,0,0-1.935,1.875v1.125a1.908,1.908,0,0,0-1.935,1.875v6.75a.381.381,0,0,0,.387.375H35.713a.381.381,0,0,0,.387-.375v-6.75A1.908,1.908,0,0,0,34.165,341.271Zm-18.194,8.25h-3.1v-6.375a1.145,1.145,0,0,1,1.161-1.125h.774a1.145,1.145,0,0,1,1.161,1.125Zm-1.161-8.25v-1.125a1.145,1.145,0,0,1,1.161-1.125h6.581a1.145,1.145,0,0,1,1.161,1.125v4.5a1.969,1.969,0,0,0-1.161-.376H17.906a1.969,1.969,0,0,0-1.161.376v-1.5A1.908,1.908,0,0,0,14.81,341.271Zm8.9,4.875v1.125H16.745v-1.125a1.145,1.145,0,0,1,1.161-1.125h4.645A1.145,1.145,0,0,1,23.713,346.146Zm7.742,3.375H16.745v-1.5h14.71Zm0-2.25H24.487v-1.125a1.145,1.145,0,0,1,1.161-1.125h4.645a1.145,1.145,0,0,1,1.161,1.125Zm0-4.125v1.5a1.969,1.969,0,0,0-1.161-.376H25.648a1.969,1.969,0,0,0-1.161.376v-4.5a1.145,1.145,0,0,1,1.161-1.125h6.581a1.145,1.145,0,0,1,1.161,1.125v1.125A1.908,1.908,0,0,0,31.455,343.146Zm3.871,6.375h-3.1v-6.375a1.145,1.145,0,0,1,1.161-1.125h.774a1.145,1.145,0,0,1,1.161,1.125Z" transform="translate(-12.1 -338.271)" fill="#4a4365"/>
      </g>
      <g id="Group_6081" data-name="Group 6081" transform="translate(0.194 -1)">
        <g id="Group_6079" data-name="Group 6079" transform="translate(19.77 315.062)">
          <g id="Group_6078" data-name="Group 6078" transform="translate(0 0)">
            <g id="Group_6077" data-name="Group 6077">
              <path id="Path_3601" data-name="Path 3601" d="M31.218,320.273a1.271,1.271,0,0,1-1.194-.816,1.174,1.174,0,0,1-.092-.47,1.19,1.19,0,0,1,.1-.484,1.265,1.265,0,0,1,1.188-.8,1.28,1.28,0,0,1,1.2.814,1.234,1.234,0,0,1,.09.472,1.25,1.25,0,0,1-.092.477A1.279,1.279,0,0,1,31.218,320.273Zm0-1.882a.585.585,0,0,0-.55.375.527.527,0,0,0-.046.22.507.507,0,0,0,.04.207.593.593,0,0,0,1.11.012.568.568,0,0,0,.042-.218.554.554,0,0,0-.04-.213A.6.6,0,0,0,31.218,318.391Z" transform="translate(-29.932 -317.701)" fill="#ff296b"/>
            </g>
          </g>
        </g>
        <g id="Group_6080" data-name="Group 6080" transform="translate(17.906 313.071)">
          <path id="Path_3602" data-name="Path 3602" d="M37.6,313.071H25.987a.387.387,0,0,0-.387.387v8.516a.387.387,0,0,0,.387.387H37.6a.387.387,0,0,0,.387-.387v-8.516A.387.387,0,0,0,37.6,313.071Zm-5.63,8.455-.862-1.192,1.71-2.366,2.615,3.62H32A.369.369,0,0,0,31.97,321.526Zm-3.817.061,1.455-2.014,1.455,2.014Zm9.06,0h-.844a.335.335,0,0,0-.028-.061l-3.211-4.443a.4.4,0,0,0-.625,0l-1.873,2.592-.712-.986a.386.386,0,0,0-.625,0l-2.05,2.837a.335.335,0,0,0-.028.061h-.844v-7.742H37.213Z" transform="translate(-25.6 -313.071)" fill="#4a4365"/>
        </g>
      </g>
    </g>
  </g>
</svg>
