<svg xmlns="http://www.w3.org/2000/svg" xmlns:xlink="http://www.w3.org/1999/xlink" width="160" height="160" viewBox="0 0 160 160">
  <defs>
    <style>
      .cls-1 {
        fill: url(#linear-gradient);
      }
    </style>
    <linearGradient id="linear-gradient" x1="0.964" y1="0.045" x2="0.04" y2="0.969" gradientUnits="objectBoundingBox">
      <stop offset="0" stop-color="#1f3354"/>
      <stop offset="1" stop-color="#374a6a"/>
    </linearGradient>
  </defs>
  <path id="Subtraction_2" data-name="Subtraction 2" class="cls-1" d="M-7992,277h-80a39.748,39.748,0,0,1-15.569-3.143,39.863,39.863,0,0,1-12.714-8.572,39.862,39.862,0,0,1-8.572-12.714A39.756,39.756,0,0,1-8112,237V194.679l17.2-5.257,24.159,79.016,22.69-6.936-20.21-66.11a20.016,20.016,0,0,1-.54-6.927,11.647,11.647,0,0,1,1.908-5.439,10.181,10.181,0,0,1,5.657-3.9,11.593,11.593,0,0,1,3.291-.51,8.834,8.834,0,0,1,5.135,1.614,12.533,12.533,0,0,1,3.313,3.55,19.278,19.278,0,0,1,2.306,5.164l20.21,66.11,23.1-7.062-21.266-69.564a12.668,12.668,0,0,1,1.688-5.74,16.132,16.132,0,0,1,4.168-4.834,24.246,24.246,0,0,1,8.215-4.064,15.893,15.893,0,0,1,4.488-.69,12.265,12.265,0,0,1,6.808,2.024,16.655,16.655,0,0,1,4.469,4.452,24.516,24.516,0,0,1,3.194,6.476c.734,3.565.683,8.434-.152,14.472a142.473,142.473,0,0,1-3.474,16.6c-2.792,10.551-6.008,19.26-6.041,19.346l5.84,19.1L-7952,232.165V237a39.756,39.756,0,0,1-3.143,15.569,39.867,39.867,0,0,1-8.573,12.714,39.856,39.856,0,0,1-12.714,8.572A39.755,39.755,0,0,1-7992,277Zm18.611-59.176v0c.276-1.756,6.76-43.129,5.921-53.217-.113-1.363-2.606-9.406-8.41-17.079-5.139-6.8-14.155-14.9-27.922-14.9a40.259,40.259,0,0,0-8.8,1.019c-7.2,2.274-12.885,7.716-16.387,11.88a53.717,53.717,0,0,0-5.936,8.577,23.183,23.183,0,0,0-4.636-4.742,21.882,21.882,0,0,0-13.434-4.742,24.436,24.436,0,0,0-7.3,1.169c-8.459,2.655-13.01,6.644-15.337,9.524a15.026,15.026,0,0,0-3.056,5.67l-2.677-8.751-14.513,4.438L-8112,177.353V157a39.758,39.758,0,0,1,3.143-15.57,39.865,39.865,0,0,1,8.572-12.715,39.863,39.863,0,0,1,12.714-8.573A39.746,39.746,0,0,1-8072,117h80a39.752,39.752,0,0,1,15.571,3.144,39.866,39.866,0,0,1,12.714,8.573,39.87,39.87,0,0,1,8.573,12.715A39.758,39.758,0,0,1-7952,157v54.282l-21.388,6.54Z" transform="translate(8112 -117)"/>
</svg>
