<svg width="61" height="28" viewBox="0 0 61 28" fill="none" xmlns="http://www.w3.org/2000/svg">
<path d="M8.79883 15.2021L22.7818 0L30.3181 3.95736L8.79883 15.2021Z" fill="#3E4C63"/>
<path d="M22.7773 0H38.0116L52.2004 15.4323L22.7773 0Z" fill="#212936"/>
<path d="M8.99958 17.9352V23.832H7.56318V20.2956L6.24438 23.832H5.08518L3.75798 20.2872V23.832H2.32158V17.9352H4.01838L5.67318 22.0176L7.31118 17.9352H8.99958ZM12.8213 23.8908C12.2669 23.8908 11.7573 23.762 11.2925 23.5044C10.8333 23.2468 10.4665 22.8884 10.1921 22.4292C9.92332 21.9644 9.78892 21.4436 9.78892 20.8668C9.78892 20.29 9.92332 19.772 10.1921 19.3128C10.4665 18.8536 10.8333 18.4952 11.2925 18.2376C11.7573 17.98 12.2669 17.8512 12.8213 17.8512C13.3757 17.8512 13.8825 17.98 14.3417 18.2376C14.8065 18.4952 15.1705 18.8536 15.4337 19.3128C15.7025 19.772 15.8369 20.29 15.8369 20.8668C15.8369 21.4436 15.7025 21.9644 15.4337 22.4292C15.1649 22.8884 14.8009 23.2468 14.3417 23.5044C13.8825 23.762 13.3757 23.8908 12.8213 23.8908ZM12.8213 22.5804C13.2917 22.5804 13.6669 22.4236 13.9469 22.11C14.2325 21.7964 14.3753 21.382 14.3753 20.8668C14.3753 20.346 14.2325 19.9316 13.9469 19.6236C13.6669 19.31 13.2917 19.1532 12.8213 19.1532C12.3453 19.1532 11.9645 19.3072 11.6789 19.6152C11.3989 19.9232 11.2589 20.3404 11.2589 20.8668C11.2589 21.3876 11.3989 21.8048 11.6789 22.1184C11.9645 22.4264 12.3453 22.5804 12.8213 22.5804ZM20.332 17.9352V21.9504C20.332 22.572 20.1556 23.0508 19.8028 23.3868C19.4556 23.7228 18.9852 23.8908 18.3916 23.8908C17.77 23.8908 17.2716 23.7144 16.8964 23.3616C16.5212 23.0088 16.3336 22.5076 16.3336 21.858H17.7616C17.7616 22.1044 17.812 22.292 17.9128 22.4208C18.0136 22.544 18.1592 22.6056 18.3496 22.6056C18.5232 22.6056 18.6576 22.5496 18.7528 22.4376C18.848 22.3256 18.8956 22.1632 18.8956 21.9504V17.9352H20.332Z" fill="#212936"/>
<path d="M24.7935 23.832L22.3827 21.1608V23.832H21.6183V17.9772H22.3827V20.6904L24.8019 17.9772H25.7679L23.1135 20.9088L25.7931 23.832H24.7935ZM31.4852 17.9772L29.276 23.832H28.394L26.1848 17.9772H26.9996L28.8392 23.0256L30.6788 17.9772H31.4852ZM35.7842 22.53H33.2306L32.7602 23.832H31.9538L34.0706 18.0108H34.9526L37.061 23.832H36.2546L35.7842 22.53ZM35.5658 21.9084L34.5074 18.9516L33.449 21.9084H35.5658ZM39.8063 17.9772C40.4447 17.9772 40.9963 18.0976 41.4611 18.3384C41.9315 18.5736 42.2899 18.9124 42.5363 19.3548C42.7883 19.7972 42.9143 20.318 42.9143 20.9172C42.9143 21.5164 42.7883 22.0372 42.5363 22.4796C42.2899 22.9164 41.9315 23.2524 41.4611 23.4876C40.9963 23.7172 40.4447 23.832 39.8063 23.832H37.9835V17.9772H39.8063ZM39.8063 23.202C40.5623 23.202 41.1391 23.0032 41.5367 22.6056C41.9343 22.2024 42.1331 21.6396 42.1331 20.9172C42.1331 20.1892 41.9315 19.6208 41.5283 19.212C41.1307 18.8032 40.5567 18.5988 39.8063 18.5988H38.7479V23.202H39.8063ZM47.0054 23.832L45.611 21.438H44.687V23.832H43.9226V17.9772H45.8126C46.255 17.9772 46.6274 18.0528 46.9298 18.204C47.2378 18.3552 47.4674 18.5596 47.6186 18.8172C47.7698 19.0748 47.8454 19.3688 47.8454 19.6992C47.8454 20.1024 47.7278 20.458 47.4926 20.766C47.263 21.074 46.9158 21.2784 46.451 21.3792L47.921 23.832H47.0054ZM44.687 20.8248H45.8126C46.227 20.8248 46.5378 20.724 46.745 20.5224C46.9522 20.3152 47.0558 20.0408 47.0558 19.6992C47.0558 19.352 46.9522 19.0832 46.745 18.8928C46.5434 18.7024 46.2326 18.6072 45.8126 18.6072H44.687V20.8248ZM52.4939 22.53H49.9403L49.4699 23.832H48.6635L50.7803 18.0108H51.6623L53.7707 23.832H52.9643L52.4939 22.53ZM52.2755 21.9084L51.2171 18.9516L50.1587 21.9084H52.2755ZM58.2969 17.9772V18.5988H56.7009V23.832H55.9365V18.5988H54.3321V17.9772H58.2969Z" fill="#3E4C63"/>
</svg>
