<svg xmlns="http://www.w3.org/2000/svg" xmlns:xlink="http://www.w3.org/1999/xlink" width="26" height="26" viewBox="0 0 26 26">
  <defs>
    <clipPath id="clip-path">
      <rect id="Rectangle_2634" data-name="Rectangle 2634" width="26" height="26" transform="translate(313 529)" fill="#fff" stroke="#707070" stroke-width="1"/>
    </clipPath>
  </defs>
  <g id="ugostiteljski-objekti" transform="translate(-313 -529)" clip-path="url(#clip-path)">
    <g id="Group_6039" data-name="Group 6039" transform="translate(299.39 17.304)">
      <g id="Group_6033" data-name="Group 6033" transform="translate(26.774 522.882)">
        <path id="Path_3573" data-name="Path 3573" d="M40.812,537.319a.429.429,0,0,1-.162-.03.373.373,0,0,1-.136-.094.43.43,0,0,1-.129-.3.436.436,0,0,1,.034-.163.371.371,0,0,1,.094-.137.271.271,0,0,1,.064-.056c.021-.013.047-.026.073-.039l.082-.026a.441.441,0,0,1,.479.258.428.428,0,0,1-.4.591Z" transform="translate(-40.384 -536.463)" fill="#4a4365"/>
      </g>
      <path id="Path_3574" data-name="Path 3574" d="M34,537.975H32.832a.421.421,0,0,0-.169.036v-1.117a.428.428,0,1,0-.855,0v4.829a7.171,7.171,0,1,1-14.342,0v-4.4h7.966a.429.429,0,0,0,0-.857H17.038a.428.428,0,0,0-.428.429v4.829a8.056,8.056,0,0,0,5.7,7.7H17.038a.429.429,0,0,0,0,.857h15.2a.429.429,0,0,0,0-.857H26.961a8.059,8.059,0,0,0,5.459-5.77h1.134a3.064,3.064,0,0,0,3.056-3.064A2.612,2.612,0,0,0,34,537.975Zm-.451,4.819h-.971a8.049,8.049,0,0,0,.08-1.071V538.8a.42.42,0,0,0,.169.036H34a1.755,1.755,0,0,1,1.751,1.755A2.206,2.206,0,0,1,33.554,542.794Z" transform="translate(0 -13.582)" fill="#4a4365"/>
      <g id="Group_6037" data-name="Group 6037" transform="translate(19.53 512.696)">
        <g id="Group_6034" data-name="Group 6034" transform="translate(0 0.499)">
          <path id="Path_3575" data-name="Path 3575" d="M23.868,521.349a.428.428,0,0,1-.428-.429,3.744,3.744,0,0,1,3.735-3.744h2.743a2.887,2.887,0,0,0,2.88-2.887.428.428,0,1,1,.855,0,3.744,3.744,0,0,1-3.735,3.744H27.175A2.886,2.886,0,0,0,24.3,520.92.428.428,0,0,1,23.868,521.349Z" transform="translate(-23.44 -513.861)" fill="#ff296b"/>
        </g>
        <g id="Group_6035" data-name="Group 6035" transform="translate(5.474 0)">
          <path id="Path_3576" data-name="Path 3576" d="M36.671,515.274a.429.429,0,0,1,0-.857,1.292,1.292,0,0,0,1.289-1.292.428.428,0,1,1,.855,0A2.149,2.149,0,0,1,36.671,515.274Z" transform="translate(-36.243 -512.696)" fill="#4a4365"/>
        </g>
        <g id="Group_6036" data-name="Group 6036" transform="translate(2.049 5.869)">
          <path id="Path_3577" data-name="Path 3577" d="M28.661,529.007a.428.428,0,0,1-.428-.429,2.189,2.189,0,0,1,2.183-2.189.429.429,0,0,1,0,.857,1.331,1.331,0,0,0-1.328,1.332A.428.428,0,0,1,28.661,529.007Z" transform="translate(-28.233 -526.39)" fill="#4a4365"/>
        </g>
      </g>
      <g id="Group_6038" data-name="Group 6038" transform="translate(28.42 522.883)">
        <path id="Path_3578" data-name="Path 3578" d="M48.049,542.151a.428.428,0,0,1-.428-.429v-4.4h-2.96a.429.429,0,0,1,0-.857h3.387a.428.428,0,0,1,.428.429v4.829A.428.428,0,0,1,48.049,542.151Z" transform="translate(-44.234 -536.465)" fill="#ff296b"/>
      </g>
    </g>
  </g>
</svg>
