<?xml version="1.0" encoding="UTF-8"?>
<svg xmlns="http://www.w3.org/2000/svg" xmlns:xlink="http://www.w3.org/1999/xlink" width="10pt" height="10pt" viewBox="0 0 10 10" version="1.1">
<g id="surface1">
<path style=" stroke:none;fill-rule:nonzero;fill:rgb(0%,0%,0%);fill-opacity:1;" d="M 4.460938 2.507812 L 4.460938 0.398438 C 4.46875 0.296875 4.441406 0.1875 4.359375 0.105469 C 4.21875 -0.0351562 3.992188 -0.0351562 3.851562 0.105469 L 0.28125 4.015625 C 0.210938 4.089844 0.175781 4.1875 0.179688 4.289062 C 0.175781 4.382812 0.210938 4.484375 0.28125 4.558594 L 3.828125 8.445312 C 3.960938 8.558594 4.203125 8.625 4.359375 8.46875 C 4.441406 8.386719 4.476562 8.320312 4.464844 8.210938 C 4.464844 8.210938 4.464844 6.28125 4.464844 6.070312 C 6.820312 6.070312 8.953125 7.765625 9.375 10 C 9.65625 9.34375 9.820312 8.625 9.820312 7.867188 C 9.820312 4.90625 7.417969 2.507812 4.460938 2.507812 Z M 4.460938 2.507812 "/>
</g>
</svg>
