<svg xmlns="http://www.w3.org/2000/svg" width="104.744" height="123" viewBox="0 0 104.744 123">
  <g id="surface1" transform="translate(-0.5 0)">
    <path id="Path_23" data-name="Path 23" d="M99.711,82.139a62.055,62.055,0,0,1-14.863,23.154C77.385,112.58,67.613,118.371,55.8,122.5a8.886,8.886,0,0,1-2.823.5h-.106a9.012,9.012,0,0,1-1.732-.171,9.384,9.384,0,0,1-1.191-.325c-11.825-4.124-21.61-9.913-29.081-17.2A61.938,61.938,0,0,1,6.01,82.156C.007,65.865.348,47.919.623,33.5l0-.222c.055-1.191.091-2.442.111-3.823A13.036,13.036,0,0,1,13.014,16.681c14.142-.789,25.082-5.4,34.429-14.513l.082-.075a7.879,7.879,0,0,1,10.7,0l.08.075c9.349,9.111,20.29,13.723,34.432,14.513a13.036,13.036,0,0,1,12.275,12.771c.02,1.391.055,2.64.111,3.823l0,.094C105.4,47.818,105.736,65.8,99.711,82.139Zm0,0" transform="translate(0 0)" fill="#0b8489" opacity="0.5"/>
    <path id="Path_24" data-name="Path 24" d="M265.681,82.142A62.055,62.055,0,0,1,250.818,105.3c-7.463,7.288-17.236,13.079-29.047,17.21a8.886,8.886,0,0,1-2.823.5V0A7.891,7.891,0,0,1,224.192,2.1l.08.075c9.349,9.111,20.29,13.723,34.432,14.513a13.036,13.036,0,0,1,12.275,12.771c.02,1.391.055,2.64.111,3.823l0,.094C271.366,47.821,271.706,65.8,265.681,82.142Zm0,0" transform="translate(-165.97 -0.003)" fill="#0b8489"/>
    <path id="Path_25" data-name="Path 25" d="M152.2,159.052a30.693,30.693,0,0,1-30.547,30.655h-.108a30.655,30.655,0,1,1,0-61.31h.108A30.693,30.693,0,0,1,152.2,159.052Zm0,0" transform="translate(-68.679 -97.552)" fill="#fff"/>
    <path id="Path_26" data-name="Path 26" d="M249.5,159.052a30.693,30.693,0,0,1-30.547,30.655V128.4A30.693,30.693,0,0,1,249.5,159.052Zm0,0" transform="translate(-165.97 -97.552)" fill="#e1ebf0"/>
    <path id="Path_27" data-name="Path 27" d="M183.544,218.141l-13.806,13.808-2.983,2.983a3.613,3.613,0,0,1-5.106,0l-6.414-6.417a3.608,3.608,0,1,1,5.1-5.1l3.864,3.864,14.239-14.238a3.608,3.608,0,0,1,5.1,5.1Zm0,0" transform="translate(-116.759 -161.055)" fill="#0b8489" opacity="0.5"/>
    <path id="Path_28" data-name="Path 28" d="M232.755,218.141l-13.806,13.808V221.739l8.7-8.7a3.608,3.608,0,1,1,5.1,5.1Zm0,0" transform="translate(-165.97 -161.055)" fill="#0b8489"/>
  </g>
</svg>
