<svg xmlns="http://www.w3.org/2000/svg" xmlns:xlink="http://www.w3.org/1999/xlink" width="26" height="26" viewBox="0 0 26 26">
  <defs>
    <clipPath id="clip-path">
      <rect id="Rectangle_2639" data-name="Rectangle 2639" width="26" height="26" transform="translate(313 529)" fill="#fff" stroke="#707070" stroke-width="1"/>
    </clipPath>
  </defs>
  <g id="vikendice" transform="translate(-313 -529)" clip-path="url(#clip-path)">
    <g id="Group_6065" data-name="Group 6065" transform="translate(206.74 116.566)">
      <g id="Group_6061" data-name="Group 6061" transform="translate(107.26 421.044)">
        <path id="Path_3591" data-name="Path 3591" d="M121.512,436.385l-1.74-1.741a.429.429,0,1,0-.606.606l1.628,1.629-12.583.022,6.114-6.119a.266.266,0,0,1,.376,0l2.784,2.785a.429.429,0,0,0,.606-.606l-2.783-2.785a1.125,1.125,0,0,0-1.589,0l-6.227,6.231a.792.792,0,0,0,.56,1.352h.369v6.367a1.113,1.113,0,0,0,1.111,1.112h9.955a1.113,1.113,0,0,0,1.111-1.112v-6.388h.356a.792.792,0,0,0,.558-1.352Zm-8.969,5.5h-3.264v-1.635h3.264Zm-3.264-2.493V437.76h10.463v1.635H109.278Zm7.184.858h3.279v1.635h-3.279Zm-7.184,3.873v-1.381h3.264v1.634h-3.01A.254.254,0,0,1,109.278,444.126Zm4.122.254v-4.127H115.6v4.127Zm6.088,0h-3.025v-1.634h3.279v1.381A.254.254,0,0,1,119.487,444.38Z" transform="translate(-107.26 -429.848)" fill="#4a4365"/>
      </g>
      <g id="Group_6062" data-name="Group 6062" transform="translate(123.755 420.045)">
        <path id="Path_3592" data-name="Path 3592" d="M146.4,428.376h-.228a.429.429,0,0,1,0-.858h.228a.429.429,0,0,1,0,.858Z" transform="translate(-145.746 -427.518)" fill="#ff296b"/>
      </g>
      <g id="Group_6063" data-name="Group 6063" transform="translate(118.195 424.864)">
        <path id="Path_3593" data-name="Path 3593" d="M133.193,439.612h.008a.429.429,0,0,1,0-.858h-.008a.429.429,0,0,1,0,.858Z" transform="translate(-132.773 -438.754)" fill="#4a4365"/>
      </g>
      <path id="Path_3594" data-name="Path 3594" d="M146.914,428.271l-2.685-3.6h.838a.429.429,0,0,0,.344-.685l-2.3-3.081h1.226a.429.429,0,0,0,.344-.685l-4.19-5.621a.444.444,0,0,0-.687,0l-4.19,5.621a.429.429,0,0,0,.343.685h1.1l-2.181,3.09a.429.429,0,0,0,.35.676h.839l-.962,1.29a.429.429,0,0,0,.687.512l1.472-1.975a.411.411,0,0,0,.021-.044.359.359,0,0,0,.054-.165.448.448,0,0,0,.009-.048c0-.011-.005-.019-.006-.03a.425.425,0,0,0-.018-.087.4.4,0,0,0-.026-.074.406.406,0,0,0-.044-.065.434.434,0,0,0-.059-.066c-.008-.007-.012-.016-.02-.022a.414.414,0,0,0-.044-.021.407.407,0,0,0-.079-.038.421.421,0,0,0-.085-.017.454.454,0,0,0-.048-.009h-.865l2.181-3.09a.429.429,0,0,0-.35-.676h-1.076l3.336-4.475,3.336,4.475h-2.012a.429.429,0,0,0,0,.858h.571l2.169,2.909h-4.064a.429.429,0,0,0,0,.858h3.01l2.556,3.429H138.09a.429.429,0,0,0,0,.858h.033V436a.429.429,0,0,0,.429.429h3.195a.428.428,0,0,0,.429-.429v-7.048h4.4a.429.429,0,0,0,.344-.685Zm-5.6,7.3H138.98v-6.62h2.337Z" transform="translate(-15.738 0)" fill="#4a4365"/>
      <g id="Group_6064" data-name="Group 6064" transform="translate(107.976 428.098)">
        <path id="Path_3595" data-name="Path 3595" d="M114.6,447.154h-5.238a.429.429,0,0,1,0-.858H114.6a.429.429,0,0,1,0,.858Z" transform="translate(-108.93 -446.296)" fill="#ff296b"/>
      </g>
    </g>
  </g>
</svg>
