<svg xmlns="http://www.w3.org/2000/svg" width="30" height="30" viewBox="0 0 30 30">
  <g id="Group_286" data-name="Group 286" transform="translate(-813 -1521)">
    <g id="Ellipse_10" data-name="Ellipse 10" transform="translate(813 1521)" fill="#0b8489" stroke="#f1f1f1" stroke-width="3">
      <circle cx="15" cy="15" r="15" stroke="none"/>
      <circle cx="15" cy="15" r="13.5" fill="none"/>
    </g>
    <path id="check-solid" d="M5.3,76.508.229,71.436a.78.78,0,0,1,0-1.1l1.1-1.1a.78.78,0,0,1,1.1,0l3.417,3.417,7.319-7.319a.78.78,0,0,1,1.1,0l1.1,1.1a.78.78,0,0,1,0,1.1L6.4,76.508a.78.78,0,0,1-1.1,0Z" transform="translate(820.434 1465.319)" fill="#f1f1f1"/>
  </g>
</svg>
