<svg xmlns="http://www.w3.org/2000/svg" xmlns:xlink="http://www.w3.org/1999/xlink" width="26" height="26" viewBox="0 0 26 26">
  <defs>
    <clipPath id="clip-path">
      <rect id="Rectangle_2633" data-name="Rectangle 2633" width="26" height="26" transform="translate(312 488)" fill="none" stroke="#707070" stroke-width="1"/>
    </clipPath>
  </defs>
  <g id="zemljista" transform="translate(-312 -488)" clip-path="url(#clip-path)">
    <g id="Rectangle_2632" data-name="Rectangle 2632" transform="translate(290 357)" fill="none" stroke="#e4e3e8" stroke-width="1">
      <rect width="960" height="441" rx="6" stroke="none"/>
      <rect x="0.5" y="0.5" width="959" height="440" rx="5.5" fill="none"/>
    </g>
    <g id="Group_6028" data-name="Group 6028" transform="translate(301 -119.801)">
      <path id="Path_3557" data-name="Path 3557" d="M35.571,625.447a16.5,16.5,0,0,0-15.421,10.735.428.428,0,0,0,.253.55.42.42,0,0,0,.149.027.427.427,0,0,0,.4-.28,15.64,15.64,0,0,1,14.189-10.158v3.534a12.051,12.051,0,0,0-11.6,11.6H21.15a8.741,8.741,0,0,0-8.293-8.294v-2.3a10.987,10.987,0,0,1,7.169,3.022.429.429,0,0,0,.59-.622,11.844,11.844,0,0,0-8.188-3.267.428.428,0,0,0-.429.429v11.465a.428.428,0,0,0,.429.429H35.571a.428.428,0,0,0,.429-.429V625.876A.428.428,0,0,0,35.571,625.447Zm-.429,5.265v3.826a7.366,7.366,0,0,0-6.917,6.918H24.4A11.194,11.194,0,0,1,35.143,630.712ZM17.8,641.456a5.406,5.406,0,0,0-.161-.992.429.429,0,1,0-.827.225,4.528,4.528,0,0,1,.131.767H12.857V637.37a4.527,4.527,0,0,1,3.371,2.027.427.427,0,0,0,.359.193.421.421,0,0,0,.234-.07.429.429,0,0,0,.123-.594,5.381,5.381,0,0,0-4.088-2.413v-2.494a7.884,7.884,0,0,1,7.436,7.437H17.8Zm11.285,0a6.51,6.51,0,0,1,6.06-6.06v6.06Z" transform="translate(0 -9.512)" fill="#4a4365"/>
      <g id="Group_6027" data-name="Group 6027" transform="translate(12 608.801)">
        <g id="Group_6011" data-name="Group 6011" transform="translate(2.897 2.897)">
          <path id="Path_3558" data-name="Path 3558" d="M21.183,620.408a2.424,2.424,0,1,1,2.424-2.424.429.429,0,1,1-.857,0,1.567,1.567,0,1,0-1.567,1.566.429.429,0,0,1,0,.857Z" transform="translate(-18.759 -615.56)" fill="#4a4365"/>
        </g>
        <g id="Group_6012" data-name="Group 6012" transform="translate(4.892 4.892)">
          <path id="Path_3559" data-name="Path 3559" d="M23.844,623.068a.429.429,0,1,1,0-.857,1.569,1.569,0,0,0,1.567-1.566.429.429,0,1,1,.857,0A2.426,2.426,0,0,1,23.844,623.068Z" transform="translate(-23.415 -620.216)" fill="#ff296b"/>
        </g>
        <g id="Group_6013" data-name="Group 6013" transform="translate(4.892)">
          <path id="Path_3560" data-name="Path 3560" d="M23.844,610.751a.428.428,0,0,1-.429-.429V609.23a.429.429,0,1,1,.857,0v1.093A.429.429,0,0,1,23.844,610.751Z" transform="translate(-23.415 -608.801)" fill="#4a4365"/>
        </g>
        <g id="Group_6014" data-name="Group 6014" transform="translate(7.523 1.348)">
          <path id="Path_3561" data-name="Path 3561" d="M29.983,613.577a.429.429,0,0,1-.3-.732l.773-.773a.428.428,0,1,1,.606.606l-.773.773A.427.427,0,0,1,29.983,613.577Z" transform="translate(-29.555 -611.948)" fill="#4a4365"/>
        </g>
        <g id="Group_6015" data-name="Group 6015" transform="translate(4.892)">
          <path id="Path_3562" data-name="Path 3562" d="M23.844,610.751a.428.428,0,0,1-.429-.429V609.23a.429.429,0,1,1,.857,0v1.093A.429.429,0,0,1,23.844,610.751Z" transform="translate(-23.415 -608.801)" fill="#4a4365"/>
        </g>
        <g id="Group_6016" data-name="Group 6016" transform="translate(7.523 1.348)">
          <path id="Path_3563" data-name="Path 3563" d="M29.983,613.577a.429.429,0,0,1-.3-.732l.773-.773a.428.428,0,1,1,.606.606l-.773.773A.427.427,0,0,1,29.983,613.577Z" transform="translate(-29.555 -611.948)" fill="#4a4365"/>
        </g>
        <g id="Group_6017" data-name="Group 6017" transform="translate(1.488 1.348)">
          <path id="Path_3564" data-name="Path 3564" d="M16.674,613.577a.427.427,0,0,1-.3-.126l-.773-.773a.428.428,0,0,1,.606-.606l.773.773a.429.429,0,0,1-.3.732Z" transform="translate(-15.473 -611.948)" fill="#4a4365"/>
        </g>
        <g id="Group_6026" data-name="Group 6026" transform="translate(0 4.892)">
          <g id="Group_6018" data-name="Group 6018" transform="translate(4.892 3.799)">
            <path id="Path_3565" data-name="Path 3565" d="M23.844,631.031a.428.428,0,0,1-.429-.429V629.51a.429.429,0,1,1,.857,0V630.6A.428.428,0,0,1,23.844,631.031Z" transform="translate(-23.415 -629.081)" fill="#4a4365"/>
          </g>
          <g id="Group_6019" data-name="Group 6019" transform="translate(8.692)">
            <path id="Path_3566" data-name="Path 3566" d="M33.8,621.073H32.71a.429.429,0,1,1,0-.857H33.8a.429.429,0,1,1,0,.857Z" transform="translate(-32.281 -620.216)" fill="#4a4365"/>
          </g>
          <g id="Group_6020" data-name="Group 6020" transform="translate(7.523 2.771)">
            <path id="Path_3567" data-name="Path 3567" d="M30.756,628.311a.425.425,0,0,1-.3-.126l-.773-.772a.429.429,0,1,1,.606-.606l.773.772a.429.429,0,0,1-.3.732Z" transform="translate(-29.555 -626.682)" fill="#4a4365"/>
          </g>
          <g id="Group_6021" data-name="Group 6021" transform="translate(4.892 3.799)">
            <path id="Path_3568" data-name="Path 3568" d="M23.844,631.031a.428.428,0,0,1-.429-.429V629.51a.429.429,0,1,1,.857,0V630.6A.428.428,0,0,1,23.844,631.031Z" transform="translate(-23.415 -629.081)" fill="#4a4365"/>
          </g>
          <g id="Group_6022" data-name="Group 6022" transform="translate(8.692)">
            <path id="Path_3569" data-name="Path 3569" d="M33.8,621.073H32.71a.429.429,0,1,1,0-.857H33.8a.429.429,0,1,1,0,.857Z" transform="translate(-32.281 -620.216)" fill="#4a4365"/>
          </g>
          <g id="Group_6023" data-name="Group 6023" transform="translate(7.523 2.771)">
            <path id="Path_3570" data-name="Path 3570" d="M30.756,628.311a.425.425,0,0,1-.3-.126l-.773-.772a.429.429,0,1,1,.606-.606l.773.772a.429.429,0,0,1-.3.732Z" transform="translate(-29.555 -626.682)" fill="#4a4365"/>
          </g>
          <g id="Group_6024" data-name="Group 6024">
            <path id="Path_3571" data-name="Path 3571" d="M13.521,621.073H12.429a.429.429,0,1,1,0-.857h1.092a.429.429,0,1,1,0,.857Z" transform="translate(-12 -620.216)" fill="#4a4365"/>
          </g>
          <g id="Group_6025" data-name="Group 6025" transform="translate(1.488 2.771)">
            <path id="Path_3572" data-name="Path 3572" d="M15.9,628.311a.429.429,0,0,1-.3-.732l.773-.772a.429.429,0,0,1,.606.606l-.773.772A.425.425,0,0,1,15.9,628.311Z" transform="translate(-15.473 -626.682)" fill="#4a4365"/>
          </g>
        </g>
      </g>
    </g>
  </g>
</svg>
