<svg xmlns="http://www.w3.org/2000/svg" width="195.653" height="215.558" viewBox="0 0 195.653 215.558"><g transform="translate(-924 -1223)"><g transform="translate(171.652 249.131)"><g transform="matrix(0.819, 0.574, -0.574, 0.819, 1159.018, -542.761)"><path d="M233.28,159.883H159.467a6.3,6.3,0,0,0-6.3,6.3V301.532a6.3,6.3,0,0,0,9.21,5.592l34-17.679,34,17.679a6.3,6.3,0,0,0,9.21-5.592V166.186a6.3,6.3,0,0,0-6.3-6.3Z" transform="translate(478.822 1303.743)" fill="#eb626e"/><path d="M292.907,159.883H256V289.445l34,17.679a6.3,6.3,0,0,0,9.21-5.592V166.186A6.3,6.3,0,0,0,292.907,159.883Z" transform="translate(419.195 1303.743)" fill="#d63946"/></g><g transform="matrix(0.819, -0.574, 0.574, 0.819, -641.027, 285.135)"><path d="M233.28,159.883H159.467a6.3,6.3,0,0,0-6.3,6.3V301.532a6.3,6.3,0,0,0,9.21,5.592l34-17.679,34,17.679a6.3,6.3,0,0,0,9.21-5.592V166.186a6.3,6.3,0,0,0-6.3-6.3Z" transform="translate(571.822 1303.743)" fill="#4b4f85"/><path d="M292.907,159.883H256V289.445l34,17.679a6.3,6.3,0,0,0,9.21-5.592V166.186A6.3,6.3,0,0,0,292.907,159.883Z" transform="translate(512.195 1303.743)" fill="#000444"/></g><g transform="translate(770.348 973.869)"><g transform="translate(0 0)"><path d="M139.65,157.3c-5.542,0-9.908-3.354-13.417-6.048-1.882-1.445-3.827-2.939-5.155-3.294-1.473-.394-4-.068-6.439.248-4.538.586-9.682,1.251-14.329-1.438-4.7-2.722-6.791-7.759-8.468-11.806-.929-2.242-1.889-4.56-2.919-5.589s-3.347-1.99-5.589-2.918c-4.047-1.677-9.083-3.764-11.8-8.468-2.688-4.647-2.024-9.791-1.437-14.329.315-2.442.642-4.967.248-6.438-.355-1.328-1.849-3.273-3.294-5.154C64.354,88.558,61,84.192,61,78.65s3.353-9.908,6.048-13.417c1.445-1.881,2.939-3.827,3.294-5.155.394-1.472.067-4-.248-6.438-.586-4.539-1.251-9.682,1.438-14.33,2.722-4.7,7.759-6.791,11.806-8.468,2.241-.929,4.559-1.89,5.589-2.919s1.99-3.347,2.919-5.588c1.677-4.047,3.764-9.083,8.468-11.8,4.647-2.689,9.791-2.024,14.329-1.437,2.442.315,4.966.641,6.438.248,1.327-.355,3.273-1.849,5.154-3.294C129.742,3.353,134.108,0,139.65,0s9.908,3.353,13.417,6.048c1.882,1.445,3.827,2.939,5.155,3.294,1.471.394,4,.067,6.438-.248,4.538-.586,9.682-1.251,14.329,1.438,4.7,2.722,6.791,7.759,8.468,11.806.929,2.242,1.889,4.56,2.919,5.589s3.347,1.99,5.589,2.919c4.047,1.677,9.083,3.764,11.8,8.468,2.689,4.647,2.024,9.791,1.437,14.329-.315,2.442-.642,4.966-.248,6.438.355,1.328,1.849,3.273,3.294,5.154,2.694,3.509,6.048,7.875,6.048,13.417s-3.353,9.908-6.048,13.417c-1.445,1.881-2.939,3.827-3.294,5.155-.394,1.472-.067,4,.248,6.438.586,4.539,1.251,9.682-1.438,14.33-2.722,4.7-7.759,6.791-11.806,8.468-2.241.929-4.559,1.89-5.589,2.918s-1.99,3.347-2.919,5.588c-1.677,4.047-3.764,9.083-8.468,11.8-4.647,2.689-9.791,2.024-14.329,1.437-2.442-.315-4.966-.641-6.438-.248-1.327.355-3.273,1.849-5.154,3.294-3.507,2.695-7.873,6.048-13.416,6.048Z" transform="translate(-61 0)" fill="#ffd15c"/><path d="M269.417,151.252c1.881-1.445,3.826-2.939,5.154-3.294,1.472-.393,4-.067,6.438.248,4.538.587,9.682,1.252,14.329-1.437,4.7-2.722,6.791-7.758,8.468-11.8.929-2.241,1.889-4.559,2.919-5.588s3.347-1.99,5.589-2.919c4.047-1.677,9.084-3.764,11.806-8.468,2.689-4.647,2.024-9.791,1.438-14.33-.315-2.441-.642-4.966-.248-6.438.355-1.328,1.849-3.273,3.294-5.155,2.694-3.509,6.047-7.875,6.047-13.417S331.3,68.742,328.6,65.233c-1.445-1.881-2.939-3.826-3.294-5.154-.394-1.471-.067-4,.248-6.438.586-4.538,1.251-9.682-1.438-14.329-2.722-4.7-7.758-6.791-11.8-8.468-2.241-.929-4.559-1.889-5.589-2.919s-1.99-3.347-2.919-5.589c-1.677-4.047-3.764-9.083-8.468-11.806-4.647-2.689-9.791-2.024-14.329-1.438-2.442.315-4.967.642-6.438.248-1.328-.355-3.273-1.849-5.155-3.294C265.908,3.353,261.542,0,256,0V157.3c5.542,0,9.908-3.354,13.417-6.048Z" transform="translate(-177.35 0)" fill="#f8b64c"/><path d="M48.281,0A48.63,48.63,0,1,1,0,48.628,48.456,48.456,0,0,1,48.281,0Z" transform="translate(30.172 30.055)" fill="#f8b64c"/><path d="M304.4,123.4A48.4,48.4,0,0,0,256,75v96.8A48.4,48.4,0,0,0,304.4,123.4Z" transform="translate(-177.35 -44.75)" fill="#ffd15c"/></g></g></g><text transform="translate(995 1327)" fill="#d63946" font-size="70" font-family="Roboto-ExtraBold, Roboto" font-weight="800"><tspan x="0" y="0">G</tspan></text></g></svg>
