<svg xmlns="http://www.w3.org/2000/svg" width="157.3" height="215.132" viewBox="0 0 157.3 215.132"><g transform="translate(-992.17 -973.869)"><path d="M233.28,159.883H159.467a6.3,6.3,0,0,0-6.3,6.3V301.532a6.3,6.3,0,0,0,9.21,5.592l34-17.679,34,17.679a6.3,6.3,0,0,0,9.21-5.592V166.186a6.3,6.3,0,0,0-6.3-6.3Z" transform="translate(874.822 881.165)" fill="#77b3b5"/><path d="M292.907,159.883H256V289.445l34,17.679a6.3,6.3,0,0,0,9.21-5.592V166.186A6.3,6.3,0,0,0,292.907,159.883Z" transform="translate(815.197 881.165)" fill="#0b8489"/><g transform="translate(992.17 973.869)"><g transform="translate(0 0)"><path d="M139.65,157.3c-5.542,0-9.908-3.354-13.417-6.048-1.882-1.445-3.827-2.939-5.155-3.294-1.473-.394-4-.068-6.439.248-4.538.586-9.682,1.251-14.329-1.438-4.7-2.722-6.791-7.759-8.468-11.806-.929-2.242-1.889-4.56-2.919-5.589s-3.347-1.99-5.589-2.918c-4.047-1.677-9.083-3.764-11.8-8.468-2.688-4.647-2.024-9.791-1.437-14.329.315-2.442.642-4.967.248-6.438-.355-1.328-1.849-3.273-3.294-5.154C64.354,88.558,61,84.192,61,78.65s3.353-9.908,6.048-13.417c1.445-1.881,2.939-3.827,3.294-5.155.394-1.472.067-4-.248-6.438-.586-4.539-1.251-9.682,1.438-14.33,2.722-4.7,7.759-6.791,11.806-8.468,2.241-.929,4.559-1.89,5.589-2.919s1.99-3.347,2.919-5.588c1.677-4.047,3.764-9.083,8.468-11.8,4.647-2.689,9.791-2.024,14.329-1.437,2.442.315,4.966.641,6.438.248,1.327-.355,3.273-1.849,5.154-3.294C129.742,3.353,134.108,0,139.65,0s9.908,3.353,13.417,6.048c1.882,1.445,3.827,2.939,5.155,3.294,1.471.394,4,.067,6.438-.248,4.538-.586,9.682-1.251,14.329,1.438,4.7,2.722,6.791,7.759,8.468,11.806.929,2.242,1.889,4.56,2.919,5.589s3.347,1.99,5.589,2.919c4.047,1.677,9.083,3.764,11.8,8.468,2.689,4.647,2.024,9.791,1.437,14.329-.315,2.442-.642,4.966-.248,6.438.355,1.328,1.849,3.273,3.294,5.154,2.694,3.509,6.048,7.875,6.048,13.417s-3.353,9.908-6.048,13.417c-1.445,1.881-2.939,3.827-3.294,5.155-.394,1.472-.067,4,.248,6.438.586,4.539,1.251,9.682-1.438,14.33-2.722,4.7-7.759,6.791-11.806,8.468-2.241.929-4.559,1.89-5.589,2.918s-1.99,3.347-2.919,5.588c-1.677,4.047-3.764,9.083-8.468,11.8-4.647,2.689-9.791,2.024-14.329,1.437-2.442-.315-4.966-.641-6.438-.248-1.327.355-3.273,1.849-5.154,3.294-3.507,2.695-7.873,6.048-13.416,6.048Z" transform="translate(-61 0)" fill="#fafafa"/><path d="M269.417,151.252c1.881-1.445,3.826-2.939,5.154-3.294,1.472-.393,4-.067,6.438.248,4.538.587,9.682,1.252,14.329-1.437,4.7-2.722,6.791-7.758,8.468-11.8.929-2.241,1.889-4.559,2.919-5.588s3.347-1.99,5.589-2.919c4.047-1.677,9.084-3.764,11.806-8.468,2.689-4.647,2.024-9.791,1.438-14.33-.315-2.441-.642-4.966-.248-6.438.355-1.328,1.849-3.273,3.294-5.155,2.694-3.509,6.047-7.875,6.047-13.417S331.3,68.742,328.6,65.233c-1.445-1.881-2.939-3.826-3.294-5.154-.394-1.471-.067-4,.248-6.438.586-4.538,1.251-9.682-1.438-14.329-2.722-4.7-7.758-6.791-11.8-8.468-2.241-.929-4.559-1.889-5.589-2.919s-1.99-3.347-2.919-5.589c-1.677-4.047-3.764-9.083-8.468-11.806-4.647-2.689-9.791-2.024-14.329-1.438-2.442.315-4.967.642-6.438.248-1.328-.355-3.273-1.849-5.155-3.294C265.908,3.353,261.542,0,256,0V157.3c5.542,0,9.908-3.354,13.417-6.048Z" transform="translate(-177.35 0)" fill="#e5e4e2"/><path d="M48.281,0A48.63,48.63,0,1,1,0,48.628,48.456,48.456,0,0,1,48.281,0Z" transform="translate(30.172 30.055)" fill="#e5e4e2"/><path d="M304.4,123.4A48.4,48.4,0,0,0,256,75v96.8A48.4,48.4,0,0,0,304.4,123.4Z" transform="translate(-177.35 -44.75)" fill="#fafafa"/></g></g><path d="M48.953,40.115a30.307,30.307,0,0,1-7.259,11.308,37.994,37.994,0,0,1-14.186,8.4,4.34,4.34,0,0,1-1.379.243h-.052a4.4,4.4,0,0,1-.846-.083,4.583,4.583,0,0,1-.582-.159,37.992,37.992,0,0,1-14.2-8.4A30.249,30.249,0,0,1,3.191,40.123C.259,32.167.426,23.4.56,16.359l0-.108c.027-.582.044-1.193.054-1.867a6.367,6.367,0,0,1,6-6.237c6.907-.385,12.25-2.638,16.815-7.088l.04-.037a3.848,3.848,0,0,1,5.224,0l.039.037c4.566,4.45,9.909,6.7,16.816,7.088a6.367,6.367,0,0,1,6,6.237c.01.679.027,1.289.054,1.867V16.3C51.73,23.354,51.9,32.136,48.953,40.115Zm0,0" transform="translate(1044.744 1022.483)" fill="#0b8489" opacity="0.5"/><path d="M241.772,40.118a30.307,30.307,0,0,1-7.259,11.308,37.994,37.994,0,0,1-14.186,8.4,4.34,4.34,0,0,1-1.379.243V0a3.854,3.854,0,0,1,2.561,1.022l.039.037c4.566,4.45,9.909,6.7,16.816,7.088a6.367,6.367,0,0,1,6,6.237c.01.679.027,1.289.054,1.867V16.3C244.549,23.357,244.715,32.139,241.772,40.118Zm0,0" transform="translate(851.924 1022.48)" fill="#0b8489"/></g></svg>