<svg xmlns="http://www.w3.org/2000/svg" width="159.459" height="215.464" viewBox="0 0 159.459 215.464"><g transform="translate(-88.311 -907)"><g transform="translate(88.188 907.332)"><path d="M233.28,159.883H159.467a6.3,6.3,0,0,0-6.3,6.3V301.532a6.3,6.3,0,0,0,9.21,5.592l34-17.679,34,17.679a6.3,6.3,0,0,0,9.21-5.592V166.186a6.3,6.3,0,0,0-6.3-6.3Z" transform="translate(-116.644 -92.704)" fill="#eb626e"/><path d="M292.907,159.883H256V289.445l34,17.679a6.3,6.3,0,0,0,9.21-5.592V166.186A6.3,6.3,0,0,0,292.907,159.883Z" transform="translate(-176.271 -92.704)" fill="#d63946"/><path d="M79.729,0c44.033,0,79.729,35.312,79.729,78.87s-35.7,78.87-79.729,78.87S0,122.429,0,78.87,35.7,0,79.729,0Z" transform="translate(0.123 -0.332)" fill="#fafafa"/><path d="M335.729,78.87C335.729,35.381,299.963,0,256,0V157.741C299.963,157.741,335.729,122.36,335.729,78.87Z" transform="translate(-176.271 0)" fill="#e5e4e2"/><path d="M55.752,0C86.543,0,111.5,24.7,111.5,55.173s-24.961,55.173-55.752,55.173S0,85.645,0,55.173,24.961,0,55.752,0Z" transform="translate(23.978 23.697)" fill="#e5e4e2"/><path d="M311.752,111.571c0-30.422-25.01-55.173-55.752-55.173V166.744c30.742,0,55.752-24.751,55.752-55.173Z" transform="translate(-176.271 -32.701)" fill="#fafafa"/></g><text transform="translate(148.313 1011)" fill="#d63946" font-size="70" font-family="Rockwell-Bold, Rockwell" font-weight="700"><tspan x="0" y="0">3</tspan></text></g></svg>